<?xml version="1.0" encoding="UTF-8" standalone="no"?>
<svg
   xmlns:dc="http://purl.org/dc/elements/1.1/"
   xmlns:cc="http://creativecommons.org/ns#"
   xmlns:rdf="http://www.w3.org/1999/02/22-rdf-syntax-ns#"
   xmlns:svg="http://www.w3.org/2000/svg"
   xmlns="http://www.w3.org/2000/svg"
   xmlns:sodipodi="http://sodipodi.sourceforge.net/DTD/sodipodi-0.dtd"
   xmlns:inkscape="http://www.inkscape.org/namespaces/inkscape"
   height="496pt"
   viewBox="0 0 496 496"
   width="496pt"
   version="1.1"
   id="svg1711"
   sodipodi:docname="sell_1form.svg"
   inkscape:version="0.92.4 (5da689c313, 2019-01-14)">
  <metadata
     id="metadata1717">
    <rdf:RDF>
      <cc:Work
         rdf:about="">
        <dc:format>image/svg+xml</dc:format>
        <dc:type
           rdf:resource="http://purl.org/dc/dcmitype/StillImage" />
        <dc:title></dc:title>
      </cc:Work>
    </rdf:RDF>
  </metadata>
  <defs
     id="defs1715" />
  <sodipodi:namedview
     pagecolor="#ffffff"
     bordercolor="#666666"
     borderopacity="1"
     objecttolerance="10"
     gridtolerance="10"
     guidetolerance="10"
     inkscape:pageopacity="0"
     inkscape:pageshadow="2"
     inkscape:window-width="1920"
     inkscape:window-height="1001"
     id="namedview1713"
     showgrid="false"
     inkscape:zoom="1.2217742"
     inkscape:cx="196.0264"
     inkscape:cy="330.66667"
     inkscape:window-x="-9"
     inkscape:window-y="-9"
     inkscape:window-maximized="1"
     inkscape:current-layer="svg1711" />
  <path
     d="m400 376v64h-104v-37.359375c3.039062-2.640625 5.28125-6.242187 6.398438-10.320313l8.5625-31.28125c6.960937.882813 13.757812 2.480469 20.480468 4.722657l13.519532 4.476562c11.4375 3.839844 23.359374 5.761719 35.4375 5.761719 6.480468 0 12.960937-.558594 19.28125-1.761719zm0 0"
     fill="#ccd1d9"
     id="path1655" />
  <path
     d="m349.519531 292.71875c2.878907 2.882812 4.640625 6.882812 4.640625 11.28125 0 8.800781-7.121094 16-16 16h-16.160156l8.640625-32h7.519531c4.398438 0 8.398438 1.761719 11.359375 4.71875zm0 0"
     fill="#ccd1d9"
     id="path1657" />
  <path
     d="m284 288.480469-8.480469 31.519531h-25.359375c-8.800781 0-16.800781 3.601562-22.640625 9.359375l-1.359375-1.359375 30.640625-30.640625c6-6 14.160157-9.359375 22.640625-9.359375h2.71875zm0 0"
     fill="#e6e9ed"
     id="path1659" />
  <path
     d="m294.640625 249.199219-10.640625 39.28125-1.839844-.480469h-2.71875c-8.480468 0-16.640625 3.359375-22.640625 9.359375l-30.640625 30.640625-10.960937 11.039062c-3.199219 3.199219-7.519531 4.960938-12 4.960938-4.71875 0-8.960938-1.921875-12.078125-4.960938-3.042969-3.039062-4.960938-7.359374-4.960938-12 0-4.480468 1.839844-8.800781 5.039063-12l57.601562-57.679687c6-6 14.160157-9.359375 22.640625-9.359375h18.71875zm0 0"
     fill="#f0d0b4"
     id="path1661" />
  <path
     d="m296 240v-184h-184v-48h288v264l-.558594.800781-29.203125-19.441406c-5.199219-3.519531-11.4375-5.359375-17.757812-5.359375h-11.039063l15.4375-57.039062 8.5625-31.839844 12-44.402344c.480469-1.839844.71875-3.679688.71875-5.519531 0-11.679688-9.441406-21.199219-21.121094-21.199219h-2.640624c-9.519532 0-17.917969 6.398438-20.398438 15.679688l-11.121094 41.28125-8.640625 31.757812-17.199219 63.601562zm0 0"
     fill="#ccd1d9"
     id="path1663" />
  <path
     d="m296 240 1.039062.320312-2.398437 8.878907-4.480469-1.199219h-18.71875c-8.480468 0-16.640625 3.359375-22.640625 9.359375l-57.601562 57.679687c-3.199219 3.199219-5.039063 7.519532-5.039063 12 0 4.640626 1.917969 8.960938 4.960938 12 3.117187 3.039063 7.359375 4.960938 12.078125 4.960938 4.480469 0 8.800781-1.761719 12-4.960938l10.960937-11.039062 1.359375 1.359375c-5.757812 5.839844-9.359375 13.839844-9.359375 22.640625 0 4.398438 3.601563 8 8 8h38.558594l-5.757812 21.28125c-.480469 1.839844-.800782 3.679688-.800782 5.519531 0 11.679688 9.519532 21.199219 21.199219 21.199219h2.640625c5.28125 0 10.238281-2 14-5.359375v85.359375h-288v-432h288zm0 0"
     fill="#e6e9ed"
     id="path1665" />
  <path
     d="m40 88h192v64h-192zm0 0"
     fill="#b4dd7f"
     id="path1667" />
  <path
     d="m96 352h24v80h-80v-80zm0 0"
     fill="#ff826e"
     id="path1669" />
  <path
     d="m96 216h24v80h-80v-80zm0 0"
     fill="#ff826e"
     id="path1671" />
  <path
     d="m378.160156 109.199219c0 1.839843-.238281 3.679687-.71875 5.519531l-12 44.402344-42.5625-14.160156 11.121094-41.28125c2.480469-9.28125 10.878906-15.679688 20.398438-15.679688h2.640624c11.679688 0 21.121094 9.519531 21.121094 21.199219zm0 0"
     fill="#ffeaa7"
     id="path1673" />
  <path
     d="m365.441406 159.121094-8.5625 31.839844-42.640625-14.242188 8.640625-31.757812zm0 0"
     fill="#e6e9ed"
     id="path1675" />
  <path
     d="m296 402.640625c-3.761719 3.359375-8.71875 5.359375-14 5.359375h-2.640625c-11.679687 0-21.199219-9.519531-21.199219-21.199219 0-1.839843.320313-3.679687.800782-5.519531l5.757812-21.28125h31.28125c5.039062 0 10 .320312 14.960938 1.039062l-8.5625 31.28125c-1.117188 4.078126-3.359376 7.679688-6.398438 10.320313zm0 0"
     fill="#fcd770"
     id="path1677" />
  <path
     d="m341.441406 248-19.441406 72h-46.480469l8.480469-31.519531 10.640625-39.28125 2.398437-8.878907 17.199219-63.601562 42.640625 14.242188zm0 0"
     fill="#fcd770"
     id="path1679" />
  <path
     d="m310.960938 361.039062c-4.960938-.71875-9.921876-1.039062-14.960938-1.039062h-69.839844c-4.398437 0-8-3.601562-8-8 0-8.800781 3.601563-16.800781 9.359375-22.640625 5.839844-5.757813 13.839844-9.359375 22.640625-9.359375h88c8.878906 0 16-7.199219 16-16 0-4.398438-1.761718-8.398438-4.640625-11.28125-2.960937-2.957031-6.960937-4.71875-11.359375-4.71875h-7.519531l10.800781-40h11.039063c6.320312 0 12.558593 1.839844 17.757812 5.359375l29.203125 19.441406 26.71875 17.839844c5.199219 3.519531 11.441406 5.359375 17.761719 5.359375h52.078125v64h-24c-9.199219 0-18.320312 1.121094-27.199219 3.359375l-37.199219 9.28125c-2.640624.640625-5.28125 1.199219-7.921874 1.597656-6.320313 1.203125-12.800782 1.761719-19.28125 1.761719-12.078126 0-24-1.921875-35.4375-5.761719l-13.519532-4.476562c-6.722656-2.242188-13.519531-3.839844-20.480468-4.722657zm0 0"
     fill="#f0d0b4"
     id="path1681" />
  <path
     d="m352.503906 256c4.753906 0 9.351563 1.390625 13.3125 4.03125l55.871094 37.25c6.601562 4.390625 14.273438 6.71875 22.191406 6.71875h52.121094v-16h-52.113281c-4.75 0-9.359375-1.390625-13.320313-4.03125l-22.566406-15.046875v-268.921875h-304v48h-104v448h304v-48h104v-67.304688c.503906-.121093 1.023438-.160156 1.527344-.289062l37.207031-9.300781c8.265625-2.058594 16.761719-3.105469 25.265625-3.105469h24v-16h-24c-9.808594 0-19.617188 1.207031-29.136719 3.585938l-37.214843 9.300781c-19.136719 4.785156-39.480469 4-58.183594-2.230469l-13.480469-4.496094c-12.265625-4.089844-25.046875-6.160156-37.984375-6.160156h-69.808594c0-13.230469 10.769532-24 24-24h88c13.234375 0 24-10.769531 24-24 0-12.273438-9.296875-22.304688-21.191406-23.71875l6.566406-24.28125zm-10.105468 121.832031c12.273437 4.097657 25.058593 6.167969 37.992187 6.167969 3.882813 0 7.753906-.335938 11.609375-.710938v48.710938h-88v-26.167969c2.808594-3.238281 4.984375-7.070312 6.152344-11.40625l6.550781-24.265625c4.121094.839844 8.207031 1.839844 12.21875 3.183594zm-41.726563-9.648437-5.960937 22.0625c-1.550782 5.746094-6.789063 9.753906-12.734376 9.753906h-2.59375c-7.269531 0-13.183593-5.910156-13.183593-13.183594 0-1.167968.152343-2.320312.457031-3.441406l4.152344-15.375h25.191406c1.558594 0 3.113281.121094 4.671875.183594zm-46.441406-.183594-3.023438 11.191406c-.671875 2.480469-1.007812 5.039063-1.007812 7.625 0 10.816406 5.984375 20.167969 14.746093 25.207032l-2.511718 10.03125 15.519531 3.882812 2.488281-9.9375h1.535156c2.0625 0 4.0625-.289062 6.023438-.703125v64.703125h-272v-416h104v-48h272v242.257812l-17.304688-11.539062c-6.597656-4.390625-14.269531-6.71875-22.191406-6.71875h-.617187l33.296875-123.191406c.671875-2.480469 1.007812-5.039063 1.007812-7.625 0-16.09375-13.09375-29.183594-29.183594-29.183594h-2.59375c-13.15625 0-24.742187 8.871094-28.175781 21.574219l-22.238281 82.289062v-135.863281h-168v16h152v176h-16.542969c-8.714843 0-16.914062 2.886719-23.769531 8h-79.6875v16h62.878906l-16 16h-46.878906v16h30.886719l-13.367188 13.367188c-4.71875 4.710937-7.320312 10.984374-7.320312 17.664062 0 13.769531 11.199219 24.96875 24.976562 24.96875 2.464844 0 4.839844-.472656 7.144531-1.160156-.007812.390625-.121093.761718-.121093 1.160156 0 8.824219 7.175781 16 16 16zm61.625-56h-29.910157l33.78125-124.992188 27.441407 9.144532zm-61.375-48.976562c4.527343-4.527344 10.558593-7.023438 16.976562-7.023438h13.046875l-6.527344 24.144531c-10.128906.367188-19.609374 4.367188-26.808593 11.566407l-41.65625 41.65625c-1.671875 1.671874-3.984375 2.632812-6.34375 2.632812-4.953125 0-8.976563-4.023438-8.976563-8.96875 0-2.398438.9375-4.648438 2.632813-6.34375zm8 40c3.078125-3.078126 6.871093-5.128907 10.984375-6.183594l-4.097656 15.160156h-15.855469zm107.253906-190.390626-9.796875 36.246094-27.441406-9.144531 9.183594-33.980469c1.558593-5.746094 6.792968-9.753906 12.734374-9.753906h2.59375c7.273438 0 13.183594 5.910156 13.183594 13.183594 0 1.167968-.152344 2.320312-.457031 3.449218zm-41.414063 42.574219 27.441407 9.144531-4.417969 16.328126-27.441406-9.144532zm9.871094 140.792969c4.410156 0 8 3.59375 8 8s-3.589844 8-8 8h-5.765625l4.328125-16zm0 0"
     id="path1683" />
  <path
     d="m240 80h-208v80h208zm-16 64h-176v-48h176zm0 0"
     id="path1685" />
  <path
     d="m64 112h16v16h-16zm0 0"
     id="path1687" />
  <path
     d="m96 112h16v16h-16zm0 0"
     id="path1689" />
  <path
     d="m128 112h16v16h-16zm0 0"
     id="path1691" />
  <path
     d="m160 112h16v16h-16zm0 0"
     id="path1693" />
  <path
     d="m192 112h16v16h-16zm0 0"
     id="path1695" />
  <path
     d="m128 256h-16v32h-64v-64h48v-16h-64v96h96zm0 0"
     id="path1697" />
  <path
     d="m154.34375 178.34375-74.34375 74.34375-10.34375-10.34375-11.3125 11.3125 21.65625 21.65625 85.65625-85.65625zm0 0"
     id="path1699" />
  <path
     d="m112 424h-64v-64h48v-16h-64v96h96v-48h-16zm0 0"
     id="path1701" />
  <path
     d="m69.65625 378.34375-11.3125 11.3125 21.65625 21.65625 85.65625-85.65625-11.3125-11.3125-74.34375 74.34375zm0 0"
     id="path1703" />
  <path
     d="m256 440h16v16h-16zm0 0"
     id="path1705" />
  <path
     d="m152 440h88v16h-88zm0 0"
     id="path1707" />
  <path
     d="m168 216h104v16h-104zm0 0"
     id="path1709" />
  <path
     style="fill:#ffb52f;fill-opacity:0.79104477;stroke-width:0.81848186"
     d="M 22.09901,362.66931 V 85.613201 h 69.161716 69.161714 v -5.729373 -5.729373 h 10.23103 10.23102 v 5.729373 5.729373 h 101.49175 101.49175 v 117.042909 117.0429 l -13.70957,0.0142 c -8.86427,0.009 -15.70915,0.43782 -19.36728,1.2128 -5.79726,1.22814 -14.32252,4.81056 -18.46139,7.7577 -2.27648,1.62096 -3.43749,1.65552 -55.60461,1.65552 h -53.2796 v 11.04951 11.0495 h 41.52567 41.52568 l -10.20646,10.23103 -10.20646,10.23102 h -31.31921 -31.31922 v 11.0495 11.04951 h 20.15373 20.15373 l -10.27191,10.60208 c -13.67697,14.11659 -15.69583,18.01435 -15.70542,30.32201 -0.007,7.97405 0.18185,8.99209 2.60683,14.11124 3.38263,7.14079 9.28296,13.04113 16.42375,16.42376 5.12979,2.43001 6.12917,2.61352 14.23284,2.61352 h 8.71567 l 0.47696,3.48116 c 0.96654,7.05451 5.8643,13.37835 12.78478,16.50736 3.38776,1.53172 5.34078,1.66674 24.34984,1.68327 16.03978,0.0139 20.66666,0.24832 20.66666,1.04683 0,0.56588 -0.91576,4.34112 -2.03504,8.38944 -2.63751,9.53969 -3.26503,16.0133 -2.13868,22.06299 1.06724,5.73226 4.58436,13.51779 8.04227,17.80241 2.52009,3.12259 8.5181,8.45575 10.10465,8.9846 0.60294,0.20098 0.35104,2.40674 -0.77832,6.81526 -0.91839,3.58496 -1.40848,6.7465 -1.0891,7.02564 0.31938,0.27914 5.09022,1.61984 10.60186,2.97933 l 10.02118,2.47179 0.87881,-3.38081 c 0.48335,-1.85945 1.22516,-4.71979 1.64848,-6.35632 0.83581,-3.2312 2.19738,-3.95108 7.50957,-3.97043 l 3.06931,-0.0112 v 42.56106 42.56105 H 202.9835 22.09901 Z M 320.0264,597.5736 v -11.04951 h -58.93069 -58.93069 v 11.04951 11.0495 h 58.93069 58.93069 z m 43.19868,-0.20462 0.22837,-10.84489 H 352.3802 341.30693 v 11.07327 11.07326 l 10.84489,-0.22838 10.84488,-0.22838 z M 171.06271,555.01254 v -32.33003 h -5.32014 -5.32013 v -13.70554 -13.70553 l 30.47831,-30.48643 30.47831,-30.48644 -7.7549,-7.78729 -7.75491,-7.78728 -24.97911,24.96935 -24.9791,24.96936 h -13.70469 -13.7047 v -5.32014 -5.32013 H 85.531353 42.561056 v 64.66007 64.66006 h 64.250824 64.25083 z m 0,-181.70297 v -32.33003 h -5.32014 -5.32013 V 327.274 313.56847 l 30.47786,-30.48598 30.47786,-30.48599 -7.33868,-7.37284 c -4.03628,-4.05506 -7.71694,-7.37283 -8.17926,-7.37283 -0.46232,0 -12.06971,11.23366 -25.79421,24.96369 l -24.95363,24.9637 h -13.30537 -13.30536 v -5.32013 -5.32014 H 85.531353 42.561056 v 64.25083 64.25082 h 64.250824 64.25083 z m 192.16237,-74.68647 0.22837,-10.84488 H 293.4495 223.44554 v 11.0541 11.0541 l 69.77558,-0.20921 69.77558,-0.20922 z M 320.0264,160.09505 v -54.0198 H 181.29373 42.561056 v 53.47414 c 0,29.41079 0.245545,53.7197 0.545655,54.0198 0.300109,0.30012 62.729809,0.54566 138.732679,0.54566 H 320.0264 Z"
     id="path2802"
     inkscape:connector-curvature="0"
     transform="scale(0.75000002)" />
  <path
     style="fill:#ffb52f;fill-opacity:0.79104477;stroke-width:0.81848186"
     d="m 512.77888,337.19933 c -18.54603,-12.63459 -26.23515,-16.18002 -37.32574,-17.21078 -3.10451,-0.28853 -5.64456,-0.6039 -5.64456,-0.70081 0,-0.0969 9.95354,-36.96779 22.11899,-81.93527 12.16544,-44.96749 22.43111,-83.96897 22.81259,-86.66996 2.31602,-16.39806 -6.37343,-32.69405 -21.34701,-40.03365 -20.9355,-10.26197 -46.73581,-2.03208 -55.92987,17.84073 -1.72844,3.73601 -7.78263,24.74585 -16.89057,58.61536 l -14.19647,52.79208 -0.20829,-88.19142 -0.2083,-88.191419 H 293.42208 180.88449 v 5.320132 5.320132 H 170.65347 160.42244 V 47.963036 21.771617 H 341.30693 522.19142 V 182.6033 c 0,88.45743 -0.0921,160.80871 -0.20462,160.78063 -0.11254,-0.0281 -4.25611,-2.81115 -9.20792,-6.1846 z"
     id="path2804"
     inkscape:connector-curvature="0"
     transform="scale(0.75000002)" />
  <path
     style="fill:#ffffff;fill-opacity:0.79104477;stroke-width:0.81848186"
     d="m 405.967,558.39685 c 0,-15.82154 0.14537,-17.67289 1.52644,-19.43895 3.37639,-4.31759 5.86603,-10.92339 10.28738,-27.29567 2.54857,-9.43739 4.75964,-17.28476 4.91349,-17.43861 0.5179,-0.5179 10.58989,2.33939 26.65222,7.56089 25.68847,8.35073 38.82148,10.56772 59.95493,10.12101 l 12.89222,-0.27252 -10e-4,32.12542 -10e-4,32.12541 H 464.07921 405.967 Z"
     id="path2806"
     inkscape:connector-curvature="0"
     transform="scale(0.75000002)" />
  <path
     style="fill:#001232;fill-opacity:0;stroke-width:0.81848186"
     d="m 406.12899,558.49109 0.30267,-17.39274 3.38123,-6.13861 c 2.47817,-4.49913 4.6255,-10.61989 8.04007,-22.9175 2.56237,-9.22838 4.80977,-17.02993 4.99423,-17.33679 0.41302,-0.68707 7.54576,1.26948 27.72707,7.60572 24.3443,7.64327 31.81311,8.97158 53.40594,9.49811 l 18.21122,0.44407 v 31.81524 31.81524 h -58.18255 -58.18255 z"
     id="path2808"
     inkscape:connector-curvature="0"
     transform="scale(0.75000002)" />
  <path
     style="fill:#ffffff;fill-opacity:1;stroke-width:0.81848186"
     d="m 406.53993,558.31489 v -17.56893 l 2.42628,-3.82585 c 2.6861,-4.23553 5.05337,-10.97922 9.45128,-26.92407 4.77623,-17.31642 4.04316,-15.88726 7.72481,-15.06004 1.74241,0.39149 11.58032,3.34623 21.86203,6.56609 27.5524,8.62842 33.73143,9.77124 55.73032,10.30741 l 18.21122,0.44385 v 31.81524 31.81524 H 464.2429 406.53993 Z"
     id="path3359"
     inkscape:connector-curvature="0"
     transform="scale(0.75000002)" />
  <path
     style="fill:#ffffff;fill-opacity:1;stroke-width:0.81848186"
     d="m 64.414521,341.38878 v -42.15182 h 31.920793 31.920796 v -5.32013 -5.32013 h 13.29858 13.29858 l -23.93067,23.93066 -23.93066,23.93067 -6.9717,-6.93549 -6.971711,-6.93549 -7.770791,7.77079 -7.77079,7.77079 14.736182,14.71912 14.73618,14.71912 26.18955,-26.17996 26.18956,-26.17996 v 12.8863 12.88629 h -5.32014 -5.32013 v 21.28053 21.28052 H 106.56634 64.414521 Z"
     id="path3361"
     inkscape:connector-curvature="0"
     transform="scale(0.75000002)" />
  <path
     style="fill:#ffffff;fill-opacity:1;stroke-width:0.81848186"
     d="m 64.414521,522.68251 v -42.56106 h 31.920793 31.920796 v -5.32013 -5.32013 h 13.29512 13.29513 l -24.12933,24.13973 -24.12933,24.13973 -6.983954,-6.9516 -6.983958,-6.9516 -7.747047,7.7794 -7.747047,7.77939 14.713731,14.73078 14.713725,14.73079 26.40264,-26.39326 26.40263,-26.39326 v 13.29561 13.29561 h -5.32014 -5.32013 v 21.28053 21.28052 H 106.56634 64.414521 Z"
     id="path3363"
     inkscape:connector-curvature="0"
     transform="scale(0.75000002)" />
  <path
     style="fill:#ffffff;fill-opacity:1;stroke-width:0.81848186"
     d="m 64.414521,160.09505 v -31.92079 h 117.042909 117.0429 v 31.92079 31.92079 H 181.45743 64.414521 Z m 42.561059,-0.40924 V 148.6363 H 95.926073 84.876568 v 11.04951 11.0495 h 11.049505 11.049507 z m 42.56105,-0.0238 v -11.07326 l -10.84488,0.22838 -10.84489,0.22837 -0.22837,10.84489 -0.22838,10.84488 h 11.07326 11.07326 z m 42.56106,0 v -11.07326 l -10.84488,0.22838 -10.84489,0.22837 -0.22838,10.84489 -0.22837,10.84488 h 11.07325 11.07327 z m 42.56106,0.0238 V 148.6363 h -10.64027 -10.64026 v 11.04951 11.0495 h 10.64026 10.64027 z m 43.19867,0.20462 -0.22838,-10.84489 -10.84488,-0.22837 -10.84489,-0.22838 v 11.07326 11.07326 h 11.07327 11.07326 z"
     id="path3365"
     inkscape:connector-curvature="0"
     transform="scale(0.75000002)" />
  <path
     style="fill:#ffb52f;fill-opacity:1;stroke-width:0.81848186"
     d="m 444.1901,414.65655 c 0,-1.09068 4.91861,-19.11927 5.32781,-19.52848 0.93668,-0.93668 6.67547,1.10837 8.64934,3.08224 4.52746,4.52745 3.60709,12.26281 -1.85529,15.59313 -2.87945,1.75555 -12.12186,2.40602 -12.12186,0.85311 z"
     id="path3367"
     inkscape:connector-curvature="0"
     transform="scale(0.75000002)" />
  <path
     style="fill:#ffb52f;fill-opacity:1;stroke-width:0.81848186"
     d="m 406.53993,558.31489 v -17.56893 l 2.49057,-3.91622 c 2.51323,-3.95183 5.83599,-13.72139 10.7968,-31.74459 2.25194,-8.18154 2.98216,-9.86202 4.37257,-10.06273 0.91805,-0.13252 7.90923,1.67005 15.53597,4.00569 37.77469,11.5683 40.93279,12.1916 64.8173,12.79269 l 17.39273,0.43771 v 31.81266 31.81266 H 464.2429 406.53993 Z"
     id="path3369"
     inkscape:connector-curvature="0"
     transform="scale(0.75000002)" />
  <path
     style="fill:#ffb52f;fill-opacity:1;stroke-width:0.81848186"
     d="m 346.81414,407.86116 c 4.91862,-4.75637 9.37643,-8.27309 12.07023,-9.52207 2.34919,-1.0892 4.44309,-1.80855 4.6531,-1.59854 0.21001,0.21001 -0.7567,4.50811 -2.14823,9.55134 l -2.53007,9.1695 -9.922,-0.0293 -9.92199,-0.0293 z"
     id="path3371"
     inkscape:connector-curvature="0"
     transform="scale(0.75000002)" />
  <path
     style="fill:#ffb52f;fill-opacity:1;stroke-width:0.81848186"
     d="M 22.671947,362.66931 V 85.613201 H 91.833663 160.99538 V 53.692409 21.771617 H 341.47063 521.94587 V 182.19406 c 0,88.23234 -0.13678,160.42244 -0.30396,160.42244 -0.16719,0 -5.04738,-3.18393 -10.84489,-7.07539 -15.90115,-10.67335 -27.88308,-15.8421 -36.72431,-15.8421 -1.52686,0 -2.98491,-0.33785 -3.24011,-0.75079 -0.25521,-0.41293 5.58729,-23.15649 12.98333,-50.54125 24.44576,-90.51344 30.88389,-115.21527 31.32295,-120.17991 0.96715,-10.93607 -3.26991,-22.06965 -11.54736,-30.34261 -15.85932,-15.8507 -43.039,-15.71646 -59.04711,0.29164 -7.54262,7.54262 -8.10671,9.2121 -28.24697,83.59975 l -9.65641,35.66574 -0.0505,-86.96369 -0.0505,-86.963699 H 293.58944 180.63894 V 74.563696 85.613201 H 282.13069 383.62244 V 202.57207 319.53094 l -16.57426,0.36511 c -18.33375,0.40387 -19.84708,0.72906 -31.71617,6.8152 l -6.13861,3.14771 -52.9967,0.32691 -52.9967,0.3269 v 10.96276 10.96275 h 41.52567 41.52567 l -10.20646,10.23103 -10.20646,10.23102 H 254.51922 223.2 v 11.0495 11.04951 h 20.20823 20.20823 l -8.18108,8.38944 c -15.98661,16.39373 -17.69321,19.51613 -17.79705,32.56153 -0.0656,8.24974 0.0689,8.97494 2.63124,14.1798 3.33538,6.77512 8.79436,12.34611 15.7136,16.03604 4.92129,2.62444 5.89567,2.83753 14.48416,3.16738 7.97315,0.30622 9.20792,0.5398 9.20792,1.74182 0,2.77574 2.55959,8.79949 4.99398,11.75282 1.37108,1.66335 4.21526,4.03679 6.3204,5.27429 l 3.82753,2.25002 21.06747,0.46901 c 11.58711,0.25795 21.22617,0.62771 21.42014,0.82167 0.19397,0.19397 -0.52536,3.98459 -1.59851,8.42362 -3.80137,15.72415 -3.47403,22.01073 1.71433,32.923 2.07828,4.3711 4.20775,7.17103 8.61809,11.33152 5.82482,5.49485 5.85469,5.54502 5.31431,8.92705 -0.29889,1.87063 -0.75262,4.91049 -1.00828,6.75523 l -0.46485,3.35408 10.42823,2.61154 c 5.73552,1.43634 10.51167,2.50523 10.61366,2.3753 0.10199,-0.12994 0.84623,-2.72274 1.65386,-5.76178 0.80764,-3.03904 1.91122,-5.89301 2.45241,-6.34216 0.5412,-0.44915 2.69634,-1.05134 4.78921,-1.3382 l 3.80521,-0.52156 v 42.67231 42.6723 H 203.14719 22.671947 Z M 320.59934,597.5736 v -11.04951 h -59.33993 -59.33994 v 11.04951 11.0495 h 59.33994 59.33993 z m 42.56106,6.2621 c 0,-2.63307 0.2382,-7.60535 0.52934,-11.0495 l 0.52934,-6.26211 h -11.57884 -11.57885 v 11.04951 11.0495 h 11.0495 11.04951 z M 171.63564,555.01254 v -32.33003 h -5.32013 -5.32013 v -13.70554 -13.70553 l 30.48377,-30.49191 30.48379,-30.49191 -7.97568,-7.97568 -7.97567,-7.97567 -25.17304,25.16322 -25.17305,25.16322 h -13.29545 -13.29546 v -5.32014 -5.32013 H 85.69505 42.315512 v 64.66007 64.66006 h 64.660068 64.66006 z m 0,-181.70297 v -32.33003 h -5.32013 -5.32013 V 327.274 313.56847 l 30.48845,-30.52721 30.48845,-30.52721 -7.52753,-7.33161 c -4.14014,-4.03239 -7.98247,-7.33161 -8.53849,-7.33161 -0.55602,0 -12.28273,11.23366 -26.05935,24.96369 l -25.0484,24.9637 h -12.86196 -12.86196 v -5.32013 -5.32014 H 85.69505 42.315512 v 64.25083 64.25082 h 64.660068 64.66006 z M 363.1604,305.08983 c 0,-2.63307 0.2382,-7.60535 0.52934,-11.04951 l 0.52934,-6.2621 H 293.70954 223.2 v 11.0495 11.04951 h 69.9802 69.9802 z M 320.59934,160.09505 v -54.0198 H 181.45743 42.315512 v 53.47414 c 0,29.41079 0.245544,53.7197 0.545654,54.0198 0.30011,0.30012 62.913964,0.54566 139.141914,0.54566 h 138.59626 z"
     id="path3916"
     inkscape:connector-curvature="0"
     transform="scale(0.75000002)" />
  <path
     style="fill:#ffb52f;fill-opacity:1;stroke-width:0.81848186"
     d="M 22.671947,362.66931 V 85.613201 H 91.833663 160.99538 V 53.692409 21.771617 H 341.47063 521.94587 V 182.24237 c 0,128.15301 -0.20604,160.34912 -1.0231,159.86685 -0.5627,-0.33214 -4.17559,-2.71018 -8.02863,-5.28453 -16.60991,-11.09767 -26.42973,-15.66974 -36.3992,-16.94736 l -4.8857,-0.62611 0.0851,-2.84541 c 0.0468,-1.56498 8.08176,-32.64964 17.85543,-69.07702 23.21451,-86.52268 25.8524,-96.95652 25.82822,-102.16061 -0.11529,-24.82003 -24.60653,-43.49888 -50.07172,-38.18844 -11.56015,2.41072 -22.95728,11.09813 -27.49194,20.95561 -2.83708,6.16725 -8.62504,26.03034 -21.95626,75.34934 l -8.90892,32.95862 -0.20836,-86.36456 -0.20835,-86.364559 H 293.5857 180.63894 V 74.563696 85.613201 H 282.13069 383.62244 V 202.55303 319.49287 l -16.57426,0.41353 c -18.28921,0.45632 -19.95498,0.81156 -31.71617,6.76387 l -6.13861,3.10674 -52.9967,0.39251 -52.9967,0.39252 v 10.93813 10.93811 h 41.52567 41.52567 l -10.20646,10.23103 -10.20646,10.23102 H 254.51922 223.2 v 11.0495 11.04951 h 20.20823 20.20823 l -8.18108,8.38944 c -16.06879,16.47801 -17.56453,19.24234 -17.60073,32.52836 -0.0216,7.92954 0.22296,9.54461 2.04937,13.53401 2.72153,5.94461 9.96748,13.44532 16.19529,16.76471 4.44096,2.367 5.95246,2.71344 13.81408,3.16619 4.85514,0.27961 8.96922,0.69254 9.14242,0.91762 0.17319,0.22508 0.93157,2.43498 1.68527,4.91089 1.71779,5.64289 5.28095,10.0105 10.70434,13.12105 4.16217,2.38718 4.35502,2.41488 16.89669,2.42666 6.97756,0.007 16.31111,0.25192 20.74123,0.54526 l 8.05476,0.53335 -0.37001,2.53173 c -0.2035,1.39244 -1.22774,6.70494 -2.27606,11.80554 -1.70978,8.31881 -1.80571,9.85907 -0.93152,14.95696 1.56329,9.11635 4.95413,15.51662 12.12416,22.8845 l 6.27287,6.44598 -0.93643,4.6628 c -1.72177,8.57331 -2.26318,7.94729 9.39939,10.86795 5.6847,1.42362 10.42068,2.48209 10.52442,2.35216 0.10372,-0.12994 0.98228,-2.88785 1.95235,-6.1287 0.97006,-3.24085 2.03507,-6.05944 2.36668,-6.26354 0.3316,-0.20409 2.35242,-0.63293 4.4907,-0.95295 l 3.88779,-0.58188 v 42.654 42.65398 H 203.14719 22.671947 Z M 320.59934,597.5736 v -11.04951 h -59.33993 -59.33994 v 11.04951 11.0495 h 59.33994 59.33993 z m 42.56106,7.49207 c 0,-1.95658 0.2393,-6.92886 0.5318,-11.04951 l 0.53181,-7.49207 h -11.58132 -11.5813 v 11.04951 11.0495 h 11.0495 11.04951 z M 171.63564,555.01254 v -32.33003 h -5.32013 -5.32013 v -13.70554 -13.70553 l 30.48377,-30.49191 30.48379,-30.49191 -7.97568,-7.97568 -7.97567,-7.97567 -25.17304,25.16322 -25.17305,25.16322 h -13.29545 -13.29546 v -5.32014 -5.32013 H 85.69505 42.315512 v 64.66007 64.66006 h 64.660068 64.66006 z m 0,-181.70297 v -32.33003 h -5.32013 -5.32013 V 327.274 313.56847 l 30.48845,-30.53953 30.48845,-30.53953 -7.59641,-7.31929 c -4.17803,-4.02562 -7.98813,-7.31929 -8.4669,-7.31929 -0.47878,0 -12.1888,11.23366 -26.02225,24.96369 l -25.15174,24.9637 h -12.8302 -12.83019 v -5.32013 -5.32014 H 85.69505 42.315512 v 64.25083 64.25082 h 64.660068 64.66006 z M 363.1604,306.31979 c 0,-1.95658 0.2393,-6.92885 0.5318,-11.0495 l 0.53181,-7.49207 H 293.712 223.2 v 11.0495 11.04951 h 69.9802 69.9802 z M 320.59934,160.09505 v -54.0198 H 181.45743 42.315512 v 52.72513 c 0,28.99883 0.223564,53.30774 0.496809,54.01981 0.45032,1.17351 13.470754,1.29466 139.141919,1.29466 h 138.6451 z"
     id="path3918"
     inkscape:connector-curvature="0"
     transform="scale(0.75000002)" />
  <path
     style="fill:#ffb52f;fill-opacity:1;stroke-width:0.81848186"
     d="M 406.53993,558.90161 V 541.9194 l 3.28136,-6.54914 c 1.80475,-3.60203 4.53919,-10.78478 6.07654,-15.96168 7.59501,-25.57555 6.89603,-23.73597 9.0188,-23.73597 1.85523,0 5.91782,1.11817 32.77842,9.02184 18.12624,5.3336 25.68185,6.54596 45.83498,7.35461 9.90363,0.39738 18.09868,0.74257 18.21122,0.76709 0.11255,0.0245 0.20462,14.22477 0.20462,31.55613 v 31.51155 H 464.2429 406.53993 Z"
     id="path3920"
     inkscape:connector-curvature="0"
     transform="scale(0.75000002)" />
  <path
     style="fill:#ffb52f;fill-opacity:1;stroke-width:0.81848186"
     d="m 347.70995,407.8405 c 7.12625,-6.86536 13.88246,-11.40805 15.12254,-10.16797 0.26063,0.26064 -0.5744,4.27767 -1.85562,8.92675 l -2.32951,8.45287 -9.40685,0.18814 -9.40685,0.18814 z"
     id="path3922"
     inkscape:connector-curvature="0"
     transform="scale(0.75000002)" />
  <path
     style="fill:#ffb52f;fill-opacity:1;stroke-width:0.81848186"
     d="m 445.29259,414.97053 c -0.66725,-0.29068 -0.22544,-3.09637 1.50814,-9.57729 1.34853,-5.0414 2.73133,-9.46134 3.07289,-9.82209 0.97061,-1.02511 7.26356,1.84573 9.06448,4.13522 3.18669,4.05122 1.495,11.58994 -3.14811,14.02899 -1.71688,0.90189 -9.23249,1.78621 -10.4974,1.23517 z"
     id="path3924"
     inkscape:connector-curvature="0"
     transform="scale(0.75000002)" />
</svg>
