<?xml version="1.0" encoding="UTF-8" standalone="no"?>
<svg
   xmlns:dc="http://purl.org/dc/elements/1.1/"
   xmlns:cc="http://creativecommons.org/ns#"
   xmlns:rdf="http://www.w3.org/1999/02/22-rdf-syntax-ns#"
   xmlns:svg="http://www.w3.org/2000/svg"
   xmlns="http://www.w3.org/2000/svg"
   xmlns:sodipodi="http://sodipodi.sourceforge.net/DTD/sodipodi-0.dtd"
   xmlns:inkscape="http://www.inkscape.org/namespaces/inkscape"
   height="512pt"
   viewBox="0 0 512.00013 512"
   width="512pt"
   version="1.1"
   id="svg2794"
   sodipodi:docname="sell_5reciept.svg"
   inkscape:version="0.92.4 (5da689c313, 2019-01-14)">
  <metadata
     id="metadata2800">
    <rdf:RDF>
      <cc:Work
         rdf:about="">
        <dc:format>image/svg+xml</dc:format>
        <dc:type
           rdf:resource="http://purl.org/dc/dcmitype/StillImage" />
        <dc:title></dc:title>
      </cc:Work>
    </rdf:RDF>
  </metadata>
  <defs
     id="defs2798" />
  <sodipodi:namedview
     pagecolor="#ffffff"
     bordercolor="#666666"
     borderopacity="1"
     objecttolerance="10"
     gridtolerance="10"
     guidetolerance="10"
     inkscape:pageopacity="0"
     inkscape:pageshadow="2"
     inkscape:window-width="1920"
     inkscape:window-height="1001"
     id="namedview2796"
     showgrid="false"
     inkscape:zoom="0.9777961"
     inkscape:cx="292.6691"
     inkscape:cy="354.51756"
     inkscape:window-x="-9"
     inkscape:window-y="-9"
     inkscape:window-maximized="1"
     inkscape:current-layer="svg2794" />
  <path
     d="m252.074219 284.929688-30.207031 90.535156 90.539062-30.207032 54.527344-53.929687v126.804687h-221.867188v51.199219c0 18.851563-15.28125 34.132813-34.132812 34.132813-18.851563 0-34.132813-15.28125-34.132813-34.132813v-426.664062c.011719-9.058594-3.582031-17.746094-9.984375-24.148438-6.40625-6.40625-15.09375-9.996093-24.148437-9.984375h290.132812c9.054688-.011718 17.742188 3.578125 24.148438 9.984375 6.402343 6.402344 9.996093 15.089844 9.984375 24.148438v128.765625zm0 0"
     fill="#e5e8eb"
     id="path2764" />
  <path
     d="m444.160156 215.039062-77.226562 76.289063-54.527344 53.929687-30.125-30.121093 131.671875-130.304688zm0 0"
     fill="#fdd267"
     id="path2766" />
  <path
     d="m413.953125 184.832031-131.671875 130.304688h-.082031l-30.125-30.207031 114.859375-113.496094 16.894531-16.722656zm0 0"
     fill="#ffda88"
     id="path2768" />
  <path
     d="m312.40625 345.257812-74.070312 24.746094-16.46875 5.460938 5.71875-17.066406 24.488281-73.46875 30.125 30.207031h.082031zm0 0"
     fill="#e3bb9a"
     id="path2770" />
  <path
     d="m474.367188 184.832031-30.207032 30.207031-30.207031-30.207031-30.125-30.121093 30.125-30.210938zm0 0"
     fill="#cbd1d7"
     id="path2772" />
  <path
     d="m498.433594 160.683594-24.066406 24.148437-60.414063-60.332031 24.148437-24.148438c3.199219-3.203124 7.542969-5.003906 12.074219-5.003906s8.875 1.800782 12.074219 5.003906l36.183594 36.183594c3.234375 3.183594 5.054687 7.535156 5.054687 12.074219s-1.820312 8.886719-5.054687 12.074219zm0 0"
     fill="#eb6371"
     id="path2774" />
  <path
     d="m76.800781 42.667969v68.265625h-68.265625v-68.265625c0-18.851563 15.28125-34.132813 34.132813-34.132813 18.851562 0 34.132812 15.28125 34.132812 34.132813zm0 0"
     fill="#cbd1d7"
     id="path2776" />
  <path
     d="m435.199219 418.132812v51.199219c0 18.851563-15.28125 34.132813-34.132813 34.132813h-290.132812c18.851562 0 34.132812-15.28125 34.132812-34.132813v-51.199219zm0 0"
     fill="#cbd1d7"
     id="path2778" />
  <path
     d="m8.535156 119.464844h59.730469v25.601562c0 4.714844 3.820313 8.535156 8.535156 8.535156 4.710938 0 8.53125-3.820312 8.53125-8.535156v-102.398437c-.015625-2.578125-.265625-5.148438-.75-7.679688-.144531-.804687-.390625-1.570312-.578125-2.355469-.40625-1.710937-.917968-3.394531-1.527344-5.042968-.335937-.855469-.710937-1.707032-1.09375-2.5625-.707031-1.539063-1.503906-3.035156-2.390624-4.480469-.476563-.785156-.9375-1.558594-1.46875-2.320313-.261719-.375-.457032-.785156-.722657-1.160156h256c6.792969-.011718 13.3125 2.679688 18.117188 7.484375 4.804687 4.804688 7.496093 11.320313 7.480469 18.117188v125.183593l-112.324219 111.007813c-.066407.070313-.09375.164063-.152344.230469-.609375.652344-1.113281 1.398437-1.492187 2.203125-.085938.1875-.195313.359375-.265626.554687-.066406.195313-.136718.238282-.1875.375l-28.261718 84.710938h-53.582032c-4.710937 0-8.53125 3.820312-8.53125 8.53125 0 4.714844 3.820313 8.535156 8.53125 8.535156h59.886719c.871094-.003906 1.734375-.148438 2.5625-.417969l90.546875-30.207031c.101563 0 .179688-.09375.28125-.136719.101563-.042969.355469-.179687.554688-.265625.789062-.359375 1.515625-.839844 2.15625-1.425781.09375-.085937.214844-.109375.300781-.195313l39.976563-39.550781v97.800781h-213.332032c-4.710937 0-8.53125 3.820313-8.53125 8.53125v51.199219c0 14.140625-11.464844 25.601563-25.601562 25.601563-14.140625 0-25.601563-11.460938-25.601563-25.601563v-247.464843c0-4.714844-3.820312-8.535157-8.53125-8.535157-4.714843 0-8.535156 3.820313-8.535156 8.535157v247.464843c-.011719 11.320313 4.480469 22.179688 12.484375 30.183594s18.863281 12.496094 30.183594 12.484375h196.265625c4.714843 0 8.535156-3.820312 8.535156-8.535156 0-4.710938-3.820313-8.53125-8.535156-8.53125h-162.132813c.238282-.324219.417969-.707032.65625-1.042969.503906-.707031.941406-1.449219 1.402344-2.191406.890625-1.433594 1.699219-2.921875 2.414062-4.453125.390626-.855469.757813-1.664063 1.089844-2.5625.636719-1.65625 1.164063-3.351563 1.589844-5.074219.195312-.804687.441406-1.582031.597656-2.398437.503906-2.597657.769532-5.234376.785156-7.878907v-42.664062h273.066407v42.664062c0 14.140625-11.460938 25.601563-25.601563 25.601563h-34.132812c-4.714844 0-8.535156 3.820312-8.535156 8.53125 0 4.714844 3.820312 8.535156 8.535156 8.535156h34.132812c23.550782-.027344 42.640625-19.113281 42.667969-42.667969v-51.199219c0-4.710937-3.820313-8.53125-8.535156-8.53125h-59.734375v-114.664062l74.695312-73.820312 30.207032-30.210938 24.046874-24.128906c4.851563-4.757813 7.585938-11.265625 7.585938-18.058594.023438-6.839844-2.703125-13.402344-7.558594-18.21875l-36.183594-36.191406c-10.011718-9.976563-26.203124-9.976563-36.214843 0l-24.148438 24.152344-30.074219 30.191406-2.355468 2.328125v-108.3125c.011718-11.320313-4.476563-22.179688-12.484375-30.183594-8.003907-8.003906-18.859375-12.4960938-30.179688-12.484375h-290.132812c-23.554688.0273438-42.6406252 19.113281-42.667969 42.667969v68.265625c0 2.261718.898438 4.433594 2.5 6.035156 1.601562 1.597656 3.769531 2.496094 6.035156 2.496094zm377.828125 49.835937 15.488281 15.496094-51.761718 51.199219-67.808594 67.132812-18.105469-18.117187 108.730469-107.519531v-.058594l10.828125-10.699219zm-130.558593 131.414063 20.359374 20.410156c.222657.222656.460938.429688.707032.632812l19.722656 19.710938-61.253906 20.4375zm105.292968-15.589844c-.050781.042969-.113281.058594-.15625.109375l-48.5 47.992187-18.042968-18.054687 54.171874-53.617187 65.363282-64.683594 18.117187 18.167968zm83.046875-178.757812c1.597657-1.605469 3.773438-2.507813 6.039063-2.507813 2.269531 0 4.441406.902344 6.042968 2.507813l36.179688 36.183593c1.640625 1.605469 2.5625 3.804688 2.5625 6.101563-.007812 2.253906-.933594 4.410156-2.5625 5.972656l-.042969.050781-18.039062 18.097657-48.324219-48.261719zm-30.175781 30.183593 48.332031 48.265625-18.140625 18.15625-48.265625-48.273437zm-396.902344-93.882812c0-14.140625 11.460938-25.601563 25.601563-25.601563 14.136719 0 25.597656 11.460938 25.597656 25.601563v59.730469h-51.199219zm0 0"
     id="path2780" />
  <path
     d="m119.464844 384h8.535156c4.710938 0 8.535156-3.820312 8.535156-8.535156 0-4.710938-3.824218-8.53125-8.535156-8.53125h-8.535156c-4.710938 0-8.53125 3.820312-8.53125 8.53125 0 4.714844 3.820312 8.535156 8.53125 8.535156zm0 0"
     id="path2782" />
  <path
     d="m110.933594 238.933594c0 4.710937 3.820312 8.53125 8.53125 8.53125h93.867187c4.714844 0 8.535157-3.820313 8.535157-8.53125 0-4.714844-3.820313-8.535156-8.535157-8.535156h-93.867187c-4.710938 0-8.53125 3.820312-8.53125 8.535156zm0 0"
     id="path2786" />
  <path
     d="m247.464844 230.398438c-4.710938 0-8.53125 3.820312-8.53125 8.535156 0 4.710937 3.820312 8.53125 8.53125 8.53125h8.535156c4.710938 0 8.535156-3.820313 8.535156-8.53125 0-4.714844-3.824218-8.535156-8.535156-8.535156zm0 0"
     id="path2788" />
  <path
     d="m119.464844 290.132812h93.867187c4.714844 0 8.535157-3.820312 8.535157-8.53125 0-4.714843-3.820313-8.535156-8.535157-8.535156h-93.867187c-4.710938 0-8.53125 3.820313-8.53125 8.535156 0 4.710938 3.820312 8.53125 8.53125 8.53125zm0 0"
     id="path2790" />
  <path
     d="m119.464844 332.800781h85.335937c4.710938 0 8.53125-3.820312 8.53125-8.535156 0-4.710937-3.820312-8.53125-8.53125-8.53125h-85.335937c-4.710938 0-8.53125 3.820313-8.53125 8.53125 0 4.714844 3.820312 8.535156 8.53125 8.535156zm0 0"
     id="path2792" />
  <path
     style="fill:#ffb52f;fill-opacity:0.79104477;stroke-width:1.02270806"
     d="m 135.5367,657.01813 c -7.2272,-2.84837 -13.99618,-9.10205 -17.43758,-16.11011 l -2.86987,-5.84421 -0.51136,-171.34885 c -0.49093,-164.50572 -0.5869,-171.46414 -2.40293,-174.2355 -1.04036,-1.58765 -3.68194,-3.63827 -5.87017,-4.55694 l -3.97859,-1.6703 -0.0104,-39.11859 c -0.0104,-39.06101 -0.007,-39.11858 2.13728,-39.11858 3.61018,0 8.82657,-6.15106 9.59263,-11.31144 0.37073,-2.49729 0.49418,-36.29562 0.27433,-75.1074 -0.44265,-78.14273 -0.17678,-74.932919 -7.34865,-88.719925 l -3.59102,-6.90328 h 171.56596 c 141.32223,0 172.51092,0.245124 176.92659,1.390533 10.25344,2.65971 19.30937,10.876039 23.49307,21.314958 1.61045,4.018332 1.78673,11.830611 2.05038,90.873654 l 0.28847,86.47738 -76.14692,75.38891 -76.14691,75.3889 -19.0638,57.19155 -19.06379,57.19155 -37.51845,0.31305 c -33.84335,0.2824 -37.77851,0.48977 -40.17327,2.11714 -7.88053,5.3552 -6.08267,18.65583 2.85729,21.13839 2.42338,0.67296 19.00225,1.08192 44.00381,1.08546 l 40.11544,0.006 61.64402,-20.55565 c 33.9042,-11.30561 62.56444,-21.01877 63.68942,-21.5848 1.12498,-0.56603 14.12616,-13.05806 28.8915,-27.76007 l 26.84609,-26.73092 v 64.67905 64.67905 l -143.43481,0.015 c -111.80203,0.0118 -143.97694,0.29368 -145.893,1.27838 -1.352,0.69482 -3.42298,2.5617 -4.60218,4.14862 -2.07041,2.78625 -2.16156,4.27827 -2.65536,43.46509 -0.49032,38.91086 -0.60263,40.77733 -2.73067,45.3828 -2.83931,6.14476 -9.72255,13.02358 -16.2161,16.20566 -7.04999,3.45476 -19.24828,3.88662 -26.71045,0.94565 z m 41.66444,-146.54462 c 6.70725,-4.40316 6.53092,-15.7457 -0.31121,-20.01867 -2.9086,-1.81646 -14.92566,-2.57908 -19.79626,-1.2563 -6.19707,1.68302 -9.13776,5.33699 -9.13776,11.35418 0,5.49544 1.99634,8.542 7.15895,10.92505 4.28787,1.97928 18.52781,1.33178 22.08628,-1.00426 z M 278.3399,442.80053 c 4.25612,-2.20093 6.14754,-5.45078 6.14754,-10.56276 0,-3.72776 -0.58185,-5.05874 -3.47721,-7.9541 l -3.47721,-3.47721 h -61.23719 c -67.2027,0 -63.99245,-0.29314 -67.32306,6.14754 -3.07635,5.94901 -0.85696,12.86448 5.06688,15.78806 4.66707,2.30332 119.85439,2.3575 124.30025,0.0585 z m 13.30963,-58.55588 c 6.08803,-5.51703 5.6654,-13.94458 -0.9214,-18.37333 l -3.47505,-2.33651 h -64.82357 c -71.06092,0 -70.24311,-0.0669 -73.38297,6.00489 -0.88109,1.70385 -1.60027,4.38636 -1.59817,5.96114 0.005,3.67469 3.43907,9.31584 6.39457,10.50407 1.27523,0.51269 31.70614,0.95133 68.49884,0.98735 l 66.20422,0.0648 3.10353,-2.81244 z m -3.88481,-54.50014 c 5.33093,-1.48058 7.97251,-5.22127 7.97251,-11.28975 0,-6.13868 -2.88658,-9.85705 -8.69302,-11.19805 -5.62785,-1.29974 -125.78294,-1.26907 -130.47123,0.0333 -5.72178,1.58943 -8.61707,5.35952 -8.61707,11.22063 0,5.51492 2.03358,8.60071 7.15895,10.86311 3.90231,1.72252 126.54846,2.06528 132.64986,0.37072 z m 59.75581,-0.96855 c 5.80155,-3.66701 7.20493,-12.13418 2.86584,-17.29088 -2.92064,-3.47098 -7.84946,-5.21052 -14.76353,-5.21052 -10.76148,0 -17.38603,4.68814 -17.38603,12.30397 0,4.50115 4.55201,10.70814 8.48648,11.57193 4.33514,0.95175 18.60945,0.008 20.79724,-1.3745 z"
     id="path5112"
     inkscape:connector-curvature="0"
     transform="scale(0.75000007)" />
  <path
     style="fill:#ffb52f;fill-opacity:0.79104477;stroke-width:1.02270806"
     d="m 421.04718,668.43026 c -0.75171,-3.42254 -3.93548,-6.6941 -8.02077,-8.24198 -1.97292,-0.74751 -36.78784,-1.09083 -110.6188,-1.09083 H 194.66783 l 2.97984,-5.36922 c 6.87445,-12.38674 7.32903,-15.3787 7.84692,-51.64676 l 0.47097,-32.98233 H 387.45998 568.9544 l -0.33273,31.98461 -0.33273,31.98462 -3.36139,6.82445 c -4.03544,8.19299 -10.4397,14.1995 -18.25909,17.12511 -5.04684,1.88827 -7.92951,2.08005 -31.34303,2.08523 -14.52681,0.003 -27.44027,0.46542 -29.57609,1.0586 -4.10166,1.13917 -7.97007,5.53901 -7.97007,9.06497 0,2.12372 -0.25524,2.14322 -28.04321,2.14322 h -28.04322 z"
     id="path5114"
     inkscape:connector-curvature="0"
     transform="scale(0.75000007)" />
  <path
     style="fill:#ffb52f;fill-opacity:0.79104477;stroke-width:1.02270806"
     d="m 23.697676,92.772834 8.07e-4,-43.720772 2.913789,-6.159116 c 9.682225,-20.466121 35.725462,-25.944377 52.33697,-11.009204 2.8603,2.571657 6.440692,7.026352 7.956424,9.899322 l 2.755877,5.223582 0.296247,44.74348 0.296248,44.743484 H 56.975454 23.696869 Z"
     id="path5116"
     inkscape:connector-curvature="0"
     transform="scale(0.75000007)" />
  <path
     style="fill:#ffb52f;fill-opacity:0.79104477;stroke-width:1.02270806"
     d="M 23.696869,92.999346 V 49.505088 l 2.965007,-5.851408 c 3.614291,-7.132762 9.149706,-12.831767 15.955093,-16.426621 4.431487,-2.340872 6.341239,-2.701158 14.317914,-2.701158 7.997658,0 9.87477,0.356196 14.317913,2.716933 5.563625,2.956072 12.287567,9.504946 15.566937,15.161625 1.968679,3.395832 2.110317,5.901296 2.760665,48.834313 l 0.685519,45.254838 H 56.981393 23.696869 Z"
     id="path5118"
     inkscape:connector-curvature="0"
     transform="scale(0.75000007)" />
  <path
     style="fill:#ffb52f;fill-opacity:0.79104477;stroke-width:1.02270806"
     d="M 23.696869,92.994512 V 49.495419 l 2.620751,-5.171804 c 3.530861,-6.967818 9.462097,-13.197743 16.004399,-16.810362 4.864409,-2.686096 6.33443,-2.984178 14.612864,-2.963106 7.551463,0.01922 9.99319,0.438638 13.596966,2.335563 9.50046,5.000769 16.995238,14.222521 18.015223,22.166352 0.288894,2.249958 0.796948,22.844742 1.12901,45.766188 l 0.603749,41.67536 H 56.98835 23.696869 Z"
     id="path5120"
     inkscape:connector-curvature="0"
     transform="scale(0.75000007)" />
  <path
     style="fill:#ffb52f;fill-opacity:0.79104477;stroke-width:1.02270806"
     d="M 23.696869,92.994512 V 49.495419 l 2.620751,-5.171804 c 3.530861,-6.967818 9.462097,-13.197743 16.004399,-16.810362 4.864409,-2.686096 6.33443,-2.984178 14.612864,-2.963106 7.551463,0.01922 9.99319,0.438638 13.596966,2.335563 6.058797,3.189177 12.073649,8.835471 15.351133,14.410499 l 2.755852,4.687729 0.660379,29.147181 c 0.363209,16.03095 0.708373,36.395621 0.767032,45.254831 l 0.106652,16.10766 H 56.934883 23.696869 Z"
     id="path5122"
     inkscape:connector-curvature="0"
     transform="scale(0.75000007)" />
  <path
     style="fill:#ffb52f;fill-opacity:0.79104477;stroke-width:1.02270806"
     d="M 23.696869,92.994512 V 49.495419 l 2.620751,-5.171804 c 3.527487,-6.96116 9.456886,-13.192797 16.004399,-16.820188 4.867425,-2.696604 6.329297,-2.994581 14.612864,-2.978581 8.227512,0.01589 9.778377,0.333895 14.612864,2.99636 6.122121,3.371595 12.404829,9.725908 15.373401,15.548614 1.865195,3.658487 2.060777,7.100259 2.766313,48.680306 l 0.759214,44.743484 H 57.071772 23.696869 Z"
     id="path5124"
     inkscape:connector-curvature="0"
     transform="scale(0.75000007)" />
  <path
     style="fill:#ffb52f;fill-opacity:0.79104477;stroke-width:1.02270806"
     d="m 421.53033,669.46245 c 0,-2.81186 -3.95142,-7.34299 -7.80918,-8.95487 -2.79541,-1.16799 -21.81955,-1.41013 -110.79212,-1.41013 -59.07946,0 -107.4172,-0.23708 -107.4172,-0.52685 0,-0.28976 1.34268,-2.93602 2.98372,-5.88057 5.84926,-10.49539 6.39941,-14.07847 6.86761,-44.72798 0.23629,-15.46846 0.68073,-30.54062 0.98763,-33.49369 l 0.55801,-5.36922 H 387.954 568.9992 l -0.7417,32.47098 c -0.72255,31.63304 -0.80594,32.59873 -3.23155,37.42111 -3.53838,7.03468 -9.86572,13.4879 -16.32195,16.64663 -5.50379,2.69275 -5.8317,2.72447 -34.58658,3.34474 -27.2669,0.58817 -29.20546,0.7555 -31.9171,2.75489 -1.58784,1.17078 -3.31194,3.53227 -3.83133,5.24776 -0.85152,2.81244 -1.45479,3.18042 -6.13625,3.743 -2.85555,0.34316 -15.43177,0.62792 -27.94716,0.63281 -21.52819,0.008 -22.75525,-0.094 -22.75525,-1.89861 z"
     id="path5126"
     inkscape:connector-curvature="0"
     transform="scale(0.75000007)" />
  <path
     style="fill:#ffb52f;fill-opacity:0.79104477;stroke-width:1.02270806"
     d="m 420.84752,667.60079 c -1.03068,-2.07303 -3.17315,-4.71929 -4.76104,-5.88057 -2.86856,-2.09788 -3.58535,-2.1132 -111.80857,-2.38965 -59.90682,-0.15302 -108.76883,-0.61324 -108.58225,-1.0227 0.18659,-0.40947 1.55089,-3.04557 3.03178,-5.85802 5.55065,-10.54156 6.03392,-13.96664 6.99863,-49.60134 0.4949,-18.28091 0.93036,-33.35307 0.96769,-33.4937 0.0373,-0.14062 81.56987,-0.25567 181.18344,-0.25567 h 181.11559 l -0.64356,29.40286 c -0.35395,16.17157 -0.88027,31.32269 -1.16958,33.66915 -1.13932,9.24014 -12.52931,21.95204 -22.28934,24.87621 -2.39979,0.719 -15.45563,1.5077 -31.85089,1.92412 -30.81593,0.78268 -31.99351,1.0442 -34.78492,7.72499 -1.3135,3.14365 -1.78796,3.3897 -7.7349,4.01128 -3.48457,0.36421 -15.66465,0.6622 -27.06684,0.6622 h -20.73127 z"
     id="path5128"
     inkscape:connector-curvature="0"
     transform="scale(0.75000007)" />
  <path
     style="fill:#ffb52f;fill-opacity:0.79104477;stroke-width:1.02270806"
     d="m 420.79338,667.59277 c -1.0781,-2.07745 -3.22767,-4.72371 -4.77683,-5.88057 -2.795,-2.08723 -3.65368,-2.10578 -111.72746,-2.41442 -59.90095,-0.17106 -108.76571,-0.63128 -108.58836,-1.02271 0.17735,-0.39142 1.81574,-3.7031 3.64086,-7.35928 4.60575,-9.22651 5.36398,-14.5019 5.95317,-41.41968 0.28317,-12.93726 0.77037,-27.31909 1.08267,-31.95963 l 0.56781,-8.43734 h 181.06099 181.06098 l -0.7036,30.42556 c -0.387,16.73407 -0.96057,31.9324 -1.27463,33.77409 -1.46497,8.59083 -13.03432,21.00287 -22.11203,23.72261 -2.25668,0.67612 -16.08951,1.5362 -31.94575,1.98628 -30.94804,0.87845 -32.03126,1.11802 -34.77781,7.69147 -1.26824,3.0353 -1.91196,3.4132 -6.81786,4.0024 -2.97957,0.35784 -15.15193,0.65462 -27.04968,0.65951 l -21.63228,0.009 z"
     id="path5130"
     inkscape:connector-curvature="0"
     transform="scale(0.75000007)" />
</svg>
