<?xml version="1.0" encoding="UTF-8" standalone="no"?>
<svg
   xmlns:dc="http://purl.org/dc/elements/1.1/"
   xmlns:cc="http://creativecommons.org/ns#"
   xmlns:rdf="http://www.w3.org/1999/02/22-rdf-syntax-ns#"
   xmlns:svg="http://www.w3.org/2000/svg"
   xmlns="http://www.w3.org/2000/svg"
   xmlns:sodipodi="http://sodipodi.sourceforge.net/DTD/sodipodi-0.dtd"
   xmlns:inkscape="http://www.inkscape.org/namespaces/inkscape"
   viewBox="-4 0 511 512"
   version="1.1"
   id="svg2493"
   sodipodi:docname="sell_3haggling.svg"
   inkscape:version="0.92.4 (5da689c313, 2019-01-14)">
  <metadata
     id="metadata2499">
    <rdf:RDF>
      <cc:Work
         rdf:about="">
        <dc:format>image/svg+xml</dc:format>
        <dc:type
           rdf:resource="http://purl.org/dc/dcmitype/StillImage" />
        <dc:title></dc:title>
      </cc:Work>
    </rdf:RDF>
  </metadata>
  <defs
     id="defs2497" />
  <sodipodi:namedview
     pagecolor="#ffffff"
     bordercolor="#666666"
     borderopacity="1"
     objecttolerance="10"
     gridtolerance="10"
     guidetolerance="10"
     inkscape:pageopacity="0"
     inkscape:pageshadow="2"
     inkscape:window-width="1920"
     inkscape:window-height="1001"
     id="namedview2495"
     showgrid="false"
     inkscape:zoom="1.3037281"
     inkscape:cx="226.27089"
     inkscape:cy="257.90175"
     inkscape:window-x="-9"
     inkscape:window-y="-9"
     inkscape:window-maximized="1"
     inkscape:current-layer="svg2493" />
  <g
     fill-rule="evenodd"
     id="g2491">
    <path
       d="m166.847656 486.617188c12.636719 4.707031 32.851563-17.351563 46.417969-14.890626 13.5625 2.464844 25.152344 30.285157 39.425781 30.285157 14.277344 0 25.863282-27.820313 39.429688-30.285157 13.566406-2.460937 33.777344 19.597657 46.414062 14.890626 12.636719-4.703126 13.324219-34.554688 24.8125-41.285157 11.488282-6.726562 37.730469 7.351563 47.855469-1.183593 10.117187-8.535157.652344-36.765626 9.1875-46.886719 8.535156-10.121094 37.992187-5.597657 44.71875-17.085938 6.730469-11.488281-11.574219-35.03125-6.867187-47.667969 4.703124-12.640624 34.039062-18.738281 36.503906-32.304687 2.460937-13.5625-22.792969-29.929687-22.792969-44.203125 0-14.277344 25.253906-30.640625 22.792969-44.207031-2.464844-13.566407-31.800782-19.664063-36.503906-32.300781-4.707032-12.636719 13.597656-36.183594 6.867187-47.671876-6.726563-11.488281-36.183594-6.960937-44.71875-17.082031-8.535156-10.121093.933594-38.355469-9.1875-46.890625s-36.367187 5.546875-47.855469-1.183594c-11.488281-6.730468-12.175781-36.578124-24.8125-41.285156-12.636718-4.703125-32.847656 17.355469-46.414062 14.890625-13.566406-2.460937-25.152344-30.285156-39.429688-30.285156-14.273437 0-25.859375 27.824219-39.425781 30.285156-13.566406 2.464844-33.78125-19.59375-46.417969-14.890625-12.632812 4.707032-13.324218 34.558594-24.8125 41.285156-11.488281 6.730469-37.730468-7.351562-47.851562 1.1875-10.121094 8.53125-.65625 36.765626-9.191406 46.886719-8.53125 10.121094-37.988282 5.597657-44.71875 17.082031-6.730469 11.488282 11.574218 35.035157 6.871093 47.671876-4.707031 12.636718-34.042969 18.734374-36.503906 32.300781-2.460937 13.566406 22.789063 29.929687 22.789063 44.207031 0 14.273438-25.25 30.640625-22.789063 44.207031 2.460937 13.5625 31.796875 19.664063 36.503906 32.300781 4.707031 12.636719-13.601562 36.183594-6.871093 47.671876 6.730468 11.484374 36.1875 6.960937 44.722656 17.082031 8.53125 10.121093-.933594 38.355469 9.1875 46.886719 10.121094 8.535156 36.363281-5.542969 47.855468 1.1875 11.484376 6.726562 12.175782 36.578124 24.808594 41.28125zm0 0"
       fill="#ffe169"
       id="path2485" />
    <path
       d="m423 256c0 94.058594-76.25 170.308594-170.308594 170.308594-94.054687 0-170.304687-76.25-170.304687-170.308594s76.25-170.308594 170.304687-170.308594c94.058594 0 170.308594 76.25 170.308594 170.308594zm0 0"
       fill="#ff77ad"
       id="path2487" />
    <path
       d="m252.691406 0c12.023438 0 20.320313 9.480469 28.539063 18.871094 4.867187 5.5625 9.691406 11.074218 12.644531 11.609375 3.023438.550781 9.515625-3.054688 15.96875-6.640625 10.675781-5.933594 21.292969-11.828125 32.164062-7.78125 10.992188 4.09375 15.109376 15.617187 19.210938 27.101562 2.429688 6.796875 4.847656 13.570313 7.160156 14.925782 2.316406 1.355468 9.4375.109374 16.546875-1.132813 11.9375-2.089844 23.859375-4.175781 32.710938 3.289063 8.804687 7.429687 8.75 19.558593 8.695312 31.6875-.03125 7.160156-.066406 14.320312 1.664063 16.371093 1.730468 2.054688 8.785156 3.242188 15.84375 4.429688 11.980468 2.019531 23.980468 4.039062 29.851562 14.058593 5.855469 9.996094 1.816406 21.398438-2.238281 32.839844-2.433594 6.863282-4.875 13.75-3.890625 16.394532.984375 2.636718 7.230469 6.269531 13.507812 9.921874 10.640626 6.1875 21.34375 12.410157 23.464844 24.09375 2.085938 11.484376-5.503906 21.035157-13.160156 30.675782-4.695312 5.914062-9.433594 11.878906-9.433594 15.285156 0 3.410156 4.738282 9.375 9.433594 15.289062 7.65625 9.636719 15.246094 19.1875 13.160156 30.671876-2.121094 11.683593-12.824218 17.910156-23.464844 24.097656-6.277343 3.648437-12.523437 7.28125-13.507812 9.921875-.984375 2.644531 1.457031 9.53125 3.890625 16.394531 4.054687 11.441406 8.09375 22.84375 2.238281 32.835938-5.871094 10.023437-17.871094 12.042968-29.851562 14.058593-7.058594 1.191407-14.113282 2.378907-15.84375 4.429688-1.730469 2.054687-1.695313 9.214843-1.664063 16.375.054688 12.128906.109375 24.257812-8.695312 31.6875-8.851563 7.464843-20.773438 5.378906-32.710938 3.289062-7.109375-1.242187-14.230469-2.488281-16.546875-1.132812-2.3125 1.355469-4.730468 8.128906-7.160156 14.925781-4.101562 11.484375-8.21875 23.007812-19.210938 27.101562-10.871093 4.046876-21.488281-1.851562-32.164062-7.78125-6.453125-3.585937-12.941406-7.191406-15.96875-6.640624-2.953125.535156-7.777344 6.046874-12.644531 11.605468-8.21875 9.390625-16.515625 18.871094-28.539063 18.871094-12.019531 0-20.316406-9.480469-28.539062-18.871094-4.863282-5.5625-9.6875-11.074218-12.644532-11.609375-3.023437-.550781-9.511718 3.054688-15.96875 6.640625-10.675781 5.933594-21.289062 11.828125-32.160156 7.78125-10.996094-4.09375-15.109375-15.617187-19.214844-27.101562-2.425781-6.792969-4.847656-13.570313-7.160156-14.925782-2.3125-1.355468-9.433594-.109374-16.546875 1.136719-11.9375 2.085938-23.859375 4.171875-32.710937-3.292969-8.804688-7.429687-8.75-19.558593-8.695313-31.6875.035157-7.160156.066407-14.320312-1.664062-16.371093-1.730469-2.054688-8.78125-3.242188-15.84375-4.429688-11.980469-2.015625-23.980469-4.039062-29.851563-14.058593-5.851562-9.996094-1.8125-21.398438 2.242188-32.839844 2.433594-6.863282 4.871094-13.75 3.886718-16.394532-.980468-2.636718-7.226562-6.269531-13.507812-9.921874-10.636719-6.1875-21.34375-12.410157-23.460938-24.09375-2.085937-11.484376 5.5-21.039063 13.15625-30.675782 4.699219-5.914062 9.4375-11.878906 9.4375-15.289062 0-3.40625-4.738281-9.371094-9.4375-15.285156-7.65625-9.640626-15.242187-19.1875-13.15625-30.675782 2.117188-11.683594 12.824219-17.90625 23.460938-24.09375 6.28125-3.652344 12.527344-7.285156 13.507812-9.921875.984376-2.644531-1.453124-9.53125-3.886718-16.394531-4.054688-11.441406-8.097656-22.84375-2.242188-32.835938 5.871094-10.023437 17.871094-12.042968 29.851563-14.058593 7.0625-1.191407 14.113281-2.378907 15.84375-4.429688 1.730469-2.054687 1.699219-9.214843 1.664062-16.375-.054687-12.128906-.109375-24.261719 8.695313-31.683593 8.851562-7.464844 20.773437-5.382813 32.710937-3.292969 7.113281 1.242187 14.234375 2.488281 16.546875 1.132812 2.3125-1.351562 4.734375-8.128906 7.160156-14.925781 4.101563-11.480469 8.222657-23.007812 19.214844-27.101562 10.871094-4.046876 21.484375 1.851562 32.160156 7.78125 6.457032 3.585937 12.945313 7.191406 15.96875 6.640624 2.957032-.535156 7.78125-6.046874 12.644532-11.605468 8.222656-9.390625 16.519531-18.871094 28.539062-18.871094zm123.921875 129.175781c-5.523437 0-10 4.476563-10 10 0 2.460938.890625 4.714844 2.367188 6.457031v.003907l-.003907-.003907.03125.035157c.203126.238281.417969.464843.640626.679687 26.894531 28.671875 43.363281 67.238282 43.363281 109.652344 0 44.273438-17.941407 84.351562-46.953125 113.363281-29.011719 29.015625-69.09375 46.957031-113.367188 46.957031-18.953125 0-37.136718-3.289062-54.011718-9.328124-.300782-.125-.613282-.234376-.929688-.332032l-.023438-.011718v.003906c-.917968-.277344-1.894531-.429688-2.902343-.429688-5.519531 0-10 4.476563-10 10 0 4.53125 3.015625 8.355469 7.144531 9.585938 18.972656 6.785156 39.417969 10.484375 60.722656 10.484375 49.785156 0 94.859375-20.183594 127.484375-52.808594 32.628907-32.628906 52.808594-77.699219 52.808594-127.484375 0-47.640625-18.480469-90.960938-48.65625-123.191406-1.835937-2.21875-4.609375-3.632813-7.714844-3.632813zm-30.179687-25.382812c-5.519532 0-10 4.476562-10 10 0 5.519531 4.480468 10 10 10 5.523437 0 10-4.480469 10-10 0-5.523438-4.476563-10-10-10zm-32.457032-17.398438c-19.132812-6.914062-39.765624-10.6875-61.285156-10.6875-49.785156 0-94.855468 20.179688-127.484375 52.808594-32.625 32.625-52.808593 77.699219-52.808593 127.484375 0 47.539062 18.402343 90.777344 48.464843 122.988281 1.835938 2.195313 4.59375 3.59375 7.679688 3.59375 5.523437 0 10-4.476562 10-10 0-2.453125-.882813-4.699219-2.351563-6.4375v-.007812l-.039062-.042969c-.195313-.230469-.402344-.449219-.617188-.65625-26.773437-28.652344-43.164062-67.128906-43.164062-109.4375 0-44.273438 17.945312-84.355469 46.957031-113.363281 29.011719-29.015625 69.09375-46.957031 113.363281-46.957031 19.132813 0 37.480469 3.351562 54.492188 9.5h.003906c1.203125.511718 2.523438.792968 3.914062.792968 5.523438 0 10-4.476562 10-10 0-4.523437-3.003906-8.34375-7.125-9.578125zm-155.027343 301.8125c-5.519531 0-10 4.476563-10 10 0 5.523438 4.480469 10 10 10 5.523437 0 10-4.476562 10-10 0-5.523437-4.476563-10-10-10zm35.523437-230.488281c-11.464844 0-21.84375 4.644531-29.359375 12.160156-7.511719 7.515625-12.160156 17.894532-12.160156 29.359375 0 11.460938 4.648437 21.84375 12.160156 29.355469 7.515625 7.515625 17.894531 12.164062 29.359375 12.164062s21.84375-4.648437 29.359375-12.164062c7.511719-7.511719 12.160157-17.894531 12.160157-29.355469 0-11.464843-4.648438-21.84375-12.160157-29.359375-7.515625-7.515625-17.894531-12.160156-29.359375-12.160156zm15.238282 26.28125c-3.898438-3.898438-9.285157-6.3125-15.238282-6.3125-5.949218 0-11.339844 2.414062-15.238281 6.3125s-6.308594 9.285156-6.308594 15.238281c0 5.949219 2.410157 11.339844 6.308594 15.238281 3.898437 3.894532 9.289063 6.308594 15.238281 6.308594 5.953125 0 11.339844-2.410156 15.238282-6.308594 3.898437-3.898437 6.308593-9.289062 6.308593-15.238281 0-5.953125-2.410156-11.339843-6.308593-15.238281zm92.894531-21.757812-116.441407 176.59375c-3.015624 4.589843-1.742187 10.753906 2.847657 13.769531 4.589843 3.015625 10.753906 1.742187 13.769531-2.847657l116.441406-176.59375c3.015625-4.589843 1.742188-10.753906-2.847656-13.769531s-10.753906-1.742187-13.769531 2.847657zm8.308593 109c-11.464843 0-21.847656 4.648437-29.359374 12.160156-7.511719 7.515625-12.160157 17.898437-12.160157 29.359375 0 11.464843 4.648438 21.84375 12.160157 29.359375 7.515624 7.511718 17.894531 12.160156 29.359374 12.160156 11.464844 0 21.84375-4.648438 29.355469-12.160156 7.515625-7.515625 12.164063-17.894532 12.164063-29.359375 0-11.464844-4.648438-21.84375-12.164063-29.359375-7.511719-7.511719-17.890625-12.160156-29.355469-12.160156zm15.234376 26.28125c-3.894532-3.894532-9.285157-6.308594-15.234376-6.308594-5.953124 0-11.339843 2.410156-15.238281 6.308594-3.898437 3.898437-6.3125 9.289062-6.3125 15.238281 0 5.953125 2.414063 11.339843 6.3125 15.238281 3.898438 3.898438 9.285157 6.308594 15.238281 6.308594 5.949219 0 11.339844-2.410156 15.234376-6.308594 3.902343-3.898438 6.3125-9.285156 6.3125-15.238281 0-5.949219-2.410157-11.335938-6.3125-15.238281zm-59.894532-265.542969c-5.230468-5.976563-10.507812-12.007813-13.558594-12.007813-3.054687 0-8.332031 6.03125-13.5625 12.007813-7.160156 8.179687-14.261718 16.292969-24.113281 18.082031-10 1.816406-19.601562-3.519531-29.152343-8.828125-6.65625-3.699219-13.277344-7.375-15.542969-6.53125-2.234375.832031-4.800781 8.011719-7.355469 15.164063-3.636719 10.175781-7.257812 20.320312-15.898438 25.378906-8.699218 5.097656-19.378906 3.230468-30.042968 1.363281-7.363282-1.285156-14.722656-2.574219-16.402344-1.152344-1.742188 1.46875-1.710938 8.933594-1.675781 16.394531.050781 10.839844.097656 21.679688-6.347657 29.324219-6.425781 7.621094-17.097656 9.417969-27.78125 11.214844-7.394531 1.246094-14.808593 2.492187-15.960937 4.464844-1.148437 1.957031 1.359375 9.039062 3.878906 16.140625 3.625 10.230468 7.261719 20.492187 3.730469 29.96875-3.484375 9.355468-12.800781 14.773437-22.167969 20.222656-6.679687 3.882812-13.402343 7.792969-13.867187 10.363281-.472656 2.605469 4.332031 8.652344 9.179687 14.757813 6.875 8.652344 13.808594 17.378906 13.808594 27.691406 0 10.316406-6.933594 19.039062-13.808594 27.695312-4.847656 6.101563-9.652343 12.148438-9.179687 14.757813.464844 2.570313 7.1875 6.476563 13.867187 10.363281 9.367188 5.445313 18.683594 10.863282 22.167969 20.21875 3.53125 9.480469-.105469 19.742188-3.730469 29.972656-2.519531 7.101563-5.027343 14.179688-3.878906 16.140626 1.152344 1.96875 8.5625 3.21875 15.960937 4.460937 10.6875 1.800781 21.355469 3.59375 27.78125 11.21875 6.445313 7.640625 6.398438 18.480469 6.347657 29.324219-.035157 7.460937-.066407 14.921875 1.675781 16.394531 1.683594 1.417969 9.039062.132813 16.402344-1.15625 10.664062-1.863281 21.34375-3.734375 30.042968 1.363281 8.640626 5.058594 12.265626 15.203125 15.898438 25.378906 2.554688 7.152344 5.121094 14.335938 7.355469 15.164063 2.265625.84375 8.886719-2.832031 15.542969-6.53125 9.550781-5.304687 19.152343-10.640625 29.152343-8.824219 9.855469 1.785156 16.953125 9.898438 24.113281 18.082032 5.230469 5.976562 10.507813 12.007812 13.5625 12.007812 3.050782 0 8.328126-6.03125 13.558594-12.007812 7.160156-8.183594 14.261719-16.296876 24.109375-18.082032 10-1.816406 19.605469 3.519532 29.15625 8.824219 6.65625 3.699219 13.277344 7.375 15.542969 6.53125 2.234375-.828125 4.800781-8.011719 7.355469-15.164063 3.636719-10.175781 7.257812-20.316406 15.894531-25.378906 8.703125-5.097656 19.378906-3.230468 30.042969-1.363281 7.367187 1.289063 14.722656 2.578125 16.410156 1.15625 1.738281-1.472656 1.707031-8.933594 1.671875-16.394531-.050781-10.839844-.097656-21.683594 6.347656-29.324219 6.425782-7.625 17.09375-9.417969 27.777344-11.21875 7.398438-1.242187 14.8125-2.492187 15.964844-4.460937 1.148437-1.960938-1.359375-9.039063-3.878906-16.140626-3.625-10.230468-7.261719-20.492187-3.730469-29.972656 3.480469-9.355468 12.800781-14.773437 22.164062-20.21875 6.683594-3.886718 13.402344-7.792968 13.871094-10.363281.472656-2.609375-4.332031-8.65625-9.179687-14.757813-6.875-8.65625-13.808594-17.378906-13.808594-27.695312 0-10.3125 6.933594-19.039062 13.808594-27.691406 4.847656-6.105469 9.652343-12.152344 9.179687-14.757813-.46875-2.570312-7.1875-6.480469-13.871094-10.363281-9.363281-5.449219-18.683593-10.867188-22.164062-20.222656-3.53125-9.476563.105469-19.738282 3.730469-29.96875 2.519531-7.101563 5.027343-14.183594 3.878906-16.140625-1.152344-1.972657-8.566406-3.21875-15.964844-4.464844-10.683594-1.796875-21.351562-3.59375-27.777344-11.214844-6.445312-7.644531-6.398437-18.484375-6.347656-29.324219.035156-7.460937.066406-14.925781-1.671875-16.394531-1.6875-1.421875-9.042969-.132812-16.410156 1.152344-10.664063 1.867187-21.339844 3.734375-30.039063-1.363281-8.640625-5.058594-12.265625-15.203125-15.898437-25.378906-2.554688-7.152344-5.121094-14.332032-7.355469-15.164063-2.265625-.84375-8.886719 2.832031-15.542969 6.53125-9.554687 5.308594-19.15625 10.644531-29.15625 8.828125-9.851562-1.789062-16.949219-9.902344-24.109375-18.082031zm0 0"
       id="path2489" />
  </g>
  <path
     style="fill:#ffb52f;fill-opacity:0.51741296;stroke-width:0.76703107"
     d="m 249.33749,485.96079 c -2.98369,-3.08567 -8.42659,-8.75014 -12.09534,-12.58773 -8.51014,-8.90181 -13.92774,-11.84527 -21.89362,-11.89515 -7.03702,-0.044 -11.16613,1.40303 -25.9663,9.10008 -6.78902,3.53072 -13.08124,6.41949 -13.98272,6.41949 -2.03743,0 -3.52452,-2.80482 -8.55696,-16.13941 -4.86118,-12.88077 -7.14667,-16.9623 -11.9632,-21.36433 -7.01276,-6.40928 -14.63257,-7.53642 -32.15766,-4.75688 -15.64321,2.48107 -16.01453,2.50913 -17.62484,1.33165 -1.35231,-0.98883 -1.53113,-2.50158 -2.01986,-17.0872 -0.6452,-19.25508 -1.51302,-22.88278 -6.957514,-29.08371 -4.433422,-5.04939 -11.990253,-7.98219 -27.473477,-10.66244 -4.007737,-0.69376 -9.098906,-1.77152 -11.313708,-2.39502 -3.897623,-1.09722 -4.026914,-1.22184 -4.026914,-3.88173 0,-1.51148 1.707399,-7.80108 3.794219,-13.9769 4.609672,-13.64206 5.766634,-20.07589 4.673497,-25.98921 -1.660794,-8.98407 -7.200969,-14.85064 -22.941195,-24.29279 -5.56616,-3.33898 -10.972227,-6.86044 -12.013481,-7.82544 -3.328518,-3.08476 -3.146525,-3.47756 9.164971,-19.78064 9.054887,-11.99062 11.493958,-17.28268 11.522734,-25.0009 0.0188,-5.04318 -0.317606,-6.46228 -2.72745,-11.50546 -1.511894,-3.16401 -6.597421,-10.85666 -11.301172,-17.09479 -5.493192,-7.28508 -8.552273,-12.01609 -8.552273,-13.22648 0,-2.25507 2.520511,-4.19997 15.502537,-11.96226 11.048115,-6.60595 16.7622,-11.64924 19.278718,-17.01553 3.903961,-8.32491 3.322527,-14.91471 -2.949364,-33.42722 -1.898457,-5.6036 -3.451741,-11.32476 -3.451741,-12.71368 0,-3.26807 0.746438,-3.5617 17.323836,-6.81494 7.311766,-1.4349 14.941097,-3.41572 17.2582,-4.48078 11.843073,-5.44368 15.158937,-13.03255 15.352417,-35.13648 0.0572,-6.53894 0.32211,-12.887562 0.58859,-14.108048 0.86272,-3.951151 1.81545,-4.042686 17.35797,-1.667687 15.66717,2.394047 21.73371,2.353455 27.44275,-0.183624 7.88728,-3.505078 12.41877,-9.886148 18.19971,-25.628143 4.85681,-13.225489 6.3642,-15.939829 8.85203,-15.939829 1.00458,0 7.44825,2.891872 14.31927,6.426382 15.67444,8.063058 18.99142,9.173106 26.16557,8.756474 8.97505,-0.521219 11.42112,-2.113262 25.85514,-16.827975 10.42817,-10.630965 13.06364,-12.928472 14.83026,-12.928472 1.71871,0 3.47777,1.417704 8.79502,7.0883 18.38941,19.611443 21.8687,22.110593 31.54574,22.659125 7.53102,0.426889 12.41456,-1.198815 26.32238,-8.76258 5.81288,-3.161329 11.73302,-5.936786 13.15587,-6.167683 3.38055,-0.548589 3.99358,0.411957 9.65035,15.121052 6.76159,17.581909 10.76394,23.128606 19.16655,26.562183 4.78839,1.95669 15.96567,1.789482 29.35881,-0.439198 5.8116,-0.967077 11.37648,-1.555043 12.36638,-1.306591 2.38473,0.598527 2.75638,2.743675 2.78937,16.099889 0.0724,29.327315 5.69829,36.169255 33.82431,41.135785 11.29726,1.99489 15.26601,3.1479 16.26015,4.72394 0.5951,0.94342 -0.33299,4.72821 -3.75892,15.32896 -4.3176,13.35989 -4.54877,14.46659 -4.54241,21.74655 0.005,6.58525 0.26359,8.154 1.8227,11.08953 2.83709,5.34174 9.02757,10.66715 20.03292,17.23345 12.00362,7.16192 14.57166,9.19056 14.57166,11.51095 0,1.91994 -3.52725,7.31015 -11.57824,17.6934 -2.94397,3.79681 -6.46181,9.13959 -7.81741,11.87285 -2.25441,4.5455 -2.46473,5.59278 -2.46473,12.2725 0,6.74101 0.19597,7.69329 2.54685,12.37619 1.40077,2.7903 5.22547,8.51102 8.49932,12.71271 11.77503,15.11214 12.63477,17.10461 8.71198,20.19028 -1.15623,0.90948 -6.63745,4.38252 -12.18049,7.71784 -11.85302,7.13214 -16.76851,11.31973 -19.87895,16.93526 -2.12111,3.8294 -2.27044,4.63822 -2.24434,12.15618 0.0265,7.6518 0.2245,8.62815 3.96515,19.55929 2.16546,6.32801 4.17625,12.80128 4.46844,14.38505 0.5058,2.7417 0.40552,2.93212 -2.0944,3.97665 -1.4441,0.60338 -7.43686,1.99987 -13.31725,3.1033 -18.39295,3.45138 -25.2727,6.53523 -29.52107,13.23282 -3.93753,6.20753 -4.65368,9.90937 -5.20765,26.9185 -0.46857,14.3869 -0.62668,15.6814 -2.04196,16.71715 -1.67145,1.22323 -1.33257,1.24893 -17.19422,-1.30372 -27.44149,-4.41622 -35.00786,0.34648 -45.2199,28.46402 -3.83654,10.56342 -5.64919,13.77956 -7.76631,13.77956 -0.85453,0 -6.91464,-2.7818 -13.46692,-6.18178 -16.93275,-8.7864 -22.45899,-10.46811 -29.85724,-9.08597 -7.4036,1.38315 -10.16219,3.37587 -23.41065,16.91114 -9.49555,9.70112 -13.12114,12.9302 -14.51792,12.9302 -1.30679,0 -3.47873,-1.67228 -7.2866,-5.61028 z m 29.49793,-50.7998 c 39.80413,-4.92654 76.25224,-22.57309 104.57558,-50.63083 34.90243,-34.57517 53.60282,-79.24973 53.60234,-128.05411 -8e-5,-8.01548 -0.40325,-17.68007 -0.89593,-21.47687 -4.22259,-32.54089 -15.95015,-61.97575 -34.52057,-86.64268 -14.19059,-18.84924 -18.32117,-21.81545 -25.37138,-18.21944 l -2.6846,1.3693 -5.00032,-4.24686 c -2.75017,-2.33577 -5.96209,-4.94691 -7.13761,-5.80251 -2.08774,-1.51959 -2.11543,-1.63736 -1.19451,-5.0806 1.14223,-4.27066 0.15049,-7.3362 -3.31734,-10.25419 -4.09149,-3.44277 -9.45438,-3.44811 -13.1608,-0.0131 l -2.00077,1.85425 -8.44172,-4.25409 c -7.83263,-3.947132 -8.40787,-4.388957 -7.97255,-6.123406 0.72974,-2.907504 -1.74345,-8.413598 -4.55954,-10.150947 -3.65775,-2.256612 -19.28748,-6.766076 -30.85768,-8.903016 -52.35161,-9.66899 -105.86072,3.933332 -147.23352,37.427609 -7.41331,6.0016 -20.98798,19.63228 -26.88506,26.99597 -17.093999,21.34528 -30.498405,49.83543 -35.907814,76.31959 -2.973668,14.55892 -3.813539,25.12741 -3.345294,42.09547 0.97126,35.19613 10.660265,65.75052 30.063528,94.80564 5.8194,8.71418 15.60032,21.00624 19.47821,24.47902 2.26313,2.02671 8.37932,2.51797 11.46737,0.92108 l 2.41177,-1.24718 6.94045,5.94663 c 6.52173,5.58788 6.90958,6.08601 6.42884,8.25684 -1.28466,5.80101 0.597,10.55943 5.09823,12.89256 3.34673,1.73472 7.79426,1.19226 11.13854,-1.35855 l 2.39519,-1.8269 8.36895,4.20909 c 7.72026,3.88284 8.35015,4.36502 8.12629,6.22075 -0.40043,3.31946 1.99373,8.40779 4.76063,10.11783 4.89785,3.02703 25.71616,8.30553 40.94795,10.38238 10.49537,1.43104 33.08617,1.42663 44.68314,-0.009 z"
     id="path4531"
     inkscape:connector-curvature="0"
     transform="translate(-4)" />
  <path
     style="fill:#ffb52f;fill-opacity:0.3283582;stroke-width:0.76703107"
     d="m 234.86164,414.52447 c -8.94531,-1.27686 -18.7954,-3.58022 -28.26261,-6.60897 -8.63134,-2.76133 -11.31247,-2.51131 -15.24543,1.42165 l -2.70818,2.70818 -6.61435,-3.25612 c -10.30454,-5.07274 -10.05187,-4.83969 -9.14043,-8.43047 0.65845,-2.59411 0.52405,-3.58965 -0.87471,-6.47911 -2.83321,-5.85263 -9.52919,-7.60864 -14.95995,-3.92323 l -2.85068,1.93453 -5.95053,-4.96318 c -8.10051,-6.7564 -8.08921,-6.74014 -6.6356,-9.55112 2.75141,-5.32065 1.51877,-8.26882 -8.26282,-19.76245 -10.88981,-12.79582 -22.67555,-33.81508 -28.10879,-50.13057 -14.611771,-43.87776 -9.922912,-91.7523 12.84283,-131.12885 37.9056,-65.56305 115.52532,-95.499328 187.97627,-72.49846 10.02426,3.18238 11.85659,3.07929 16.27882,-0.91594 l 2.93801,-2.65431 8.11137,4.06307 c 6.09732,3.05421 7.99655,4.35208 7.64896,5.22705 -1.93423,4.86887 -0.29005,9.84096 4.27029,12.91364 3.28828,2.21558 7.84551,1.9784 11.46164,-0.59651 l 2.39738,-1.70708 3.61716,2.88122 c 1.98945,1.58468 5.06535,4.25876 6.83534,5.9424 3.12163,2.96935 3.1849,3.1255 2.10934,5.20542 -0.60986,1.17933 -1.10883,3.68709 -1.10883,5.5728 0,3.18424 0.44039,3.93852 6.17998,10.58477 37.6951,43.64962 49.48105,102.371 31.41475,156.51831 -18.32819,54.93225 -65.25141,95.5863 -122.96055,106.53245 -11.03895,2.09384 -39.14187,2.70771 -50.39868,1.10088 z m -31.05768,-61.66531 c 1.62296,-0.98974 19.69818,-27.78742 60.88755,-90.26975 32.21866,-48.87419 59.07992,-90.06011 59.69169,-91.52428 4.15703,-9.94918 -9.38875,-18.25658 -16.776,-10.28844 -3.6634,3.95146 -118.25788,178.51803 -119.03508,181.3311 -2.29422,8.304 7.68948,15.35098 15.23184,10.75137 z m 121.91899,0.23888 c 14.78744,-3.85164 26.76497,-16.47703 29.96691,-31.58784 1.50371,-7.09638 1.40464,-11.93924 -0.38758,-18.94675 -3.59286,-14.04796 -13.30751,-24.57491 -27.1681,-29.4398 -7.29746,-2.56131 -18.35184,-2.67615 -25.82914,-0.26832 -9.89706,3.18704 -19.81433,11.55995 -24.36148,20.56778 -11.97421,23.72079 -0.35114,51.13627 25.18384,59.40141 5.36714,1.73723 16.46043,1.87151 22.59555,0.27352 z M 209.60215,239.51512 c 18.34209,-5.44516 30.66195,-21.70638 30.61737,-40.4124 -0.0334,-13.98999 -7.47435,-27.41663 -19.5161,-35.21517 -13.13995,-8.50974 -31.48897,-8.44662 -44.89255,0.15443 -11.50347,7.38176 -19.18641,21.67411 -19.18641,35.69195 0,5.54881 2.59659,15.07282 5.50593,20.19513 5.09519,8.97082 15.37629,16.95206 25.26148,19.61052 5.68245,1.5282 17.0222,1.51571 22.21028,-0.0245 z"
     id="path5076"
     inkscape:connector-curvature="0"
     transform="translate(-4)" />
  <path
     style="fill:#ffb52f;fill-opacity:0.32835819;stroke-width:0.76703107"
     d="m 238.69679,414.82249 c -7.89808,-0.72517 -18.56668,-3.00635 -30.54688,-6.53159 -10.44917,-3.07473 -12.8153,-2.93476 -16.74036,0.9903 l -2.65223,2.65222 -2.9219,-1.16912 c -1.60705,-0.64301 -5.12642,-2.36307 -7.82084,-3.82236 l -4.89895,-2.65325 -0.0291,-4.49001 c -0.016,-2.4695 -0.41577,-5.18033 -0.88836,-6.02407 -3.1507,-5.62507 -9.94627,-7.37938 -15.05891,-3.88754 l -2.93684,2.00581 -4.73347,-3.77727 c -7.26502,-5.79742 -8.47145,-7.3084 -7.85202,-9.83421 1.16208,-4.73849 1.35251,-6.42601 0.91976,-8.15026 -0.24885,-0.9915 -3.53951,-5.6313 -7.31257,-10.31068 -23.48774,-29.12966 -34.97844,-57.21633 -37.808136,-92.41422 -2.259131,-28.10074 3.724696,-57.94375 16.747106,-83.52249 24.41752,-47.96114 70.08977,-79.89764 123.74652,-86.530252 9.38136,-1.159647 31.26825,-0.967306 40.58306,0.356641 9.16013,1.301964 17.84844,3.277861 29.06168,6.609201 8.99895,2.67351 10.92352,2.4463 15.3126,-1.80776 l 2.5086,-2.43143 5.94235,2.90052 c 8.7995,4.29511 9.59437,5.09381 9.0308,9.07435 -0.58548,4.13542 1.20708,7.90251 4.96538,10.43479 3.27702,2.20799 7.84296,1.98021 11.42431,-0.56993 2.78726,-1.9847 2.83146,-1.96626 10.05453,4.19689 4.85928,4.14623 5.31356,4.77781 4.93944,6.86727 -0.22661,1.2656 -0.60588,3.42194 -0.84281,4.79186 -0.69741,4.03236 0.12513,5.66863 7.07357,14.07123 16.16448,19.54736 27.43329,41.16224 33.27841,63.8319 12.00066,46.54321 3.037,94.34573 -25.11573,133.94019 -5.87568,8.26364 -19.09079,22.34089 -27.76272,29.57391 -19.44928,16.2221 -44.94281,28.35894 -70.77683,33.6951 -11.08803,2.29029 -34.79581,3.22826 -48.88949,1.93426 z m -34.89991,-61.96863 c 1.55198,-0.95295 10.03168,-13.12494 26.04791,-37.38989 66.63368,-100.95154 93.55059,-142.073 94.54892,-144.44413 3.92694,-9.32677 -8.5215,-17.85586 -16.0857,-11.02118 -1.47403,1.33186 -19.11426,27.76333 -59.52537,89.19059 -10.96257,16.66375 -28.95136,43.9888 -39.9751,60.72233 -12.7365,19.33343 -20.19663,31.37032 -20.46415,33.01883 -1.3192,8.12931 8.30759,14.31116 15.45349,9.92345 z m 121.92607,0.24418 c 17.58571,-4.58049 31.03693,-22.02528 31.08529,-40.31427 0.0144,-5.4528 -2.42794,-15.05911 -5.05667,-19.88894 -4.80617,-8.83052 -13.72767,-16.2994 -23.61739,-19.77194 -7.24086,-2.54245 -18.2975,-2.64955 -25.82914,-0.25018 -20.62374,6.57013 -32.93394,28.57003 -27.91079,49.88014 3.29841,13.99309 15.53575,26.52865 29.58634,30.30733 5.48938,1.47628 16.14862,1.49484 21.74236,0.0379 z M 209.13422,239.57744 c 18.05032,-4.70152 31.12998,-21.73192 31.0853,-40.47472 -0.0332,-13.92173 -7.5331,-27.45468 -19.5161,-35.21517 -13.0419,-8.44624 -31.5555,-8.44078 -44.55152,0.0132 -18.33644,11.92789 -24.56544,35.07325 -14.73399,54.74773 4.61143,9.22828 15.66485,18.11867 25.97396,20.89114 5.48938,1.47628 16.14862,1.49484 21.74235,0.0379 z"
     id="path5078"
     inkscape:connector-curvature="0"
     transform="translate(-4)" />
  <path
     style="fill:#ffb52f;fill-opacity:0.32835819;stroke-width:0.76703107"
     d="m 311.27449,333.44855 c -4.74979,-0.70312 -10.07423,-3.9808 -13.26736,-8.16727 -6.47096,-8.48401 -5.24876,-20.79398 2.78352,-28.03536 4.55465,-4.10617 7.89208,-5.36841 14.22573,-5.38028 18.06375,-0.0338 27.16669,19.65361 15.99111,34.58489 -3.9457,5.27171 -12.02926,8.13842 -19.733,6.99802 z"
     id="path5080"
     inkscape:connector-curvature="0"
     transform="translate(-4)" />
  <path
     style="fill:#ffb52f;fill-opacity:0.32835819;stroke-width:0.76703107"
     d="m 189.00837,218.06485 c -12.16567,-6.06241 -15.4129,-22.13862 -6.56071,-32.48042 4.17991,-4.88328 9.43526,-7.25663 15.98,-7.21666 6.27067,0.0383 9.81607,1.37992 14.26271,5.39719 4.12201,3.724 6.18554,7.98224 6.64561,13.71373 0.71451,8.90132 -3.61151,16.66063 -11.47285,20.5781 -5.61456,2.79785 -13.24983,2.80112 -18.85476,0.008 z"
     id="path5082"
     inkscape:connector-curvature="0"
     transform="translate(-4)" />
  <path
     style="fill:#ffb52f;fill-opacity:0.32835819;stroke-width:0.76703107"
     d="m 192.01816,219.16281 c -11.71737,-3.37228 -17.96313,-18.09653 -12.34637,-29.10629 3.91118,-7.66654 10.10318,-11.4441 18.71471,-11.41728 8.6331,0.0269 15.42457,4.08681 18.95384,11.33057 2.72233,5.58751 2.49919,13.75032 -0.52684,19.2729 -4.7227,8.61906 -15.01226,12.7357 -24.79534,9.9201 z"
     id="path5084"
     inkscape:connector-curvature="0"
     transform="translate(-4)" />
  <path
     style="fill:#ffb52f;fill-opacity:0.32835819;stroke-width:0.76703107"
     d="m 193.05844,219.32484 c -14.90374,-3.62829 -20.36526,-23.73769 -9.41966,-34.68329 9.85028,-9.85028 27.2258,-7.17185 33.2417,5.12421 2.62277,5.36075 2.84467,12.91396 0.53204,18.10981 -3.87902,8.71509 -14.69626,13.80046 -24.35408,11.44927 z"
     id="path5086"
     inkscape:connector-curvature="0"
     transform="translate(-4)" />
  <path
     style="fill:#ffb52f;fill-opacity:0.32835819;stroke-width:0.76703107"
     d="m 242.14843,414.78688 c -9.83388,-0.57075 -17.89193,-2.12552 -33.62201,-6.48726 -11.20931,-3.1082 -12.68471,-3.03019 -17.29296,0.9143 l -3.15541,2.70092 -7.09519,-3.57833 c -3.90234,-1.96808 -7.35885,-3.97864 -7.6811,-4.46792 -0.32226,-0.48928 -0.38674,-2.14016 -0.1433,-3.66861 0.91738,-5.75969 -3.33676,-11.32237 -9.16099,-11.97884 -2.77967,-0.31331 -4.11704,-0.005 -6.79396,1.56318 l -3.33301,1.95327 -5.49527,-4.53492 c -6.62706,-5.46891 -7.50615,-6.85883 -6.38044,-10.08805 2.02166,-5.79932 1.29206,-7.53326 -7.99769,-19.00695 -11.6731,-14.41737 -23.59916,-35.73374 -28.6738,-51.25094 -9.376932,-28.6727 -10.644874,-60.85188 -3.51375,-89.17572 11.41083,-45.32225 41.17362,-82.87473 82.16394,-103.66837 21.95665,-11.1382 42.87546,-16.490492 67.37931,-17.239673 19.7347,-0.603368 33.27476,1.164633 54.0757,7.060963 10.98519,3.11392 12.58253,3.02235 17.00713,-0.97501 l 3.02816,-2.73576 6.12599,2.98676 c 7.83322,3.81913 8.71905,4.81802 8.72997,9.84412 0.01,4.6014 1.55393,7.46874 5.22779,9.70883 3.13265,1.9101 6.32966,1.89944 10.12149,-0.0337 1.65494,-0.84373 3.58435,-1.53406 4.28758,-1.53406 0.70323,0 3.78805,2.37864 6.85514,5.28587 4.39287,4.1639 5.45489,5.58848 5.0034,6.71152 -0.9368,2.33024 -1.41179,6.9534 -0.91695,8.92496 0.25388,1.01158 3.64121,5.77843 7.52737,10.59301 25.37182,31.43316 37.70545,65.3141 37.67046,103.48211 -0.0237,25.86917 -4.86423,46.68921 -16.31717,70.18335 -15.65005,32.10397 -40.23402,56.70121 -72.87349,72.91287 -25.86765,12.84818 -51.34683,17.5372 -84.75694,15.59813 z m -38.71882,-61.67332 c 2.33627,-1.20813 12.58507,-16.38992 71.19206,-105.45837 47.16565,-71.68039 49.92103,-75.97844 50.42282,-78.65314 0.59244,-3.15803 -1.41837,-7.61964 -4.42348,-9.81487 -2.86081,-2.08981 -8.29198,-2.13106 -11.10891,-0.0844 -2.39663,1.74131 -15.4319,21.0668 -63.86862,94.68863 -51.55324,78.35883 -56.90297,86.69185 -57.325,89.29253 -1.26355,7.78635 7.80703,13.80669 15.11113,10.02959 z m 122.29334,-0.0155 c 17.58571,-4.58049 31.03693,-22.02528 31.08529,-40.31427 0.0146,-5.51837 -2.43574,-15.06982 -5.14936,-20.07234 -4.71704,-8.69577 -13.6253,-16.11322 -23.5247,-19.58778 -7.29746,-2.56131 -18.35184,-2.67615 -25.82914,-0.26832 -29.02003,9.34501 -38.60259,46.02081 -17.85778,68.34796 10.19857,10.97647 26.62602,15.7105 41.27569,11.89475 z M 209.13422,239.57746 c 18.05032,-4.70151 31.12998,-21.73191 31.0853,-40.47472 -0.0427,-17.9322 -12.35399,-34.56449 -29.48751,-39.83715 -7.37835,-2.27061 -17.23035,-2.27061 -24.6087,0 -16.95211,5.21681 -29.49885,22.11159 -29.49885,39.72158 0,5.88723 2.37423,15.33454 5.1607,20.53505 4.62456,8.63098 15.8252,17.38678 25.60671,20.01736 5.48938,1.47628 16.14862,1.49484 21.74235,0.0379 z"
     id="path5088"
     inkscape:connector-curvature="0"
     transform="translate(-4)" />
  <path
     style="fill:#ffb52f;fill-opacity:0.32835819;stroke-width:0.76703107"
     d="m 235.62867,414.35543 c -7.27618,-1.15209 -15.74,-3.04599 -25.53069,-5.71286 -12.81142,-3.48967 -14.16561,-3.45074 -18.82948,0.54137 l -3.12038,2.67092 -6.3657,-3.18009 c -8.40165,-4.19718 -9.19013,-4.93745 -8.60145,-8.0754 1.68485,-8.98101 -8.29511,-15.64392 -16.14192,-10.77682 l -3.03705,1.88378 -4.54603,-3.56804 c -2.50031,-1.96243 -5.39792,-4.68335 -6.43913,-6.04651 -1.66377,-2.1782 -1.79049,-2.77281 -1.04602,-4.9084 2.10322,-6.03329 1.84563,-6.58243 -10.81223,-23.04968 -22.67627,-29.50071 -33.719264,-61.7816 -33.670161,-98.42468 0.01994,-14.88057 1.406958,-26.43677 4.711121,-39.25157 7.43895,-28.85114 22.24954,-54.26271 43.76315,-75.0875 31.51348,-30.50448 72.74958,-46.216923 116.89557,-44.541434 14.19608,0.538789 25.28243,2.341062 41.27186,6.709434 12.77929,3.49135 14.15225,3.41719 18.72125,-1.01126 l 2.493,-2.41631 3.99206,1.86324 c 2.19563,1.02478 5.48074,2.80484 7.30026,3.95568 3.14466,1.98901 3.30826,2.27339 3.30938,5.75274 0.002,4.59183 1.92135,8.48983 5.2897,10.74004 3.2262,2.15524 6.50697,2.21204 10.46283,0.18115 1.6712,-0.85798 3.75863,-1.38334 4.63875,-1.16747 0.88011,0.21588 3.90005,2.56052 6.71098,5.21032 5.0319,4.74346 5.09894,4.85906 4.34428,7.4904 -1.01078,3.52441 -0.97179,7.38566 0.0947,9.37845 0.47367,0.88505 3.64236,5.09062 7.04154,9.34571 25.47801,31.89331 37.33828,64.60599 37.34856,103.01376 0.004,15.59583 -1.34769,26.61556 -4.96686,40.48726 -11.73828,44.99102 -42.36103,82.33417 -84.28531,102.78238 -16.48951,8.04261 -33.38987,13.18574 -48.97142,14.90303 -6.93179,0.76397 -37.72091,0.98989 -42.02518,0.30836 z m -32.25002,-61.21552 c 2.29175,-1.18511 19.3683,-26.47742 74.84499,-110.85394 41.95235,-63.80686 46.32909,-70.66263 46.83595,-73.36446 0.57656,-3.07333 -1.47281,-7.56784 -4.43858,-9.73433 -2.86248,-2.09103 -8.29266,-2.13122 -11.10891,-0.0822 -2.33402,1.69816 -21.84419,30.64239 -68.47763,101.58975 -36.17726,55.03948 -50.11122,76.48387 -51.72564,79.60581 -4.38879,8.48698 5.33215,17.35781 14.06982,12.83938 z m 122.3443,-0.0419 c 17.43929,-4.54235 31.09663,-22.12817 31.09663,-40.04146 0,-5.77926 -2.40715,-15.26901 -5.1607,-20.34514 -10.4397,-19.24541 -34.79199,-27.10758 -54.66773,-17.64952 -7.29032,3.46916 -15.56511,11.45743 -19.07604,18.41551 -4.57199,9.06097 -5.82666,19.49333 -3.52086,29.27543 3.29841,13.99309 15.53575,26.52865 29.58634,30.30733 5.48938,1.47628 16.14862,1.49484 21.74236,0.0379 z M 209.13422,239.57743 c 7.01926,-1.82829 13.35066,-5.56775 18.95468,-11.19506 15.82155,-15.88729 16.26774,-40.60984 1.03441,-57.31377 -8.14649,-8.93294 -18.47829,-13.46515 -30.69565,-13.46515 -19.5236,0 -35.70207,12.7841 -40.63607,32.11029 -2.29213,8.97818 -0.66716,21.10791 3.99357,29.81022 4.57966,8.55092 15.91098,17.40811 25.60671,20.01562 5.48938,1.47628 16.14862,1.49484 21.74235,0.0379 z"
     id="path5090"
     inkscape:connector-curvature="0"
     transform="translate(-4)" />
  <path
     style="fill:#ffb52f;fill-opacity:0.32835819;stroke-width:0.76703107"
     d="m 307.14945,332.04709 c -5.12177,-2.32481 -8.19282,-5.04896 -10.60974,-9.41129 -1.90993,-3.44725 -2.23267,-4.86239 -2.23111,-9.78297 10e-4,-4.60237 0.38082,-6.49551 1.89716,-9.46722 4.6451,-9.10341 15.02164,-13.35147 25.50277,-10.4406 4.23661,1.17661 8.95978,5.18578 11.55756,9.81039 1.90112,3.3844 2.30719,4.99165 2.34653,9.28757 0.0908,9.91946 -5.87185,18.2729 -14.81703,20.75797 -4.2685,1.18584 -10.08012,0.86479 -13.64614,-0.75385 z"
     id="path5092"
     inkscape:connector-curvature="0"
     transform="translate(-4)" />
  <path
     style="fill:#ffb52f;fill-opacity:0.32835819;stroke-width:0.76703107"
     d="m 307.9402,332.29393 c -4.67234,-1.65444 -10.55006,-7.22868 -12.23199,-11.60042 -3.90106,-10.13978 0.59523,-21.92688 10.17789,-26.68147 4.05703,-2.01295 14.05338,-2.0516 18.08071,-0.0699 3.99941,1.96797 8.84136,7.1262 10.31753,10.99151 1.87353,4.90576 1.16548,13.57959 -1.47652,18.08783 -5.15691,8.7996 -15.40813,12.62201 -24.86762,9.27246 z"
     id="path5094"
     inkscape:connector-curvature="0"
     transform="translate(-4)" />
  <path
     style="fill:#ffb52f;fill-opacity:0.32835819;stroke-width:0.76703107"
     d="m 309.37062,332.72799 c -5.72107,-1.74716 -11.47165,-6.79914 -13.64625,-11.98845 -1.35146,-3.22503 -1.32682,-12.60512 0.0417,-15.88046 1.50271,-3.59648 6.28788,-8.68524 9.99362,-10.62764 4.45008,-2.33256 14.08605,-2.32037 18.55941,0.0235 4.08949,2.14272 8.97337,7.71415 10.12157,11.54647 2.95406,9.85979 -1.57483,21.27517 -10.07268,25.38891 -3.8916,1.88389 -11.35725,2.64935 -14.99737,1.53769 z"
     id="path5096"
     inkscape:connector-curvature="0"
     transform="translate(-4)" />
  <path
     style="fill:#ffb52f;fill-opacity:0.32835819;stroke-width:0.76703107"
     d="m 191.88441,218.90984 c -13.49668,-4.3388 -18.37708,-22.37118 -8.95246,-33.07811 4.53187,-5.14849 8.18387,-6.78988 15.11219,-6.79218 8.5724,-0.003 15.45174,3.86141 18.96331,10.65205 1.64594,3.18289 2.18024,11.87177 0.99118,16.11867 -2.78237,9.93766 -15.73641,16.43574 -26.11422,13.09957 z"
     id="path5098"
     inkscape:connector-curvature="0"
     transform="translate(-4)" />
  <path
     style="fill:#ffb52f;fill-opacity:0.32835819;stroke-width:0.76703107"
     d="m 192.53728,219.00912 c -8.77519,-2.45342 -14.44564,-10.45052 -14.42845,-20.3486 0.0316,-18.21642 23.2351,-26.7917 35.52057,-13.1273 3.80752,4.23488 5.12764,7.91668 5.11709,14.27152 -0.0219,13.19673 -13.18894,22.84466 -26.20921,19.20438 z"
     id="path5100"
     inkscape:connector-curvature="0"
     transform="translate(-4)" />
  <path
     style="fill:#ffb52f;fill-opacity:0.32835819;stroke-width:0.76703107"
     d="m 233.71109,414.02253 c -2.5312,-0.36211 -11.57044,-2.40293 -20.0872,-4.53516 -9.52722,-2.38521 -16.21873,-3.69263 -17.39205,-3.39814 -1.04888,0.26325 -3.29681,1.66821 -4.99539,3.12213 l -3.08833,2.6435 -5.98218,-3.03243 c -8.5423,-4.33017 -9.02623,-4.77842 -8.79914,-8.15045 0.65435,-9.71614 -8.10108,-15.61243 -16.16534,-10.88646 l -3.33507,1.95448 -5.2563,-4.45174 c -6.64373,-5.6268 -7.25762,-6.74136 -6.29674,-11.43209 0.41035,-2.0032 0.52274,-4.5321 0.24975,-5.61978 -0.27299,-1.08768 -3.31625,-5.55597 -6.76279,-9.92953 -22.11819,-28.06732 -34.13454,-55.66747 -37.427705,-85.96711 -1.03875,-9.55729 -1.040381,-29.08284 -0.0031,-37.44311 6.103565,-49.19479 34.531785,-92.70488 77.162745,-118.09947 22.61727,-13.47276 46.9598,-20.656998 74.28652,-21.92427 18.26491,-0.847032 33.90623,1.165395 57.10949,7.34776 9.96311,2.65461 11.61979,2.47701 15.93825,-1.7086 l 2.50809,-2.43094 3.64176,1.75059 c 2.00298,0.96282 5.2813,2.79304 7.28517,4.06716 3.49079,2.21955 3.64345,2.46584 3.64458,5.88002 0.002,4.50081 1.94318,8.40756 5.2897,10.64319 3.1879,2.12965 6.31232,2.18514 10.70877,0.1902 1.83901,-0.83447 3.64225,-1.51722 4.00722,-1.51722 0.36496,0 3.11443,2.10939 6.10993,4.68754 l 5.44636,4.68753 -0.52167,5.567 c -0.62305,6.64883 -0.67381,6.53549 7.53556,16.82351 19.02704,23.84476 29.85299,47.01713 35.14934,75.23526 2.24857,11.98003 2.81245,35.79171 1.14641,48.41109 -5.1565,39.05793 -25.30209,76.13989 -54.78519,100.84305 -24.22346,20.29623 -54.12423,33.47165 -83.36768,36.73499 -8.19567,0.91457 -36.41077,0.87351 -42.95374,-0.0625 z m -30.1621,-61.09232 c 2.37829,-1.39413 22.56896,-31.32868 77.47431,-114.86291 48.60727,-73.9522 45.78086,-69.07553 43.13,-74.41631 -0.80663,-1.62516 -2.39616,-3.63387 -3.53229,-4.46381 -2.87276,-2.09854 -8.29681,-2.13217 -11.10891,-0.0689 -2.35725,1.72957 -24.09551,33.98154 -70.01485,103.87751 -35.1753,53.54198 -48.57235,74.17959 -50.21002,77.34649 -4.43263,8.57175 5.76231,17.57016 14.26176,12.58791 z m 122.17396,0.16783 c 17.3796,-4.52681 31.09663,-22.12716 31.09663,-39.90015 0,-5.9059 -2.38305,-15.3659 -5.1607,-20.48646 -4.71704,-8.69578 -13.6253,-16.11322 -23.5247,-19.58778 -7.29746,-2.56131 -18.35184,-2.67615 -25.82914,-0.26832 -20.66356,6.65406 -32.93343,28.58954 -27.91079,49.89752 3.29131,13.96296 15.56601,26.53679 29.58634,30.30733 5.48938,1.47628 16.14862,1.49484 21.74236,0.0379 z M 209.13422,239.57744 c 6.88573,-1.79351 13.3124,-5.58902 18.93585,-11.18329 15.83092,-15.74878 16.28789,-40.62018 1.05324,-57.32554 -13.56851,-14.8784 -36.32281,-17.96308 -52.97141,-7.18106 -19.73027,12.7778 -25.37738,39.58215 -12.35416,58.63982 5.29307,7.74568 14.90126,14.67464 23.58822,17.0107 5.49476,1.47762 16.15237,1.49691 21.74826,0.0393 z"
     id="path5102"
     inkscape:connector-curvature="0"
     transform="translate(-4)" />
  <path
     style="fill:#ffb52f;fill-opacity:0.32835819;stroke-width:0.76703107"
     d="m 233.71109,414.02253 c -2.5312,-0.36211 -11.57044,-2.40293 -20.0872,-4.53516 -9.52722,-2.38521 -16.21873,-3.69263 -17.39205,-3.39814 -1.04888,0.26325 -3.3122,1.68138 -5.0296,3.15141 l -3.12254,2.67278 -7.09852,-3.72246 -7.09852,-3.72246 -0.45392,-4.7211 c -0.5141,-5.34693 -1.98236,-8.06071 -5.53224,-10.22521 -3.29205,-2.00729 -7.17732,-1.8817 -10.86643,0.35127 l -3.04604,1.84372 -2.70669,-2.15694 c -1.48869,-1.18632 -4.21058,-3.55207 -6.04865,-5.25724 l -3.34196,-3.10029 0.5354,-5.33126 c 0.63541,-6.32714 0.56804,-6.48435 -6.79095,-15.84621 -26.33393,-33.50113 -38.068109,-65.65574 -38.068109,-104.31622 0,-6.49573 0.53339,-15.87934 1.185311,-20.85248 7.471138,-56.99309 45.644368,-105.8261 99.361888,-127.10845 18.97843,-7.51907 36.16753,-10.688949 58.22824,-10.73798 17.84124,-0.03965 23.81492,0.735866 44.2194,5.74068 17.17972,4.21384 17.68665,4.20697 22.36425,-0.30328 l 2.53655,-2.4458 5.72129,3.02252 c 7.74499,4.09165 8.76463,5.14875 8.76608,9.08809 0.002,4.18819 2.02254,8.12715 5.2897,10.30976 3.1879,2.12965 6.31232,2.18514 10.70877,0.1902 1.83901,-0.83447 3.63145,-1.51722 3.98322,-1.51722 0.35177,0 3.09997,2.12286 6.10713,4.71747 l 5.46755,4.71747 -0.51887,5.53707 c -0.61787,6.59366 -0.64332,6.53618 7.31406,16.52451 25.55241,32.07414 37.60001,65.4324 37.57704,104.046 -0.0145,24.33128 -4.95706,46.08877 -15.36586,67.64124 -8.78595,18.19222 -17.53074,30.64098 -31.01134,44.14663 -25.31999,25.36705 -59.70278,42.21798 -93.10568,45.63091 -9.24705,0.94481 -35.98792,0.92362 -42.68071,-0.0338 z m -29.23086,-62.08054 c 2.69823,-2.36908 27.47904,-39.23706 76.54085,-113.87469 48.60087,-73.93642 45.78326,-69.07518 43.13222,-74.41631 -0.80663,-1.62516 -2.40259,-3.63867 -3.54657,-4.47447 -2.57984,-1.88485 -8.15491,-2.02163 -10.83462,-0.26582 -2.24142,1.46864 -13.50986,17.93964 -46.54507,68.03465 -46.59032,70.65015 -71.93974,109.52924 -73.95613,113.42851 -3.38765,6.551 1.53488,13.88888 9.32181,13.89578 2.51021,0.002 3.82674,-0.51827 5.88751,-2.32765 z m 121.24272,1.15605 c 17.39706,-4.53136 31.09663,-22.17156 31.09663,-40.04147 0,-5.72978 -2.38904,-15.20874 -5.1404,-20.39546 -4.65969,-8.78424 -15.99697,-17.61272 -26.32816,-20.50208 -5.43847,-1.52099 -17.1375,-1.15568 -23.04598,0.71962 -24.45425,7.7616 -36.29458,36.76024 -24.27873,59.46209 4.90772,9.27228 15.83962,17.99926 25.95428,20.71944 5.48938,1.47628 16.14862,1.49484 21.74236,0.0379 z M 209.13422,239.57744 c 17.86551,-4.65338 31.09663,-21.77707 31.09663,-40.24521 0,-17.99594 -12.3681,-34.79486 -29.49884,-40.06666 -7.37835,-2.27061 -17.23035,-2.27061 -24.6087,0 -12.5785,3.8709 -22.95117,14.09213 -27.34307,26.94386 -2.44121,7.14354 -2.45558,18.23601 -0.0336,25.94015 3.97493,12.64399 15.77558,23.92923 28.63932,27.38849 5.49476,1.47762 16.15237,1.49691 21.74827,0.0393 z"
     id="path5104"
     inkscape:connector-curvature="0"
     transform="translate(-4)" />
  <path
     style="fill:#ffb52f;fill-opacity:0.32835819;stroke-width:0.76703107"
     d="m 233.71109,414.06044 c -2.5312,-0.39302 -10.29739,-2.13629 -17.2582,-3.87394 -21.03865,-5.25195 -20.39922,-5.2351 -25.59287,-0.67501 l -2.75235,2.4166 -7.1125,-3.72979 -7.11251,-3.7298 -0.45392,-4.7211 c -0.5141,-5.34693 -1.98236,-8.06071 -5.53224,-10.22521 -3.29205,-2.00729 -7.17732,-1.8817 -10.86643,0.35127 l -3.04604,1.84372 -2.70669,-2.15694 c -1.48869,-1.18632 -4.21058,-3.55207 -6.04865,-5.25724 l -3.34196,-3.10029 0.54661,-5.44287 c 0.62136,-6.18728 0.3212,-6.83645 -7.98467,-17.26866 C 120.28121,340.6968 109.05221,319.40043 103.3072,299.42979 98.085344,281.27771 96.131987,254.56091 98.638796,235.57825 109.53738,153.04943 181.67034,92.714269 264.39233,96.934742 c 12.00856,0.612676 24.16947,2.581202 37.58453,6.083928 14.66363,3.82874 16.05289,3.8207 20.41273,-0.11815 l 3.15894,-2.85392 5.67638,3.00008 c 7.69826,4.0687 8.71972,5.13051 8.72117,9.06564 0.002,4.18819 2.02254,8.12715 5.2897,10.30976 3.24789,2.16972 6.01757,2.19847 10.8659,0.11277 4.26147,-1.83323 3.39313,-2.16832 10.92391,4.21555 l 4.45329,3.77507 -0.51372,5.88914 -0.51371,5.88914 6.19494,7.99616 c 27.90901,36.02373 39.23458,66.89741 39.23458,106.95407 0,31.20787 -9.35558,61.24146 -27.50171,88.28692 -23.67759,35.28968 -60.76361,59.36909 -104.04412,67.55436 -7.30904,1.38229 -43.49437,2.07219 -50.62405,0.96518 z m -29.49492,-61.85331 c 2.98975,-2.51571 79.82232,-117.76664 113.15504,-169.7356 8.74644,-13.63656 9.33987,-15.89928 5.49263,-20.94327 -4.09677,-5.37115 -11.53323,-5.3507 -15.71248,0.0432 -7.65165,9.87554 -113.73014,170.77658 -117.88045,178.80239 -4.67436,9.03921 7.14455,18.39713 14.94526,11.83327 z m 124.92144,-0.0963 c 16.16798,-6.30958 27.62639,-22.5949 27.67063,-39.32704 0.0145,-5.48401 -2.42221,-15.02521 -5.1391,-20.12266 -1.16371,-2.18337 -4.36402,-6.24355 -7.1118,-9.02263 -20.39975,-20.63211 -54.68888,-14.99344 -67.03487,11.02356 -4.41301,9.29961 -5.42196,18.35988 -3.12822,28.09081 3.27471,13.89255 15.46469,26.39851 29.58634,30.35326 6.03772,1.69086 19.65431,1.15213 25.15702,-0.9953 z M 209.13422,239.57744 c 17.65058,-4.59739 31.09663,-21.88678 31.09663,-39.98509 0,-18.02309 -12.16308,-34.84721 -29.09185,-40.24024 -6.99609,-2.22876 -18.42659,-2.22876 -25.42268,0 -12.30477,3.91995 -22.60837,14.19343 -26.93608,26.85732 -2.43134,7.11466 -2.45483,18.2393 -0.0546,25.87089 3.99163,12.69165 15.79255,23.9974 28.66036,27.45775 5.49476,1.47762 16.15237,1.49691 21.74826,0.0393 z"
     id="path5106"
     inkscape:connector-curvature="0"
     transform="translate(-4)" />
  <path
     style="fill:#ffb52f;fill-opacity:0.32835819;stroke-width:0.76703107"
     d="m 233.97193,414.09353 c -2.38775,-0.37797 -11.39361,-2.39191 -20.01303,-4.47544 -8.61942,-2.08353 -16.5698,-3.61654 -17.66753,-3.4067 -1.09772,0.20984 -3.39442,1.57864 -5.10376,3.04178 l -3.10791,2.66025 -7.09852,-3.72246 -7.09852,-3.72246 -0.45392,-4.7211 c -0.5141,-5.34693 -1.98236,-8.06071 -5.53224,-10.22521 -3.29205,-2.00729 -7.17732,-1.8817 -10.86643,0.35127 l -3.04604,1.84372 -2.70669,-2.15694 c -1.48869,-1.18632 -4.21058,-3.55207 -6.04865,-5.25724 l -3.34196,-3.10029 0.54661,-5.44287 c 0.62136,-6.18728 0.3212,-6.83645 -7.98467,-17.26866 C 114.09009,332.92073 101.64901,303.63454 98.374408,273.57272 90.739976,203.4863 129.75169,136.77416 194.4579,109.26476 c 33.42204,-14.209146 69.298,-16.267487 107.71456,-6.17999 13.48416,3.5407 16.12065,3.51667 20.21713,-0.18425 l 3.15894,-2.85392 5.67638,3.00008 c 7.69826,4.0687 8.71972,5.13051 8.72117,9.06564 0.002,4.18819 2.02254,8.12715 5.2897,10.30976 3.24789,2.16972 6.01757,2.19847 10.8659,0.11277 4.26147,-1.83323 3.39313,-2.16832 10.92391,4.21555 l 4.45329,3.77507 -0.51262,5.87652 -0.51261,5.87653 5.85536,7.62526 c 17.44608,22.71949 25.61916,37.34599 32.13807,57.51412 10.6726,33.01876 9.8567,71.34079 -2.20615,103.62188 -19.93576,53.34956 -65.46694,91.46305 -121.90579,102.04555 -7.23415,1.35643 -43.56818,2.08378 -50.36321,1.0082 z m -29.7993,-61.84977 c 3.91836,-3.29708 113.86789,-169.16213 119.65609,-180.50794 1.99815,-3.9167 1.68523,-6.73309 -1.163,-10.46731 -3.89209,-5.10278 -11.39941,-4.95663 -15.56179,0.30296 -6.10347,7.71236 -114.11227,171.60726 -117.83302,178.80239 -1.55338,3.0039 -1.51413,5.28134 0.14413,8.36428 3.02728,5.62809 10.20801,7.33385 14.75759,3.50562 z m 124.86602,-0.1167 c 8.77578,-3.38071 16.64538,-10.12493 21.85919,-18.73327 7.28,-12.01979 7.70303,-26.69995 1.14741,-39.8189 -4.74286,-9.49132 -16.84257,-19.04875 -27.09966,-21.40573 -6.11182,-1.40444 -16.86052,-1.0513 -22.64055,0.74385 -19.87328,6.17219 -32.52123,27.89999 -28.25044,48.53117 2.9946,14.46617 15.38549,27.57781 29.92599,31.66672 5.89419,1.6575 19.59825,1.11945 25.05806,-0.98384 z M 209.01783,239.60775 c 9.33565,-2.43162 17.45871,-8.08547 23.22355,-16.16418 13.92354,-19.51209 8.9191,-45.84706 -11.27488,-59.33209 -12.25677,-8.18475 -30.40304,-8.68855 -43.30546,-1.20231 -21.2481,12.32856 -27.43733,41.57673 -12.89252,60.92559 3.46721,4.61241 10.47119,10.44817 15.80641,13.17 7.21229,3.67944 19.86467,4.83734 28.4429,2.60299 z"
     id="path5108"
     inkscape:connector-curvature="0"
     transform="translate(-4)" />
  <path
     style="fill:#ffb52f;fill-opacity:0.32835819;stroke-width:0.76703107"
     d="m 233.63854,414.00564 c -2.57111,-0.37014 -10.95825,-2.22594 -18.63809,-4.124 -17.38236,-4.29602 -19.4541,-4.3594 -23.70013,-0.72495 l -3.18479,2.72606 -7.11643,-3.68485 -7.11644,-3.68485 -0.53716,-4.87041 c -0.60972,-5.52833 -1.92542,-7.97199 -5.449,-10.12045 -3.26197,-1.98895 -6.47771,-1.88882 -10.65396,0.33171 l -3.44557,1.83203 -5.85669,-4.96754 -5.85669,-4.96753 0.1754,-6.30831 0.1754,-6.30833 -7.85258,-10.40399 C 108.21831,323.80084 97.563071,293.9471 97.563071,255.0115 c 0,-60.6048 35.190489,-116.31592 90.126149,-142.6814 22.65545,-10.87311 42.86752,-15.324212 69.41632,-15.286853 17.63321,0.02481 26.66977,1.232094 45.2022,6.039003 13.59562,3.52641 16.00035,3.50566 20.0724,-0.1732 l 3.14951,-2.84539 5.53082,2.84716 c 7.61058,3.91777 8.88442,5.23879 8.88442,9.21347 0,4.06364 2.08728,8.07312 5.36883,10.31307 3.15699,2.15493 5.94672,2.18014 10.78796,0.0975 4.26147,-1.83323 3.39313,-2.16832 10.92391,4.21555 l 4.45329,3.77507 -0.512,5.86948 -0.51201,5.86947 4.07553,5.33122 c 11.27618,14.75041 14.31786,19.07731 19.19982,27.31236 33.9764,57.31258 28.64371,129.6235 -13.39724,181.6656 -25.52628,31.59877 -66.67133,54.17338 -104.8187,57.50977 -10.49026,0.91748 -35.28234,0.87146 -41.87574,-0.0777 z m -29.57729,-61.66816 c 4.3521,-3.66205 116.03076,-172.35652 119.91268,-181.13224 1.91193,-4.32225 1.33812,-7.16456 -2.15074,-10.65341 -3.25311,-3.25311 -8.57896,-3.83774 -12.43457,-1.36497 -1.69562,1.08747 -48.53752,71.06692 -90.27997,134.87371 -33.6429,51.42598 -32.53754,49.38211 -29.63434,54.79543 2.84203,5.29926 10.30873,7.08135 14.58694,3.48148 z m 122.13936,0.52886 c 16.64963,-4.34629 30.66938,-22.60503 30.60565,-39.8595 -0.0396,-10.73766 -4.60863,-21.71645 -12.16652,-29.23498 -8.69791,-8.65261 -17.67969,-12.33871 -30.0653,-12.33871 -9.09998,0 -15.47269,1.77546 -21.98725,6.12571 -22.65108,15.12582 -25.94137,45.54838 -6.97723,64.51253 5.5823,5.58229 13.54414,10.14761 19.81854,11.36393 5.70605,1.10613 15.36904,0.84145 20.77211,-0.56898 z M 207.33558,239.98581 c 18.1809,-3.3712 32.89527,-21.87377 32.89527,-41.36415 0,-17.88369 -14.42015,-35.98476 -31.83222,-39.95779 -4.91369,-1.12118 -15.01656,-1.12388 -19.91823,-0.005 -14.78837,3.37473 -27.45353,16.57166 -30.72622,32.0163 -1.39384,6.57791 -1.39184,10.74616 0.008,17.35466 1.27916,6.03727 4.41967,12.72918 8.15561,17.3783 5.17629,6.44152 15.71214,13.07799 23.05684,14.52337 4.70877,0.92664 13.51644,0.95284 18.36059,0.0546 z"
     id="path5110"
     inkscape:connector-curvature="0"
     transform="translate(-4)" />
</svg>
