<?xml version="1.0" encoding="UTF-8" standalone="no"?>
<svg
   xmlns:dc="http://purl.org/dc/elements/1.1/"
   xmlns:cc="http://creativecommons.org/ns#"
   xmlns:rdf="http://www.w3.org/1999/02/22-rdf-syntax-ns#"
   xmlns:svg="http://www.w3.org/2000/svg"
   xmlns="http://www.w3.org/2000/svg"
   xmlns:sodipodi="http://sodipodi.sourceforge.net/DTD/sodipodi-0.dtd"
   xmlns:inkscape="http://www.inkscape.org/namespaces/inkscape"
   id="Capa_1"
   enable-background="new 0 0 511.242 511.242"
   height="512"
   viewBox="0 0 511.242 511.242"
   width="512"
   version="1.1"
   sodipodi:docname="24clock.svg"
   inkscape:version="0.92.4 (5da689c313, 2019-01-14)">
  <metadata
     id="metadata6974">
    <rdf:RDF>
      <cc:Work
         rdf:about="">
        <dc:format>image/svg+xml</dc:format>
        <dc:type
           rdf:resource="http://purl.org/dc/dcmitype/StillImage" />
        <dc:title></dc:title>
      </cc:Work>
    </rdf:RDF>
  </metadata>
  <defs
     id="defs6972" />
  <sodipodi:namedview
     pagecolor="#ffffff"
     bordercolor="#666666"
     borderopacity="1"
     objecttolerance="10"
     gridtolerance="10"
     guidetolerance="10"
     inkscape:pageopacity="0"
     inkscape:pageshadow="2"
     inkscape:window-width="1920"
     inkscape:window-height="1001"
     id="namedview6970"
     showgrid="false"
     inkscape:zoom="0.4609375"
     inkscape:cx="-100.88136"
     inkscape:cy="169.22034"
     inkscape:window-x="-9"
     inkscape:window-y="-9"
     inkscape:window-maximized="1"
     inkscape:current-layer="Capa_1" />
  <circle
     cx="262.726"
     cy="255.621"
     fill="#ff5757"
     r="207.752"
     id="circle6933" />
  <path
     d="m470.476 255.621c0 114.74-93.01 207.75-207.75 207.75-50.18 0-96.21-17.79-132.11-47.41 28.29 14.43 60.31 22.56 94.24 22.56 114.74 0 207.76-93.01 207.76-207.75 0-64.54-29.43-122.21-75.6-160.31 67.35 34.35 113.46 104.37 113.46 185.16z"
     fill="#f72c2c"
     id="path6935" />
  <g
     fill="#fff5f5"
     id="g6961">
    <path
       d="m262.726 105.217c-4.143 0-7.5-3.358-7.5-7.5v-27.071c0-4.142 3.357-7.5 7.5-7.5s7.5 3.358 7.5 7.5v27.071c0 4.142-3.358 7.5-7.5 7.5z"
       id="path6937" />
    <path
       d="m262.726 448.096c-4.143 0-7.5-3.358-7.5-7.5v-27.071c0-4.142 3.357-7.5 7.5-7.5s7.5 3.358 7.5 7.5v27.071c0 4.142-3.358 7.5-7.5 7.5z"
       id="path6939" />
    <path
       d="m183.78 126.374c-2.592 0-5.113-1.345-6.502-3.751l-13.535-23.444c-2.071-3.587-.842-8.174 2.745-10.245 3.586-2.071 8.175-.843 10.245 2.745l13.535 23.444c2.071 3.587.842 8.174-2.745 10.245-1.18.682-2.47 1.006-3.743 1.006z"
       id="path6941" />
    <path
       d="m355.22 423.315c-2.592 0-5.113-1.345-6.502-3.751l-13.535-23.444c-2.071-3.587-.842-8.174 2.745-10.245 3.586-2.071 8.175-.843 10.245 2.745l13.535 23.444c2.071 3.587.842 8.174-2.745 10.245-1.181.682-2.471 1.006-3.743 1.006z"
       id="path6943" />
    <path
       d="m125.97 184.171c-1.272 0-2.563-.324-3.743-1.006l-23.443-13.536c-3.587-2.071-4.816-6.658-2.745-10.245 2.07-3.588 6.658-4.817 10.245-2.745l23.443 13.536c3.587 2.071 4.816 6.658 2.745 10.245-1.389 2.406-3.91 3.751-6.502 3.751z"
       id="path6945" />
    <path
       d="m422.911 355.61c-1.272 0-2.563-.324-3.743-1.006l-23.443-13.536c-3.587-2.071-4.816-6.658-2.745-10.245 2.069-3.588 6.658-4.817 10.245-2.745l23.443 13.536c3.587 2.071 4.816 6.658 2.745 10.245-1.389 2.406-3.91 3.751-6.502 3.751z"
       id="path6947" />
    <path
       d="m104.822 263.121h-27.071c-4.143 0-7.5-3.358-7.5-7.5s3.357-7.5 7.5-7.5h27.071c4.143 0 7.5 3.358 7.5 7.5s-3.357 7.5-7.5 7.5z"
       id="path6949" />
    <path
       d="m447.7 263.121h-27.071c-4.143 0-7.5-3.358-7.5-7.5s3.357-7.5 7.5-7.5h27.071c4.143 0 7.5 3.358 7.5 7.5s-3.357 7.5-7.5 7.5z"
       id="path6951" />
    <path
       d="m102.54 355.61c-2.592 0-5.112-1.345-6.502-3.751-2.071-3.587-.842-8.174 2.745-10.245l23.443-13.536c3.585-2.07 8.174-.842 10.245 2.745s.842 8.174-2.745 10.245l-23.443 13.536c-1.18.681-2.47 1.006-3.743 1.006z"
       id="path6953" />
    <path
       d="m399.481 184.171c-2.592 0-5.112-1.345-6.502-3.751-2.071-3.587-.842-8.174 2.745-10.245l23.443-13.536c3.585-2.07 8.173-.843 10.245 2.745 2.071 3.587.842 8.174-2.745 10.245l-23.443 13.536c-1.18.681-2.47 1.006-3.743 1.006z"
       id="path6955" />
    <path
       d="m170.231 423.315c-1.272 0-2.562-.324-3.743-1.006-3.587-2.071-4.816-6.658-2.745-10.245l13.535-23.444c2.07-3.587 6.656-4.817 10.245-2.745 3.587 2.071 4.816 6.658 2.745 10.245l-13.535 23.444c-1.388 2.406-3.91 3.751-6.502 3.751z"
       id="path6957" />
    <path
       d="m341.671 126.374c-1.272 0-2.562-.324-3.743-1.006-3.587-2.071-4.816-6.658-2.745-10.245l13.535-23.444c2.07-3.587 6.656-4.817 10.245-2.745 3.587 2.071 4.816 6.658 2.745 10.245l-13.535 23.444c-1.389 2.405-3.91 3.751-6.502 3.751z"
       id="path6959" />
  </g>
  <path
     d="m499.143 331.52c-3.899-1.386-8.189.657-9.575 4.561-16.463 46.412-46.404 86.207-86.588 115.081-41.042 29.492-89.541 45.08-140.254 45.08-64.272 0-124.697-25.029-170.145-70.476s-70.477-105.872-70.477-170.145 25.03-124.698 70.477-170.145 105.872-70.476 170.145-70.476c43.009 0 85.212 11.481 122.046 33.203 32.908 19.406 60.818 46.493 81.255 78.693l-11.163-4.527c-3.837-1.557-8.211.293-9.769 4.131-1.557 3.838.293 8.212 4.132 9.769l33.557 13.61c.907.368 1.864.55 2.818.55 1.333 0 2.66-.355 3.836-1.055 2.018-1.201 3.355-3.277 3.617-5.609l4.097-36.55c.462-4.116-2.501-7.827-6.618-8.289-4.101-.467-7.826 2.501-8.288 6.618l-1.804 16.091c-21.848-35.422-52.156-65.184-88.051-86.351-39.141-23.084-83.979-35.284-129.665-35.284-68.279 0-132.471 26.589-180.751 74.87-48.281 48.28-74.87 112.473-74.87 180.751s26.589 132.471 74.87 180.751c48.28 48.28 112.473 74.87 180.751 74.87 53.873 0 105.399-16.563 149.007-47.898 42.679-30.667 74.482-72.94 91.972-122.248 1.384-3.904-.658-8.191-4.562-9.576z"
     fill="#64dcfc"
     id="path6963" />
  <path
     d="m223.895 187.622c18.927 0 36.549 12.4 36.549 33.122 0 35.243-51.723 46.664-51.723 63.633v3.916h45.359c3.589 0 6.689 4.242 6.689 9.137s-3.101 9.463-6.689 9.463h-58.086c-3.753 0-9.301-2.61-9.301-6.689v-15.827c0-26.106 52.539-39.975 52.539-62.98 0-6.689-4.406-14.521-15.175-14.521-7.995 0-14.521 4.242-14.521 14.358 0 3.916-4.079 7.832-11.095 7.832-5.548 0-9.627-2.61-9.627-11.421 0-18.602 16.97-30.023 35.081-30.023z"
     fill="#ffcd6b"
     id="path6965" />
  <path
     d="m307.432 280.951h-39.159c-4.079 0-7.179-2.774-7.179-7.505 0-1.305.326-2.774 1.142-4.242l38.67-76.034c1.958-4.079 5.547-5.547 8.974-5.547 3.753 0 10.605 3.263 10.605 8.158 0 .815-.326 1.794-.815 2.773l-31.327 62.654h19.09v-17.132c0-4.732 5.384-6.69 10.605-6.69 5.385 0 10.605 1.958 10.605 6.69v17.132h7.669c4.405 0 6.689 4.895 6.689 9.953 0 4.895-3.264 9.79-6.689 9.79h-7.669v19.253c0 4.405-5.221 6.689-10.605 6.689-5.222 0-10.605-2.284-10.605-6.689v-19.253z"
     fill="#ffcd6b"
     id="path6967" />
  <path
     style="fill:#001232;fill-opacity:1;stroke-width:2.16949153"
     d="m 209.78983,438.08035 c -19.28005,-1.94048 -37.41797,-5.87538 -56.04946,-12.15955 -19.93396,-6.72347 -20.54882,-7.14233 -39.05084,-26.60256 C 92.064135,375.52108 77.248662,351.52519 67.373657,322.68308 33.240466,222.9896 79.836809,113.43771 175.41745,68.663118 206.33404,54.18029 225.30563,50.190222 262.94237,50.255043 c 36.17645,0.06231 50.78023,2.729683 78.81527,14.395605 26.33244,10.957442 48.7568,34.923138 68.56771,73.280682 8.98627,17.3991 9.56576,19.38908 5.97786,20.52784 -2.1852,0.69355 -8.54125,4.15805 -14.12458,7.6989 -10.71998,6.79841 -12.85047,12.4402 -6.64312,17.59184 3.00455,2.49356 5.3279,1.90376 16.17849,-4.10704 l 12.67011,-7.01874 2.30057,8.54372 c 3.29069,12.22065 6.41768,38.10578 6.49578,53.77182 l 0.067,13.43458 -9.22034,0.66711 c -8.65024,0.62587 -9.22034,1.06953 -9.22034,7.17559 0,5.9161 0.71711,6.56836 7.87899,7.16651 l 7.87901,0.65804 -1.98396,9.10466 c -2.93727,13.47971 -8.14193,29.21941 -14.2997,43.2445 -4.87511,11.1037 -6.02104,12.30507 -10.63292,11.14756 -9.70238,-2.43514 -15.07879,6.95702 -8.2818,14.46761 3.04211,3.36149 2.63307,4.63164 -4.59624,14.27252 -9.80823,13.08008 -23.86551,27.93446 -31.98433,33.79792 l -6.12268,4.42181 -3.2207,-4.59819 c -6.59714,-9.41874 -18.8813,-2.9033 -14.14107,7.50034 1.36861,3.00386 2.48841,6.27096 2.48841,7.26023 0,4.36406 -54.93773,28.37005 -64.9249,28.37005 -1.3753,0 -2.32934,-4.85587 -2.32934,-11.85588 0,-13.0056 -4.10983,-17.9917 -11.44585,-13.88627 -2.92433,1.63654 -3.74059,5.07857 -3.74059,15.77353 v 13.68016 l -14.64407,1.38305 c -14.65595,1.38416 -16.74808,1.38112 -30.91525,-0.0447 z m -25.1216,-29.67741 c 9.10322,-15.82731 8.98824,-21.28237 -0.47838,-22.69494 -4.66122,-0.69554 -11.2902,7.72198 -19.28617,24.48969 -2.96535,6.21842 -3.07566,8.0058 -0.67277,10.90111 5.47351,6.59517 11.49241,2.85616 20.43732,-12.69586 z m -65.98738,-59.49809 c 11.05927,-6.43013 14.09203,-9.29738 14.09203,-13.32289 0,-10.05967 -5.91182,-10.35444 -21.98996,-1.09646 -14.955794,8.61173 -18.524412,13.67402 -13.720153,19.46279 3.786303,4.5622 5.975713,4.05142 21.618083,-5.04344 z m 141.11486,-45.08871 c 2.00637,-2.41753 2.22335,-5.05058 0.75982,-9.22034 -2.04051,-5.81363 -2.14385,-5.83889 -26.40711,-6.4499 -13.39722,-0.33738 -24.35859,-1.47788 -24.35859,-2.53442 0,-5.31719 3.88953,-9.68728 17.3095,-19.44815 8.07475,-5.87308 18.22614,-14.32826 22.55863,-18.78929 23.85697,-24.56473 8.71915,-59.49607 -25.78318,-59.49607 -11.40443,0 -25.48997,6.3705 -30.29285,13.70063 -8.39367,12.81036 -5.76964,27.54663 4.8944,27.48648 7.96024,-0.0449 10.12693,-1.89921 12.60525,-10.78789 4.45043,-15.96184 25.12796,-13.72229 26.50722,2.87096 0.5871,7.06318 -0.45338,9.28345 -7.59322,16.20303 -4.55045,4.41007 -14.40126,12.67479 -21.89069,18.36603 -7.48942,5.69125 -15.54001,13.50142 -17.89019,17.35593 -4.85158,7.95704 -5.88723,27.32212 -1.68589,31.52347 1.79616,1.79614 12.81329,2.60339 35.53097,2.60339 27.18286,0 33.41754,-0.59036 35.73593,-3.38386 z m 68.88204,-10.17546 c 0.58925,-11.29765 1.11119,-12.47458 5.5322,-12.47458 6.11658,0 10.08836,-3.84358 10.08836,-9.76271 0,-5.91755 -3.97141,-9.76271 -10.08324,-9.76271 -4.3531,0 -4.94683,-1.22237 -5.5322,-11.38983 -0.5803,-10.07907 -1.2429,-11.47294 -5.75777,-12.11201 -2.8061,-0.3972 -7.44339,-0.13453 -10.30508,0.5837 -4.61991,1.15953 -5.20307,2.51703 -5.20307,12.11201 v 10.80613 h -8.67797 c -4.77288,0 -8.67796,-0.47952 -8.67796,-1.06561 0,-0.58608 7.06705,-15.23954 15.70453,-32.56325 12.6899,-25.45134 15.25023,-32.22245 13.33778,-35.27338 -2.99702,-4.78111 -10.91113,-6.03516 -15.26797,-2.41931 -5.42404,4.50155 -42.28618,79.98836 -41.55732,85.10166 0.62347,4.37391 2.03203,4.6986 22.90162,5.27883 l 22.23729,0.61828 v 10.33765 c 0,12.49198 2.97667,15.94774 13.00766,15.10127 l 7.60251,-0.64157 z m -216.8068,-33.5711 c 1.32796,-2.37293 1.33947,-5.14921 0.0315,-7.59322 -3.01111,-5.62631 -37.529132,-5.72141 -40.66829,-0.11205 -1.327959,2.37293 -1.339466,5.14921 -0.03147,7.59322 3.011108,5.62631 37.52913,5.72142 40.66829,0.11205 z m 19.38329,-76.9645 c 5.49421,-5.49421 2.61866,-10.51414 -10.95593,-19.12605 -14.66436,-9.30326 -19.18637,-10.37237 -23.235543,-5.49342 -4.720935,5.68838 -1.358712,10.60816 12.938503,18.9323 15.46764,9.0056 17.41377,9.52637 21.25297,5.68717 z m 59.79256,-60.74375 c 2.34677,-3.74436 -1.80209,-13.43216 -12.12559,-28.313872 -4.993,-7.197603 -13.72427,-8.089802 -15.78009,-1.612479 -1.23079,3.877857 7.31832,22.410731 14.80296,32.090051 2.86002,3.69866 10.18681,2.48876 13.10272,-2.1637 z m 164.72536,-10.06352 c 9.55394,-15.820275 9.87976,-22.795509 1.11212,-23.807435 -4.81935,-0.556228 -6.84407,0.891524 -11.44927,8.186654 -10.71781,16.978071 -13.01493,23.344861 -9.81426,27.201421 5.28608,6.36933 11.45088,2.82653 20.15141,-11.58064 z M 269.45085,85.063563 c 0,-15.642132 -0.68341,-19.720067 -3.61476,-21.569108 -2.62318,-1.654659 -4.55733,-1.497869 -7.05085,0.57157 -2.6246,2.178225 -3.43609,7.058642 -3.43609,20.665154 0,9.7974 0.69567,18.509121 1.54593,19.359381 0.85026,0.85026 4.02314,1.25704 7.05085,0.90396 5.43265,-0.63355 5.50492,-0.89518 5.50492,-19.930957 z"
     id="path7519"
     inkscape:connector-curvature="0"
     transform="scale(0.99851953)" />
  <path
     style="fill:#000124;fill-opacity:1;stroke-width:2.16949153"
     d="m 227.86259,460.33744 c -23.52816,-4.49256 -47.84075,-13.26722 -66.9781,-24.17312 -17.33996,-9.8816 -25.85373,-16.26379 -17.26415,-12.94178 30.68425,11.86718 62.50583,17.33352 92.54428,15.89736 17.26354,-0.82538 19.18453,-0.53211 19.18453,2.92884 0,2.11534 1.81768,4.81885 4.03929,6.00782 5.13413,2.7477 10.56984,-1.11265 11.53605,-8.19272 0.57603,-4.22089 3.31081,-5.9415 15.88229,-9.99237 18.52559,-5.96949 38.20881,-14.69894 46.5739,-20.6554 l 6.22821,-4.43488 5.0989,9.24329 c 5.58946,10.13261 13.34548,12.49343 17.79474,5.41644 1.90883,-3.03618 1.22691,-5.90787 -3.30036,-13.89839 l -5.70628,-10.0715 9.54634,-8.26231 c 11.73639,-10.15775 30.87159,-31.69492 33.85477,-38.10443 l 2.20605,-4.73977 11.57942,6.53501 c 13.32849,7.52214 20.3955,6.95725 20.3955,-1.63025 0,-4.10086 -2.57981,-6.97083 -10.93439,-12.16434 -6.01392,-3.73844 -10.46619,-7.84729 -9.89393,-9.13074 8.06338,-18.0844 14.58832,-36.07665 17.64676,-48.66016 l 3.76821,-15.50387 h 10.28849 c 11.46433,0 16.33868,-3.71211 14.10705,-10.74335 -1.17012,-3.6867 -3.23198,-4.44309 -12.11145,-4.44309 h -10.70125 v -18.1565 c 0,-9.98607 -1.50873,-26.80813 -3.35271,-37.38235 -2.5745,-14.76326 -2.7766,-20.30232 -0.87075,-23.86344 3.69621,-6.90645 1.77122,-12.69888 -4.47306,-13.4596 -4.22324,-0.5145 -6.52129,-3.21988 -10.50941,-12.37212 -7.12623,-16.35397 -23.89447,-41.26627 -36.86245,-54.765991 -6.01768,-6.264407 -10.12739,-11.389831 -9.1327,-11.389831 2.60081,0 27.09094,18.303413 38.23725,28.577722 14.18266,13.07312 32.12733,37.58253 41.8186,57.11719 52.23547,105.29097 8.39096,231.15959 -97.86598,280.95328 -10.08274,4.72493 -26.52658,10.61352 -36.54188,13.08579 -23.56793,5.81768 -64.57885,7.42768 -85.83178,3.36956 z"
     id="path7521"
     inkscape:connector-curvature="0"
     transform="scale(0.99851953)" />
  <path
     style="fill:#ffb530;fill-opacity:1;stroke-width:2.16949153"
     d="M 226.06102,508.87617 C 204.05549,505.45347 174.96801,496.30735 153.7505,486.13918 100.45953,460.6003 60.764932,421.46022 34.982704,369.03051 14.653657,327.69017 6.4961367,289.01862 8.6683694,244.28475 11.888775,177.96533 36.143889,122.94458 82.843049,76.025541 115.50165,43.213169 154.46805,20.804293 200.47411,8.3780332 c 19.51452,-5.2708794 24.61068,-5.7351339 62.46826,-5.6907864 37.5682,0.044008 43.10661,0.553429 62.50995,5.7496471 57.45753,15.3871411 106.40695,47.8940941 140.5368,93.3294661 7.34267,9.77494 14.20674,18.09805 15.25348,18.49579 1.04673,0.39774 1.90316,-3.22893 1.90316,-8.05927 0,-6.24377 1.13124,-9.38784 3.91351,-10.87687 8.13075,-4.35144 9.8077,0.0934 8.12941,21.54719 -0.86335,11.03626 -2.07812,21.39072 -2.69946,23.00992 -1.80432,4.702 -9.86728,3.46659 -28.11702,-4.30808 -12.93455,-5.51032 -17.18986,-8.37845 -17.71759,-11.9419 -0.88476,-5.97442 4.62145,-8.21839 11.96071,-4.8744 3.06115,1.39475 6.02182,2.07984 6.57925,1.52241 2.13284,-2.13286 -13.94884,-22.69947 -31.78533,-40.649703 -31.28047,-31.479951 -67.66111,-52.214684 -112.8153,-64.297789 -18.43039,-4.931909 -24.925,-5.558037 -57.65157,-5.558037 -32.81393,0 -39.1949,0.618775 -57.85934,5.610743 C 160.61286,33.280295 123.89862,54.247585 92.715071,85.559053 30.93222,147.59536 7.7032494,233.72264 29.719194,319.1322 c 10.206807,39.59669 41.209125,89.72705 72.158436,116.67927 75.81199,66.02088 176.29299,80.26119 265.20034,37.58453 53.41216,-25.63851 96.89723,-70.79634 118.45571,-123.01242 5.82697,-14.11333 7.92979,-17.14968 11.87695,-17.14968 7.93528,0 7.75204,5.69298 -0.82259,25.55661 -20.76861,48.11168 -57.70383,89.6878 -103.47618,116.47787 -40.1915,23.52367 -75.80418,33.64378 -122.57627,34.83275 -17.30169,0.43982 -37.31525,-0.11151 -44.47457,-1.22496 z"
     id="path7523"
     inkscape:connector-curvature="0"
     transform="scale(0.99851953)" />
  <path
     style="fill:#ffb530;fill-opacity:1;stroke-width:2.16949153"
     d="m 310.67901,302.31864 c -0.51741,-1.49152 -1.21897,-6.57839 -1.55903,-11.30415 -0.74529,-10.35726 -3.47155,-11.48418 -28.55049,-11.80162 l -17.08474,-0.21626 1.34647,-6.73235 c 1.33674,-6.68374 27.62815,-61.52739 36.10032,-75.30498 3.52938,-5.73953 5.61409,-7.05241 10.33468,-6.50847 3.98123,0.45875 6.10691,2.09915 6.50556,5.02038 0.32566,2.38644 -6.21846,18.25084 -14.54251,35.25423 l -15.13463,30.91526 h 10.7459 10.7459 v -10.84746 -10.84746 h 8.39847 c 8.38914,0 8.4,0.0115 9.77495,10.37645 1.19169,8.98337 2.24862,10.70563 7.87272,12.82849 9.11834,3.44179 9.22221,13.02438 0.1782,16.43811 -6.34058,2.3933 -8.86841,8.17647 -8.86841,20.28916 0,4.45101 -1.0431,5.15254 -7.66131,5.15254 -4.21372,0 -8.08464,-1.22034 -8.60205,-2.71187 z"
     id="path7525"
     inkscape:connector-curvature="0"
     transform="scale(0.99851953)" />
  <path
     style="fill:#ffb530;fill-opacity:1;stroke-width:2.16949153"
     d="m 203.28136,305.25739 -14.1017,-1.31163 -0.56148,-11.9322 c -0.30883,-6.56284 0.68269,-14.34561 2.20341,-17.29546 1.5207,-2.9498 11.91343,-12.81376 23.09497,-21.91993 26.63582,-21.69202 31.72793,-31.23504 21.90717,-41.0558 -8.59186,-8.59186 -24.23382,-4.12035 -26.37152,7.53873 -1.05995,5.78101 -10.10419,10.18696 -15.2538,7.43097 -5.32146,-2.84796 -5.09805,-14.11858 0.46059,-23.23584 5.35327,-8.78041 16.76529,-13.86622 30.86917,-13.75697 27.44802,0.21261 43.03022,27.06896 28.57503,49.24987 -3.07171,4.71342 -13.7259,14.91562 -23.67597,22.67155 -17.58903,13.71038 -24.84946,22.68963 -21.25376,26.28534 0.96848,0.96847 12.4864,2.04029 25.59539,2.38182 23.20405,0.60455 23.85374,0.75672 24.56058,5.75255 0.39933,2.82236 -0.0888,5.88243 -1.08474,6.80014 -2.59105,2.38753 -38.31474,3.94538 -54.96334,2.39686 z"
     id="path7527"
     inkscape:connector-curvature="0"
     transform="scale(0.99851953)" />
</svg>
