<?xml version="1.0" encoding="UTF-8" standalone="no"?>
<!-- Generator: Adobe Illustrator 16.0.0, SVG Export Plug-In . SVG Version: 6.00 Build 0)  -->

<svg
   xmlns:dc="http://purl.org/dc/elements/1.1/"
   xmlns:cc="http://creativecommons.org/ns#"
   xmlns:rdf="http://www.w3.org/1999/02/22-rdf-syntax-ns#"
   xmlns:svg="http://www.w3.org/2000/svg"
   xmlns="http://www.w3.org/2000/svg"
   xmlns:sodipodi="http://sodipodi.sourceforge.net/DTD/sodipodi-0.dtd"
   xmlns:inkscape="http://www.inkscape.org/namespaces/inkscape"
   version="1.1"
   id="Capa_1"
   x="0px"
   y="0px"
   width="612px"
   height="612px"
   viewBox="0 0 612 612"
   style="enable-background:new 0 0 612 612;"
   xml:space="preserve"
   sodipodi:docname="apply_in_minutes.svg"
   inkscape:version="0.92.4 (5da689c313, 2019-01-14)"><metadata
   id="metadata1482"><rdf:RDF><cc:Work
       rdf:about=""><dc:format>image/svg+xml</dc:format><dc:type
         rdf:resource="http://purl.org/dc/dcmitype/StillImage" /><dc:title></dc:title></cc:Work></rdf:RDF></metadata><defs
   id="defs1480" /><sodipodi:namedview
   pagecolor="#ffffff"
   bordercolor="#666666"
   borderopacity="1"
   objecttolerance="10"
   gridtolerance="10"
   guidetolerance="10"
   inkscape:pageopacity="0"
   inkscape:pageshadow="2"
   inkscape:window-width="1920"
   inkscape:window-height="1001"
   id="namedview1478"
   showgrid="false"
   inkscape:zoom="1.3202614"
   inkscape:cx="181.40347"
   inkscape:cy="306"
   inkscape:window-x="-9"
   inkscape:window-y="-9"
   inkscape:window-maximized="1"
   inkscape:current-layer="Capa_1" />
<g
   id="g1445">
	<path
   d="M583.728,375.793c-12.316,124.001-112.79,223.666-236.88,235.068C200.16,624.34,75.077,516.49,60.568,376.312H34.716   c-15.717,0-25.54-17.016-17.68-30.626l57.818-100.122c7.859-13.609,27.503-13.608,35.361,0.001l57.807,100.122   c7.858,13.611-1.965,30.625-17.681,30.625h-22.506c14.621,104.659,112.057,183.152,223.772,166.778   c82.667-12.115,149.722-77.336,163.773-159.697c21.031-123.271-73.829-230.558-193.271-230.558   c-38.734,0-76.119,11.238-108.233,32.519c-14.904,9.876-35.564,7.922-46.498-6.223c-11.905-15.402-8.188-37.389,7.687-48.109   c34.455-23.276,73.515-37.822,114.438-42.887V50.184h-26.784c-9.215,0-16.686-7.47-16.686-16.686V16.686   C246.033,7.47,253.503,0,262.719,0H386.93c9.215,0,16.686,7.47,16.686,16.686v16.812c0,9.215-7.47,16.686-16.686,16.686h-29.502   v38.347C494.28,106.996,598.102,231.062,583.728,375.793z M592.37,123.265L542.058,76.76c-6.768-6.255-17.324-5.84-23.58,0.927   l-13.309,14.399c-6.256,6.767-5.841,17.324,0.927,23.58l50.312,46.504c6.768,6.254,17.324,5.84,23.58-0.927l13.309-14.399   C599.553,140.077,599.138,129.52,592.37,123.265z M321.318,187.139v163.194h161.565   C482.885,250.949,407.481,187.139,321.318,187.139z"
   id="path1443" />
</g>
<g
   id="g1447">
</g>
<g
   id="g1449">
</g>
<g
   id="g1451">
</g>
<g
   id="g1453">
</g>
<g
   id="g1455">
</g>
<g
   id="g1457">
</g>
<g
   id="g1459">
</g>
<g
   id="g1461">
</g>
<g
   id="g1463">
</g>
<g
   id="g1465">
</g>
<g
   id="g1467">
</g>
<g
   id="g1469">
</g>
<g
   id="g1471">
</g>
<g
   id="g1473">
</g>
<g
   id="g1475">
</g>
<path
   style="fill:#ffb52f;fill-opacity:0.32835819;stroke-width:0.75742573"
   d="M 310.92327,611.95202 C 255.34931,609.31069 204.01762,590.28855 159.83469,555.96267 148.89699,547.46512 130.04595,529.1573 120.51521,517.77624 87.848268,478.7672 66.342629,429.35761 60.927131,380.87153 l -0.52874,-4.73391 -15.240037,-0.008 c -14.370412,-0.007 -15.456138,-0.10807 -19.027166,-1.77454 -7.842305,-3.6597 -12.128992,-11.02413 -11.623562,-19.96899 l 0.291976,-5.16725 29.467996,-51.11137 C 60.474996,269.99622 74.85097,245.441 76.214207,243.54033 c 7.076131,-9.8658 22.02632,-10.99783 30.465143,-2.30683 2.38189,2.45306 11.69642,17.89632 31.34277,51.96557 15.37454,26.66139 29.01412,50.5203 30.3102,53.01981 4.29001,8.27337 2.88275,17.71216 -3.60859,24.20349 -5.15934,5.15934 -7.25196,5.67937 -22.93008,5.69819 l -13.85735,0.0167 0.48522,2.84035 c 5.11028,29.91468 14.6771,54.4178 30.59212,78.35435 37.911,57.01903 101.91789,89.9306 170.08785,87.45711 23.91484,-0.86773 43.34883,-4.94754 67.34549,-14.13795 8.42525,-3.22679 24.29749,-11.73942 34.14955,-18.31519 57.10753,-38.11649 89.73812,-101.68028 87.2206,-169.90414 -0.76202,-20.6505 -3.80665,-37.61448 -9.99175,-55.67177 -10.63797,-31.05739 -25.98168,-55.32583 -49.40573,-78.14277 -23.06356,-22.4658 -49.53249,-38.03055 -80.84292,-47.53872 -17.3925,-5.28166 -34.60046,-7.7034 -54.91336,-7.72815 -21.77866,-0.0265 -38.03232,2.28673 -57.56436,8.19273 -16.36588,4.94863 -29.28793,10.79945 -46.58168,21.09117 -12.95447,7.70935 -16.89538,8.96442 -26.88804,8.56306 -6.65545,-0.26732 -7.91249,-0.56593 -13.03035,-3.0953 -6.9327,-3.42632 -11.88939,-8.48376 -15.23358,-15.54318 -2.27846,-4.8097 -2.41239,-5.57818 -2.41239,-13.84209 0,-8.58516 0.0535,-8.85783 2.84229,-14.50066 3.50344,-7.08874 8.5282,-11.89971 19.5766,-18.74366 29.04471,-17.99182 62.07254,-30.380022 95.54697,-35.838108 l 10.4114,-1.697603 0.003,-18.691448 0.003,-18.691448 -15.71658,-0.244195 c -15.65841,-0.243293 -15.72996,-0.252062 -19.33132,-2.368985 -1.9881,-1.168633 -4.54441,-3.529633 -5.68069,-5.246666 l -2.06596,-3.121878 V 25.061347 10.550184 l 2.21912,-3.2021886 c 1.22052,-1.7612036 3.77683,-4.1179529 5.68069,-5.2372207 l 3.46158,-2.03503213 65.13861,-0.21979752 c 47.63277,-0.16072747 65.99521,0.0160082 68.32597,0.65762785 4.09888,1.1283561 9.13177,5.4486757 10.91127,9.3664347 2.04257,4.4969424 2.05349,25.8644754 0.0155,30.3392994 -1.77439,3.896046 -6.76557,8.386548 -10.46274,9.413193 -1.6097,0.446987 -9.86856,0.805481 -18.61054,0.80783 l -15.71661,0.0042 v 18.935644 c 0,10.414604 0.12627,18.935644 0.2806,18.935644 0.15434,0 4.32965,0.700974 9.27847,1.557714 45.24278,7.832464 88.40737,27.923248 123.74539,57.596788 10.41446,8.74508 28.67138,27.26003 35.96249,36.47075 12.4853,15.77246 21.41774,29.60211 29.96421,46.39208 37.26882,73.21646 37.97584,160.27047 1.89635,233.48981 -19.20274,38.96982 -44.99279,70.09026 -79.54893,95.99039 -12.88783,9.65954 -22.70734,15.7735 -37.88303,23.58726 -32.78144,16.87873 -65.98038,25.88981 -104.14604,28.26803 -11.88353,0.74049 -15.65306,0.78137 -26.13119,0.28336 z"
   id="path3781"
   inkscape:connector-curvature="0" /><path
   style="fill:#ffb52f;fill-opacity:0.32835819;stroke-width:0.75742573"
   d="m 321.14851,268.58317 v -81.80198 l 2.46164,0.006 c 1.3539,0.004 6.38131,0.34797 11.17203,0.76536 41.35407,3.60295 76.28916,19.82585 103.78133,48.19321 27.22996,28.0968 41.63397,62.5699 44.3396,106.11787 l 0.52941,8.52104 h -81.14201 -81.142 z"
   id="path3783"
   inkscape:connector-curvature="0" /><path
   style="fill:#ffb52f;fill-opacity:1"
   d="m 565.41832,166.57004 c -5.49102,-1.22539 -7.75091,-3.0322 -33.55836,-26.83032 -30.34289,-27.98044 -31.57404,-29.45078 -31.04159,-37.07265 0.16158,-2.31313 0.95859,-5.447521 1.77113,-6.965302 2.39505,-4.473865 17.70845,-20.309659 21.15264,-21.87424 3.45738,-1.570569 9.58813,-1.831157 13.22808,-0.562262 3.52671,1.229415 56.73153,50.478574 58.93448,54.552834 2.14883,3.97414 2.26594,10.33749 0.2697,14.65368 -2.06418,4.4631 -17.07929,20.5009 -20.8381,22.25741 -3.40908,1.59308 -7.56866,2.36512 -9.91798,1.84085 z"
   id="path3785"
   inkscape:connector-curvature="0" /><path
   style="fill:#ffb52f;fill-opacity:0.84079599;stroke-width:0.75742573"
   d="M 302.36436,611.6696 C 225.67524,605.35666 157.30509,567.74492 111.31427,506.56925 84.793116,471.29157 66.781809,427.33135 61.081955,383.96717 l -0.912237,-6.94025 -15.239315,-0.27933 c -17.088527,-0.31321 -19.014026,-0.77092 -24.229603,-5.75958 -6.416341,-6.13717 -8.459947,-16.19561 -4.822985,-23.73829 0.931954,-1.93276 14.646442,-25.94448 30.47664,-53.35934 18.861558,-32.66461 29.844076,-50.92749 31.863006,-52.98515 7.036866,-7.17184 20.026937,-7.5922 27.774679,-0.89879 3.06617,2.64892 2.50588,1.71545 38.9746,64.93316 13.3376,23.12042 24.68305,43.3646 25.21212,44.98706 1.28015,3.92575 0.62056,11.45878 -1.33534,15.25057 -2.01496,3.9063 -6.57308,8.26864 -10.39005,9.9438 -2.41078,1.05801 -5.78863,1.39028 -16.53482,1.62648 l -13.50512,0.29684 0.52983,3.90184 c 1.51734,11.1741 7.76679,32.29115 13.59534,45.93896 5.83431,13.66129 16.36342,31.16809 26.25381,43.65234 6.32153,7.97942 19.96266,21.95269 28.00344,28.68529 49.35748,41.3273 116.70559,55.72956 178.68858,38.21219 32.33505,-9.1384 60.8994,-26.00205 85.21248,-50.30725 31.01625,-31.00617 49.84103,-69.48245 55.78499,-114.0198 1.24354,-9.31769 1.20659,-39.11969 -0.0601,-48.47525 -3.58549,-26.48179 -12.56944,-52.61611 -25.73625,-74.86671 -8.29038,-14.00987 -18.0155,-26.42406 -30.36894,-38.76617 -16.70668,-16.69136 -32.61682,-28.12176 -52.67022,-37.84015 -30.32378,-14.69568 -58.46786,-20.59125 -92.78465,-19.43637 -16.30261,0.54864 -24.97682,1.73481 -40.14356,5.48948 -19.69007,4.87447 -37.28552,12.26297 -55.46822,23.29164 -5.30418,3.21724 -11.04206,6.3428 -12.75084,6.94569 -17.54823,6.19138 -35.1486,-0.40663 -42.89501,-16.08042 -2.51428,-5.08729 -2.84948,-6.46124 -3.12756,-12.81929 -0.38472,-8.79623 1.43989,-15.26311 6.06248,-21.487 4.0599,-5.46628 7.96334,-8.55326 19.49083,-15.41411 30.77079,-18.31393 65.00571,-30.528946 98.53485,-35.157234 l 4.16584,-0.575037 0.20259,-18.736219 0.20259,-18.736216 H 274.1099 c -14.89118,0 -15.06276,-0.01868 -19.13355,-2.08292 -2.69045,-1.364297 -4.89318,-3.216033 -6.38457,-5.367227 l -2.27697,-3.284305 V 25.139588 10.569075 l 2.0839,-3.1489825 c 1.22223,-1.8469228 3.72772,-4.0917009 6.05941,-5.4289144 l 3.9755,-2.27993295 65.42945,-0.007105 c 46.85285,-0.00509 66.24873,0.23835317 68.31506,0.85744109 3.84069,1.15069816 7.93355,4.62472646 9.99901,8.48718006 1.54868,2.8960657 1.68223,4.1679677 1.68223,16.0220307 0,11.854063 -0.13355,13.125966 -1.68223,16.022034 -2.04227,3.819086 -6.46969,7.607243 -10.05787,8.605647 -1.45805,0.405699 -9.72346,0.739534 -18.36758,0.741857 l -15.71658,0.0042 v 18.86721 18.867211 l 5.49134,0.897534 c 45.51559,7.439322 87.256,26.008185 123.64975,55.007485 10.70283,8.52825 31.51796,29.34337 40.0462,40.04621 31.71291,39.79928 50.10409,83.92994 56.65964,135.95792 1.33575,10.60114 1.33268,47.70488 -0.005,58.32178 -5.37102,42.63436 -18.55308,79.31162 -40.79622,113.50975 -38.79195,59.64144 -99.3447,100.99131 -168.76124,115.24259 -20.26604,4.16064 -52.01088,6.14917 -71.95544,4.50736 z"
   id="path4330"
   inkscape:connector-curvature="0" /><path
   style="fill:#ffb52f;fill-opacity:1;stroke-width:0.75742573"
   d="m 320.92129,268.46774 v -81.91742 l 8.89669,0.50812 c 68.414,3.90741 123.67945,44.95961 144.41915,107.2772 5.13276,15.42266 7.61654,29.27068 9.06811,50.55817 l 0.37445,5.49134 h -81.3792 -81.3792 z"
   id="path4332"
   inkscape:connector-curvature="0" /></svg>