<?xml version="1.0" encoding="UTF-8" standalone="no"?>
<svg
   xmlns:dc="http://purl.org/dc/elements/1.1/"
   xmlns:cc="http://creativecommons.org/ns#"
   xmlns:rdf="http://www.w3.org/1999/02/22-rdf-syntax-ns#"
   xmlns:svg="http://www.w3.org/2000/svg"
   xmlns="http://www.w3.org/2000/svg"
   xmlns:sodipodi="http://sodipodi.sourceforge.net/DTD/sodipodi-0.dtd"
   xmlns:inkscape="http://www.inkscape.org/namespaces/inkscape"
   height="512pt"
   viewBox="-31 0 512 512"
   width="512pt"
   version="1.1"
   id="svg887"
   sodipodi:docname="biker.svg"
   inkscape:version="0.92.4 (5da689c313, 2019-01-14)">
  <metadata
     id="metadata893">
    <rdf:RDF>
      <cc:Work
         rdf:about="">
        <dc:format>image/svg+xml</dc:format>
        <dc:type
           rdf:resource="http://purl.org/dc/dcmitype/StillImage" />
        <dc:title></dc:title>
      </cc:Work>
    </rdf:RDF>
  </metadata>
  <defs
     id="defs891" />
  <sodipodi:namedview
     pagecolor="#ffffff"
     bordercolor="#666666"
     borderopacity="1"
     objecttolerance="10"
     gridtolerance="10"
     guidetolerance="10"
     inkscape:pageopacity="0"
     inkscape:pageshadow="2"
     inkscape:window-width="1920"
     inkscape:window-height="1001"
     id="namedview889"
     showgrid="false"
     inkscape:zoom="0.70710678"
     inkscape:cx="384.5026"
     inkscape:cy="199.00146"
     inkscape:window-x="-9"
     inkscape:window-y="-9"
     inkscape:window-maximized="1"
     inkscape:current-layer="svg887" />
  <path
     d="m450 412.199219v82.800781c0 8.398438-6.597656 17-15 17h-45l-60-32-30 32h-150l-45-32-45 32h-45c-8.402344 0-15-8.601562-15-17v-82.800781c0-28.800781 15.902344-54.300781 41.398438-67.199219l123-61.5h121.203124l123 61.5c25.496094 12.898438 41.398438 38.398438 41.398438 67.199219zm0 0"
     fill="#68544f"
     id="path855" />
  <path
     d="m450 412.199219v82.800781c0 8.398438-6.597656 17-15 17h-45l-60-32-30 32h-75v-228.5h60.601562l123 61.5c25.496094 12.898438 41.398438 38.398438 41.398438 67.199219zm0 0"
     fill="#53433f"
     id="path857"
     style="fill:#001232;fill-opacity:1" />
  <path
     d="m150 512h-60l-15-30.125 15-31.875h15c24.851562 0 45 20.148438 45 45zm0 0"
     fill="#e63950"
     id="path859" />
  <path
     d="m300 512h60l15-30.125-15-31.875h-15c-24.851562 0-45 20.148438-45 45zm0 0"
     fill="#cc2e43"
     id="path861"
     style="fill:#ffc74d;fill-opacity:1;fill-rule:evenodd" />
  <path
     d="m75 390c-8.285156 0-15 6.714844-15 15v107h30v-107c0-8.285156-6.714844-15-15-15zm0 0"
     fill="#53433f"
     id="path863" />
  <path
     d="m375 390c8.285156 0 15 6.714844 15 15v107h-30v-107c0-8.285156 6.714844-15 15-15zm0 0"
     fill="#3e322e"
     id="path865" />
  <path
     d="m366.898438 223.800781-6.898438 63c-.601562 4.796875-3.601562 9.300781-8.402344 11.699219l-60 30c-2.097656.898438-4.199218 1.5-6.597656 1.5h-120c-2.402344 0-4.5-.601562-6.597656-1.5l-60-30c-4.800782-2.402344-7.800782-6.902344-8.402344-11.699219l-6.898438-63 89.398438 14.699219h105zm0 0"
     fill="#ff667c"
     id="path867" />
  <path
     d="m277.5 238.5 89.398438-14.703125-6.898438 63.003906c-.601562 4.796875-3.601562 9.300781-8.402344 11.699219l-60 30c-2.097656.898438-4.199218 1.5-6.597656 1.5h-60v-91.5zm0 0"
     fill="#e63950"
     id="path869" />
  <path
     d="m 374.09766,150 -26.39844,30 H 119.09766 C 26.370655,136.52677 180.88495,-54.05707 225,30 c 21.40838,-57.134763 97.23677,10.526215 96.59766,28.5 l 22.71302,6.706721 C 356.60756,82.007502 366.89844,98.097656 371.39844,120 c 1.80078,9.89844 3,19.80078 2.69922,30 z"
     id="path871"
     inkscape:connector-curvature="0"
     style="fill:#ffc74d;fill-opacity:1;fill-rule:evenodd"
     sodipodi:nodetypes="cccccccc" />
  <path
     d="M 347.69922,180 H 225 V 30 c 23.345,-54.766191 97.54675,11.335331 96.59766,28.5 l 23.48216,4.77101 C 357.3767,80.071791 366.89844,98.097656 371.39844,120 c 1.80078,9.89844 3,19.80078 2.69922,30 z"
     id="path873"
     inkscape:connector-curvature="0"
     style="fill:#ffc74d;fill-opacity:1;fill-rule:evenodd"
     sodipodi:nodetypes="cccccccc" />
  <path
     d="m 278.28906,61.582031 c -7.41015,3.707031 -10.41406,12.714844 -6.70703,20.128907 3.64453,7.308593 12.60156,10.441406 20.12891,6.707031 l 53.52398,-24.76199 C 325.11665,29.225448 310.54604,45.537508 278.28906,61.582031 Z"
     id="path875"
     inkscape:connector-curvature="0"
     style="fill:#ffc74d;fill-opacity:1;fill-rule:evenodd"
     sodipodi:nodetypes="ccccc" />
  <path
     d="m 178.41797,81.710938 c 3.70703,-7.414063 0.70312,-16.421876 -6.70703,-20.128907 -30.67407,-14.724856 -46.11693,-24.64503 -64.17578,0.09766 l 50.7539,26.738281 c 7.51563,3.730469 16.48047,0.609375 20.12891,-6.707031 z"
     id="path877"
     inkscape:connector-curvature="0"
     style="fill:#e63950"
     sodipodi:nodetypes="ccccc" />
  <path
     d="m 240,75 c 0.37728,8.389959 -6.59766,15 -15,15 -8.40234,0 -15,-6.601562 -15,-15 0.14379,-76.0407012 26.56662,-76.3513207 30,0 z"
     id="path879"
     inkscape:connector-curvature="0"
     style="fill:#ffc74d;fill-opacity:1;fill-rule:evenodd"
     sodipodi:nodetypes="cscc" />
  <path
     d="m374.097656 150c0 5.097656-.296875 10.5-.898437 15.597656l-2.398438 22.5-3.902343 35.703125-89.398438 44.699219c-2.101562.898438-4.199219 1.5-6.597656 1.5h-91.804688c-2.398437 0-4.496094-.601562-6.597656-1.5l-89.398438-44.703125-3.902343-35.699219-2.398438-22.5c-.601562-5.097656-.898437-10.5-.898437-15.597656zm0 0"
     fill="#68544f"
     id="path881" />
  <path
     d="m374.097656 150c0 5.097656-.296875 10.5-.898437 15.597656l-2.398438 22.5-3.902343 35.703125-89.398438 44.699219c-2.101562.898438-4.199219 1.5-6.597656 1.5h-45.902344v-120zm0 0"
     fill="#3e322e"
     id="path883" />
  <path
     d="M 239.6748,1.6474612 240,75 c 0.0372,8.398355 -6.59766,15 -15,15 6.53328,-25.488974 -17.71612,-90.33496397 14.6748,-88.3525388 z"
     id="path885"
     inkscape:connector-curvature="0"
     style="fill:#ffc74d;fill-opacity:1;fill-rule:evenodd"
     sodipodi:nodetypes="cscc" />
  <path
     style="fill:#001232;fill-opacity:0.58706468;fill-rule:evenodd;stroke-width:0.84488451"
     d="m 341.15661,359.11417 c -0.22921,-0.60112 -0.31869,-36.64145 -0.19883,-80.08963 l 0.21791,-78.9967 99.60116,-0.21471 99.60116,-0.21471 -0.56855,8.24111 c -0.60678,8.79545 -8.75275,86.51163 -9.36538,89.35002 -0.27741,1.28528 -14.94797,8.97077 -61.28524,32.10561 l -60.9205,30.41585 -33.33249,0.24805 c -26.66526,0.19843 -33.41584,0.0294 -33.74924,-0.84489 z"
     id="path897"
     inkscape:connector-curvature="0"
     transform="matrix(0.74999998,0,0,0.74999998,-31,0)" />
  <path
     style="fill:#001232;fill-opacity:0.53731346;fill-rule:evenodd;stroke-width:0.84488451"
     d="m 274.42982,358.94032 c -4.47539,-1.43033 -122.08346,-60.30306 -122.09394,-61.11829 -0.004,-0.34786 -0.58151,-5.76515 -1.2823,-12.03842 -4.99005,-44.66932 -8.0033,-74.62234 -8.0033,-79.55623 v -5.7771 h 98.84298 98.84297 l 0.21973,79.84165 0.21973,79.84165 -31.68317,-0.0566 c -23.2606,-0.0416 -32.58157,-0.34371 -35.0627,-1.13667 z"
     id="path899"
     inkscape:connector-curvature="0"
     transform="matrix(0.74999998,0,0,0.74999998,-31,0)" />
  <path
     style="fill:#001232;fill-opacity:0.5771144;fill-rule:evenodd;stroke-width:0.84488451"
     d="m 88.093961,682.03444 c -30.018696,-0.38939 -32.762164,-0.54688 -35.062706,-2.01281 -4.247456,-2.70652 -6.379275,-5.0069 -8.704871,-9.39313 l -2.239801,-4.22442 -0.260767,-60.83169 c -0.182312,-42.52978 0.03449,-63.24481 0.72062,-68.85241 1.824359,-14.91026 7.350575,-29.82527 15.751448,-42.51249 5.863677,-8.85547 17.983953,-21.0163 26.870585,-26.9605 4.333568,-2.89868 29.986961,-16.27708 59.571581,-31.06693 l 51.96039,-25.97588 29.83789,14.88543 29.83789,14.88542 42.61096,0.24782 42.61095,0.24781 1.5e-4,120.99311 1.5e-4,120.99311 -50.27078,-0.22436 -50.27077,-0.22436 v -15.05963 c 0,-12.21369 -0.3143,-16.28852 -1.66314,-21.56244 -4.26112,-16.66084 -16.28463,-31.55809 -31.32849,-38.81635 -10.57429,-5.1018 -17.78296,-6.4891 -33.71862,-6.4891 h -12.70889 v 40.94764 40.94765 l -20.48845,0.24047 c -11.26865,0.13227 -35.14355,0.0504 -53.055329,-0.18196 z"
     id="path901"
     inkscape:connector-curvature="0"
     transform="matrix(0.74999998,0,0,0.74999998,-31,0)" />
  <path
     style="fill:#000000;fill-opacity:0.5771144;fill-rule:evenodd;stroke-width:0.84488451"
     d="m 121.94672,608.74071 c 0.0175,-69.28214 0.10341,-73.4787 1.56885,-76.67327 6.97619,-15.20765 28.71369,-15.20765 35.68988,0 1.46517,3.19398 1.55131,7.37576 1.56885,76.16043 0.0167,65.59816 -0.11334,72.83151 -1.31787,73.29373 -0.73504,0.28207 -9.47959,0.51284 -19.43235,0.51284 h -18.09591 z"
     id="path905"
     inkscape:connector-curvature="0"
     transform="matrix(0.74999998,0,0,0.74999998,-31,0)" />
  <path
     style="fill:#000000;fill-opacity:0.57711439;fill-rule:evenodd;stroke-width:0.84488451"
     d="m 521.56324,610.00804 c 0.003,-47.01093 0.30826,-73.11938 0.87871,-75.17339 0.48069,-1.73083 2.09442,-4.74382 3.58604,-6.69553 9.7481,-12.75478 30.07064,-8.45074 34.13817,7.23 0.86368,3.32957 1.10194,19.64485 1.10194,75.4567 v 71.20862 h -19.85478 -19.85479 l 0.005,-72.0264 z"
     id="path907"
     inkscape:connector-curvature="0"
     transform="matrix(0.74999998,0,0,0.74999998,-31,0)" />
  <path
     style="fill:#001232;fill-opacity:0.78109455;fill-rule:evenodd;stroke-width:0.84488451"
     d="M 70.677743,681.24004 54.490026,680.76711 51.2454,678.1632 c -1.784544,-1.43214 -4.48027,-4.64701 -5.990501,-7.14414 l -2.745874,-4.54024 v -64.11587 c 0,-61.40121 0.0737,-64.47922 1.740706,-72.69745 3.061507,-15.09301 9.950485,-29.92881 19.199199,-41.34653 5.718623,-7.05976 15.581958,-16.35263 21.507315,-20.26341 5.79665,-3.82583 38.520755,-20.83861 79.208455,-41.1793 l 32.52038,-16.25767 29.79297,14.88944 29.79299,14.88944 h 37.04786 c 20.37632,0 39.38482,0.24427 42.24111,0.54281 l 5.19324,0.5428 v 120.27568 120.27568 h -49.42574 -49.42575 l -0.0167,-12.46205 c -0.0189,-14.11103 -0.89457,-21.57996 -3.42053,-29.17689 -4.43987,-13.35311 -15.94788,-26.91142 -28.26903,-33.30551 -10.79038,-5.59969 -17.12376,-7.01664 -33.98348,-7.60302 l -14.57425,-0.50689 V 567.9977 c 0,-34.77514 -0.20525,-36.26818 -5.75067,-41.83222 -4.21233,-4.22648 -7.12863,-5.60629 -12.96837,-6.13582 -6.29693,-0.57098 -11.27005,1.24877 -15.80437,5.78309 -6.30178,6.30177 -6.03106,2.54404 -6.03106,83.71213 v 72.50956 l -17.10891,-0.16073 c -9.4099,-0.0884 -24.393382,-0.37356 -33.296627,-0.63367 z"
     id="path911"
     inkscape:connector-curvature="0"
     transform="matrix(0.74999998,0,0,0.74999998,-31,0)" />
  <path
     style="fill:#ffc74d;fill-opacity:1;fill-rule:evenodd"
     d="m 341.15352,59.777013 c -8e-5,-32.99274 0.10475,-46.612741 0.23297,-30.266668 0.12822,16.346071 0.12828,43.340131 1.5e-4,59.986798 -0.12814,16.646667 -0.23304,3.272609 -0.23312,-29.72013 z"
     id="path913"
     inkscape:connector-curvature="0"
     transform="matrix(0.74999998,0,0,0.74999998,-31,0)" />
  <path
     style="fill:#ffc763;fill-opacity:1;fill-rule:evenodd;stroke-width:0.84488451"
     d="m 332.30599,117.01794 c -5.9685,-3.14041 -9.125,-7.66858 -10.1902,-14.61841 -0.49759,-3.246465 -0.74152,-24.555495 -0.6037,-52.737841 l 0.23126,-47.2902416 3.37954,-0.5461116 c 1.85874,-0.3003615 6.13597,-0.788744 9.50495,-1.08529456 l 6.12541,-0.53918286 V 59.771114 119.34137 h -2.01573 c -1.10866,0 -4.00284,-1.04555 -6.43153,-2.32343 z"
     id="path915"
     inkscape:connector-curvature="0"
     transform="matrix(0.74999998,0,0,0.74999998,-31,0)" />
  <path
     style="fill:#ffc763;fill-opacity:1;fill-rule:evenodd;stroke-width:0.84488451"
     d="M 219.0461,100.72252 C 191.75772,87.095988 181.96728,81.828917 182.5326,81.078959 c 9.28834,-12.321838 24.4594,-28.483464 26.73769,-28.483464 0.80231,0 15.48456,7.042897 32.62721,15.650882 25.92929,13.020099 31.65082,16.21443 34.03816,19.0035 6.8632,8.018106 6.34698,19.615993 -1.19145,26.768143 -3.8361,3.63953 -8.19222,5.32335 -13.77179,5.32335 -4.35556,0 -6.9289,-1.14278 -41.92632,-18.61885 z"
     id="path917"
     inkscape:connector-curvature="0"
     transform="matrix(0.74999998,0,0,0.74999998,-31,0)" />
  <path
     style="fill:#ffc73e;fill-opacity:1;fill-rule:evenodd;stroke-width:0.84488451"
     d="m 213.83847,417.9305 c -23.8312,-11.89215 -44.40162,-22.63274 -45.71206,-23.86799 -5.70059,-5.37348 -5.5246,-4.53206 -10.69578,-51.13529 -2.63664,-23.76166 -4.71327,-43.31782 -4.61473,-43.45813 0.0985,-0.14032 27.60637,13.45176 61.12852,30.20462 l 60.94937,30.45974 h 32.92973 32.92973 v 39.70957 39.70957 h -41.79267 -41.79267 z"
     id="path919"
     inkscape:connector-curvature="0"
     transform="matrix(0.74999998,0,0,0.74999998,-31,0)" />
  <path
     style="fill:#ffc746;fill-opacity:1;fill-rule:evenodd;stroke-width:0.84488451"
     d="m 143.31094,188.41068 c 1.2094,-26.35288 7.37886,-50.34654 19.06632,-74.15098 4.76623,-9.70762 13.51706,-24.449781 17.21921,-29.008491 l 1.95473,-2.406992 37.55853,18.754963 37.55852,18.75496 5.60208,-0.31654 c 10.89057,-0.61538 18.5051,-8.13391 19.19394,-18.95196 0.29022,-4.557817 -0.005,-6.117617 -1.8875,-9.964841 -1.22737,-2.508656 -3.47532,-5.509846 -4.99546,-6.669301 -1.52012,-1.159457 -16.7677,-9.112071 -33.88351,-17.672476 l -31.11965,-15.564372 5.81197,-4.864551 c 13.91049,-11.642915 36.6259,-24.878279 55.19894,-32.162218 10.20125,-4.000709 25.99587,-8.3308671 36.79769,-10.088239 4.64332,-0.7554328 9.67805,-1.5760753 11.18828,-1.8236498 l 2.74588,-0.4501356 0.0186,51.7874594 c 0.0174,48.482554 0.11789,52.006144 1.57501,55.214154 2.67671,5.89304 10.51875,11.33546 16.36024,11.35407 1.38709,0.004 1.47854,2.4607 1.47854,39.71428 v 39.70958 h -98.97803 -98.97803 l 0.51375,-11.19472 z"
     id="path921"
     inkscape:connector-curvature="0"
     transform="matrix(0.74999998,0,0,0.74999998,-31,0)" />
  <path
     style="fill:#ffc74d;fill-opacity:1;fill-rule:evenodd"
     d="m 341.59813,159.89582 v -39.70957 l 2.32344,-0.0186 c 5.50914,-0.044 12.88966,-5.44514 16.01363,-11.71894 1.40232,-2.81624 1.53566,-6.97636 1.75372,-54.713444 l 0.23599,-51.6654221 3.56599,0.4199174 c 6.54657,0.7709008 23.75418,4.3844838 31.44717,6.6038791 23.87891,6.8889656 52.02628,22.6570246 68.6618,35.9556876 l 7.83012,6.259507 -31.90933,15.934006 c -17.55013,8.763704 -32.98969,16.942307 -34.31013,18.174673 -6.05602,5.652065 -7.93657,16.296186 -4.14889,23.483216 2.39154,4.53788 8.08937,9.37644 12.41241,10.54051 8.05211,2.16821 9.81048,1.51949 49.2939,-18.18605 20.22336,-10.093155 37.00229,-18.041892 37.28651,-17.663867 4.176,5.554294 12.34111,19.141597 16.914,28.146067 12.58455,24.78019 18.91761,48.97313 20.73449,79.20792 l 0.5204,8.66007 h -99.31261 -99.31261 z"
     id="path923"
     inkscape:connector-curvature="0"
     transform="matrix(0.74999998,0,0,0.74999998,-31,0)"
     sodipodi:nodetypes="ccccscssscscscscsscccc" />
  <path
     style="fill:#ffc735;fill-opacity:1;fill-rule:evenodd;stroke-width:0.84488451"
     d="m 341.59813,399.86561 v -39.73216 h 33.37526 33.37525 l 60.93326,-30.46895 60.93327,-30.46895 -0.51478,3.64387 c -0.28312,2.00412 -2.43807,21.30305 -4.78878,42.8865 -4.0068,36.78934 -4.41551,39.50266 -6.53776,43.40193 -1.24507,2.28761 -3.4141,5.02777 -4.82008,6.08925 -1.40596,1.06147 -21.48909,11.37615 -44.62919,22.9215 l -42.07288,20.99155 -42.62678,0.23381 -42.62679,0.23382 z"
     id="path925"
     inkscape:connector-curvature="0"
     transform="matrix(0.74999998,0,0,0.74999998,-31,0)" />
  <path
     style="fill:#ffc735;fill-opacity:1;fill-rule:evenodd;stroke-width:0.84488451"
     d="m 341.59813,159.89582 v -39.70957 h 3.28406 c 4.19499,0 10.4787,-4.10593 14.00933,-9.15405 l 2.5614,-3.66229 0.42244,-51.819201 c 0.23234,-28.500558 0.69194,-52.0883558 1.02132,-52.4173281 1.42013,-1.4183531 30.66962,5.0381425 44.18,9.7522371 17.77423,6.20185 41.43336,19.438662 58.14587,32.531451 l 7.40172,5.798602 -31.098,15.686612 c -17.10391,8.627636 -32.29473,16.54471 -33.75739,17.593498 -5.70614,4.091539 -8.59374,15.296245 -5.8163,22.568869 1.66569,4.36154 6.77518,9.77467 11.21507,11.88153 7.39711,3.51017 14.01973,1.57419 41.0183,-11.99078 8.01202,-4.0255 21.95033,-10.839238 30.97404,-15.141643 l 16.40674,-7.822557 1.43939,1.833501 c 2.60979,3.324358 11.09911,17.734639 15.66295,26.587239 11.54257,22.38945 18.61992,48.62482 20.2168,74.94263 0.28195,4.64687 0.68807,9.30429 0.90248,10.34984 l 0.38983,1.90099 h -99.29002 -99.29003 z"
     id="path927"
     inkscape:connector-curvature="0"
     transform="matrix(0.74999998,0,0,0.74999998,-31,0)" />
  <path
     style="fill:#ffc735;fill-opacity:1;fill-rule:evenodd;stroke-width:0.84488451"
     d="m 341.59813,399.65985 v -39.5264 h 33.79773 33.79773 l 59.98445,-29.99457 c 55.74654,-27.87546 59.98445,-29.85017 59.98445,-27.95065 0,1.723 -6.58165,61.42257 -8.06485,73.15314 -0.96272,7.61404 -2.36824,12.32381 -4.69408,15.72932 -2.13676,3.12866 -4.94965,4.79808 -27.9701,16.59999 -14.07692,7.21683 -33.57856,17.10617 -43.33698,21.97634 l -17.74257,8.85484 -42.87789,0.34219 -42.87789,0.34219 z"
     id="path929"
     inkscape:connector-curvature="0"
     transform="matrix(0.74999998,0,0,0.74999998,-31,0)" />
  <path
     style="fill:#ffc735;fill-opacity:1;fill-rule:evenodd;stroke-width:0.84488451"
     d="m 341.59813,159.89582 v -39.70957 h 3.28406 c 4.10982,0 10.30054,-3.98292 14.2192,-9.14819 l 2.77397,-3.65644 0.11604,-27.604281 c 0.0638,-15.182358 0.34896,-38.43993 0.63366,-51.683495 l 0.51763,-24.0792076 2.41305,-0.275988 c 6.02251,-0.6888141 36.71129,7.2121226 50.31244,12.9531236 15.80116,6.669617 42.32809,22.623162 52.271,31.436281 l 3.61035,3.200115 -29.99284,15.207921 c -16.49607,8.364356 -31.42766,16.175528 -33.18131,17.358159 -4.54022,3.061833 -7.14277,8.231229 -7.63954,15.174295 -0.36559,5.109567 -0.15415,6.180067 2.00368,10.144707 2.75422,5.06043 8.32606,9.71217 13.20766,11.02665 6.80295,1.83184 13.07218,-0.61264 57.41922,-22.388725 14.72908,-7.232541 27.14359,-13.15007 27.58781,-13.15007 2.0222,0 16.55215,25.368685 22.48334,39.254975 7.20543,16.86954 12.06086,35.67504 13.96941,54.10476 0.52935,5.11155 1.24584,12.05017 1.59221,15.41914 l 0.62976,6.12542 h -99.11539 -99.11541 z"
     id="path931"
     inkscape:connector-curvature="0"
     transform="matrix(0.74999998,0,0,0.74999998,-31,0)" />
  <path
     style="fill:#ffc735;fill-opacity:1;fill-rule:evenodd;stroke-width:0.84488451"
     d="m 341.59813,160.0057 v -39.59969 l 3.73297,-0.42075 c 4.8857,-0.5507 9.14877,-3.26801 13.23281,-8.43471 l 3.31145,-4.1893 10e-4,-24.637004 c 7.8e-4,-13.550351 0.25232,-36.898388 0.55898,-51.884527 l 0.55757,-27.2475248 h 2.66538 c 5.91401,0 26.85275,4.8449876 40.85172,9.4526258 16.18155,5.326015 49.7351,24.371666 61.70076,35.022558 l 3.68237,3.277751 -31.52661,16.044325 c -19.74623,10.049124 -32.55351,17.067933 -34.27477,18.783701 -4.95513,4.939297 -6.73991,15.246065 -3.77162,21.780285 2.19778,4.83804 9.28356,10.94451 14.1099,12.1598 6.53767,1.64621 11.25485,-0.0808 44.79822,-16.40061 12.03819,-5.856935 26.01049,-12.606988 31.04956,-15.000123 l 9.16196,-4.351158 1.59972,2.070869 c 3.20859,4.153592 11.39697,18.381012 16.50906,28.684732 10.81719,21.80271 16.61059,43.68902 19.17752,72.44884 l 1.07458,12.03961 H 440.6996 341.59813 Z"
     id="path933"
     inkscape:connector-curvature="0"
     transform="matrix(0.74999998,0,0,0.74999998,-31,0)" />
  <path
     style="fill:#ffc735;fill-opacity:1;fill-rule:evenodd;stroke-width:0.84488451"
     d="M 341.59813,59.694056 V 0.04674306 l 5.28053,0.54200708 c 2.90429,0.29810398 7.29033,0.76115886 9.74674,1.02901096 l 4.46622,0.4870037 -0.24179,51.6480052 c -0.23912,51.07548 -0.26201,51.68547 -2.06541,55.02754 -3.27791,6.07465 -9.66994,10.56106 -15.04694,10.56106 h -2.13935 z"
     id="path935"
     inkscape:connector-curvature="0"
     transform="matrix(0.74999998,0,0,0.74999998,-31,0)" />
  <path
     style="fill:#ffc78c;fill-opacity:1;fill-rule:evenodd;stroke-width:0.84488451"
     d="m 413.83576,118.21292 c -11.84768,-5.3859 -15.64611,-19.479499 -8.06908,-29.939287 2.25049,-3.10671 5.74377,-5.07665 35.38806,-19.956115 l 32.89108,-16.509142 7.95594,8.208741 c 7.68473,7.928917 18.46303,20.806807 18.40769,21.993464 -0.0148,0.318072 -16.4584,8.740749 -36.54126,18.717059 -34.9617,17.36749 -36.74779,18.14935 -42.00603,18.38813 -3.35383,0.15231 -6.47848,-0.19917 -8.0264,-0.90285 z"
     id="path937"
     inkscape:connector-curvature="0"
     transform="matrix(0.74999998,0,0,0.74999998,-31,0)" />
  <path
     style="fill:#ffc74d;fill-opacity:1;fill-rule:evenodd;stroke-width:0.84488451"
     d="m 341.59813,59.698955 c 0,-56.3559219 0.0805,-59.57771878 1.47855,-59.18774633 0.8132,0.22683214 4.52013,0.65639893 8.23763,0.95459293 3.71749,0.2981939 7.33799,0.7067097 8.04555,0.9078128 1.13637,0.3229787 1.25779,5.9606258 1.04067,48.3168636 -0.13519,26.373171 -0.45726,49.954802 -0.7157,52.403632 -0.78704,7.45735 -7.4082,14.23259 -15.34082,15.69782 l -2.74588,0.50719 z"
     id="path939"
     inkscape:connector-curvature="0"
     transform="matrix(0.74999998,0,0,0.74999998,-31,0)" />
  <path
     style="fill:#ffc74d;fill-opacity:1;fill-rule:evenodd;stroke-width:0.84488451"
     d="m 412.45948,116.84714 c -3.57191,-1.94043 -7.27117,-6.07673 -8.89037,-9.94068 -2.9761,-7.101982 0.13104,-17.491229 6.48962,-21.699142 1.84027,-1.217829 16.8783,-9.102778 33.41786,-17.52211 l 30.07193,-15.307875 4.65626,4.544724 c 5.57101,5.437559 21.38675,23.64698 21.38675,24.623595 0,0.378906 -16.2198,8.748512 -36.044,18.599128 -35.72086,17.74963 -36.09769,17.91225 -42.033,18.1391 -4.6706,0.1785 -6.66396,-0.13778 -9.05505,-1.43674 z"
     id="path941"
     inkscape:connector-curvature="0"
     transform="matrix(0.74999998,0,0,0.74999998,-31,0)" />
  <path
     style="fill:#ffc74d;fill-opacity:1;fill-rule:evenodd"
     d="m 442.13939,666.96167 c 0,-12.22675 0.31403,-16.30062 1.66314,-21.57558 4.80046,-18.76965 18.95753,-34.47292 37.02222,-41.06572 8.26648,-3.01689 16.86479,-4.23973 29.81142,-4.23973 h 10.07748 v 40.9769 40.9769 h -39.28713 -39.28713 z"
     id="path943"
     inkscape:connector-curvature="0"
     transform="matrix(0.74999998,0,0,0.74999998,-31,0)" />
  <path
     style="fill:#ffc74d;fill-opacity:1;fill-rule:evenodd;stroke-width:0.84488451"
     d="m 161.63774,640.94459 v -41.08985 l 14.13209,0.61894 c 16.57037,0.72572 23.5429,2.24778 33.1185,7.22956 11.21706,5.83575 19.64325,14.56449 25.67512,26.597 4.41679,8.81071 5.44489,14.17977 6.10699,31.89261 l 0.59216,15.84159 h -39.81243 -39.81243 z"
     id="path945"
     inkscape:connector-curvature="0"
     transform="matrix(0.74999998,0,0,0.74999998,-31,0)" />
  <path
     style="fill:#ffc74d;fill-opacity:1;fill-rule:evenodd;stroke-width:0.03125"
     d="m 311.06906,439.77312 v -0.23441 h 14.84375 14.84375 v -10.48437 -10.48438 h 0.29692 0.29692 l -0.008,10.71094 -0.008,10.71094 -15.13281,0.008 -15.13282,0.008 z"
     id="path955"
     inkscape:connector-curvature="0"
     transform="matrix(0.74999998,0,0,0.74999998,-31,0)" />
  <path
     style="fill:#ffc74d;fill-opacity:1;fill-rule:evenodd;stroke-width:0.03125"
     d="m 341.34259,429.28871 0.008,-10.71875 h 0.12491 0.12491 v 10.51922 10.51923 l 3.05469,-0.0211 c 4.45685,-0.0307 36.64992,-0.20473 37.89063,-0.20482 l 1.05468,-8e-5 v 0.3125 0.3125 H 362.4676 341.33479 Z"
     id="path957"
     inkscape:connector-curvature="0"
     transform="matrix(0.74999998,0,0,0.74999998,-31,0)" />
  <path
     style="fill:#ffc74d;fill-opacity:1;fill-rule:evenodd;stroke-width:0.03125"
     d="m 340.75656,404.81996 v -13.75 h 0.29688 0.29687 v 13.75 13.75 h -0.29687 -0.29688 z"
     id="path961"
     inkscape:connector-curvature="0"
     transform="matrix(0.74999998,0,0,0.74999998,-31,0)" />
  <path
     style="fill:#ffc74d;fill-opacity:1;fill-rule:evenodd;stroke-width:0.03125"
     d="m 341.35031,404.81996 v -13.75 h 0.125 0.125 v 13.75 13.75 h -0.125 -0.125 z"
     id="path963"
     inkscape:connector-curvature="0"
     transform="matrix(0.74999998,0,0,0.74999998,-31,0)" />
  <path
     style="fill:#ffc74d;fill-opacity:1;fill-rule:evenodd;stroke-width:0.03125"
     d="m 341.31906,382.31996 v -8.75 h 0.14063 0.14062 v 8.75 8.75 h -0.14062 -0.14063 z"
     id="path965"
     inkscape:connector-curvature="0"
     transform="matrix(0.74999998,0,0,0.74999998,-31,0)" />
  <path
     style="fill:#ffc74d;fill-opacity:1;fill-rule:evenodd;stroke-width:0.03125"
     d="m 340.75656,382.31996 v -8.75 h 0.28125 0.28125 v 8.75 8.75 h -0.28125 -0.28125 z"
     id="path967"
     inkscape:connector-curvature="0"
     transform="matrix(0.74999998,0,0,0.74999998,-31,0)" />
  <path
     style="fill:#ffc74d;fill-opacity:1;fill-rule:evenodd;stroke-width:0.03125"
     d="m 340.75656,366.85121 v -6.71875 h 0.21875 c 0.19792,0 0.21875,-0.006 0.21875,-0.0625 0,-0.0458 0.0208,-0.0625 0.0781,-0.0625 h 0.0781 v 6.78125 6.78125 h -0.29687 -0.29688 z"
     id="path969"
     inkscape:connector-curvature="0"
     transform="matrix(0.74999998,0,0,0.74999998,-31,0)" />
  <path
     style="fill:#ffc74d;fill-opacity:1;fill-rule:evenodd;stroke-width:0.03125"
     d="m 341.35031,366.79399 v -6.77598 l 21.125,-0.003 c 20.8682,-0.003 21.125,-0.002 21.125,0.0572 0,0.0597 -0.25652,0.0605 -21,0.0605 h -21 v 6.71875 6.71875 h -0.125 -0.125 z"
     id="path971"
     inkscape:connector-curvature="0"
     transform="matrix(0.74999998,0,0,0.74999998,-31,0)" />
  <path
     style="fill:#ffc74d;fill-opacity:1;fill-rule:evenodd;stroke-width:0.00552427"
     d="m 523.00209,363.07657 c 0,-0.006 0.0683,-0.6209 0.15173,-1.36587 0.16019,-1.43014 0.51267,-4.60552 0.60229,-5.42589 0.0292,-0.26738 0.0543,-0.49173 0.0557,-0.49857 l 0.003,-0.0124 h 0.21614 0.21615 l -0.003,0.0373 c -0.002,0.0205 -0.18114,1.66129 -0.39855,3.64617 -0.2174,1.98489 -0.39528,3.61379 -0.39528,3.61978 0,0.0107 -0.005,0.0109 -0.22373,0.0109 -0.2222,0 -0.22374,-8e-5 -0.22374,-0.0114 z"
     id="path973"
     inkscape:connector-curvature="0"
     transform="matrix(0.74999998,0,0,0.74999998,-31,0)" />
  <path
     style="fill:#ffc74d;fill-opacity:1;fill-rule:evenodd;stroke-width:0.02209709"
     d="m 524.23198,355.83042 c -0.003,-0.0339 -0.0289,-0.0387 -0.21293,-0.0387 -0.14158,0 -0.20992,-0.008 -0.20992,-0.025 0,-0.0138 0.12462,-1.15977 0.27693,-2.54669 0.15232,-1.38692 0.38866,-3.54587 0.52521,-4.79767 l 0.24827,-2.27599 0.2257,-0.006 0.22569,-0.006 -0.0109,0.0615 c -0.006,0.0339 -0.24446,2.20441 -0.52998,4.82346 -0.28551,2.61906 -0.52271,4.78181 -0.52711,4.80612 -0.006,0.0346 -0.009,0.0358 -0.011,0.006 z"
     id="path975"
     inkscape:connector-curvature="0"
     transform="matrix(0.74999998,0,0,0.74999998,-31,0)" />
  <path
     style="fill:#ffc74d;fill-opacity:1;fill-rule:evenodd;stroke-width:0.02209709"
     d="m 521.54108,375.32005 c 0.0663,-0.3696 0.72661,-5.86949 1.15081,-9.58461 0.26705,-2.33873 0.31661,-2.75782 0.31934,-2.6999 0.002,0.0504 0.006,0.0511 0.22339,0.0442 l 0.22099,-0.007 -0.0111,0.0663 c -0.0126,0.0756 -1.33688,12.18684 -1.33688,12.22678 0,0.0187 -0.0819,0.0261 -0.28972,0.0261 h -0.28972 z"
     id="path977"
     inkscape:connector-curvature="0"
     transform="matrix(0.74999998,0,0,0.74999998,-31,0)" />
  <path
     style="fill:#ffc74d;fill-opacity:1;fill-rule:evenodd;stroke-width:0.03125"
     d="m 471.59011,416.80994 c 0.007,-0.007 2.76224,-1.39353 6.12239,-3.08175 19.91116,-10.00384 34.15186,-17.35838 35.76563,-18.47098 0.50629,-0.34906 1.33378,-1.17637 2.12299,-2.12251 1.62135,-1.94376 2.94707,-4.08419 3.66037,-5.90982 0.7606,-1.94667 1.39264,-5.14208 2.12251,-10.73081 0.0606,-0.46406 0.11776,-0.88945 0.12702,-0.94531 l 0.0168,-0.10156 h 0.27984 c 0.2108,0 0.27983,0.0102 0.27983,0.0412 0,0.21034 -0.80483,7.31305 -0.87474,7.71972 -0.69836,4.06203 -2.58066,7.74102 -5.46899,10.68922 -1.39687,1.42583 -2.72641,2.46534 -4.43752,3.46948 -0.31686,0.18595 -7.89688,3.9941 -19.66385,9.87898 l -19.14822,9.57639 h -0.45855 c -0.2522,0 -0.45268,-0.006 -0.44552,-0.0123 z"
     id="path979"
     inkscape:connector-curvature="0"
     transform="matrix(0.74999998,0,0,0.74999998,-31,0)" />
  <path
     style="fill:#ffc74d;fill-opacity:1;fill-rule:evenodd;stroke-width:0.03125"
     d="m 524.86223,346.06967 c 0.01,-0.0585 0.22234,-1.98364 0.47196,-4.27817 0.89246,-8.20356 2.91161,-26.49728 2.93784,-26.61718 0.014,-0.0641 0.0333,-0.0703 0.21792,-0.0703 0.14085,0 0.20272,0.0119 0.20316,0.0391 9.8e-4,0.0607 -3.38294,30.97536 -3.39171,30.98588 -0.004,0.005 -0.10891,0.0178 -0.23253,0.0282 l -0.22475,0.0188 z"
     id="path981"
     inkscape:connector-curvature="0"
     transform="matrix(0.74999998,0,0,0.74999998,-31,0)" />
  <path
     style="fill:#ffc74d;fill-opacity:1;fill-rule:evenodd;stroke-width:0.03125"
     d="m 454.38488,336.89225 2.2e-4,-0.22655 17.53884,-8.77255 c 21.80248,-10.90513 29.6594,-14.8662 38.50759,-19.41364 0.79063,-0.40634 4.82305,-2.43269 8.96094,-4.50301 l 7.52344,-3.76421 v 0.32046 0.32046 l -36.26563,18.1328 -36.26562,18.13281 z"
     id="path987"
     inkscape:connector-curvature="0"
     transform="matrix(0.74999998,0,0,0.74999998,-31,0)" />
  <path
     style="fill:#ffc74d;fill-opacity:1;fill-rule:evenodd;stroke-width:0.02209709"
     d="m 528.67519,315.18912 c -0.01,-0.066 -0.0105,-0.0663 -0.1721,-0.0728 -0.1006,-0.004 -0.17407,0.003 -0.19335,0.0193 -0.0171,0.0142 -0.0311,0.0169 -0.0311,0.006 0,-0.0597 0.80167,-7.13263 1.07158,-9.45425 0.24709,-2.12531 0.2976,-2.51823 0.58769,-4.57134 0.14575,-1.03153 0.26071,-1.87979 0.25547,-1.88503 -0.005,-0.005 -0.74645,0.35897 -1.64714,0.80935 l -1.63762,0.81887 v -0.30939 c 0,-0.23213 -0.007,-0.30969 -0.0276,-0.31061 -0.0152,-6.7e-4 0.79631,-0.41389 1.80335,-0.91827 1.00703,-0.50438 1.83431,-0.91372 1.83839,-0.90964 0.006,0.006 -1.78365,16.41481 -1.82936,16.77781 l -0.008,0.0663 z"
     id="path989"
     inkscape:connector-curvature="0"
     transform="matrix(0.74999998,0,0,0.74999998,-31,0)" />
  <path
     style="fill:#ffc74d;fill-opacity:1;fill-rule:evenodd;stroke-width:0.0625"
     d="m 540.00456,196.33958 c -0.50218,-8.57491 -0.77753,-12.21617 -1.29379,-17.10938 -1.28466,-12.17599 -3.37363,-23.1173 -6.51532,-34.125 l -0.30324,-1.0625 0.24773,-0.0196 c 0.13626,-0.0108 0.26812,0.003 0.29304,0.0312 0.12332,0.13849 1.65063,5.58945 2.40463,8.58213 1.23753,4.91181 1.72703,7.28417 2.5921,12.5625 1.45323,8.86714 2.22086,15.90242 2.63231,24.125 0.0652,1.30281 0.16139,9.4375 0.11161,9.4375 -0.015,0 -0.0911,-1.08984 -0.16907,-2.42187 z"
     id="path991"
     inkscape:connector-curvature="0"
     transform="matrix(0.74999998,0,0,0.74999998,-31,0)" />
  <path
     style="fill:#ffc74d;fill-opacity:1;fill-rule:evenodd;stroke-width:0.0625"
     d="m 531.71502,143.46458 c -0.75717,-2.67105 -2.60991,-8.17992 -3.99905,-11.89063 -1.48981,-3.97959 -4.57447,-11.2916 -5.72734,-13.57634 -0.0992,-0.19668 -0.17903,-0.39355 -0.17731,-0.4375 0.004,-0.11288 0.38176,0.63847 1.38806,2.76384 3.0095,6.3562 5.54684,12.601 7.72109,19.00278 0.49518,1.45801 1.51272,4.62258 1.51272,4.70461 0,0.0234 -0.12272,0.0426 -0.27272,0.0426 h -0.27271 z"
     id="path993"
     inkscape:connector-curvature="0"
     transform="matrix(0.74999998,0,0,0.74999998,-31,0)" />
  <path
     style="fill:#ffc74d;fill-opacity:1;fill-rule:evenodd;stroke-width:0.0625"
     d="m 437.68319,114.05462 v -0.45684 l 1.42188,-0.67963 c 5.22303,-2.49651 16.54656,-8.09198 31.26562,-15.449748 15.96966,-7.982919 25.80305,-13.007284 28.99087,-14.812868 0.39029,-0.221061 0.71619,-0.393132 0.72423,-0.382381 0.18118,0.242413 0.95278,1.618045 0.91922,1.638791 -0.0259,0.01598 -0.18619,0.08394 -0.35629,0.151023 -0.97184,0.383257 -5.40326,2.38942 -8.27803,3.747571 -7.96213,3.761617 -16.65244,8.008602 -30.65625,14.981822 -10.7288,5.34242 -15.92047,7.898 -20.34375,10.01411 -1.64183,0.78545 -3.60935,1.70498 -3.64816,1.70498 -0.0216,0 -0.0393,-0.20557 -0.0393,-0.45683 z"
     id="path995"
     inkscape:connector-curvature="0"
     transform="matrix(0.74999998,0,0,0.74999998,-31,0)" />
  <path
     style="fill:#ffc74d;fill-opacity:1;fill-rule:evenodd;stroke-width:0.02209709"
     d="m 419.73585,120.27296 c -0.96955,-0.0679 -1.9612,-0.24074 -3.29246,-0.57379 -1.58591,-0.39676 -2.22081,-0.6215 -3.34478,-1.18401 -2.04427,-1.02308 -4.13269,-2.55698 -6.04296,-4.43842 -1.02135,-1.00593 -1.75315,-1.83625 -2.51015,-2.84804 -0.97054,-1.29722 -1.63775,-2.46893 -2.17821,-3.82528 -0.69746,-1.75034 -1.12451,-3.74345 -1.23573,-5.76734 -0.0331,-0.60192 -0.051,-1.38503 -0.0339,-1.47651 0.0151,-0.0805 0.0163,-0.0813 0.12328,-0.0813 h 0.10803 l 5e-5,0.0939 c 10e-5,0.19222 0.0454,1.14204 0.0672,1.40869 0.21178,2.59263 0.90036,5.05313 2.06543,7.38042 2.0778,4.15053 5.51892,7.43038 9.76662,9.30892 1.86998,0.82699 3.85338,1.36408 5.88887,1.59466 0.83149,0.0942 1.144,0.10966 2.22076,0.10991 1.25226,3e-4 1.83844,-0.0396 2.90577,-0.19808 0.20053,-0.0298 0.37454,-0.0532 0.3867,-0.0521 0.0573,0.005 -0.52377,0.14272 -1.06066,0.25107 -0.79391,0.16023 -1.4462,0.24993 -2.17657,0.29934 -0.37042,0.0251 -1.2868,0.024 -1.65728,-0.002 z"
     id="path997"
     inkscape:connector-curvature="0"
     transform="matrix(0.74999998,0,0,0.74999998,-31,0)" />
  <path
     style="fill:#ffc74d;fill-opacity:1;fill-rule:evenodd;stroke-width:0.03125"
     d="m 260.10093,119.97621 c -2.63515,-0.18632 -5.12904,-0.83342 -7.38427,-1.91604 -0.22693,-0.10893 -4.33604,-2.26539 -9.13135,-4.79212 -4.79532,-2.52673 -9.06028,-4.77374 -9.4777,-4.99336 -0.41743,-0.21962 -0.75359,-0.40467 -0.74704,-0.41122 0.007,-0.007 1.21293,0.58044 2.68083,1.30443 14.81165,7.30537 19.42964,9.35154 22.41467,9.93165 0.85395,0.16596 1.18165,0.19682 2.26694,0.21347 5.46683,0.0839 9.81079,-1.49293 13.62792,-4.94677 2.55541,-2.3122 4.38084,-5.09663 5.43822,-8.29522 0.46207,-1.39777 0.75209,-2.81703 0.89402,-4.375 0.0638,-0.70021 0.0725,-2.364605 0.0158,-3.015629 -0.12182,-1.398197 -0.34157,-2.634486 -0.67941,-3.822333 -0.0755,-0.265585 -0.13734,-0.488036 -0.13734,-0.494337 0,-0.0063 0.14666,-0.01145 0.32591,-0.01145 h 0.32591 l 0.0468,0.164062 c 0.81799,2.865358 0.98609,5.907397 0.48773,8.826337 -1.10572,6.47631 -5.30274,11.99567 -11.22697,14.76419 -2.14827,1.00394 -4.34359,1.59632 -6.77191,1.82731 -0.5781,0.055 -2.41719,0.081 -2.96875,0.042 z"
     id="path999"
     inkscape:connector-curvature="0"
     transform="matrix(0.74999998,0,0,0.74999998,-31,0)" />
  <path
     style="fill:#ffc74d;fill-opacity:1;fill-rule:evenodd;stroke-width:0.03125"
     d="m 279.86882,94.327177 c -0.008,-0.02148 -0.0862,-0.25 -0.17449,-0.507812 -0.78559,-2.293292 -2.0025,-4.446256 -3.59526,-6.360756 -1.20737,-1.451274 -2.92325,-2.720413 -6.49562,-4.804456 -3.33495,-1.945531 -7.76277,-4.284894 -17.75,-9.377918 -1.03988,-0.53029 -1.33211,-0.703786 -0.59043,-0.350532 0.21302,0.101455 1.11338,0.529561 2.00082,0.951346 1.90606,0.905928 4.91579,2.357925 9.37086,4.520824 1.7789,0.863645 4.26797,2.068509 5.53125,2.677476 2.3225,1.119568 2.79334,1.359618 3.5,1.78442 3.74939,2.253928 6.6521,5.679952 8.26481,9.754835 0.21236,0.536572 0.44344,1.193043 0.55883,1.587573 l 0.048,0.164063 h -0.32742 c -0.23369,0 -0.33141,-0.01118 -0.34134,-0.03906 z"
     id="path1001"
     inkscape:connector-curvature="0"
     transform="matrix(0.74999998,0,0,0.74999998,-31,0)" />
  <path
     style="fill:#ffc74d;fill-opacity:1;fill-rule:evenodd;stroke-width:0.015625"
     d="m 213.98219,610.68503 c -2.17305,-1.42906 -4.81406,-2.8987 -7.5625,-4.20832 -7.35138,-3.50288 -13.68155,-4.94108 -25.07031,-5.69588 -1.04513,-0.0693 -3.22716,-0.19593 -3.3753,-0.19593 h -0.0466 v -0.24218 -0.24219 l 0.043,2e-5 c 0.28084,1.1e-4 2.25658,0.0508 3.05078,0.0783 9.55522,0.33079 15.72345,1.53317 22.69022,4.42305 2.32619,0.96492 4.87402,2.17079 6.72384,3.18234 1.09576,0.5992 2.31644,1.32751 3.41797,2.03931 l 0.33984,0.21961 v 0.38804 c 0,0.21343 -0.002,0.3879 -0.004,0.38771 -0.002,-1.8e-4 -0.0953,-0.0604 -0.20704,-0.13391 z"
     id="path1003"
     inkscape:connector-curvature="0"
     transform="matrix(0.74999998,0,0,0.74999998,-31,0)" />
  <path
     style="fill:#ffc74d;fill-opacity:1;fill-rule:evenodd;stroke-width:0.0625"
     d="m 240.81691,670.77787 c -0.27131,-7.28917 -0.36386,-9.38986 -0.54451,-12.35932 -0.58886,-9.67911 -1.58552,-14.73664 -4.03983,-20.5 -0.57513,-1.35057 -1.99502,-4.25041 -2.84253,-5.80535 -2.70052,-4.95463 -6.14231,-9.7138 -9.57614,-13.24153 l -0.68442,-0.70312 h 0.44233 0.44233 l 0.74839,0.79687 c 7.12443,7.586 12.2845,16.95831 14.73244,26.75874 0.89363,3.57772 1.25269,6.45194 1.4726,11.78814 0.0602,1.46074 0.16114,19.18949 0.1112,19.53125 -0.0126,0.0859 -0.13039,-2.73362 -0.26186,-6.26568 z"
     id="path1007"
     inkscape:connector-curvature="0"
     transform="matrix(0.74999998,0,0,0.74999998,-31,0)" />
  <path
     style="fill:#ffc74d;fill-opacity:1;fill-rule:evenodd;stroke-width:0.03125"
     d="m 172.78695,682.34185 v -0.32812 h 34.23209 c 32.5757,0 34.23277,-0.003 34.24637,-0.0547 0.0136,-0.0521 0.0145,-0.0521 0.0179,0 0.002,0.0301 0.0177,0.0547 0.0349,0.0547 0.0189,0 0.0312,0.13021 0.0312,0.32812 v 0.32813 H 207.0682 172.78695 Z"
     id="path1009"
     inkscape:connector-curvature="0"
     transform="matrix(0.74999998,0,0,0.74999998,-31,0)" />
  <path
     style="fill:#ffc74d;fill-opacity:1;fill-rule:evenodd;stroke-width:0.04419417"
     d="m 441.33953,670.11061 c 2.9e-4,-11.64376 0.0105,-12.60037 0.15602,-14.57303 0.76115,-10.32 4.15797,-20.20855 9.89055,-28.7925 0.94225,-1.41093 2.36141,-3.36272 2.47741,-3.40723 0.0304,-0.0117 0.24653,-0.0155 0.48031,-0.008 l 0.42505,0.0127 -0.4435,0.57452 c -1.77529,2.29979 -3.48057,4.8925 -4.94612,7.5201 -0.62286,1.11674 -1.85086,3.57626 -2.35746,4.72169 -2.07771,4.69775 -3.57858,9.76071 -4.19888,14.16423 -0.57037,4.04918 -0.6851,7.91042 -0.68708,23.1246 l -10e-4,8.38585 h -0.39774 -0.39775 l 2.9e-4,-11.72251 z"
     id="path1011"
     inkscape:connector-curvature="0"
     transform="matrix(0.74999998,0,0,0.74999998,-31,0)" />
  <path
     style="fill:#ffc74d;fill-opacity:1;fill-rule:evenodd;stroke-width:0.00390625"
     d="m 494.57483,682.34987 v -0.31641 h 4.5332 4.5332 v 0.31641 0.3164 h -4.5332 -4.5332 z"
     id="path1013"
     inkscape:connector-curvature="0"
     transform="matrix(0.74999998,0,0,0.74999998,-31,0)" />
  <path
     style="fill:#ffc74d;fill-opacity:1;fill-rule:evenodd;stroke-width:0.02209709"
     d="m 441.32911,676.03913 0.005,-6.6236 0.006,6.20375 0.006,6.20376 h 0.3866 0.38659 l 0.006,-3.48581 0.006,-3.48582 0.005,3.58525 0.005,3.58526 h 21.82087 21.82088 v 0.3204 0.32041 H 463.5533 441.32363 Z"
     id="path1017"
     inkscape:connector-curvature="0"
     transform="matrix(0.74999998,0,0,0.74999998,-31,0)" />
  <path
     style="fill:#ffc74d;fill-opacity:1;fill-rule:evenodd;stroke-width:0.08838835"
     d="m 485.7252,682.33973 v -0.30936 h 4.41942 4.41941 v 0.30936 0.30935 h -4.41941 -4.41942 z"
     id="path1021"
     inkscape:connector-curvature="0"
     transform="matrix(0.74999998,0,0,0.74999998,-31,0)" />
  <path
     style="fill:#ffc74d;fill-opacity:1;fill-rule:evenodd;stroke-width:0.08838835"
     d="m 503.57965,682.33973 v -0.30936 h 8.57367 8.57367 v -25.94198 -25.94198 h 0.30935 0.30936 v 26.25134 26.25133 h -8.88303 -8.88302 z"
     id="path1025"
     inkscape:connector-curvature="0"
     transform="matrix(0.74999998,0,0,0.74999998,-31,0)" />
  <path
     style="fill:#ffc74d;fill-opacity:1;fill-rule:evenodd;stroke-width:0.03125"
     d="m 520.70018,613.92939 v -13.84375 l -5.78906,2.1e-4 c -7.48731,2.7e-4 -9.91682,0.0459 -13.35157,0.25102 -8.20314,0.48978 -14.67192,1.75055 -21,4.09292 -1.605,0.5941 -3.8129,1.53593 -5.00718,2.13594 -0.15864,0.0797 -0.29619,0.14491 -0.30565,0.14491 -0.009,0 -0.0133,-0.17214 -0.008,-0.38252 l 0.009,-0.38252 0.75,-0.35104 c 6.62045,-3.09872 13.95547,-4.98118 21.28125,-5.46163 0.39532,-0.0259 0.99297,-0.0635 1.32813,-0.0835 0.43627,-0.0261 3.75417,-0.0398 11.67969,-0.0483 l 11.07031,-0.0119 v 13.89193 13.89193 h -0.32813 -0.32812 z"
     id="path1027"
     inkscape:connector-curvature="0"
     transform="matrix(0.74999998,0,0,0.74999998,-31,0)" />
  <path
     style="fill:#ffc74d;fill-opacity:1;fill-rule:evenodd;stroke-width:0.01104854"
     d="m 459.38884,617.6065 v -0.51244 l 0.32869,-0.31582 c 2.66051,-2.55629 5.42297,-4.77412 8.4549,-6.78797 2.0988,-1.39406 4.09365,-2.54927 6.38477,-3.69739 l 0.70029,-0.35094 -0.007,0.0574 c -0.004,0.0316 -0.007,0.20414 -0.007,0.38344 l -9e-5,0.32601 -0.39499,0.19698 c -4.46232,2.22542 -8.82098,5.17844 -12.64782,8.56899 -0.86638,0.76761 -1.44791,1.31195 -2.51357,2.3528 l -0.29828,0.29135 z"
     id="path1029"
     inkscape:connector-curvature="0"
     transform="matrix(0.74999998,0,0,0.74999998,-31,0)" />
  <path
     style="fill:#ffc74d;fill-opacity:1;fill-rule:evenodd;stroke-width:0.03125"
     d="m 176.51248,600.52605 c -0.49844,-0.0248 -2.88906,-0.13356 -5.3125,-0.24174 l -4.40625,-0.19669 5.82812,0.003 c 3.20547,0.001 5.71211,0.007 5.57032,0.0131 l -0.25782,0.0105 v 0.23311 0.23311 l -0.25781,-0.004 c -0.1418,-0.002 -0.66562,-0.0248 -1.16406,-0.0495 z"
     id="path1031"
     inkscape:connector-curvature="0"
     transform="matrix(0.74999998,0,0,0.74999998,-31,0)" />
  <path
     style="fill:#ffc74d;fill-opacity:1;fill-rule:evenodd;stroke-width:0.04419417"
     d="m 222.31992,617.36591 c -2.49144,-2.38648 -4.79121,-4.25621 -7.50915,-6.10499 -0.39894,-0.27136 -0.70076,-0.49338 -0.67072,-0.49338 0.0402,0 0.0509,-0.0992 0.0403,-0.37576 -0.008,-0.20666 -0.008,-0.37571 -0.001,-0.37565 0.007,6e-5 0.23586,0.15272 0.50824,0.33924 3.22407,2.20785 5.61734,4.17003 8.27834,6.78717 l 1.0672,1.04962 -0.42558,-4e-4 -0.42559,-4e-4 -0.86178,-0.82548 z"
     id="path1033"
     inkscape:connector-curvature="0"
     transform="matrix(0.74999998,0,0,0.74999998,-31,0)" />
  <path
     style="fill:#ffc74d;fill-opacity:1;fill-rule:evenodd;stroke-width:0.0078125"
     d="m 161.33333,682.32273 v -0.34285 l 0.14843,-0.006 0.14843,-0.006 0.002,-3.50886 0.002,-3.50887 0.002,3.54102 0.002,3.54101 h 5.57812 5.57813 v 0.31641 0.31641 h -5.73047 -5.73047 z"
     id="path1035"
     inkscape:connector-curvature="0"
     transform="matrix(0.74999998,0,0,0.74999998,-31,0)" />
  <path
     style="fill:#ffc74d;fill-opacity:1;fill-rule:evenodd;stroke-width:0.00390625"
     d="m 250.79815,72.735137 c -0.16866,-0.08572 -0.3048,-0.155873 -0.30255,-0.155905 0.01,-1.38e-4 0.3635,0.169035 0.40606,0.194154 0.0258,0.01521 0.0812,0.04622 0.12305,0.06889 0.0419,0.02268 0.0788,0.04296 0.082,0.04508 0.0243,0.01602 -0.0407,-0.01608 -0.30859,-0.152222 z"
     id="path1039"
     inkscape:connector-curvature="0"
     transform="matrix(0.74999998,0,0,0.74999998,-31,0)" />
</svg>
