<?xml version="1.0" encoding="utf-8"?>
<!-- Generator: Adobe Illustrator 24.0.0, SVG Export Plug-In . SVG Version: 6.00 Build 0)  -->
<svg version="1.1"
	 id="svg880" xmlns:cc="http://creativecommons.org/ns#" xmlns:dc="http://purl.org/dc/elements/1.1/" xmlns:inkscape="http://www.inkscape.org/namespaces/inkscape" xmlns:rdf="http://www.w3.org/1999/02/22-rdf-syntax-ns#" xmlns:sodipodi="http://sodipodi.sourceforge.net/DTD/sodipodi-0.dtd" xmlns:svg="http://www.w3.org/2000/svg"
	 xmlns="http://www.w3.org/2000/svg" xmlns:xlink="http://www.w3.org/1999/xlink" x="0px" y="0px" viewBox="0 0 760 242"
	 style="enable-background:new 0 0 760 242;" xml:space="preserve">
<style type="text/css">
	.st0{fill:#FFB52F;}
	.st1{fill:#001232;}
	.st2{fill:#001232;fill-opacity:0.9894;}
</style>
<sodipodi:namedview  bordercolor="#666666" borderopacity="1" gridtolerance="10" guidetolerance="10" id="namedview882" inkscape:current-layer="svg880" inkscape:cx="541.46266" inkscape:cy="128.17931" inkscape:pageopacity="0" inkscape:pageshadow="2" inkscape:window-height="705" inkscape:window-maximized="1" inkscape:window-width="1366" inkscape:window-x="-8" inkscape:window-y="-8" inkscape:zoom="0.96017658" objecttolerance="10" pagecolor="#ffffff" showgrid="false">
	</sodipodi:namedview>
<g id="g878" transform="matrix(0.1,0,0,-0.1,-2.513362,242.53872)">
	<path id="path868" inkscape:connector-curvature="0" class="st0" d="M360,1495V850h-80h-80V685V520h80h80V395V270h2892h2891l36,39
		c20,22,77,106,126,187c50,82,117,182,150,224s74,102,90,133c17,31,33,57,36,57c7,0,23-23,158-217c98-142,116-163,144-168
		c18-3,126-5,240-3l209,3l-166,233c-91,128-166,236-166,239s-41,61-90,128l-90,123l243,339c133,186,272,378,309,428l66,90l-26,17
		c-26,17-211,18-3539,18H360V1495z M6950,2091c0-19-342-523-359-529c-5-2-64,76-131,173c-78,111-130,177-144,180c-11,3-121,4-243,3
		l-222-3l134-187c73-102,142-195,152-205c11-11,61-79,112-151l92-132l-33-48c-17-26-56-79-85-119s-53-76-53-81s-15-24-33-43
		c-34-35-188-232-377-484l-105-140l-2618,3l-2617,2v95v95h104c85,0,105,3,110,16c8,20,8,278,0,298c-5,13-25,16-114,16H412l-1,458
		c-1,251,1,530,5,619l7,163l3256,3c1791,1,3259,3,3264,5C6947,2099,6950,2096,6950,2091z"/>
	<path id="path870" inkscape:connector-curvature="0" class="st1" d="M690,1710v-200l48-1c26,0,126-1,222-2l175-2l3,83l3,82h140
		c130,0,144-2,195-26c69-33,94-70,94-141c0-41-5-58-27-84c-49-57-100-73-260-77l-143-4v-118v-117l186-7c205-7,238-15,274-66
		c33-46,39-153,12-196c-38-60-135-86-312-83c-63,1-125,1-137,0c-23-1-23-4-23-121V510h268c233,0,279,3,344,19
		c146,38,237,101,285,199c26,52,28,67,28,167c0,93-4,118-23,160c-27,59-78,114-145,157l-48,31l50,51c27,28,62,76,78,106
		c25,50,28,65,28,155c0,85-4,107-23,143c-50,94-142,160-267,192c-73,19-111,20-552,20H690V1710z"/>
	<path id="path872" inkscape:connector-curvature="0" class="st1" d="M2820,1210V510h215h215v166c0,104,4,173,11,187
		c7,12,35,47,64,78c38,39,55,52,61,43c51-72,377-463,389-468c21-8,465-8,465,0c0,6-97,134-292,384c-32,41-109,140-170,220
		s-115,151-121,157c-11,15,3,31,328,383l226,245l-228,3l-228,3l-103-108c-56-59-167-176-245-259c-107-113-144-146-149-135
		c-4,9-7,125-7,259l-1,242h-215h-215V1210z"/>
	<path id="path874" inkscape:connector-curvature="0" class="st1" d="M4359,1723c-4-490-4-970,0-1085l3-128h594h595l-3,128l-3,127
		l-367,5c-201,3-370,9-374,13c-11,11-18,205-10,262l7,45h320h319v125v125h-319h-318l-7,31c-8,40-8,193,0,242l7,37h327
		c180,0,342,3,359,6l31,7v123v124h-580h-580L4359,1723z"/>
	<path id="path876" inkscape:connector-curvature="0" class="st1" d="M2210,1035V510h214h214l7,259c4,143,4,379,0,525l-7,266h-214
		h-214V1035z"/>
</g>
<g id="g1557" transform="matrix(0.1,0,0,-0.1,-2.513362,242.53872)">
	<path id="path1545" inkscape:connector-curvature="0" class="st2" d="M6995,2110c-21-4-41-12-43-18c-15-46-334-505-385-555l-40-38
		l-81,110c-72,97-190,277-198,302c-2,6-85,8-200,7l-197-3l134-187c73-102,142-195,152-205c11-11,61-79,112-151l92-132l-33-48
		c-17-26-56-79-85-119s-53-76-53-81s-15-24-33-43c-33-33-304-383-422-544c-32-44-67-86-77-93s-18-20-18-28c0-12,34-14,213-14h212
		l45,68c25,37,48,68,52,70s45,65,90,140c96,162,202,320,254,380l37,44l47-51c25-28,99-126,163-219c78-114,124-171,139-176
		c42-11,348-7,348,5c0,6-73,112-162,237c-90,125-168,236-174,247s-35,54-66,96c-64,89-83,130-74,161c3,13,35,64,72,113
		c231,316,504,707,504,720s-20,15-142,14C7099,2118,7017,2114,6995,2110z"/>
	<path id="path1555" inkscape:connector-curvature="0" class="st2" d="M200,686V523l98-5c53-2,127-3,165,0l67,4v164v164H365H200V686
		z"/>
</g>
</svg>
