<?xml version="1.0" encoding="iso-8859-1"?>
<!-- Generator: Adobe Illustrator 19.0.0, SVG Export Plug-In . SVG Version: 6.00 Build 0)  -->
<svg version="1.1" id="Capa_1" xmlns="http://www.w3.org/2000/svg" xmlns:xlink="http://www.w3.org/1999/xlink" x="0px" y="0px"
	 viewBox="0 0 512 512" style="enable-background:new 0 0 512 512;" xml:space="preserve">
<path style="fill:#FEC007;" d="M357.112,377.431c0-8.8-7.199-15.999-15.999-15.999h-61.275c-8.8,0-15.999,7.199-15.999,15.999
	c0,8.879,7.199,15.999,15.999,15.999h61.275C349.913,393.43,357.112,386.31,357.112,377.431z M357.112,236.322
	c0-4.24-1.68-8.319-4.719-11.279c-5.92-6-16.639-6-22.558,0c-3.04,2.96-4.719,7.04-4.719,11.279c0,4.24,1.68,8.319,4.719,11.359
	c2.96,2.96,7.04,4.64,11.279,4.64c4.24,0,8.319-1.68,11.279-4.64C355.432,244.641,357.112,240.562,357.112,236.322z
	 M357.112,167.767c0-4.16-1.68-8.319-4.719-11.279c-5.92-6-16.639-6-22.558,0c-3.04,2.96-4.719,7.119-4.719,11.279
	c0,4.24,1.68,8.319,4.719,11.359c2.96,2.96,7.04,4.64,11.279,4.64c4.24,0,8.319-1.68,11.279-4.64
	C355.432,176.087,357.112,172.007,357.112,167.767z M377.271,52.576v406.768l-7.44-6.879c-6.159-5.68-15.599-5.68-21.758,0
	l-23.438,21.678l-23.438-21.678c-6.079-5.68-15.599-5.68-21.678,0l-23.438,21.678l-23.438-21.678c-6.159-5.68-15.599-5.68-21.758,0
	l-23.438,21.758l-23.518-21.758c-6.079-5.68-15.599-5.68-21.678,0l-7.519,6.96V52.656l7.44,6.879c6.159,5.68,15.599,5.68,21.758,0
	l23.438-21.678l23.438,21.678c6.079,5.68,15.599,5.68,21.678,0l23.438-21.678l23.438,21.678c6.159,5.68,15.599,5.68,21.758,0
	l23.438-21.758l23.518,21.758c3.04,2.8,6.96,4.24,10.879,4.24c3.84,0,7.76-1.44,10.799-4.24L377.271,52.576z M300.717,167.767
	c0-8.8-7.199-15.999-15.999-15.999H175.526c-8.8,0-15.999,7.199-15.999,15.999c0,8.879,7.199,15.999,15.999,15.999h109.192
	C293.518,183.766,300.717,176.646,300.717,167.767z M299.917,236.322c0-8.8-7.119-15.999-15.999-15.999H175.526
	c-8.8,0-15.999,7.199-15.999,15.999c0,8.879,7.199,15.999,15.999,15.999h108.391C292.798,252.321,299.917,245.201,299.917,236.322z"
	/>
<g>
	<path style="fill:#1D1D1B;" d="M369.832,452.465l7.44,6.879V52.576l-7.519,6.96c-3.04,2.8-6.96,4.24-10.799,4.24
		c-3.92,0-7.839-1.44-10.879-4.24l-23.518-21.758l-23.438,21.758c-6.159,5.68-15.599,5.68-21.758,0L255.92,37.858l-23.438,21.678
		c-6.079,5.68-15.599,5.68-21.678,0l-23.438-21.678l-23.438,21.678c-6.159,5.68-15.599,5.68-21.758,0l-7.44-6.879v406.768
		l7.519-6.96c6.079-5.68,15.599-5.68,21.678,0l23.518,21.758l23.438-21.758c6.159-5.68,15.599-5.68,21.758,0l23.438,21.678
		l23.438-21.678c6.079-5.68,15.599-5.68,21.678,0l23.438,21.678l23.438-21.678C354.233,446.786,363.672,446.786,369.832,452.465z
		 M409.269,17.699v475.723c0,0.4-0.08,0.8-0.08,1.2c0.32,4.32-0.96,8.8-4.16,12.239c-6,6.479-16.158,6.879-22.639,0.88
		l-23.438-21.758l-23.438,21.758c-6.079,5.68-15.599,5.68-21.758,0l-23.438-21.758l-23.358,21.758c-6.159,5.68-15.599,5.68-21.758,0
		l-23.438-21.758l-23.438,21.758c-6.159,5.68-15.599,5.68-21.758,0l-23.518-21.758l-23.438,21.758c-3.12,2.8-6.96,4.24-10.88,4.24
		c-4.32,0-8.559-1.76-11.759-5.119c-3.2-3.44-4.48-7.919-4.16-12.319c0-0.32-0.08-0.72-0.08-1.12V17.699c0-0.24,0.08-0.4,0.08-0.64
		c-0.318-4.24,1.042-8.559,4.161-11.919c6-6.479,16.158-6.879,22.639-0.88l23.438,21.758L176.487,4.26
		c6.079-5.68,15.599-5.68,21.678,0l23.438,21.758L245.042,4.26c6.159-5.68,15.599-5.68,21.758,0l23.438,21.758L313.677,4.26
		c6.159-5.68,15.599-5.68,21.758,0l23.518,21.758L382.391,4.26c6.479-6,16.639-5.6,22.639,0.88c3.12,3.359,4.48,7.68,4.16,11.919
		C409.188,17.299,409.269,17.459,409.269,17.699z"/>
	<path style="fill:#1D1D1B;" d="M352.393,156.488c3.04,2.96,4.719,7.119,4.719,11.279c0,4.24-1.68,8.319-4.719,11.359
		c-2.96,2.96-7.04,4.64-11.279,4.64s-8.319-1.68-11.279-4.64c-3.04-3.04-4.719-7.119-4.719-11.359c0-4.16,1.68-8.319,4.719-11.279
		C335.754,150.489,346.473,150.489,352.393,156.488z"/>
	<path style="fill:#1D1D1B;" d="M352.393,225.043c3.04,2.96,4.719,7.04,4.719,11.279s-1.68,8.319-4.719,11.359
		c-2.96,2.96-7.04,4.64-11.279,4.64s-8.319-1.68-11.279-4.64c-3.04-3.04-4.719-7.119-4.719-11.359s1.68-8.319,4.719-11.279
		C335.754,219.043,346.473,219.043,352.393,225.043z"/>
	<path style="fill:#1D1D1B;" d="M341.114,361.432c8.8,0,15.999,7.199,15.999,15.999c0,8.879-7.199,15.999-15.999,15.999h-61.275
		c-8.8,0-15.999-7.119-15.999-15.999c0-8.8,7.199-15.999,15.999-15.999H341.114z"/>
	<path style="fill:#1D1D1B;" d="M284.718,151.768c8.8,0,15.999,7.199,15.999,15.999c0,8.879-7.199,15.999-15.999,15.999H175.526
		c-8.8,0-15.999-7.119-15.999-15.999c0-8.8,7.199-15.999,15.999-15.999H284.718z"/>
	<path style="fill:#1D1D1B;" d="M283.918,220.323c8.879,0,15.999,7.199,15.999,15.999c0,8.879-7.119,15.999-15.999,15.999H175.526
		c-8.8,0-15.999-7.119-15.999-15.999c0-8.8,7.199-15.999,15.999-15.999H283.918z"/>
</g>
<g>
</g>
<g>
</g>
<g>
</g>
<g>
</g>
<g>
</g>
<g>
</g>
<g>
</g>
<g>
</g>
<g>
</g>
<g>
</g>
<g>
</g>
<g>
</g>
<g>
</g>
<g>
</g>
<g>
</g>
</svg>
