<?xml version="1.0" encoding="UTF-8" standalone="no"?>
<svg
   xmlns:dc="http://purl.org/dc/elements/1.1/"
   xmlns:cc="http://creativecommons.org/ns#"
   xmlns:rdf="http://www.w3.org/1999/02/22-rdf-syntax-ns#"
   xmlns:svg="http://www.w3.org/2000/svg"
   xmlns="http://www.w3.org/2000/svg"
   xmlns:sodipodi="http://sodipodi.sourceforge.net/DTD/sodipodi-0.dtd"
   xmlns:inkscape="http://www.inkscape.org/namespaces/inkscape"
   height="511pt"
   viewBox="1 -14 511.99978 511"
   width="511pt"
   version="1.1"
   id="svg496"
   sodipodi:docname="buyback.svg"
   inkscape:version="0.92.4 (5da689c313, 2019-01-14)">
  <metadata
     id="metadata502">
    <rdf:RDF>
      <cc:Work
         rdf:about="">
        <dc:format>image/svg+xml</dc:format>
        <dc:type
           rdf:resource="http://purl.org/dc/dcmitype/StillImage" />
        <dc:title></dc:title>
      </cc:Work>
    </rdf:RDF>
  </metadata>
  <defs
     id="defs500" />
  <sodipodi:namedview
     pagecolor="#ffffff"
     bordercolor="#666666"
     borderopacity="1"
     objecttolerance="10"
     gridtolerance="10"
     guidetolerance="10"
     inkscape:pageopacity="0"
     inkscape:pageshadow="2"
     inkscape:window-width="1920"
     inkscape:window-height="1001"
     id="namedview498"
     showgrid="false"
     inkscape:snap-page="true"
     inkscape:zoom="1.18591"
     inkscape:cx="201.95462"
     inkscape:cy="340.66667"
     inkscape:window-x="-9"
     inkscape:window-y="-9"
     inkscape:window-maximized="1"
     inkscape:current-layer="svg496" />
  <path
     d="m270.890625.5c-132.945313 0-241.105469 108.160156-241.105469 241.105469h-23.472656c-4.917969 0-7.941406 5.386719-5.378906 9.585937l45.601562 74.773438c2.457032 4.027344 8.308594 4.027344 10.765625 0l45.601563-74.773438c2.5625-4.199218-.460938-9.585937-5.378906-9.585937h-21.148438c0-107.417969 87.527344-194.78125 195.011719-194.511719 106.648437.265625 193.753906 87.371094 194.019531 194.019531.265625 105.429688-83.785156 191.660157-188.378906 194.914063-3.414063.105468-6.132813 2.878906-6.132813 6.296875v33.992187c0 3.550782 2.929688 6.40625 6.476563 6.3125 129.964844-3.445312 234.628906-110.242187 234.628906-241.019531 0-132.800781-108.308594-241.109375-241.109375-241.109375zm0 0"
     fill="#97d57e"
     id="path472" />
  <path
     d="m40.960938 316.828125 5.574218 9.136719c2.457032 4.027344 8.304688 4.027344 10.761719 0l45.605469-74.773438c2.5625-4.199218-.460938-9.585937-5.382813-9.585937h-10.679687zm0 0"
     fill="#82cd64"
     id="path474" />
  <path
     d="m257.496094 47.089844c-105.089844 0-190.984375 83.777344-194.410156 188.054687-.113282 3.539063 2.761718 6.460938 6.304687 6.460938h6.984375c0-105.011719 83.652344-190.84375 187.820312-194.386719-2.222656-.074219-4.457031-.128906-6.699218-.128906zm0 0"
     fill="#82cd64"
     id="path476" />
  <path
     d="m450.28125 80.695312c30.796875 40.492188 49.109375 90.976563 49.109375 145.660157 0 128.71875-101.390625 234.199219-228.496094 240.78125v9.179687c0 3.542969 2.921875 6.40625 6.464844 6.308594 129.96875-3.4375 234.640625-110.234375 234.640625-241.019531 0-61.78125-23.367188-118.203125-61.71875-160.910157zm0 0"
     fill="#82cd64"
     id="path478" />
  <path
     d="m163.699219 382.390625c-13.015625 0-24.003907-8.691406-27.472657-20.585937-1.171874-4.019532 1.886719-8.03125 6.070313-8.03125h170.945313c3.054687 0 5.648437 2.195312 6.199218 5.199218 2.445313 13.324219 14.117188 23.417969 28.144532 23.417969zm0 0"
     fill="#feba80"
     id="path480" />
  <path
     d="m163.699219 353.773438v-232.992188c0-3.480469 2.824219-6.300781 6.304687-6.300781h199.898438c3.480468 0 6.300781 2.820312 6.300781 6.300781v232.398438c0 15.59375-12.222656 28.773437-27.8125 29.203124-14.375.390626-26.445313-9.820312-28.945313-23.386718-.554687-2.996094-3.085937-5.222656-6.132812-5.222656zm0 0"
     fill="#f7e5c1"
     id="path482" />
  <path
     d="m354.800781 114.480469v239.292969c0 12.019531-7.414062 22.300781-17.917969 26.542968 3.636719 1.464844 7.636719 2.214844 11.835938 2.054688 15.464844-.601563 27.484375-13.757813 27.484375-29.230469v-232.359375c0-3.480469-2.820313-6.300781-6.304687-6.300781zm0 0"
     fill="#f3d69e"
     id="path484" />
  <g
     fill="#5f6c75"
     id="g494">
    <path
       d="m338.59375 196.230469h-137.28125c-4.355469 0-7.882812-3.527344-7.882812-7.878907 0-4.355468 3.527343-7.882812 7.882812-7.882812h137.28125c4.351562 0 7.878906 3.527344 7.878906 7.882812 0 4.351563-3.527344 7.878907-7.878906 7.878907zm0 0"
       id="path486" />
    <path
       d="m338.59375 235.128906h-137.28125c-4.355469 0-7.882812-3.527344-7.882812-7.882812 0-4.351563 3.527343-7.878906 7.882812-7.878906h137.28125c4.351562 0 7.878906 3.527343 7.878906 7.878906 0 4.355468-3.527344 7.882812-7.878906 7.882812zm0 0"
       id="path488" />
    <path
       d="m338.59375 274.027344h-137.28125c-4.355469 0-7.882812-3.53125-7.882812-7.882813 0-4.351562 3.527343-7.878906 7.882812-7.878906h137.28125c4.351562 0 7.878906 3.527344 7.878906 7.878906 0 4.351563-3.527344 7.882813-7.878906 7.882813zm0 0"
       id="path490" />
    <path
       d="m338.59375 312.925781h-137.28125c-4.355469 0-7.882812-3.53125-7.882812-7.882812 0-4.351563 3.527343-7.878907 7.882812-7.878907h137.28125c4.351562 0 7.878906 3.527344 7.878906 7.878907 0 4.351562-3.527344 7.882812-7.878906 7.882812zm0 0"
       id="path492" />
  </g>
  <path
     style="fill:#001232;stroke-width:0.8432343;fill-opacity:1"
     d="m 359.21782,624.05064 c 0,-17.32929 0.67756,-21.28921 3.93398,-22.99168 0.85087,-0.44485 4.96214,-1.05858 9.13615,-1.36386 31.69023,-2.31776 55.91127,-7.6001 82.15992,-17.91813 21.32124,-8.38113 47.93831,-23.83428 66.67094,-38.70734 12.22257,-9.70429 34.94633,-33.21762 44.76488,-46.32029 43.19414,-57.64182 60.50355,-128.32202 48.73543,-199.0033 C 600.53987,213.1838 543.31448,139.43059 464.35799,104.08656 452.21393,98.650404 428.11354,90.636086 415.71452,87.910714 c -21.56225,-4.739501 -45.97168,-7.011451 -64.50742,-6.00414 -6.49291,0.352851 -15.03066,0.562395 -18.97278,0.465653 -21.79716,-0.534917 -59.85946,7.320008 -85.89949,17.727093 -93.87529,37.51794 -157.228286,124.97788 -163.325275,225.47345 -0.527637,8.69689 -0.448778,9.41898 1.264017,11.57414 2.487744,3.13028 6.24582,3.93756 18.525528,3.97951 5.75572,0.0197 10.57765,0.14845 10.71538,0.2862 0.13775,0.13774 -12.49439,21.105 -28.071418,46.5939 -15.577022,25.48892 -29.174616,47.92492 -30.216874,49.85777 -1.793772,3.32654 -1.940172,3.41664 -2.740307,1.68647 C 52.02097,438.54546 39.831727,418.37417 25.398677,394.72567 -3.3036017,347.69709 -3.0287013,348.28775 1.6216044,343.63745 l 2.4648388,-2.46484 H 21.437611 38.788779 l 0.0087,-7.79992 c 0.01976,-17.71422 3.261799,-43.50426 8.135669,-64.71823 10.745358,-46.77018 31.850766,-89.97742 63.225752,-129.43647 10.06057,-12.65278 35.41904,-37.81767 49.03766,-48.663335 53.47917,-42.589982 117.8497,-66.894954 184.5259,-69.673143 45.10816,-1.879516 86.69803,4.529812 127.64553,19.671182 14.52872,5.372364 45.3424,20.783763 58.86135,29.439393 25.71841,16.466428 47.59858,35.161123 69.91884,59.739513 2.42173,2.66673 4.22671,4.8486 4.01106,4.8486 -0.21564,0 2.20155,3.88942 5.37153,8.64315 28.90606,43.34775 46.33093,91.78719 52.0337,144.64863 1.601,14.84036 1.81958,46.76853 0.41975,61.31135 -7.31558,76.00106 -39.39746,144.38845 -92.77501,197.76404 -46.39844,46.39672 -103.2342,76.55911 -167.40805,88.84241 -12.29918,2.35415 -31.45236,4.72844 -38.15636,4.72999 l -4.42698,10e-4 z"
     id="path4207"
     inkscape:connector-curvature="0"
     transform="matrix(0.75146741,0,0,0.75146741,1,-14.49989)" />
  <path
     style="fill:#ffb530;fill-opacity:1;stroke-width:0.8432343"
     d="m 441.94235,522.86139 c -8.85429,-5.23189 -14.5289,-12.801 -17.65254,-23.54595 -0.7916,-2.72303 -2.32565,-5.83733 -3.40898,-6.92067 l -1.96968,-1.96969 -115.77225,-0.18954 c -63.67473,-0.10425 -109.22961,-0.30292 -101.23306,-0.4415 l 14.53917,-0.25196 0.21743,-156.46929 0.21743,-156.46931 2.75381,-2.46048 2.75382,-2.46049 h 124.37836 124.37836 l -0.22541,162.95503 -0.22541,162.95503 -2.0215,5.05941 c -3.58804,8.98013 -10.33662,16.79072 -18.38028,21.27271 l -3.37095,1.87832 z m 9.35666,-87.22189 c 3.75247,-0.86593 7.64383,-4.59349 8.54542,-8.1857 0.87902,-3.50231 -1.35716,-8.77309 -4.66475,-10.99504 l -2.86522,-1.92477 h -93.97929 c -82.2355,0 -94.31598,0.15976 -96.67349,1.27848 -8.76929,4.1613 -6.71835,18.21724 2.92277,20.031 4.0626,0.76428 183.36751,0.56841 186.71456,-0.20397 z m 3.88067,-53.38671 c 3.37077,-2.26439 5.54554,-7.48569 4.63274,-11.12256 -0.98101,-3.90868 -5.52525,-7.80168 -9.82909,-8.42048 -2.05905,-0.29605 -44.91464,-0.42496 -95.23465,-0.28647 -88.24343,0.24286 -91.57476,0.30863 -93.85292,1.85268 -6.66471,4.51712 -6.30244,15.1709 0.63224,18.59335 2.24436,1.10766 14.59255,1.2723 96.67973,1.28905 l 94.10673,0.0192 z m 0.052,-51.45918 c 6.82539,-4.63396 5.9774,-15.68319 -1.44151,-18.78302 -4.38729,-1.83312 -188.21558,-1.78176 -191.76473,0.0535 -8.22214,4.25184 -8.03356,15.82453 0.31752,19.48516 2.14329,0.9395 19.1529,1.10758 96.62185,0.95477 89.13944,-0.17583 94.13724,-0.26463 96.26687,-1.7105 z m 0.18659,-52.0948 c 2.82116,-2.21911 4.73468,-5.87043 4.73468,-9.03455 0,-2.97434 -3.08735,-7.76926 -5.92795,-9.20662 -1.62866,-0.82411 -22.6377,-1.05661 -96.35609,-1.06633 -103.52843,-0.0137 -97.74756,-0.30237 -100.49954,5.01937 -1.63356,3.15895 -1.63512,7.85527 -0.004,11.01015 2.72179,5.26336 -3.22683,4.96814 100.85299,5.00514 l 94.96095,0.0337 2.23866,-1.76092 z"
     id="path5014"
     inkscape:connector-curvature="0"
     transform="matrix(0.75146741,0,0,0.75146741,1,-14.49989)" />
  <path
     style="fill:#ff9a43;fill-opacity:1;stroke-width:0.8432343"
     d="m 333.2462,527.54335 c 64.92905,-0.2455 117.38876,-0.53924 116.57715,-0.65278 -2.41217,-0.33741 -1.71698,-1.45248 2.68312,-4.30365 6.04678,-3.91818 11.64954,-10.5592 15.35785,-18.20386 l 3.2507,-6.70128 V 334.68215 171.68251 l 10.75123,0.003 c 9.20018,0.003 11.14335,0.24223 13.46912,1.66031 1.49484,0.91144 2.9282,2.52271 3.18525,3.5806 0.25705,1.05788 0.3621,73.83024 0.23344,161.71633 l -0.23393,159.79291 -1.9499,4.82732 c -4.28739,10.61418 -12.61392,18.73867 -23.34713,22.7806 l -5.0594,1.90528 -126.48515,0.0203 -126.48515,0.0203 118.0528,-0.44635 z"
     id="path5016"
     inkscape:connector-curvature="0"
     transform="matrix(0.75146741,0,0,0.75146741,1,-14.49989)" />
  <path
     style="fill:#ff9a43;fill-opacity:1;stroke-width:0.8432343"
     d="m 231.21485,527.56342 -24.45379,-0.45764 -5.72354,-2.71105 c -7.5405,-3.57168 -14.80213,-10.53165 -18.20954,-17.45308 -3.4163,-6.93948 -3.46082,-10.75488 -0.16397,-14.05173 l 2.46484,-2.46484 14.18904,-0.0388 c 66.33985,-0.1815 217.77242,0.2045 219.18483,0.5587 1.6592,0.4161 5.39117,5.78894 5.39117,7.76157 0,0.48639 0.44253,1.95255 0.98339,3.25813 0.54086,1.30558 1.03383,2.56352 1.09549,2.79541 0.67237,2.52862 1.55057,4.21617 2.19412,4.21617 0.43252,0 0.78641,0.49105 0.78641,1.09123 0,1.44112 8.5885,10.71405 9.92326,10.71405 0.57133,0 1.03879,0.3352 1.03879,0.74489 0,0.40968 0.66404,0.96849 1.47566,1.24178 0.81161,0.27329 2.79783,1.26619 4.41382,2.20643 l 2.93817,1.70954 -28.2352,0.19762 -28.23519,0.19763 37.52392,0.44798 c 20.63816,0.2464 -10.09773,0.45827 -68.30198,0.47083 -58.20424,0.0126 -116.83011,-0.1831 -130.2797,-0.4348 z"
     id="path5018"
     inkscape:connector-curvature="0"
     transform="matrix(0.75146741,0,0,0.75146741,1,-14.49989)" />
  <path
     style="fill:#000000;fill-opacity:1;stroke-width:0.8432343"
     d="m 262.24469,434.24532 c -4.24101,-2.09122 -5.69046,-5.08222 -5.40453,-11.1525 0.0513,-1.08988 1.38349,-3.27175 2.96034,-4.8486 l 2.86699,-2.86699 h 94.56844 c 104.19881,0 98.02781,-0.31874 100.8873,5.21091 1.67078,3.23094 1.16269,8.49526 -1.06092,10.99237 -3.70013,4.1552 -0.73591,4.03564 -99.54603,4.01514 -82.60735,-0.0171 -92.86264,-0.16249 -95.27159,-1.35033 z"
     id="path5020"
     inkscape:connector-curvature="0"
     transform="matrix(0.75146741,0,0,0.75146741,1,-14.49989)" />
  <path
     style="fill:#000000;fill-opacity:1;stroke-width:0.8432343"
     d="m 260.3958,381.17204 c -7.06406,-5.94401 -3.85757,-16.25523 5.4517,-17.53121 2.18344,-0.29927 44.53086,-0.54413 94.10536,-0.54413 96.18593,0 93.41441,-0.11514 97.10945,4.03434 2.22361,2.49711 2.7317,7.76144 1.06092,10.99237 -2.85932,5.52932 3.29619,5.21091 -100.73827,5.21091 h -94.41943 z"
     id="path5022"
     inkscape:connector-curvature="0"
     transform="matrix(0.75146741,0,0,0.75146741,1,-14.49989)" />
  <path
     style="fill:#000000;fill-opacity:1;stroke-width:0.8432343"
     d="m 261.09459,329.98983 c -5.4124,-3.64225 -5.96659,-11.33172 -1.1433,-15.86334 l 2.17713,-2.04547 94.42777,-0.22508 c 104.10171,-0.24815 98.16371,-0.5388 101.41424,4.9639 2.19914,3.72284 1.38182,8.67791 -1.98709,12.04713 l -2.60822,2.60844 -94.69215,0.23172 -94.69215,0.23171 z"
     id="path5024"
     inkscape:connector-curvature="0"
     transform="matrix(0.75146741,0,0,0.75146741,1,-14.49989)" />
  <path
     style="fill:#000000;fill-opacity:1;stroke-width:0.8432343"
     d="m 317.22475,279.6558 c -40.65493,-0.34188 -55.27035,-0.72481 -56.59186,-1.48273 -0.97989,-0.562 -2.19608,-2.07982 -2.70263,-3.37294 -1.93704,-4.94483 -1.53993,-8.0406 1.46269,-11.40259 l 2.45946,-2.75381 35.6969,-0.52819 c 46.09993,-0.68213 154.96271,0.094 156.95695,1.11902 2.23777,1.15017 4.79717,5.78369 4.79717,8.68475 0,3.06518 -2.56789,7.49899 -5.21879,9.01095 -2.23776,1.27632 -44.63564,1.50109 -136.85989,0.72554 z"
     id="path5026"
     inkscape:connector-curvature="0"
     transform="matrix(0.75146741,0,0,0.75146741,1,-14.49989)" />
  <path
     style="fill:#000000;fill-opacity:1;stroke-width:0.8432343"
     d="m 363.43469,659.95174 c -3.3106,-2.02013 -4.65396,-6.32194 -4.29859,-13.76532 l 0.25037,-5.24401 9.27558,-0.54507 c 40.61959,-2.38694 91.04858,-17.63387 129.11947,-39.03854 28.3027,-15.91269 51.28198,-33.66053 74.98543,-57.91431 48.97839,-50.11555 78.79647,-112.35469 88.62454,-184.98558 2.09808,-15.5051 2.08603,-58.26789 -0.0212,-75.04785 -3.80992,-30.33935 -11.45636,-59.41975 -22.83728,-86.85314 -6.36782,-15.34949 -18.39645,-37.9871 -26.80596,-50.44824 -3.93231,-5.82684 -3.72648,-7.21305 0.31722,-2.13648 30.03414,37.70568 52.81808,88.03292 62.17134,137.32977 4.02882,21.2341 4.75663,30.33019 4.75663,59.44802 0,29.09678 -0.71986,38.10954 -4.74822,59.44802 -18.58655,98.45436 -82.58497,182.82702 -172.75261,227.74931 -39.57555,19.71688 -80.69752,30.43199 -127.32838,33.17784 -6.98009,0.41102 -8.3578,0.25993 -10.70838,-1.17442 z"
     id="path5028"
     inkscape:connector-curvature="0"
     transform="matrix(0.75146741,0,0,0.75146741,1,-14.49989)" />
  <path
     style="fill:#000000;fill-opacity:1;stroke-width:0.8432343"
     d="m 87.720602,339.10014 c -4.269006,-1.85699 -4.803257,-3.74335 -4.176997,-14.7483 1.178613,-20.71112 6.089471,-45.5729 13.000444,-65.8162 C 121.63036,185.054 176.89422,127.41759 248.92277,99.615119 c 21.51648,-8.305193 49.7892,-14.741221 72.30023,-16.458485 15.09443,-1.151486 18.32572,-0.928934 6.79713,0.468147 -18.71782,2.268303 -40.85501,7.628434 -59.00575,14.2872 -13.23856,4.856689 -39.30194,18.165579 -51.71289,26.406449 -15.85057,10.52476 -28.02112,20.48728 -41.3292,33.83105 -38.69925,38.80308 -63.57238,87.18625 -72.41493,140.86141 -1.88642,11.45076 -3.44294,27.6827 -3.45675,36.04827 l -0.009,5.27021 -4.848593,-0.033 c -2.666729,-0.0181 -6.05195,-0.55646 -7.522715,-1.19623 z"
     id="path5030"
     inkscape:connector-curvature="0"
     transform="matrix(0.75146741,0,0,0.75146741,1,-14.49989)" />
  <path
     style="fill:#122135;fill-opacity:1;stroke-width:0.8432343"
     d="m 63.236598,455.42463 c -0.998097,-0.6991 -3.578187,-4.17575 -5.733532,-7.72589 l -3.918809,-6.45481 15.110254,-24.94944 c 8.31064,-13.72219 21.905371,-36.22237 30.210512,-50.00041 l 15.100257,-25.05096 8.70802,-0.0353 c 8.52088,-0.0345 8.76098,0.0177 11.17285,2.42959 4.03391,4.0339 3.47627,6.62103 -4.12624,19.14333 -42.825866,70.53966 -54.64955,89.62558 -56.743534,91.59604 -2.807969,2.64231 -6.880369,3.07864 -9.779778,1.04781 z"
     id="path5032"
     inkscape:connector-curvature="0"
     transform="matrix(0.75146741,0,0,0.75146741,1,-14.49989)" />
  <path
     style="fill:#122135;fill-opacity:1;stroke-width:0.8432343"
     d="m 91.821111,339.46704 c -7.761593,-1.13042 -8.04377,-1.73345 -7.48793,-16.00235 1.028306,-26.39756 8.544158,-57.53535 20.557019,-85.16667 27.43009,-63.09322 78.50306,-112.35128 142.76772,-137.6944 16.67449,-6.575669 39.08271,-12.420396 58.81005,-15.339398 13.69979,-2.027123 15.17626,-1.389948 2.74606,1.18507 -24.0941,4.99129 -39.3733,10.053737 -58.94354,19.529728 -30.99261,15.00673 -49.28132,27.54052 -71.23952,48.82248 -38.27774,37.09892 -64.00645,84.17355 -74.20912,135.77705 -2.74052,13.86113 -4.72764,31.312 -4.72891,41.52929 -0.001,9.33012 0.73905,8.67157 -8.271829,7.3592 z"
     id="path5034"
     inkscape:connector-curvature="0"
     transform="matrix(0.75146741,0,0,0.75146741,1,-14.49989)" />
  <path
     style="fill:#122135;fill-opacity:1;stroke-width:0.8432343"
     d="m 363.81343,659.916 c -2.74604,-1.72665 -4.00534,-5.55796 -4.00534,-12.18584 0,-3.50137 0.35878,-6.36613 0.7973,-6.36613 4.84263,0 24.96058,-2.24507 34.53207,-3.85362 57.35915,-9.63956 111.43441,-34.92258 155.28815,-72.60536 58.92696,-50.63493 96.02422,-116.18829 109.13336,-192.84598 3.16229,-18.49202 4.11082,-34.73462 3.52719,-60.39966 -0.69162,-30.41376 -3.83492,-51.35052 -11.98945,-79.85859 -7.32509,-25.60838 -19.46822,-53.66036 -32.74831,-75.6522 -3.05876,-5.0653 -5.41786,-9.35314 -5.24247,-9.52853 0.17539,-0.1754 2.74866,3.0203 5.71838,7.10154 29.56868,40.63585 49.1983,89.24696 57.64764,142.75956 1.84603,11.69154 2.67862,58.90103 1.3251,75.13629 -2.95355,35.42761 -15.27032,78.54521 -31.85173,111.50411 -13.51832,26.87037 -32.84292,54.55426 -53.57328,76.74762 -45.97911,49.22397 -109.50233,83.9301 -175.22402,95.73426 -22.37166,4.01814 -50.22144,6.27001 -53.33459,4.31253 z"
     id="path5036"
     inkscape:connector-curvature="0"
     transform="matrix(0.75146741,0,0,0.75146741,1,-14.49989)" />
</svg>
