<?xml version="1.0" encoding="UTF-8" standalone="no"?>
<!-- Generator: Adobe Illustrator 19.0.0, SVG Export Plug-In . SVG Version: 6.00 Build 0)  -->

<svg
   xmlns:dc="http://purl.org/dc/elements/1.1/"
   xmlns:cc="http://creativecommons.org/ns#"
   xmlns:rdf="http://www.w3.org/1999/02/22-rdf-syntax-ns#"
   xmlns:svg="http://www.w3.org/2000/svg"
   xmlns="http://www.w3.org/2000/svg"
   xmlns:sodipodi="http://sodipodi.sourceforge.net/DTD/sodipodi-0.dtd"
   xmlns:inkscape="http://www.inkscape.org/namespaces/inkscape"
   version="1.1"
   id="Capa_1"
   x="0px"
   y="0px"
   viewBox="0 0 50 50"
   style="enable-background:new 0 0 50 50;"
   xml:space="preserve"
   sodipodi:docname="close.svg"
   inkscape:version="0.92.4 (5da689c313, 2019-01-14)"><metadata
   id="metadata94"><rdf:RDF><cc:Work
       rdf:about=""><dc:format>image/svg+xml</dc:format><dc:type
         rdf:resource="http://purl.org/dc/dcmitype/StillImage" /><dc:title></dc:title></cc:Work></rdf:RDF></metadata><defs
   id="defs92" /><sodipodi:namedview
   pagecolor="#ffffff"
   bordercolor="#666666"
   borderopacity="1"
   objecttolerance="10"
   gridtolerance="10"
   guidetolerance="10"
   inkscape:pageopacity="0"
   inkscape:pageshadow="2"
   inkscape:window-width="1920"
   inkscape:window-height="1001"
   id="namedview90"
   showgrid="false"
   inkscape:zoom="16.16"
   inkscape:cx="14.820545"
   inkscape:cy="25"
   inkscape:window-x="-9"
   inkscape:window-y="-9"
   inkscape:window-maximized="1"
   inkscape:current-layer="Capa_1" />
<circle
   style="fill:#D75A4A;"
   cx="25"
   cy="25"
   r="25"
   id="circle53" />
<polyline
   style="fill:none;stroke:#FFFFFF;stroke-width:2;stroke-linecap:round;stroke-miterlimit:10;"
   points="16,34 25,25 34,16   "
   id="polyline55" />
<polyline
   style="fill:none;stroke:#FFFFFF;stroke-width:2;stroke-linecap:round;stroke-miterlimit:10;"
   points="16,16 25,25 34,34   "
   id="polyline57" />
<g
   id="g59">
</g>
<g
   id="g61">
</g>
<g
   id="g63">
</g>
<g
   id="g65">
</g>
<g
   id="g67">
</g>
<g
   id="g69">
</g>
<g
   id="g71">
</g>
<g
   id="g73">
</g>
<g
   id="g75">
</g>
<g
   id="g77">
</g>
<g
   id="g79">
</g>
<g
   id="g81">
</g>
<g
   id="g83">
</g>
<g
   id="g85">
</g>
<g
   id="g87">
</g>
<path
   style="fill:#ffb52f;stroke-width:0.06188119;fill-opacity:0.79104477"
   d="M 23.514851,49.937699 C 20.516585,49.674316 18.46907,49.22897 16.089109,48.322561 9.5557921,45.834342 4.3431061,40.673592 1.7704975,34.146613 -0.55784858,28.239354 -0.54464793,21.67351 1.8074739,15.75495 3.8052309,10.728067 7.4467748,6.4343441 12.097772,3.6217232 15.10952,1.8004136 18.447216,0.66236442 22.184406,0.18249832 c 1.22245,-0.1569661 4.326176,-0.15877515 5.600247,-0.003264 4.071959,0.49701628 7.770309,1.84874908 11.045793,4.03719518 5.203898,3.4768764 8.867789,8.6715065 10.392674,14.7346355 0.814236,3.237502 0.955118,6.787105 0.40365,10.170222 -0.718672,4.408875 -2.751439,8.747902 -5.696271,12.158935 -4.139698,4.795058 -9.842815,7.805878 -16.176786,8.540138 -0.818087,0.09483 -3.613987,0.17223 -4.238862,0.117339 z m -7.096798,-15.00601 c 0.07434,-0.03757 2.035691,-1.965867 4.358556,-4.285102 L 25,26.429794 l 4.223391,4.216793 c 2.322865,2.319235 4.284215,4.247532 4.358556,4.285102 0.07434,0.03757 0.272109,0.06831 0.439487,0.06831 0.68957,0 1.156328,-0.663636 0.941555,-1.338701 -0.06149,-0.193263 -0.886671,-1.051376 -4.291624,-4.46288 l -4.2155,-4.22361 4.249385,-4.254113 c 4.604657,-4.60978 4.398189,-4.372208 4.291952,-4.938497 -0.06005,-0.320101 -0.408969,-0.678511 -0.742237,-0.762429 -0.150302,-0.03785 -0.310091,-0.05732 -0.355086,-0.04327 -0.045,0.01405 -0.165349,0.04371 -0.267453,0.06593 -0.139136,0.03027 -1.243695,1.097 -4.409035,4.258029 L 25,23.518096 20.776609,19.300457 c -3.16534,-3.161029 -4.269899,-4.227758 -4.409035,-4.258029 -0.102104,-0.02221 -0.222458,-0.05188 -0.267453,-0.06593 -0.045,-0.01405 -0.204784,0.0054 -0.355086,0.04327 -0.333268,0.08392 -0.682185,0.442328 -0.742237,0.762429 -0.106237,0.566289 -0.312705,0.328717 4.291952,4.938497 l 4.249385,4.254113 -4.2155,4.22361 c -3.404953,3.411504 -4.230137,4.269617 -4.291624,4.46288 C 14.822238,34.336364 15.288996,35 15.978566,35 c 0.167378,0 0.365147,-0.03074 0.439487,-0.06831 z"
   id="path96"
   inkscape:connector-curvature="0" /></svg>