<?xml version="1.0" encoding="UTF-8" standalone="no"?>
<svg
   xmlns:dc="http://purl.org/dc/elements/1.1/"
   xmlns:cc="http://creativecommons.org/ns#"
   xmlns:rdf="http://www.w3.org/1999/02/22-rdf-syntax-ns#"
   xmlns:svg="http://www.w3.org/2000/svg"
   xmlns="http://www.w3.org/2000/svg"
   xmlns:sodipodi="http://sodipodi.sourceforge.net/DTD/sodipodi-0.dtd"
   xmlns:inkscape="http://www.inkscape.org/namespaces/inkscape"
   height="498pt"
   viewBox="0 -59 498.784 498"
   width="498pt"
   version="1.1"
   id="svg4897"
   sodipodi:docname="commuterloadingfinal.svg"
   inkscape:version="0.92.4 (5da689c313, 2019-01-14)">
  <metadata
     id="metadata4903">
    <rdf:RDF>
      <cc:Work
         rdf:about="">
        <dc:format>image/svg+xml</dc:format>
        <dc:type
           rdf:resource="http://purl.org/dc/dcmitype/StillImage" />
        <dc:title></dc:title>
      </cc:Work>
    </rdf:RDF>
  </metadata>
  <defs
     id="defs4901">
    <inkscape:perspective
       sodipodi:type="inkscape:persp3d"
       inkscape:vp_x="0 : 249 : 1"
       inkscape:vp_y="0 : 1000 : 0"
       inkscape:vp_z="498.784 : 249 : 1"
       inkscape:persp3d-origin="249.392 : 166 : 1"
       id="perspective2231" />
  </defs>
  <sodipodi:namedview
     pagecolor="#ffffff"
     bordercolor="#666666"
     borderopacity="1"
     objecttolerance="10"
     gridtolerance="10"
     guidetolerance="10"
     inkscape:pageopacity="0"
     inkscape:pageshadow="2"
     inkscape:window-width="1366"
     inkscape:window-height="705"
     id="namedview4899"
     showgrid="false"
     inkscape:zoom="0.70142047"
     inkscape:cx="404.10326"
     inkscape:cy="364.70965"
     inkscape:window-x="-8"
     inkscape:window-y="-8"
     inkscape:window-maximized="1"
     inkscape:current-layer="svg4897"
     showguides="true"
     inkscape:guide-bbox="true">
    <sodipodi:guide
       position="137.08059,227.75212"
       orientation="1,0"
       id="guide2227"
       inkscape:locked="false" />
    <sodipodi:guide
       position="168.87109,221.90984"
       orientation="1,0"
       id="guide2275"
       inkscape:locked="false" />
    <sodipodi:guide
       position="311.23815,212.08048"
       orientation="1,0"
       id="guide2277"
       inkscape:locked="false" />
  </sodipodi:namedview>
  <path
     d="M 303.58252,59.805086 291.1976,54.357459 v 75.316521 c 0,4.99338 -1.50469,9.57593 -4.06985,13.3719 -4.27527,6.32773 -11.42298,10.46605 -19.59442,10.5696 h -31.05581 c -9.43898,0 -17.10107,-7.66208 -17.10107,-17.10107 l 10.26065,-22.27649 c 0,-3.42021 0,-1.66167 0,-1.66167 h -64.98407 v 6.84043 l -20.52128,17.57869 -3.42022,2.94259 5.19879,5.19879 0.48264,0.58451 c 7.01077,-5.71483 16.45143,-9.20017 26.81395,-9.20017 21.75209,0 39.33246,15.32249 39.33246,34.20214 h 75.25472 c 3.76257,0 7.21785,-0.992 10.26064,-2.73718 -0.13694,-7.55854 18.97651,-24.51598 22.87435,-24.61786 z m 0,0"
     id="path4869"
     style="fill:#cccccc;stroke-width:0.42752674"
     inkscape:connector-curvature="0" />
  <path
     d="m 164.64969,119.41668 -20.52128,17.57869 V 126.2571 Z m 0,0"
     id="path4871"
     style="fill:#e6e6e6;stroke-width:0.42752674"
     inkscape:connector-curvature="0" />
  <path
     d="m 269.72273,51.147669 c 1.81198,-0.546099 3.7275,0.514368 4.2402,2.326346 0.54777,1.813649 -0.4793,3.694099 -2.29127,4.241867 -1.81198,0.546099 -3.7275,-0.514368 -4.27527,-2.326346 -0.5127,-1.811979 0.5127,-3.690759 2.32634,-4.241867 z m 0,0"
     id="path4873"
     inkscape:connector-curvature="0"
     style="fill:#b3b3b3;stroke-width:0.42752674" />
  <path
     d="m 273.96293,53.474015 c -0.5127,-1.808638 -2.42822,-2.872445 -4.2402,-2.326346 l 15.01688,-4.41054 c -0.23881,0.786582 -0.37575,1.675036 -0.37575,2.56516 0,1.573165 0.41082,3.042789 1.16233,4.308669 L 271.675,57.715882 c 1.80863,-0.547768 2.8357,-2.428218 2.28793,-4.241867 z m 0,0"
     id="path4875"
     inkscape:connector-curvature="0"
     style="fill:#b3b3b3;stroke-width:0.42752674" />
  <path
     d="m 234.76407,109.09424 v -20.4979 c 0,-0.943565 -0.76654,-1.710107 -1.7101,-1.710107 h -3.41687 c -0.94357,0 -1.71011,0.766542 -1.71011,1.710107 0,0.940225 -0.76988,1.710107 -1.71011,1.710107 h -61.56719 c -2.82902,0 -5.13032,2.301296 -5.13032,5.130321 v 13.677512 c 0,2.82903 2.3013,5.13032 5.13032,5.13032 0.007,0 0.01,-0.003 0.0167,-0.003 h 64.97071 c 2.82902,0 5.13031,-2.30129 5.13031,-5.13032 0,-0.007 -0.003,-0.01 -0.003,-0.0167 z m 0,0"
     id="path4877"
     inkscape:connector-curvature="0"
     style="fill:#b3b3b3;stroke-width:0.42752674" />
  <path
     d="m 200.56862,170.71989 c 0,15.11374 -12.25299,27.36839 -27.36839,27.36839 -15.11541,0 -27.3684,-12.25465 -27.3684,-27.36839 0,-15.11541 12.25299,-27.37007 27.3684,-27.37007 15.1154,0 27.36839,12.25466 27.36839,27.37007 z m 0,0"
     id="path4879"
     inkscape:connector-curvature="0"
     style="fill:#cccccc;stroke-width:0.42752674" />
  <path
     d="m 186.88108,170.71989 c 0,7.5552 -6.12566,13.68085 -13.68085,13.68085 -7.5552,0 -13.68086,-6.12565 -13.68086,-13.68085 0,-7.55687 6.12566,-13.68086 13.68086,-13.68086 7.55519,0 13.68085,6.12399 13.68085,13.68086 z m 0,0"
     id="path4881"
     inkscape:connector-curvature="0"
     style="fill:#b3b3b3;stroke-width:0.42752674" />
  <path
     d="m 345.92437,170.71655 c 0,15.11373 -12.25299,27.36839 -27.36839,27.36839 -15.11541,0 -27.3684,-12.25466 -27.3684,-27.36839 0,-15.11541 12.25299,-27.37007 27.3684,-27.37007 15.1154,0 27.36839,12.25466 27.36839,27.37007 z m 0,0"
     id="path4883"
     inkscape:connector-curvature="0"
     style="fill:#cccccc;stroke-width:0.42752674" />
  <path
     d="m 332.23683,170.71655 c 0,7.5552 -6.12565,13.68085 -13.68085,13.68085 -7.5552,0 -13.68086,-6.12565 -13.68086,-13.68085 0,-7.55687 6.12566,-13.68086 13.68086,-13.68086 7.5552,0 13.68085,6.12399 13.68085,13.68086 z m 0,0"
     id="path4885"
     inkscape:connector-curvature="0"
     style="fill:#b3b3b3;stroke-width:0.42752674" />
  <path
     d="m 312.8161,36.127451 c -0.38912,-0.322315 -0.89848,-0.455917 -1.39782,-0.370745 l -8.12969,1.471293 c -13.12306,2.287936 -13.36355,2.369767 -13.50049,2.418198 -2.34305,0.753182 -4.30199,2.284596 -5.55451,4.337058 -0.0685,0.07515 -0.12692,0.160323 -0.18036,0.245494 -0.84837,1.426203 -1.32433,3.086209 -1.38278,4.819696 -0.0134,0.08183 -0.02,0.170343 -0.02,0.257185 v 0.05344 0.05511 c 0,0.08517 0.007,0.172013 0.02,0.253844 0.0618,1.733488 0.53441,3.395164 1.38278,4.821366 0.0501,0.0835 0.10855,0.165333 0.17368,0.240484 1.25252,2.055803 3.2148,3.590557 5.53781,4.337059 0.16032,0.05344 0.40081,0.136942 13.51385,2.424878 l 8.13971,1.469623 c 0.0985,0.01837 0.20542,0.02839 0.30395,0.02839 0.39746,0 0.78324,-0.140283 1.09387,-0.397467 0.39078,-0.323984 0.61623,-0.803282 0.61623,-1.31264 V 37.440092 c 0,-0.509358 -0.22211,-0.988655 -0.61623,-1.312641 z m 0,0"
     id="path4887"
     inkscape:connector-curvature="0"
     style="fill:#cccccc;stroke-width:0.42752674" />
  <path
     sodipodi:type="inkscape:offset"
     inkscape:radius="0"
     inkscape:original="M 159.51953 97.146484 L 159.51953 100.56641 L 234.76367 100.56641 L 234.76367 97.146484 L 159.51953 97.146484 z "
     style="fill:#cccccc;stroke-width:0.42752674"
     id="path4889"
     d="m 159.51953,97.146484 v 3.419926 h 75.24414 v -3.419926 z" />
  <g
     id="g4895"
     style="fill:#b3b3b3"
     transform="matrix(0.42752675,0,0,0.42752675,133.86776,35.564652)">
    <path
       d="m 92,224.13281 c -50.816406,0 -92,41.1836 -92,92 h 184 c 0,-50.80859 -41.18359,-92 -92,-92 z m 0,0"
       id="path4891"
       style="fill:#b3b3b3"
       inkscape:connector-curvature="0" />
    <path
       d="m 404.71094,250.31641 c -36.73438,15.20703 -54.1836,57.34375 -38.96875,94.07031 l 133.04297,-55.10547 c -15.22657,-36.73438 -57.34375,-54.18359 -94.07422,-38.96484 z m 0,0"
       id="path4893"
       style="fill:#b3b3b3"
       inkscape:connector-curvature="0" />
  </g>
  <rect
     style="opacity:0;fill:#666666;fill-opacity:1;stroke-width:0.75118071"
     id="rect2191"
     width="284.87061"
     height="287.01248"
     x="100.66856"
     y="17.440809" />
  <ellipse
     style="opacity:0;fill:#666666;fill-opacity:1;stroke-width:0.75118071"
     id="path2193"
     cx="287.54797"
     cy="220.38432"
     rx="184.73752"
     ry="191.16318" />
  <path
     sodipodi:type="star"
     style="opacity:0;fill:#666666;fill-opacity:1;stroke-width:0.75118071"
     id="path2195"
     sodipodi:sides="5"
     sodipodi:cx="37.482971"
     sodipodi:cy="-20.042168"
     sodipodi:r1="309.91702"
     sodipodi:r2="154.95853"
     sodipodi:arg1="1.2326538"
     sodipodi:arg2="1.8609723"
     inkscape:flatsided="false"
     inkscape:rounded="0"
     inkscape:randomized="0"
     d="M 140.29341,272.32502 -6.8538935,128.43809 -208.80458,168.0828 -117.43099,-16.326108 -217.54155,-196.14173 -13.922258,-166.22578 126.1567,-317.00265 160.62675,-114.10467 347.31087,-27.474276 164.99524,68.00762 Z"
     inkscape:transform-center-x="-27.40169"
     inkscape:transform-center-y="-2.2966482" />
  <path
     sodipodi:type="star"
     style="opacity:0;fill:#666666;fill-opacity:1;stroke-width:0.75118071"
     id="path2197"
     sodipodi:sides="5"
     sodipodi:cx="54.618046"
     sodipodi:cy="122.39314"
     sodipodi:r1="145.35252"
     sodipodi:r2="72.676262"
     sodipodi:arg1="0.88454841"
     sodipodi:arg2="1.5128669"
     inkscape:flatsided="false"
     inkscape:rounded="0"
     inkscape:randomized="0"
     d="M 146.71906,234.84206 58.825786,194.94749 -23.866449,244.73504 -13.08498,148.81547 -85.989057,85.555678 8.5675347,66.168686 46.202572,-22.715561 93.860291,61.222192 190.0241,69.548496 124.9216,140.81187 Z"
     inkscape:transform-center-x="2.6005246"
     inkscape:transform-center-y="-11.383404" />
  <path
     sodipodi:type="star"
     style="opacity:0;fill:#666666;fill-opacity:1;stroke-width:0.75118071"
     id="path2199"
     sodipodi:sides="5"
     sodipodi:cx="101.73951"
     sodipodi:cy="144.88292"
     sodipodi:r1="106.4551"
     sodipodi:r2="53.227551"
     sodipodi:arg1="0.93534333"
     sodipodi:arg2="1.5636619"
     inkscape:flatsided="false"
     inkscape:rounded="0"
     inkscape:randomized="0"
     d="M 164.9251,230.55829 102.11925,198.10912 39.782807,231.45113 51.235737,161.69188 0.26257226,112.70964 70.146717,102.04523 100.98002,38.430528 l 31.73784,63.168282 70.02919,9.66619 -50.26907,49.70456 z"
     inkscape:transform-center-x="0.23469676"
     inkscape:transform-center-y="-9.9420894" />
  <rect
     style="opacity:0;fill:#666666;fill-opacity:1;stroke-width:0.75118071"
     id="rect2201"
     width="119.67012"
     height="108.40152"
     x="44.979568"
     y="11.015157" />
  <rect
     style="opacity:0;fill:#666666;fill-opacity:1;stroke-width:0.75118071"
     id="rect2203"
     width="83.533485"
     height="58.901814"
     x="176.70546"
     y="62.420372" />
  <rect
     style="opacity:0;fill:#666666;fill-opacity:1;stroke-width:0.75118071"
     id="rect2205"
     width="76.24411"
     height="47.121452"
     x="138.15154"
     y="16.369864" />
  <rect
     style="opacity:0;fill:#666666;fill-opacity:1;stroke-width:0.75118071"
     id="rect2207"
     width="354.48184"
     height="269.87741"
     x="44.979568"
     y="11.015157" />
  <rect
     style="opacity:0;fill:#666666;fill-opacity:1;stroke-width:0.75118071"
     id="rect2209"
     width="280.58682"
     height="40.695801"
     x="119.94552"
     y="229.48735" />
  <rect
     style="opacity:0;fill:#666666;fill-opacity:1;stroke-width:0.75118071"
     id="rect2211"
     width="232.39445"
     height="18.206017"
     x="86.746315"
     y="239.12581" />
  <rect
     style="opacity:0;fill:#800000;fill-opacity:1;stroke-width:0.7868104"
     id="rect2247"
     width="188.17873"
     height="35.213074"
     x="151.78546"
     y="262.60153" />
  <rect
     style="opacity:0;fill:#800000;fill-opacity:1;stroke-width:0.7868104"
     id="rect2249"
     width="197.73306"
     height="37.863522"
     x="145.55438"
     y="246.69882" />
  <rect
     style="opacity:0;fill:#cccccc;fill-opacity:1;stroke-width:0.75118071"
     id="rect2251"
     width="200.29802"
     height="46.950768"
     x="151.61255"
     y="250.10655" />
  <rect
     style="opacity:0;fill:#2fcccc;fill-opacity:1;stroke-width:0.75118071"
     id="rect2253"
     width="149.56091"
     height="20.824938"
     x="154.8618"
     y="217.13312" />
  <path
     sodipodi:type="star"
     style="opacity:0;fill:#2fcccc;fill-opacity:1;stroke-width:0.75118071"
     id="path2263"
     sodipodi:sides="5"
     sodipodi:cx="164.92509"
     sodipodi:cy="230.55827"
     sodipodi:r1="72.606033"
     sodipodi:r2="36.303017"
     sodipodi:arg1="0.21303803"
     sodipodi:arg2="0.84135656"
     inkscape:flatsided="false"
     inkscape:rounded="0"
     inkscape:randomized="0"
     d="m 235.88973,245.90938 -46.77042,11.71453 -16.86471,45.1695 -25.59403,-40.86132 -48.170227,-2.08116 30.952437,-36.96821 -12.90613,-46.45572 44.72369,18.01371 40.19381,-26.63006 -3.31168,48.10129 z"
     inkscape:transform-center-x="-2.2649413"
     inkscape:transform-center-y="4.743753" />
  <rect
     style="opacity:0;fill:#2fcccc;fill-opacity:1;stroke-width:0.75118071"
     id="rect2265"
     width="167.72075"
     height="21.582207"
     x="137.0806"
     y="220.16222" />
  <path
     sodipodi:type="inkscape:offset"
     inkscape:radius="0"
     inkscape:original="M 168.87109 217.13281 L 168.87109 233.06836 L 311.56836 233.06836 L 311.56836 217.13281 L 168.87109 217.13281 z "
     style="opacity:0.44420004;fill:#808080;fill-opacity:1;stroke-width:0.8210963"
     id="rect2267"
     d="m 168.87109,217.13281 v 15.93555 h 142.69727 v -15.93555 z"
     transform="matrix(1.0971129,0,0,1,-22.684889,21.992999)" />
  <rect
     style="opacity:0.44420004;fill:#808080;fill-opacity:1;stroke-width:0.7868104"
     id="rect2271"
     width="127.11411"
     height="15.524044"
     x="176.70981"
     y="266.38788" />
  <rect
     style="opacity:0.44420004;fill:#808080;fill-opacity:1;stroke-width:0.77243125"
     id="rect2273"
     width="156.19273"
     height="15.240338"
     x="162.58578"
     y="292.65555" />
  <rect
     style="opacity:0.44420004;fill:#b3b3b3;fill-opacity:1;stroke-width:1.77072537"
     id="rect2279"
     width="281.73672"
     height="317.62335"
     x="100.66856"
     y="17.440809"
     rx="0.35630134" />
</svg>
