<?xml version="1.0" encoding="UTF-8" standalone="no"?>
<svg
   xmlns:dc="http://purl.org/dc/elements/1.1/"
   xmlns:cc="http://creativecommons.org/ns#"
   xmlns:rdf="http://www.w3.org/1999/02/22-rdf-syntax-ns#"
   xmlns:svg="http://www.w3.org/2000/svg"
   xmlns="http://www.w3.org/2000/svg"
   xmlns:sodipodi="http://sodipodi.sourceforge.net/DTD/sodipodi-0.dtd"
   xmlns:inkscape="http://www.inkscape.org/namespaces/inkscape"
   height="512pt"
   viewBox="-11 0 512 512"
   width="512pt"
   version="1.1"
   id="svg1971"
   sodipodi:docname="easy_registrations.svg"
   inkscape:version="0.92.4 (5da689c313, 2019-01-14)">
  <metadata
     id="metadata1977">
    <rdf:RDF>
      <cc:Work
         rdf:about="">
        <dc:format>image/svg+xml</dc:format>
        <dc:type
           rdf:resource="http://purl.org/dc/dcmitype/StillImage" />
        <dc:title></dc:title>
      </cc:Work>
    </rdf:RDF>
  </metadata>
  <defs
     id="defs1975" />
  <sodipodi:namedview
     pagecolor="#ffffff"
     bordercolor="#666666"
     borderopacity="1"
     objecttolerance="10"
     gridtolerance="10"
     guidetolerance="10"
     inkscape:pageopacity="0"
     inkscape:pageshadow="2"
     inkscape:window-width="1920"
     inkscape:window-height="1001"
     id="namedview1973"
     showgrid="false"
     inkscape:zoom="0.9777961"
     inkscape:cx="395.03008"
     inkscape:cy="398.6405"
     inkscape:window-x="-9"
     inkscape:window-y="-9"
     inkscape:window-maximized="1"
     inkscape:current-layer="svg1971" />
  <path
     d="m166.28125 98.636719h-89.523438c-8.285156 0-15 6.714843-15 15 0 8.285156 6.714844 15 15 15h89.523438c8.28125 0 15-6.714844 15-15 0-8.285157-6.71875-15-15-15zm0 0"
     id="path1951"
     style="fill-rule:evenodd" />
  <path
     d="m166.28125 158.640625h-89.523438c-8.285156 0-15 6.714844-15 15s6.714844 15 15 15h89.523438c8.28125 0 15-6.714844 15-15s-6.71875-15-15-15zm0 0"
     id="path1953"
     style="fill-rule:evenodd" />
  <path
     d="m166.28125 218.644531h-89.523438c-8.285156 0-15 6.714844-15 15 0 8.285157 6.714844 15 15 15h89.523438c8.28125 0 15-6.714843 15-15 0-8.285156-6.71875-15-15-15zm0 0"
     id="path1955"
     style="fill-rule:evenodd" />
  <path
     d="m166.28125 278.648438h-89.523438c-8.285156 0-15 6.714843-15 15 0 8.285156 6.714844 15 15 15h89.523438c8.28125 0 15-6.714844 15-15 0-8.285157-6.71875-15-15-15zm0 0"
     id="path1957"
     style="fill-rule:evenodd" />
  <path
     d="m166.28125 339.65625h-89.523438c-8.285156 0-15 6.71875-15 15 0 8.285156 6.714844 15 15 15h89.523438c8.28125 0 15-6.714844 15-15 0-8.28125-6.71875-15-15-15zm0 0"
     id="path1959"
     style="fill-rule:evenodd" />
  <path
     d="m216.65625 128.636719h89.523438c8.285156 0 15-6.714844 15-15 0-8.285157-6.714844-15-15-15h-89.523438c-8.28125 0-15 6.714843-15 15 0 8.285156 6.71875 15 15 15zm0 0"
     id="path1961"
     style="fill-rule:evenodd" />
  <path
     d="m216.65625 188.640625h89.523438c8.285156 0 15-6.714844 15-15s-6.714844-15-15-15h-89.523438c-8.28125 0-15 6.714844-15 15s6.71875 15 15 15zm0 0"
     id="path1963"
     style="fill-rule:evenodd" />
  <path
     d="m274.773438 233.644531c0-8.285156-6.714844-15-15-15h-43.117188c-8.28125 0-15 6.714844-15 15 0 8.285157 6.71875 15 15 15h43.117188c8.285156 0 15-6.714843 15-15zm0 0"
     id="path1965"
     style="fill-rule:evenodd" />
  <path
     d="m416.871094 345.988281c-6.460938-5.183593-15.898438-4.148437-21.085938 2.3125l-38.632812 48.164063-23.917969-17.328125c-6.707031-4.863281-16.089844-3.363281-20.949219 3.34375-4.859375 6.710937-3.359375 16.089843 3.347656 20.949219l35.480469 25.707031c2.65625 1.921875 5.734375 2.855469 8.792969 2.855469 4.402344 0 8.753906-1.933594 11.707031-5.617188l47.574219-59.300781c5.183594-6.460938 4.148438-15.902344-2.316406-21.085938zm0 0"
     id="path1967"
     style="fill-rule:evenodd" />
  <path
     d="m454.785156 299.941406c-19.539062-19.882812-44.644531-32.414062-71.847656-36.105468v-203.425782c0-33.308594-27.101562-60.410156-60.410156-60.410156h-262.113282c-33.3125 0-60.414062 27.101562-60.414062 60.410156v347.472656c0 33.3125 27.101562 60.414063 60.410156 60.414063h210.816406c23.722657 27.867187 57.832032 43.703125 94.734376 43.703125 68.691406 0 124.574218-55.921875 124.574218-124.660156 0-32.90625-12.695312-63.945313-35.75-87.398438zm-424.785156 107.941406v-347.472656c0-16.765625 13.644531-30.410156 30.414062-30.410156h262.113282c16.769531 0 30.410156 13.644531 30.410156 30.410156v202.949219c-62.59375 6.535156-111.550781 59.640625-111.550781 123.980469 0 17.832031 3.71875 35.074218 10.851562 50.953125h-191.824219c-16.769531 0-30.414062-13.640625-30.414062-30.410157zm335.960938 74.117188c-29.957032 0-57.496094-13.753906-75.5625-37.730469-12.4375-16.511719-19.015626-36.195312-19.015626-56.929687 0-52.195313 42.429688-94.660156 94.578126-94.660156.492187 0 .988281.007812 1.480468.015624l.230469.003907c24.894531.441406 48.234375 10.480469 65.71875 28.269531 17.503906 17.808594 27.144531 41.382812 27.144531 66.371094 0 52.195312-42.425781 94.660156-94.574218 94.660156zm0 0"
     id="path1969"
     style="fill-rule:evenodd" />
  <path
     style="fill:#ffb52f;fill-opacity:1;fill-rule:evenodd;stroke-width:1.02270806"
     d="m 473.60197,680.41262 c -22.76238,-4.13297 -48.128,-14.73679 -66.80434,-27.92681 -4.92082,-3.47529 -14.07387,-11.26605 -20.34011,-17.31281 L 375.06435,624.17888 H 229.35009 c -142.867081,0 -145.872315,-0.0404 -153.803832,-2.06683 C 46.680085,614.73696 23.642403,591.40597 16.85136,562.66988 14.774244,553.88064 14.763887,552.43795 15.030461,309.03827 l 0.2681,-244.792077 3.194666,-8.927519 C 28.258118,28.030616 48.293023,9.5574081 76.186111,2.1228817 l 8.656602,-2.30730017 H 269.95288 455.06305 l 8.6566,2.30730017 c 27.89309,7.4345264 47.928,25.9077343 57.69289,53.1957923 l 3.19466,8.927519 0.51136,143.610477 0.51135,143.61048 9.29841,1.77345 c 34.54183,6.58803 68.80146,26.30901 92.24126,53.09712 49.52141,56.59543 55.50454,137.67872 14.79158,200.45513 -24.35121,37.54777 -60.98248,62.67385 -106.10417,72.77885 -14.02247,3.14033 -47.12819,3.58751 -62.25502,0.84092 z m 53.22704,-40.43439 c 71.38287,-14.59934 115.50617,-84.96517 97.47822,-155.45378 -10.34339,-40.44227 -41.75671,-74.0792 -81.57507,-87.34943 -15.56057,-5.18584 -25.20502,-6.47222 -44.20402,-5.8959 -13.6917,0.41532 -18.76772,1.00811 -26.9107,3.1427 -39.38165,10.32345 -71.04963,38.32546 -86.01372,76.05655 -14.63959,36.9129 -10.62089,79.09921 10.8062,113.438 5.97648,9.57784 20.03466,25.1683 28.77513,31.91153 17.63779,13.60746 39.26978,22.62433 61.58195,25.66924 9.50997,1.2978 30.10829,0.51684 40.06201,-1.51891 z M 350.23547,583.84705 c 0,-0.24542 -1.33215,-3.90576 -2.96034,-8.13411 -7.37483,-19.15212 -10.66749,-37.67465 -10.65545,-59.94112 0.009,-17.12124 1.72792,-29.76258 6.11789,-44.99915 17.20136,-59.70205 66.63614,-105.16385 127.82675,-117.55357 5.71326,-1.15681 11.35093,-2.10328 12.52817,-2.10328 h 2.14045 v -136.4812 c 0,-97.1573 -0.33132,-138.04271 -1.14991,-141.900747 C 480.87325,57.606123 469.60031,45.57606 455.09374,41.797578 449.70794,40.394753 428.43043,40.215426 269.99369,40.237553 155.5984,40.25353 89.394703,40.627993 86.590103,41.274929 71.272762,44.808167 59.032141,57.31741 55.806704,72.733873 c -1.622943,7.757104 -1.607428,471.386677 0.01603,479.038077 3.267829,15.40135 14.870986,27.41435 30.042687,31.10385 3.866858,0.94034 36.716929,1.26472 134.741789,1.33049 71.29554,0.0479 129.62826,-0.11382 129.62826,-0.35924 z"
     id="path3216"
     inkscape:connector-curvature="0"
     transform="matrix(0.74999998,0,0,0.74999998,-11,0)" />
  <path
     style="fill:#ffb52f;fill-opacity:1;fill-rule:evenodd;stroke-width:1.02270806"
     d="m 486.21621,574.28116 c -4.62516,-2.39152 -48.58289,-34.27868 -52.87306,-38.35439 -12.30299,-11.68797 -5.26302,-32.1071 11.76498,-34.12381 6.91397,-0.81886 10.84152,1.14674 29.69149,14.85954 8.60515,6.26 15.80944,11.38182 16.00952,11.38182 0.20009,0 11.94839,-14.4854 26.10734,-32.18979 14.15895,-17.70438 27.11016,-33.33971 28.78046,-34.74518 9.48298,-7.9794 24.25858,-4.63361 29.9468,6.78117 3.26179,6.54556 3.36067,11.37829 0.35362,17.28241 -1.26611,2.48591 -17.13178,22.99684 -35.25705,45.57984 -27.69361,34.50459 -33.66391,41.40316 -37.39514,43.20942 -5.44879,2.63772 -12.39441,2.76706 -17.12896,0.31897 z"
     id="path3218"
     inkscape:connector-curvature="0"
     transform="matrix(0.74999998,0,0,0.74999998,-11,0)" />
  <path
     style="fill:#ffb52f;fill-opacity:1;fill-rule:evenodd;stroke-width:1.02270806"
     d="m 296.68367,250.41506 c -7.99643,-2.85065 -12.92423,-10.05528 -12.92423,-18.89572 0,-9.06378 5.3849,-16.39421 14.21485,-19.35059 4.68556,-1.56878 124.68476,-1.63092 130.31506,-0.0675 5.2991,1.47147 11.45519,7.26982 13.55451,12.7668 3.52807,9.23813 -0.79915,19.81554 -9.97771,24.38941 l -5.32918,2.65564 -62.95142,-0.0449 c -50.77584,-0.0362 -63.71549,-0.31727 -66.90188,-1.45318 z"
     id="path3220"
     inkscape:connector-curvature="0"
     transform="matrix(0.74999998,0,0,0.74999998,-11,0)" />
  <path
     style="fill:#ffb52f;fill-opacity:1;fill-rule:evenodd;stroke-width:1.02270806"
     d="m 298.07735,170.95898 c -5.14732,-1.48959 -9.92051,-5.45661 -12.39016,-10.29752 -1.6938,-3.32012 -2.05809,-5.55536 -1.73425,-10.64115 0.49175,-7.72287 3.93547,-12.83671 11.11557,-16.50637 l 4.54291,-2.32181 64.43061,0.2764 c 63.09908,0.27069 64.51515,0.32058 68.52144,2.41441 4.85557,2.5377 9.6421,9.6685 10.42925,15.53713 0.70032,5.22129 -1.12935,10.70968 -5.06443,15.19148 -6.50231,7.40571 -2.38384,6.99868 -72.86355,7.20115 -40.32993,0.11585 -64.7107,-0.19487 -66.98739,-0.85372 z"
     id="path3222"
     inkscape:connector-curvature="0"
     transform="matrix(0.74999998,0,0,0.74999998,-11,0)" />
  <path
     style="fill:#ffb52f;fill-opacity:1;fill-rule:evenodd;stroke-width:1.02270806"
     d="m 112.45583,171.1921 c -9.78782,-2.3621 -17.029565,-12.8742 -15.473736,-22.46165 0.889535,-5.48157 5.739906,-12.43277 10.360196,-14.84751 4.00187,-2.09152 5.46971,-2.14472 67.49874,-2.44648 43.84435,-0.2133 64.59641,0.0376 67.26001,0.81316 4.82821,1.40585 10.85147,6.615 12.66356,10.95195 0.75995,1.81881 1.37415,5.73786 1.3649,8.709 -0.0287,9.23422 -5.86156,16.59729 -15.2035,19.19222 -4.26057,1.18347 -123.59254,1.26642 -128.47017,0.0893 z"
     id="path3224"
     inkscape:connector-curvature="0"
     transform="matrix(0.74999998,0,0,0.74999998,-11,0)" />
  <path
     style="fill:#ffb52f;fill-opacity:1;fill-rule:evenodd;stroke-width:1.02270806"
     d="m 108.09449,249.28571 c -9.235719,-4.60385 -13.570453,-15.15386 -10.03259,-24.41763 2.09932,-5.49698 8.25542,-11.29533 13.55451,-12.7668 5.63029,-1.56345 125.62951,-1.50131 130.31507,0.0675 9.63089,3.22455 14.67083,10.75772 14.02135,20.95765 -0.33808,5.30938 -0.95881,7.11724 -3.54047,10.31135 -1.72178,2.13026 -4.69248,4.79363 -6.60155,5.91861 -3.35738,1.97844 -5.58087,2.05471 -67.90166,2.32932 l -64.43061,0.2839 z"
     id="path3226"
     inkscape:connector-curvature="0"
     transform="matrix(0.74999998,0,0,0.74999998,-11,0)" />
  <path
     style="fill:#ffb52f;fill-opacity:1;fill-rule:evenodd;stroke-width:1.02270806"
     d="m 108.06199,329.50785 c -2.41662,-1.1962 -5.46613,-3.61199 -6.77671,-5.36841 -9.578241,-12.83676 -2.89514,-29.44895 13.03182,-32.39321 3.67744,-0.67981 27.53147,-0.95297 66.37032,-0.76003 59.74007,0.29677 60.68966,0.33336 64.72047,2.49346 7.18719,3.8516 10.73843,9.68296 10.73843,17.63318 0,8.91222 -3.81279,14.95264 -11.76114,18.63261 -3.84225,1.7789 -7.97493,1.89531 -68.01009,1.91565 -63.15047,0.0214 -63.97211,-0.004 -68.3131,-2.15325 z"
     id="path3228"
     inkscape:connector-curvature="0"
     transform="matrix(0.74999998,0,0,0.74999998,-11,0)" />
  <path
     style="fill:#ffb52f;fill-opacity:1;fill-rule:evenodd;stroke-width:1.02270806"
     d="m 295.52058,329.74545 c -8.03059,-3.71804 -11.76114,-9.71076 -11.76114,-18.89295 0,-6.99466 4.16657,-13.87223 10.42998,-17.2163 4.33397,-2.31393 4.90154,-2.34881 38.22886,-2.34881 h 33.82957 l 4.95393,3.06813 c 7.02248,4.34923 9.99929,10.19016 9.49289,18.62639 -0.45738,7.61949 -3.91966,12.7594 -11.04805,16.40136 -4.39666,2.24629 -5.28434,2.30056 -37.26957,2.27863 -29.70922,-0.0204 -33.14723,-0.19913 -36.85647,-1.91645 z"
     id="path3230"
     inkscape:connector-curvature="0"
     transform="matrix(0.74999998,0,0,0.74999998,-11,0)" />
  <path
     style="fill:#ffb52f;fill-opacity:1;fill-rule:evenodd;stroke-width:1.02270806"
     d="m 107.38483,409.129 c -2.22657,-1.26112 -5.4481,-4.28461 -7.15896,-6.71887 -2.671712,-3.80139 -3.11066,-5.33912 -3.11066,-10.89734 0,-5.55822 0.438948,-7.09595 3.11066,-10.89734 1.71086,-2.43426 4.93239,-5.46324 7.15896,-6.73108 l 4.04829,-2.30514 66.05277,0.25105 66.05276,0.25105 4.078,2.82651 c 12.36201,8.56824 11.2866,27.96935 -1.90431,34.35496 -4.48646,2.17185 -5.14935,2.19264 -69.40447,2.17597 l -64.87475,-0.0168 z"
     id="path3232"
     inkscape:connector-curvature="0"
     transform="matrix(0.74999998,0,0,0.74999998,-11,0)" />
  <path
     style="fill:#ffb52f;fill-opacity:1;fill-rule:evenodd;stroke-width:1.02270806"
     d="M 108.09449,490.64483 C 98.858771,486.04097 94.524037,475.49096 98.0619,466.2272 c 2.09932,-5.49699 8.25542,-11.29533 13.55451,-12.76681 5.63029,-1.56344 125.62951,-1.5013 130.31507,0.0675 9.63089,3.22455 14.67083,10.75771 14.02135,20.95764 -0.33808,5.30939 -0.95881,7.11724 -3.54047,10.31136 -1.72178,2.13025 -4.69248,4.79363 -6.60155,5.91861 -3.35738,1.97843 -5.58087,2.05471 -67.90166,2.32931 l -64.43061,0.2839 z"
     id="path3234"
     inkscape:connector-curvature="0"
     transform="matrix(0.74999998,0,0,0.74999998,-11,0)" />
</svg>
