<?xml version="1.0"?>
<svg xmlns="http://www.w3.org/2000/svg" height="512px" viewBox="0 0 60 60" width="512px" class=""><g><g id="Page-1" fill="none" fill-rule="evenodd"><g id="132---Fast-Forward" fill-rule="nonzero"><circle id="Oval" cx="30" cy="30" fill="#673ab7" r="29" data-original="#673AB7" class="" style="fill:#FFB52F" data-old_color="#673ab7"/><path id="Shape" d="m30 1c-.5033333 0-1.0033333.01266667-1.5.038 15.4192225.79012792 27.5158989 13.5225465 27.5158989 28.962s-12.0966764 28.1718721-27.5158989 28.962c.4973333.0253333.9973333.038 1.5.038 16.0162576-.0000002 28.9999996-12.9837424 28.9999996-29s-12.983742-28.99999976-28.9999996-29z" fill="#4527a0" data-original="#4527A0" class="" style="fill:#FFB52F" data-old_color="#4527a0"/><circle id="Oval" cx="30" cy="30" fill="#f5f5f5" r="25" data-original="#F5F5F5" class="active-path" style="fill:#F5F5F5"/><path id="Shape" d="m30 5c-.5 0-1 .019-1.5.049 13.1671239.83401357 23.4196519 11.7564891 23.4196519 24.95s-10.252528 24.1159864-23.4196519 24.95c.5.03 1 .049 1.5.049 13.7193264-.1227131 24.7763954-11.2791248 24.7763954-24.999s-11.057069-24.87628693-24.7763954-24.999z" fill="#cfd8dc" data-original="#CFD8DC" class=""/><path id="Shape" d="m29 37.983c.0127849.401013.2523449.7599137.6177807.9255383s.7932369.1091885 1.1032193-.1455383l9.9-7.983c.2365713-.1897968.3742205-.4767035.3742205-.78s-.1376492-.5902032-.3742205-.78l-9.9-7.983c-.3099824-.2547268-.7377835-.3111629-1.1032193-.1455383s-.6049958.5245253-.6177807.9255383z" fill="#673ab7" data-original="#673AB7" class="" style="fill:#FFB52F" data-old_color="#673ab7"/><path id="Shape" d="m40.622 29.22-9.9-7.983c-.3099824-.2547268-.7377835-.3111629-1.1032193-.1455383s-.6049958.5245253-.6177807.9255383v.252l8.622 6.951c.2386394.1885086.3778539.4758878.3778539.78s-.1392145.5914914-.3778539.78l-8.623 6.951v.252c.0127849.401013.2523449.7599137.6177807.9255383s.7932369.1091885 1.1032193-.1455383l9.9-7.983c.2387603-.1883556.3781591-.4756456.378354-.7797578.000195-.3041122-.1388354-.5915807-.377354-.7802422z" fill="#4527a0" data-original="#4527A0" class="" style="fill:#FFB52F" data-old_color="#4527a0"/><path id="Shape" d="m19 37.983c.0127849.401013.2523449.7599137.6177807.9255383s.7932369.1091885 1.1032193-.1455383l9.9-7.983c.2365713-.1897968.3742205-.4767035.3742205-.78s-.1376492-.5902032-.3742205-.78l-9.9-7.983c-.3099824-.2547268-.7377835-.3111629-1.1032193-.1455383s-.6049958.5245253-.6177807.9255383z" fill="#673ab7" data-original="#673AB7" class="" style="fill:#FFB52F" data-old_color="#673ab7"/><g fill="#000"><path id="Shape" d="m30 0c-16.5685425 0-30 13.4314575-30 30s13.4314575 30 30 30 30-13.4314575 30-30c-.018737-16.5607751-13.4392249-29.98126296-30-30zm0 58c-15.463973 0-28-12.536027-28-28s12.536027-28 28-28 28 12.536027 28 28c-.0176345 15.4566626-12.5433374 27.9823655-28 28z" data-original="#000" class="" style="fill:#000000" data-old_color="#000"/><path id="Shape" d="m34.762 49.428c-1.5586296.3810627-3.1574646.573111-4.762.572-.5522847 0-1 .4477153-1 1s.4477153 1 1 1c1.7650199.0010376 3.5237217-.2108259 5.238-.631.3590181-.0734995.6490751-.3374891.7559582-.6880204.1068831-.3505314.0134692-.7314479-.243459-.9927601-.2569282-.2613123-.6362098-.3611571-.9884992-.2602195z" data-original="#000" class="" style="fill:#000000" data-old_color="#000"/><path id="Shape" d="m39.122 48.941c.2641108.4847591.8710741.6638043 1.356.4 1.104242-.6019048 2.1556489-1.2960408 3.143-2.075.4047391-.3504446.461676-.9574863.129162-1.3770808-.3325139-.4195946-.9365057-.5028735-1.370162-.1889192-.8976887.7088468-1.8537684 1.3404348-2.858 1.888-.4829893.264043-.6617722.8687762-.4 1.353z" data-original="#000" class="" style="fill:#000000" data-old_color="#000"/><path id="Shape" d="m47.809 42.9c2.7323821-3.7453612 4.2003772-8.2638858 4.191-12.9 0-.5522847-.4477153-1-1-1s-1 .4477153-1 1c.0089697 4.214786-1.3252252 8.3228033-3.809 11.728-.2932003.4467484-.1833582 1.0450717.2494062 1.358545s1.0355133.2313161 1.3685938-.186545z" data-original="#000" class="" style="fill:#000000" data-old_color="#000"/><path id="Shape" d="m30 4c-3.5799929-.00713892-7.1221075.73261809-10.4 2.172-.3515292.12617922-.603445.43773808-.653235.80789332-.04979.37015525.1108452.73720681.4165381.95178968s.7054884.24092888 1.0366969.068317c3.0261823-1.32674615 6.2957645-2.00790911 9.6-2 13.254834 0 24 10.745166 24 24s-10.745166 24-24 24-24-10.745166-24-24c-.00744034-3.3041877.67370269-6.5736743 2-9.6.1561038-.3294859.12051515-.7178184-.09287666-1.0134419-.21339182-.2956236-.57076379-.4516812-.93264332-.4072679-.36187952.0444134-.67090802.2822581-.80648002.6207098-1.43755831 3.2783321-2.17593053 6.8203391-2.168 10.4 0 10.5160184 6.3346966 19.9965618 16.0502308 24.0208678 9.7155341 4.024306 20.8985976 1.7998564 28.3345455-5.6360915s9.6603975-18.6190114 5.6360915-28.3345455c-4.024306-9.7155342-13.5048494-16.0502308-24.0208678-16.0502308z" data-original="#000" class="" style="fill:#000000" data-old_color="#000"/><path id="Shape" d="m10.8 15c.2965689.0001361.5778994-.1313712.768-.359.6113037-.7311389 1.2647475-1.4259864 1.957-2.081.2597321-.2454415.368793-.6108041.2861005-.9584595-.0826925-.3476553-.3445754-.6247861-.687-.727-.3424246-.1022138-.7133684-.013982-.9731005.2314595-.7492326.709153-1.4564352 1.4614323-2.118 2.253-.24877983.2978918-.30272637.7128276-.13838835 1.0644295.16433805.351602.51727645.5763606.90538835.5765705z" data-original="#000" class="" style="fill:#000000" data-old_color="#000"/><path id="Shape" d="m31.348 20.459c-.620679-.5073294-1.4800443-.606547-2.2-.254-.7015999.3303562-1.1489899 1.0365152-1.148 1.812.0297914.5562167.489486.9919487 1.0465.9919487s1.0167086-.435732 1.0465-.9919487l9.902 7.983-9.995 7.988v-.005c0-.5522847-.4477153-1-1-1s-1 .4477153-1 1c-.002207.7782107.4471997 1.4870404 1.152 1.817.2808247.1350933.5883713.2054874.9.206.4714063.000085.9284243-.1623789 1.294-.46l9.9-7.982c.4740825-.3783626.7501697-.9519421.7501697-1.5585s-.2760872-1.1801374-.7501697-1.5585z" data-original="#000" class="" style="fill:#000000" data-old_color="#000"/><path id="Shape" d="m19.152 39.8c.2808247.1350933.5883713.2054874.9.206.4714063.000085.9284243-.1623789 1.294-.46l9.9-7.982c.4740825-.3783626.7501697-.9519421.7501697-1.5585s-.2760872-1.1801374-.7501697-1.5585l-9.9-7.983c-.620679-.5073294-1.4800443-.606547-2.2-.254-.6991852.3301646-1.1454187 1.0337806-1.146 1.807v15.966c-.002207.7782107.4471997 1.4870404 1.152 1.817zm.941-17.779 9.907 7.979-10 7.988z" data-original="#000" class="" style="fill:#000000" data-old_color="#000"/></g></g></g></g> </svg>
