<?xml version="1.0" encoding="UTF-8" standalone="no"?>
<svg
   xmlns:dc="http://purl.org/dc/elements/1.1/"
   xmlns:cc="http://creativecommons.org/ns#"
   xmlns:rdf="http://www.w3.org/1999/02/22-rdf-syntax-ns#"
   xmlns:svg="http://www.w3.org/2000/svg"
   xmlns="http://www.w3.org/2000/svg"
   xmlns:sodipodi="http://sodipodi.sourceforge.net/DTD/sodipodi-0.dtd"
   xmlns:inkscape="http://www.inkscape.org/namespaces/inkscape"
   id="Capa_1"
   enable-background="new 0 0 512 512"
   height="512"
   viewBox="0 0 512 512"
   width="512"
   version="1.1"
   sodipodi:docname="fianance_terms.svg"
   inkscape:version="0.92.4 (5da689c313, 2019-01-14)">
  <metadata
     id="metadata1763">
    <rdf:RDF>
      <cc:Work
         rdf:about="">
        <dc:format>image/svg+xml</dc:format>
        <dc:type
           rdf:resource="http://purl.org/dc/dcmitype/StillImage" />
        <dc:title></dc:title>
      </cc:Work>
    </rdf:RDF>
  </metadata>
  <defs
     id="defs1761" />
  <sodipodi:namedview
     pagecolor="#ffffff"
     bordercolor="#666666"
     borderopacity="1"
     objecttolerance="10"
     gridtolerance="10"
     guidetolerance="10"
     inkscape:pageopacity="0"
     inkscape:pageshadow="2"
     inkscape:window-width="1920"
     inkscape:window-height="1001"
     id="namedview1759"
     showgrid="false"
     inkscape:zoom="1.3037281"
     inkscape:cx="293.84706"
     inkscape:cy="292.30204"
     inkscape:window-x="-9"
     inkscape:window-y="-9"
     inkscape:window-maximized="1"
     inkscape:current-layer="Capa_1" />
  <path
     d="m432.134 119.349v-9.805c0-27.851-22.598-50.509-50.374-50.509h-55.655c-5.966-14.047-19.779-23.969-35.891-24.202-6.362-20.17-25.205-34.833-47.398-34.833-22.192 0-41.035 14.663-47.397 34.833-16.112.233-29.925 10.156-35.891 24.202h-55.656c-27.776 0-50.373 22.658-50.373 50.509v351.947c.001 27.851 22.598 50.509 50.374 50.509h277.887c27.776 0 50.374-22.658 50.374-50.509v-17.864l18.344-30.867.001-.001c5.248-8.832 8.021-18.934 8.021-29.212v-225.558c0-17.561-10.95-32.607-26.366-38.64zm-7.446 278.085-7.555 12.712-7.555-12.711c-2.283-3.842-3.58-8.19-3.783-12.647h22.675c-.203 4.456-1.5 8.805-3.782 12.646zm-18.921-42.647v-156.444h22.733v156.444zm0-186.444v-10.354c0-6.32 5.1-11.462 11.367-11.462s11.366 5.142 11.366 11.462v10.354zm-209.767-103.514h12.121c8.284 0 15-6.716 15-15 0-10.934 8.835-19.829 19.696-19.829s19.696 8.896 19.696 19.829c0 8.284 6.716 15 15 15h12.121c5.303 0 9.617 4.356 9.617 9.712 0 5.354-4.314 9.711-9.617 9.711h-93.634c-5.303 0-9.617-4.356-9.617-9.711s4.314-9.712 9.617-9.712zm185.76 417.171h-277.887c-11.234 0-20.373-9.2-20.373-20.509v-351.947c0-11.309 9.139-20.509 20.373-20.509h55.242c5.789 14.75 20.14 25.217 36.885 25.217h93.633c16.745 0 31.096-10.467 36.885-25.217h55.242c11.234 0 20.374 9.2 20.374 20.509v9.804c-15.417 6.032-26.367 21.079-26.367 38.641v225.558c0 10.278 2.773 20.38 8.022 29.213l18.345 30.867v17.864c0 11.309-9.14 20.509-20.374 20.509z"
     id="path1744" />
  <path
     d="m334.06 155.742h-187.93c-8.284 0-15 6.716-15 15s6.716 15 15 15h187.93c8.284 0 15-6.716 15-15s-6.716-15-15-15z"
     id="path1746" />
  <path
     d="m146.13 235.738h148.086c8.284 0 15-6.716 15-15s-6.716-15-15-15h-148.086c-8.284 0-15 6.716-15 15s6.716 15 15 15z"
     id="path1748" />
  <path
     d="m146.13 285.734h165.373c8.284 0 15-6.716 15-15s-6.716-15-15-15h-165.373c-8.284 0-15 6.716-15 15s6.716 15 15 15z"
     id="path1750" />
  <path
     d="m146.13 335.73h54.388c8.284 0 15-6.716 15-15s-6.716-15-15-15h-54.388c-8.284 0-15 6.716-15 15s6.716 15 15 15z"
     id="path1752" />
  <path
     d="m334.06 355.726h-187.93c-8.284 0-15 6.716-15 15s6.716 15 15 15h187.93c8.284 0 15-6.716 15-15s-6.716-15-15-15z"
     id="path1754" />
  <path
     d="m294.216 405.722h-148.086c-8.284 0-15 6.716-15 15s6.716 15 15 15h148.086c8.284 0 15-6.716 15-15s-6.716-15-15-15z"
     id="path1756" />
  <path
     style="fill:#ffb52f;fill-opacity:1;fill-rule:evenodd;stroke-width:0.76703107"
     d="M 94.945306,511.28775 C 76.214438,507.86002 61.134875,494.26954 55.324607,475.57953 l -1.788384,-5.75274 V 285.73933 c 0,-176.2978 0.0596,-184.29843 1.40854,-189.073159 2.370626,-8.39112 7.108168,-16.52379 13.145196,-22.565611 6.147303,-6.152183 11.54934,-9.600854 19.706011,-12.580356 l 5.625869,-2.05504 33.039371,-0.229059 33.03938,-0.229058 1.69415,-3.487082 c 4.89273,-10.070717 18.06701,-19.091193 30.07325,-20.591274 4.23634,-0.529295 4.24296,-0.53432 5.54857,-4.210331 3.40566,-9.58887 13.37031,-20.207264 23.7159,-25.2718316 8.2176,-4.0228334 13.93748,-5.42627379 22.11538,-5.42627379 19.83584,0 37.84719,11.67588739 45.72124,29.63887939 l 2.06478,4.710369 5.63083,0.90835 c 11.28052,1.819745 23.33249,10.29696 28.14727,19.798461 l 2.02966,4.005334 h 31.2742 c 35.15268,0 35.82674,0.0789 46.93712,5.494034 9.16205,4.465523 17.65356,12.957045 22.11909,22.119085 4.29302,8.80811 5.49403,14.026853 5.49403,23.873103 v 8.21017 l 5.07909,2.84039 c 6.90265,3.86018 13.40949,10.6389 16.77426,17.47514 5.30397,10.77617 5.05595,3.79213 4.79383,134.98913 -0.2155,107.85976 -0.34962,118.68824 -1.52312,122.97901 -2.02277,7.39596 -4.364,12.06865 -15.09461,30.12617 l -10.02945,16.87759 -0.0113,12.11363 c -0.013,13.88242 -0.98701,19.25219 -4.97782,27.44262 -6.23349,12.79316 -18.00548,22.63446 -32.26013,26.96923 -4.31379,1.3118 -12.19756,1.39263 -149.52278,1.53306 -115.20213,0.11781 -146.073524,-0.0539 -150.34869,-0.83626 z M 388.44337,480.54383 c 4.71056,-1.60505 8.35024,-4.79775 11.03212,-9.67729 2.15659,-3.92381 2.27082,-4.61268 2.54949,-15.37385 l 0.29174,-11.26599 -10.1615,-17.07041 c -11.11467,-18.67165 -12.86136,-22.18337 -15.01983,-30.19745 -1.38776,-5.15258 -1.44611,-10.2126 -1.44611,-125.40958 0,-114.35031 0.0669,-120.25852 1.41035,-124.64255 2.03551,-6.64223 5.53489,-12.82735 9.737,-17.21006 3.76898,-3.93099 12.44867,-10.01955 14.2836,-10.01955 1.49486,0 1.35912,-10.88759 -0.20149,-16.16019 -0.91989,-3.10791 -2.235,-5.168018 -5.17746,-8.11048 -6.2857,-6.285697 -7.11897,-6.416276 -40.7093,-6.379129 l -28.43269,0.03145 -1.85997,3.995473 c -2.47771,5.322475 -11.4274,14.227296 -17.03274,16.947346 -8.93911,4.33781 -8.1789,4.28736 -64.74428,4.29722 -57.5112,0.0101 -56.64816,0.073 -65.8716,-4.80876 -5.89773,-3.12158 -13.21056,-10.473489 -16.09032,-16.176327 l -2.22127,-4.398847 -29.99403,0.232265 -29.994023,0.232257 -4.191397,2.301093 c -4.664633,2.560902 -8.757649,7.373999 -9.963696,11.716599 -0.536255,1.93088 -0.792415,61.16234 -0.790242,182.72578 l 0.0032,179.86879 1.816154,3.83515 c 2.197184,4.63978 5.807818,8.19969 10.441357,10.29468 3.431057,1.55131 4.302737,1.56072 146.174547,1.57746 126.04068,0.0149 143.12492,-0.12014 146.16238,-1.1551 z m 33.59638,-78.9828 c 3.56392,-6.24969 6.19116,-12.81863 6.19116,-15.47984 0,-0.79059 -2.42758,-1.01133 -11.12195,-1.01133 -12.39288,0 -11.83555,-0.31383 -10.03969,5.65339 1.38471,4.60102 9.68492,19.18242 10.45244,18.36231 0.31978,-0.34168 2.35289,-3.72773 4.51804,-7.52453 z m 6.19116,-125.02607 v -77.85365 h -11.12195 -11.12195 v 77.85365 77.85366 h 11.12195 11.12195 z m 0,-114.87487 c 0,-7.92906 -1.3959,-10.96624 -6.16377,-13.41108 -1.85112,-0.9492 -4.08229,-1.72582 -4.95818,-1.72582 -0.87589,0 -3.10707,0.77662 -4.95818,1.72582 -4.76788,2.44484 -6.16377,5.48202 -6.16377,13.41108 v 6.33997 h 11.12195 11.12195 z M 291.6355,83.64496 c 7.38779,-2.118786 9.71561,-11.021868 4.2294,-16.175902 -1.81444,-1.704573 -2.78577,-1.891524 -12.08191,-2.32537 -10.89451,-0.508441 -11.8853,-0.731662 -15.67063,-3.530512 -3.34714,-2.474855 -4.80421,-5.539406 -5.69703,-11.982101 -0.92551,-6.67855 -3.03401,-11.284135 -6.59911,-14.414332 -9.95206,-8.738023 -24.92699,-5.502521 -30.5779,6.606706 -0.98435,2.109335 -1.79502,5.043229 -1.8015,6.519764 -0.0212,4.825376 -1.60257,8.704493 -4.88799,11.989907 -3.98255,3.982547 -7.1354,4.875052 -17.24078,4.880499 -9.01086,0.0048 -11.58177,0.968725 -13.52899,5.0722 -1.45799,3.072479 -1.47862,5.903276 -0.063,8.640833 1.44787,2.799848 2.97532,4.001318 5.9998,4.71932 3.74507,0.889073 94.81937,0.88813 97.91962,-7.67e-4 z"
     id="path2956"
     inkscape:connector-curvature="0" />
  <path
     style="fill:#ffb52f;fill-opacity:1;fill-rule:evenodd;stroke-width:0.76703107"
     d="m 138.10897,183.38875 c -9.65243,-6.12139 -9.1609,-20.57281 0.8801,-25.87581 l 3.38053,-1.78538 h 97.31694 c 105.60194,0 100.18852,-0.20982 104.83694,4.06353 2.56596,2.35891 4.66643,7.25461 4.68638,10.92281 0.0221,4.06715 -2.69856,9.26736 -6.38224,12.19881 l -2.94745,2.34555 -99.0959,0.20024 -99.09591,0.20023 z"
     id="path2958"
     inkscape:connector-curvature="0" />
  <path
     style="fill:#ffb52f;fill-opacity:1;fill-rule:evenodd;stroke-width:0.76703107"
     d="m 143.27886,235.55767 c -12.3038,-3.04382 -16.45004,-17.06524 -7.54703,-25.52197 4.92453,-4.67767 0.62225,-4.4527 84.80077,-4.43427 73.14298,0.016 77.07015,0.0864 79.98763,1.43288 9.52447,4.39582 11.69998,16.40546 4.36974,24.12254 -4.80685,5.06052 1.14353,4.71294 -82.99042,4.84777 -41.97578,0.0673 -77.35509,-0.13386 -78.62069,-0.44695 z"
     id="path2960"
     inkscape:connector-curvature="0" />
  <path
     style="fill:#ffb52f;fill-opacity:1;fill-rule:evenodd;stroke-width:0.76703107"
     d="m 140.97777,284.97961 c -4.06054,-1.42392 -8.40234,-6.35527 -9.52662,-10.82018 -1.76225,-6.99853 2.27133,-14.59257 9.31022,-17.5284 2.51814,-1.05029 12.81717,-1.18942 88.04146,-1.18942 93.26122,0 88.12645,-0.24557 93.071,4.45111 4.39287,4.17268 5.72505,9.30356 3.95933,15.24936 -1.37299,4.62338 -5.64868,8.91964 -10.10977,10.15842 -1.98737,0.55186 -30.08776,0.80433 -87.30408,0.7844 -70.37173,-0.0245 -84.88257,-0.20793 -87.44154,-1.10529 z"
     id="path2962"
     inkscape:connector-curvature="0" />
  <path
     style="fill:#ffb52f;fill-opacity:1;fill-rule:evenodd;stroke-width:0.76703107"
     d="m 140.59425,334.75699 c -10.32259,-4.47122 -12.818,-16.68074 -5.00589,-24.49285 2.157,-2.15699 4.31437,-3.46149 6.73093,-4.06999 4.63276,-1.16654 57.99253,-1.23726 62.15127,-0.0824 5.67213,1.57516 11.23365,8.50737 11.27589,14.05496 0.0496,6.5195 -4.58356,13.11648 -10.44547,14.87275 -2.25005,0.67413 -11.47446,0.93188 -32.58041,0.91036 -24.56901,-0.0251 -29.88602,-0.22248 -32.12632,-1.19286 z"
     id="path2964"
     inkscape:connector-curvature="0" />
  <path
     style="fill:#ffb52f;fill-opacity:1;fill-rule:evenodd;stroke-width:0.76703107"
     d="m 140.21074,384.76268 c -5.35791,-2.3614 -9.04001,-8.01606 -9.04001,-13.8829 0,-6.07103 2.85078,-10.79068 8.27297,-13.69642 l 3.06813,-1.6442 h 96.2624 c 52.94432,0 97.57736,0.27838 99.18453,0.61862 3.8501,0.81507 8.5573,5.16099 10.17335,9.39255 2.68853,7.03981 -0.49449,15.10658 -7.32377,18.56074 l -3.41215,1.72582 -97.44218,-0.03 c -79.06905,-0.0244 -97.87606,-0.22125 -99.74327,-1.04419 z"
     id="path2966"
     inkscape:connector-curvature="0" />
  <path
     style="fill:#ff6c3f;fill-opacity:1;fill-rule:evenodd;stroke-width:0.76703107"
     d="m 138.98907,433.90854 c -2.18093,-1.15183 -4.16791,-3.05664 -5.59943,-5.3679 -4.54232,-7.33376 -1.96745,-16.97923 5.59943,-20.97557 l 3.38053,-1.78537 h 77.76357 c 74.92928,0 77.86729,0.0532 80.60938,1.45941 11.39194,5.84213 11.39194,21.15325 0,26.99538 -2.74209,1.40623 -5.6801,1.45942 -80.60938,1.45942 H 142.3696 Z"
     id="path2968"
     inkscape:connector-curvature="0" />
</svg>
