<?xml version="1.0" encoding="UTF-8" standalone="no"?>
<!-- Generator: Adobe Illustrator 16.0.0, SVG Export Plug-In . SVG Version: 6.00 Build 0)  -->

<svg
   xmlns:dc="http://purl.org/dc/elements/1.1/"
   xmlns:cc="http://creativecommons.org/ns#"
   xmlns:rdf="http://www.w3.org/1999/02/22-rdf-syntax-ns#"
   xmlns:svg="http://www.w3.org/2000/svg"
   xmlns="http://www.w3.org/2000/svg"
   xmlns:sodipodi="http://sodipodi.sourceforge.net/DTD/sodipodi-0.dtd"
   xmlns:inkscape="http://www.inkscape.org/namespaces/inkscape"
   version="1.1"
   id="Layer_1"
   x="0px"
   y="0px"
   width="512px"
   height="512px"
   viewBox="0 0 512 512"
   enable-background="new 0 0 512 512"
   xml:space="preserve"
   sodipodi:docname="finance_dilema.svg"
   inkscape:version="0.92.4 (5da689c313, 2019-01-14)"><metadata
   id="metadata2405"><rdf:RDF><cc:Work
       rdf:about=""><dc:format>image/svg+xml</dc:format><dc:type
         rdf:resource="http://purl.org/dc/dcmitype/StillImage" /><dc:title></dc:title></cc:Work></rdf:RDF></metadata><defs
   id="defs2403" /><sodipodi:namedview
   pagecolor="#ffffff"
   bordercolor="#666666"
   borderopacity="1"
   objecttolerance="10"
   gridtolerance="10"
   guidetolerance="10"
   inkscape:pageopacity="0"
   inkscape:pageshadow="2"
   inkscape:window-width="1920"
   inkscape:window-height="1001"
   id="namedview2401"
   showgrid="false"
   inkscape:zoom="1.3037281"
   inkscape:cx="269.06532"
   inkscape:cy="225.66907"
   inkscape:window-x="-9"
   inkscape:window-y="-9"
   inkscape:window-maximized="1"
   inkscape:current-layer="Layer_1" />
<g
   id="g2398">
	<path
   d="M452.414,88.971H179.675c-13.43,0-24.324,10.877-24.324,24.306c0,13.43,10.895,24.324,24.324,24.324h90.721l1.15,148.223   c0.08,8.882,7.306,16.076,16.205,16.076h37.815v53.701c0,8.967,7.273,16.205,16.223,16.205h62.156   c8.944,0,16.205-7.238,16.205-16.205c0-8.963-7.261-16.201-16.205-16.201h-45.938v-53.705c0-8.961-7.273-16.218-16.218-16.218   h-37.944l-1.021-131.876h65.998v77.837c0,8.962,7.243,16.219,16.205,16.219H454.6v214.46c0,1.195-0.99,2.186-2.186,2.186h-29.572   c-13.43,0-24.323,10.895-24.323,24.305c0,13.432,10.894,24.324,24.323,24.324h29.572c28.023,0,50.814-22.791,50.814-50.814V139.785   C503.229,111.762,480.438,88.971,452.414,88.971z M401.231,199.233v-61.633h51.183c1.195,0,2.186,0.972,2.186,2.185v59.448H401.231   z"
   id="path2392" />
	<path
   d="M325.584,448.302H141.762V309.156h43.322v87.009c0,8.961,7.256,16.2,16.2,16.2h79.721c8.931,0,16.201-7.239,16.201-16.2   c0-8.967-7.271-16.206-16.201-16.206H217.49v-87.021c0-8.966-7.239-16.204-16.206-16.204H57.418v-55.891h110.088   c8.962,0,16.219-7.257,16.219-16.219c0-8.949-7.257-16.206-16.219-16.206H57.418v-48.633c0-1.213,0.977-2.185,2.172-2.185h16.045   c13.431,0,24.323-10.895,24.323-24.324c0-13.429-10.893-24.306-24.323-24.306H59.59c-28.01,0-50.818,22.791-50.818,50.814v306.331   c0,28.023,22.809,50.814,50.818,50.814h265.994c13.442,0,24.323-10.893,24.323-24.324   C349.907,459.196,339.026,448.302,325.584,448.302z M57.418,446.116v-136.96h51.902v139.146H59.59   C58.395,448.302,57.418,447.312,57.418,446.116z"
   id="path2394" />
	<path
   d="M83.927,75.604h95.988c2.806,0,5.311-1.688,6.376-4.259c1.054-2.566,0.48-5.547-1.496-7.51l-45.871-45.871   c-3.859-3.859-10.112-3.859-13.972,0L79.046,63.835c-1.977,1.963-2.55,4.93-1.496,7.51C78.633,73.916,81.138,75.604,83.927,75.604z   "
   id="path2396" />
</g>
<path
   style="fill:#ffb52f;fill-opacity:1;fill-rule:evenodd;stroke-width:0.76703107"
   d="M 46.945024,495.41347 C 37.736231,492.99391 31.132522,489.07684 23.762599,481.66253 16.618467,474.47537 13.477693,469.33703 10.607196,460.14018 L 8.8116699,454.38744 V 292.9274 131.46736 l 1.7883841,-5.75274 c 2.731143,-8.78532 6.54642,-14.98944 13.484794,-21.92795 4.744139,-4.744243 7.685838,-6.941096 12.503413,-9.337523 9.620662,-4.785649 15.121825,-5.723296 31.792041,-5.418803 13.542965,0.247371 14.212123,0.333715 17.98404,2.320524 2.154728,1.134976 5.495747,3.818778 7.424493,5.964004 11.468575,12.755818 6.180614,33.054828 -10.191634,39.122828 -1.476535,0.54725 -7.862069,1.20603 -14.190075,1.46397 l -11.505467,0.46897 -0.202341,24.7045 -0.20234,24.70451 56.962642,0.224 56.96264,0.22401 3.18569,1.70356 c 11.40012,6.09625 12.31093,21.34529 1.69461,28.37171 l -3.23341,2.14003 -57.7755,0.20595 -57.775506,0.20596 v 27.98243 27.98245 l 73.826746,0.0169 c 70.15794,0.016 73.9819,0.0873 76.94912,1.435 3.95834,1.79785 7.62375,6.21623 8.69886,10.48585 0.55319,2.19691 0.83477,18.07766 0.83477,47.07981 v 43.76463 l 32.40706,0.005 c 20.65811,0.003 33.47899,0.30192 35.36374,0.82526 1.62617,0.45154 4.47806,2.22335 6.33754,3.93735 8.48647,7.82256 6.66344,21.06889 -3.60377,26.18526 l -4.07407,2.02987 -42.99489,-0.0169 c -41.56987,-0.0163 -43.10884,-0.0686 -46.43275,-1.57624 -4.64055,-2.10493 -6.05053,-3.48487 -8.16884,-7.9948 l -1.80137,-3.83516 -0.008,-45.06307 -0.007,-45.06305 h -21.47687 -21.47687 v 69.40163 69.40163 l 94.53658,0.20645 94.53659,0.20643 4.25367,1.99514 c 9.20941,4.31956 13.82025,10.95485 14.38439,20.70003 0.44473,7.68251 -1.10473,12.41376 -5.76182,17.59356 -1.92875,2.14524 -5.26977,4.83053 -7.42449,5.96732 l -3.91769,2.06691 -139.98318,0.15368 C 56.821401,496.87682 52.361248,496.83655 46.945024,495.41347 Z M 108.90923,378.45137 V 309.03505 H 83.213685 57.518144 v 68.90496 c 0,37.89773 0.230109,69.13507 0.511354,69.41631 0.281244,0.28125 11.844238,0.51136 25.695544,0.51136 h 25.184188 z"
   id="path2950"
   inkscape:connector-curvature="0" /><path
   style="fill:#ffb52f;fill-opacity:1;fill-rule:evenodd;stroke-width:0.76703107"
   d="m 415.17948,495.8773 c -6.11517,-1.96968 -12.0454,-7.44631 -14.75041,-13.62221 -5.93085,-13.54085 1.94778,-29.42908 16.46877,-33.21132 3.37301,-0.87855 8.64669,-1.17609 20.84536,-1.17609 h 16.33001 V 339.73737 231.60706 l -37.51921,-0.21283 -37.51923,-0.21283 -3.26629,-2.3011 c -1.79647,-1.2656 -4.06942,-3.82233 -5.05101,-5.68161 l -1.78471,-3.38053 v -40.91552 -40.91552 h -33.10718 -33.10719 l 0.50837,32.34109 c 0.2796,17.7876 0.50836,47.27912 0.50836,65.53672 v 33.19563 l 21.34756,0.23619 21.34755,0.2362 3.73879,2.31294 c 2.72041,1.68292 4.32259,3.43044 5.88206,6.41559 l 2.14325,4.10266 v 28.29256 28.29256 l 23.20269,0.0183 c 12.76148,0.01 24.51971,0.32398 26.12941,0.6976 4.7103,1.0933 8.71373,4.37594 10.976,8.99986 1.7173,3.51003 1.96208,4.80739 1.58902,8.42193 -0.53587,5.19209 -3.11177,9.38787 -7.57907,12.34524 l -3.19618,2.11589 -34.57355,0.23819 c -36.07801,0.24856 -38.39635,0.0829 -42.81617,-3.05952 -1.15851,-0.82367 -3.05692,-3.11457 -4.21868,-5.09087 l -2.11229,-3.5933 -0.22628,-28.95542 -0.22627,-28.95543 h -19.62754 c -21.65328,0 -23.88494,-0.33811 -28.54191,-4.3243 -5.79918,-4.96389 -5.4434,-0.14443 -6.21428,-84.1793 -0.3797,-41.39165 -0.70907,-75.34383 -0.73193,-75.44929 -0.0229,-0.10547 -20.88761,-0.19176 -46.36613,-0.19176 -43.96917,0 -46.57408,-0.0771 -51.23141,-1.51556 -8.40833,-2.59707 -14.13674,-8.7933 -16.43957,-17.78211 -2.7611,-10.77761 2.84997,-22.393788 13.33362,-27.60363 l 3.63251,-1.805174 142.28427,-0.212622 c 158.02016,-0.236138 147.93865,-0.543251 159.15895,4.848458 10.44606,5.019665 18.66262,13.229518 23.78489,23.765508 5.36553,11.03636 5.01802,-1.81252 4.79581,177.32045 l -0.20055,161.6861 -1.70551,4.9857 c -2.57176,7.51796 -6.89836,14.33463 -12.89383,20.31456 -6.1443,6.12836 -11.56728,9.58054 -19.66041,12.51547 -5.54828,2.01205 -5.93263,2.04275 -27.86977,2.22627 -17.03499,0.14252 -22.99953,-0.0573 -25.47069,-0.85324 z m 38.89373,-327.20894 v -30.68124 h -26.46257 -26.46257 v 30.68124 30.68125 h 26.46257 26.46257 z"
   id="path2952"
   inkscape:connector-curvature="0" /><path
   style="fill:#ff6450;fill-opacity:1;fill-rule:evenodd;stroke-width:0.76703107"
   d="m 80.443209,74.70733 c -2.367272,-1.286588 -4.104142,-5.011878 -3.479967,-7.463939 0.243705,-0.95739 11.771616,-13.044829 25.617578,-26.860977 l 25.17449,-25.120268 h 4.16485 4.16485 l 25.17449,25.120268 c 13.84596,13.816148 25.37387,25.903587 25.61758,26.860977 0.6424,2.523681 -1.14571,6.212167 -3.63578,7.499836 -3.1767,1.642731 -99.771544,1.609 -102.798091,-0.0359 z"
   id="path2954"
   inkscape:connector-curvature="0" /></svg>