<?xml version="1.0" encoding="UTF-8" standalone="no"?>
<svg
   xmlns:dc="http://purl.org/dc/elements/1.1/"
   xmlns:cc="http://creativecommons.org/ns#"
   xmlns:rdf="http://www.w3.org/1999/02/22-rdf-syntax-ns#"
   xmlns:svg="http://www.w3.org/2000/svg"
   xmlns="http://www.w3.org/2000/svg"
   xmlns:sodipodi="http://sodipodi.sourceforge.net/DTD/sodipodi-0.dtd"
   xmlns:inkscape="http://www.inkscape.org/namespaces/inkscape"
   id="Layer_1"
   enable-background="new 0 0 511.977 511.977"
   height="512"
   viewBox="0 0 511.977 511.977"
   width="512"
   version="1.1"
   sodipodi:docname="finance_browsing.svg"
   inkscape:version="0.92.4 (5da689c313, 2019-01-14)">
  <metadata
     id="metadata1451">
    <rdf:RDF>
      <cc:Work
         rdf:about="">
        <dc:format>image/svg+xml</dc:format>
        <dc:type
           rdf:resource="http://purl.org/dc/dcmitype/StillImage" />
        <dc:title></dc:title>
      </cc:Work>
    </rdf:RDF>
  </metadata>
  <defs
     id="defs1449" />
  <sodipodi:namedview
     pagecolor="#ffffff"
     bordercolor="#666666"
     borderopacity="1"
     objecttolerance="10"
     gridtolerance="10"
     guidetolerance="10"
     inkscape:pageopacity="0"
     inkscape:pageshadow="2"
     inkscape:window-width="1920"
     inkscape:window-height="1001"
     id="namedview1447"
     showgrid="false"
     inkscape:zoom="1.578125"
     inkscape:cx="256"
     inkscape:cy="256"
     inkscape:window-x="-9"
     inkscape:window-y="-9"
     inkscape:window-maximized="1"
     inkscape:current-layer="Layer_1" />
  <g
     id="g1444">
    <path
       d="m223.866 233.941c-16.882 0-32.753 6.574-44.689 18.511-5.858 5.858-5.857 15.355 0 21.213 5.858 5.857 15.356 5.857 21.213 0 6.27-6.271 14.607-9.724 23.476-9.724s17.205 3.453 23.474 9.724c2.929 2.929 6.768 4.394 10.607 4.394 3.838 0 7.677-1.464 10.606-4.393 5.858-5.857 5.859-15.355.001-21.213-11.935-11.937-27.805-18.512-44.688-18.512z"
       id="path1436" />
    <path
       d="m313.999 207.009c-49.701-49.698-130.568-49.699-180.266 0-5.857 5.858-5.857 15.355 0 21.213 5.857 5.857 15.355 5.858 21.213 0 38-38.002 99.835-38.001 137.839 0 2.929 2.929 6.768 4.393 10.606 4.393s7.678-1.465 10.607-4.394c5.859-5.857 5.859-15.354.001-21.212z"
       id="path1438" />
    <path
       d="m223.865 64.267c-88.003 0-159.6 71.596-159.6 159.6s71.596 159.601 159.6 159.601 159.6-71.597 159.6-159.601-71.596-159.6-159.6-159.6zm0 289.2c-71.461 0-129.6-58.139-129.6-129.601 0-71.461 58.138-129.6 129.6-129.6s129.6 58.138 129.6 129.6c0 71.463-58.138 129.601-129.6 129.601z"
       id="path1440" />
    <path
       d="m498.194 431.538-86.208-86.208c23.261-35.868 35.746-77.703 35.746-121.463 0-59.797-23.287-116.015-65.569-158.297-42.283-42.283-98.501-65.57-158.298-65.57s-116.014 23.287-158.297 65.569c-42.282 42.283-65.568 98.501-65.568 158.298s23.286 116.015 65.568 158.298c42.283 42.283 98.5 65.569 158.297 65.569 43.761 0 85.597-12.486 121.465-35.747l86.206 86.208c9.189 9.188 21.259 13.782 33.329 13.782s24.141-4.594 33.329-13.783c18.377-18.377 18.377-48.278 0-66.656zm-468.194-207.671c0-106.898 86.968-193.867 193.865-193.867 106.899 0 193.867 86.968 193.867 193.866 0 106.899-86.968 193.867-193.867 193.867-106.897.001-193.865-86.967-193.865-193.866zm446.981 253.114c-6.681 6.681-17.551 6.68-24.232 0l-83.158-83.159c4.313-3.709 8.507-7.593 12.571-11.657s7.95-8.26 11.659-12.573l83.159 83.159c6.681 6.68 6.681 17.55.001 24.23z"
       id="path1442" />
  </g>
  <path
     style="fill:#ffb52f;fill-opacity:1;fill-rule:evenodd;stroke-width:0.63366336"
     d="m 458.89901,511.79304 c -7.31329,-1.02503 -14.89221,-4.0025 -21.54455,-8.46403 -1.56832,-1.05183 -22.95446,-21.9493 -47.52476,-46.43883 l -44.67326,-44.52641 -6.33664,3.79986 c -27.14679,16.279 -57.09993,26.40394 -89.9802,30.41563 -10.49133,1.28004 -42.06189,1.09437 -52.59406,-0.30933 C 156.29121,440.94498 120.23778,426.30486 89.156436,402.78457 38.24285,364.25655 6.4752539,307.15358 0.73329584,243.842 -0.37678289,231.60212 0.27137698,204.0846 1.9305243,193.01386 7.1114493,158.44388 18.14256,129.06154 36.297303,101.47491 58.643437,67.519347 88.248992,41.21621 124.32475,23.266676 c 75.71413,-37.671644 165.94384,-29.4980702 233.5136,21.153126 39.35604,29.501814 67.95166,70.766508 81.31433,117.340038 17.00541,59.26969 8.61145,124.72634 -22.61623,176.36293 l -4.40695,7.28713 45.47445,45.62376 c 33.98409,34.09567 46.04411,46.58444 47.7289,49.42575 18.19515,30.68494 -2.25069,69.22416 -37.93323,71.50194 -2.7585,0.17609 -6.58378,0.10035 -8.50061,-0.16831 z m 13.91813,-32.03512 c 7.38516,-3.74234 10.66314,-12.48327 7.86323,-20.96781 -0.93677,-2.83869 -4.91856,-7.01908 -43.76781,-45.95083 l -42.73729,-42.82805 -12.04409,12.04409 -12.04409,12.04408 42.34656,42.35084 c 24.45513,24.4576 43.28358,42.79739 44.56437,43.40778 5.23827,2.49641 10.76416,2.46144 15.81912,-0.1001 z M 252.32722,415.51056 c 33.86664,-5.27598 63.39832,-18.02226 91.24506,-39.38264 9.29754,-7.13185 27.13655,-25.3949 34.73097,-35.55651 32.47329,-43.45054 45.39283,-95.97309 36.54548,-148.57049 C 407.85819,150.44223 388.06148,113.00574 357.79389,84.107545 322.95295,50.842906 278.46928,32.073558 230.46337,30.381968 157.53722,27.812261 89.530101,66.550039 53.970227,130.91485 31.905881,170.85221 24.905389,218.38958 34.374051,263.98416 46.715263,323.41097 88.21146,375.01158 143.96832,400.26485 c 19.20593,8.6987 38.34001,13.78331 62.73267,16.67029 1.2198,0.14437 10.05941,0.18284 19.64356,0.0855 13.91426,-0.14134 19.15007,-0.44563 25.98267,-1.51006 z"
     id="path2970"
     inkscape:connector-curvature="0"
     transform="scale(0.99995508)" />
  <path
     style="fill:#ffb52f;fill-opacity:1;fill-rule:evenodd;stroke-width:0.63366336"
     d="m 209.97613,383.09351 c -50.52782,-4.89693 -94.31777,-31.95078 -122.02236,-75.38658 -10.946143,-17.16157 -19.491333,-41.30213 -22.654501,-64 -1.090234,-7.82316 -1.10599,-32.08552 -0.02572,-39.60396 4.218529,-29.35999 14.173404,-53.73605 31.125376,-76.21533 25.177485,-33.38678 61.400115,-55.067126 103.648595,-62.036848 9.96403,-1.643762 37.44997,-1.645516 47.819,-0.0031 34.02288,5.389254 64.19667,20.818024 88.76883,45.390178 24.54998,24.54999 39.80109,54.53723 45.29626,89.06307 1.40462,8.82516 1.91426,29.31741 0.96242,38.69774 -3.79829,37.4317 -19.84485,71.28588 -46.35387,97.7949 -24.33579,24.33579 -55.47329,40.03135 -89.46644,45.09758 -9.70388,1.44623 -28.34648,2.05042 -37.09759,1.2023 z m 25.96465,-30.41938 c 21.59347,-2.16049 41.83333,-9.2551 58.92994,-20.65652 44.68468,-29.7994 66.27065,-82.10456 55.62016,-134.77375 -4.7384,-23.43251 -17.57508,-47.14648 -34.98419,-64.62841 C 304.91829,121.98276 294.76308,114.7735 280.52277,107.78013 267.28891,101.28102 256.35421,97.87316 241.86931,95.733562 232.61783,94.367006 215.0111,94.3662 205.7505,95.731908 141.57372,105.19638 94.542574,159.53589 94.542574,224.22089 c 0,49.1006 28.297736,94.25049 72.623946,115.87371 21.27502,10.37838 45.84917,14.87325 68.77426,12.57953 z"
     id="path2972"
     inkscape:connector-curvature="0"
     transform="scale(0.99995508)" />
  <path
     style="fill:#ff5b2f;fill-opacity:1;fill-rule:evenodd;stroke-width:0.63366336"
     d="m 140.7959,232.3426 c -9.61152,-2.9237 -14.08954,-12.7755 -9.75797,-21.46784 1.12748,-2.26256 3.32306,-4.79282 6.98935,-8.05477 9.60018,-8.54141 17.76708,-14.12195 28.61316,-19.55171 45.62432,-22.84044 100.3562,-16.4619 139.27105,16.23088 10.26255,8.62168 12.44099,11.82868 12.44099,18.31512 0,6.83121 -4.84191,12.88162 -11.60752,14.50466 -5.95701,1.42907 -9.81865,-0.16504 -17.69108,-7.303 -12.92502,-11.71915 -29.66671,-20.08396 -46.9354,-23.4508 -7.44651,-1.45183 -21.81676,-1.93396 -29.35646,-0.98494 -21.59897,2.71868 -39.44128,11.02168 -55.87392,26.00117 -6.15678,5.61233 -10.94554,7.32677 -16.0922,5.76123 z"
     id="path2974"
     inkscape:connector-curvature="0"
     transform="scale(0.99995508)" />
  <path
     style="fill:#ff692f;fill-opacity:1;fill-rule:evenodd;stroke-width:0.63366336"
     d="m 183.88911,276.916 c -7.63288,-3.30103 -11.41274,-13.17292 -7.75793,-20.26145 1.76185,-3.4171 8.36155,-9.51432 14.31453,-13.22465 11.87631,-7.40218 26.12411,-10.72187 39.63601,-9.23505 13.81106,1.51973 25.13934,6.42933 35.72078,15.48113 5.92124,5.06529 8.29381,10.81675 6.85385,16.61479 -1.75662,7.07308 -7.41973,11.61747 -14.49056,11.62804 -5.02731,0.008 -7.15749,-0.89356 -11.87797,-5.02437 -5.08516,-4.44993 -11.53751,-7.48139 -17.89666,-8.40824 -9.39115,-1.36878 -19.26819,1.71331 -27.07631,8.44904 -2.09109,1.80389 -4.71955,3.66449 -5.84103,4.13466 -2.6917,1.12847 -8.80738,1.04722 -11.58471,-0.1539 z"
     id="path2976"
     inkscape:connector-curvature="0"
     transform="scale(0.99995508)" />
</svg>
