<?xml version="1.0" encoding="UTF-8" standalone="no"?>
<!-- Generator: Adobe Illustrator 19.0.0, SVG Export Plug-In . SVG Version: 6.00 Build 0)  -->

<svg
   xmlns:dc="http://purl.org/dc/elements/1.1/"
   xmlns:cc="http://creativecommons.org/ns#"
   xmlns:rdf="http://www.w3.org/1999/02/22-rdf-syntax-ns#"
   xmlns:svg="http://www.w3.org/2000/svg"
   xmlns="http://www.w3.org/2000/svg"
   xmlns:sodipodi="http://sodipodi.sourceforge.net/DTD/sodipodi-0.dtd"
   xmlns:inkscape="http://www.inkscape.org/namespaces/inkscape"
   version="1.1"
   id="Capa_1"
   x="0px"
   y="0px"
   viewBox="0 0 512 512"
   style="enable-background:new 0 0 512 512;"
   xml:space="preserve"
   sodipodi:docname="highly_competetive_rates.svg"
   inkscape:version="0.92.4 (5da689c313, 2019-01-14)"><metadata
   id="metadata1744"><rdf:RDF><cc:Work
       rdf:about=""><dc:format>image/svg+xml</dc:format><dc:type
         rdf:resource="http://purl.org/dc/dcmitype/StillImage" /><dc:title></dc:title></cc:Work></rdf:RDF></metadata><defs
   id="defs1742" /><sodipodi:namedview
   pagecolor="#ffffff"
   bordercolor="#666666"
   borderopacity="1"
   objecttolerance="10"
   gridtolerance="10"
   guidetolerance="10"
   inkscape:pageopacity="0"
   inkscape:pageshadow="2"
   inkscape:window-width="1920"
   inkscape:window-height="1001"
   id="namedview1740"
   showgrid="false"
   inkscape:zoom="0.921875"
   inkscape:cx="191.29155"
   inkscape:cy="246.17021"
   inkscape:window-x="-9"
   inkscape:window-y="-9"
   inkscape:window-maximized="1"
   inkscape:current-layer="Capa_1" />
<g
   id="g1707">
	<g
   id="g1705">
		<path
   d="M509.152,193.752c-7.551-23.237-28.12-38.253-52.402-38.253H354.447c-6.784,0-12.435-3.905-14.387-9.913l-31.625-97.963    c-7.52-23.143-28.101-38.096-52.434-38.096s-44.915,14.953-52.446,38.132l-31.602,97.891c-1.964,6.044-7.615,9.949-14.399,9.949    H55.249c-24.282,0-44.852,15.015-52.402,38.253c-7.58,23.328,0.27,47.663,19.996,61.995l82.767,60.134    c5.322,3.866,7.533,10.669,5.499,16.926l-31.614,97.297c-7.52,23.143,0.342,47.338,20.028,61.64    c9.843,7.152,21.124,10.727,32.405,10.727c11.282,0,22.564-3.575,32.406-10.727l82.767-60.134    c5.321-3.866,12.474-3.868,17.797,0.001l82.766,60.133c19.686,14.302,45.126,14.304,64.811,0    c19.686-14.301,27.548-38.497,20.028-61.64l-21.642-66.608c-3.412-10.503-14.695-16.251-25.196-12.839    c-10.504,3.413-16.252,14.693-12.839,25.197l21.641,66.608c3.154,9.707-3.412,15.41-5.5,16.928c-2.088,1.516-9.541,6-17.797-0.001    l-82.766-60.132c-19.382-14.083-45.428-14.084-64.811-0.001l-82.766,60.133c-8.258,6-15.711,1.517-17.798,0.001    c-2.088-1.518-8.653-7.221-5.5-16.928l31.614-97.297c7.405-22.786-0.644-47.557-20.027-61.639l-82.767-60.134    c-8.32-6.044-6.289-14.755-5.468-17.281c0.81-2.492,4.238-10.619,14.367-10.619h102.304c24.058,0,45.129-15.103,52.446-37.619    L241.6,59.983c3.154-9.708,11.819-10.462,14.399-10.462s11.245,0.754,14.387,10.426l31.626,97.962    c7.305,22.48,28.375,37.583,52.434,37.583h102.303c10.13,0,13.557,8.127,14.367,10.619c0.821,2.526,2.852,11.237-5.468,17.281    l-56.435,41.003c-8.934,6.493-10.915,18.996-4.423,27.932c6.491,8.934,18.995,10.913,27.931,4.424l56.435-41.003    C508.883,241.415,516.732,217.081,509.152,193.752z"
   id="path1703" />
	</g>
</g>
<g
   id="g1709">
</g>
<g
   id="g1711">
</g>
<g
   id="g1713">
</g>
<g
   id="g1715">
</g>
<g
   id="g1717">
</g>
<g
   id="g1719">
</g>
<g
   id="g1721">
</g>
<g
   id="g1723">
</g>
<g
   id="g1725">
</g>
<g
   id="g1727">
</g>
<g
   id="g1729">
</g>
<g
   id="g1731">
</g>
<g
   id="g1733">
</g>
<g
   id="g1735">
</g>
<g
   id="g1737">
</g>
<path
   style="fill:#ffb52f;fill-opacity:1;stroke-width:1.08474576"
   d="m 120.53982,501.31568 c -16.40033,-3.56356 -31.540438,-15.8165 -39.096348,-31.64081 -3.980885,-8.33715 -4.050228,-8.70523 -4.050228,-21.49932 V 435.1586 l 17.084745,-52.3338 c 9.396611,-28.78359 17.084751,-53.72836 17.084751,-55.43281 0,-1.70445 -1.11765,-4.75763 -2.48365,-6.78484 -1.52549,-2.26388 -18.997195,-15.68447 -45.28814,-34.7873 -23.542467,-17.1058 -45.276956,-33.53866 -48.298864,-36.51747 -21.1238562,-20.8226 -20.6480887,-56.1344 1.048644,-77.83113 6.948682,-6.94868 13.305255,-10.77349 23.428785,-14.09734 5.355489,-1.75836 12.042484,-2.02053 65.336555,-2.56165 l 59.37046,-0.60281 3.17995,-3.25424 c 2.67879,-2.74137 5.76522,-11.28919 19.5839,-54.237289 9.02216,-28.040678 17.911,-54.094147 19.75297,-57.896595 10.2682,-21.197137 36.37355,-33.3185562 60.79057,-28.226704 14.84174,3.095052 30.5234,15.060482 36.8306,28.102506 1.58339,3.274148 10.29158,28.895369 19.35153,56.936047 9.05995,28.040675 17.16565,52.071205 18.01267,53.401155 3.53496,5.55044 3.40198,5.53851 66.132,5.93418 57.59459,0.36328 58.61323,0.40734 65.37129,2.82832 8.90435,3.18985 14.57113,6.74908 21.68409,13.61953 10.84353,10.47379 16.46782,24.33935 16.46782,40.59811 0,15.8374 -6.85012,30.67868 -18.79042,40.71075 -11.53794,9.69403 -62.18461,45.67239 -66.32783,47.11794 -12.16157,4.24313 -25.52582,-5.84103 -25.52582,-19.26083 0,-10.16997 1.45639,-11.66451 35.57232,-36.50431 18.17225,-13.2312 31.71212,-23.84916 32.90354,-25.80291 1.11348,-1.82595 2.01561,-4.78431 2.00474,-6.57414 -0.0278,-4.5617 -3.64402,-12.02448 -6.65957,-13.74299 -1.98872,-1.13333 -15.35054,-1.56425 -62.19391,-2.00574 l -59.66101,-0.56229 -7.46224,-2.87939 c -13.6185,-5.25486 -24.00628,-14.2872 -30.23956,-26.29377 -1.26038,-2.42777 -9.98733,-28.0887 -19.39321,-57.02429 -18.58689,-57.179392 -18.75894,-57.553461 -27.19601,-59.125992 -4.76695,-0.888482 -11.5519,1.513307 -14.14339,5.006578 -1.15458,1.556357 -9.79185,26.549911 -19.19393,55.541224 -11.79742,36.37738 -18.22449,54.57566 -20.74065,58.72732 -4.62277,7.62752 -10.64945,13.51023 -18.91915,18.46722 -12.79031,7.6667 -10.8609,7.46389 -77.21829,8.11673 l -59.862346,0.58895 -3.341389,3.20257 c -4.511635,4.3242 -6.053725,10.2699 -4.190424,16.15664 1.347766,4.25801 3.877845,6.29072 46.112379,37.04757 24.5775,17.89831 46.24379,34.00678 48.14731,35.79661 9.96085,9.36595 16.18718,24.33556 16.17722,38.89393 -0.008,10.86667 1.00534,7.17813 -18.52418,67.46495 -8.8999,27.47366 -16.18164,51.07446 -16.18164,52.44623 0,4.04728 3.37345,9.97201 6.96403,12.2308 2.47297,1.55571 4.75027,1.99649 8.76479,1.69644 5.15488,-0.3853 7.41316,-1.85077 45.55932,-29.56487 22.07458,-16.03772 42.76454,-31.00438 45.9777,-33.25926 15.75285,-11.05477 36.66184,-13.06243 54.06311,-5.19108 3.86127,1.74662 25.22703,16.48924 49.8983,34.43039 23.7301,17.25672 44.21185,31.93691 45.515,32.62265 8.8205,4.64141 20.93765,-2.74218 20.94861,-12.76503 0.002,-2.03871 -5.12136,-19.48807 -11.38577,-38.77638 -11.31733,-34.84641 -12.56057,-40.51436 -10.23607,-46.66663 1.39456,-3.691 5.9894,-8.71013 9.6937,-10.58881 9.58677,-4.86205 22.03304,-0.83559 26.92813,8.71145 2.68652,5.2396 24.28743,73.69905 25.29384,80.16341 3.94229,25.32211 -12.84053,50.91996 -39.20502,59.7971 -8.53328,2.87322 -24.33156,2.61263 -33.08475,-0.54573 -8.25748,-2.97949 -10.06574,-4.19596 -57.75049,-38.85005 -21.80269,-15.84475 -40.91457,-29.47305 -42.47081,-30.2851 -4.56549,-2.38229 -10.03223,-1.81486 -15.36294,1.59463 -2.6524,1.69646 -23.12763,16.39275 -45.50051,32.65843 -22.37288,16.26569 -43.05466,30.77973 -45.95951,32.25343 -5.98341,3.03551 -17.54373,5.76171 -24.00659,5.66132 -2.38644,-0.0371 -7.37726,-0.72758 -11.09071,-1.53446 z"
   id="path3236"
   inkscape:connector-curvature="0" /></svg>