<?xml version="1.0"?>
<svg xmlns="http://www.w3.org/2000/svg" id="Layer_1" data-name="Layer 1" viewBox="0 0 512 512" width="512px" height="512px" class=""><g><title>Indian Rupee</title><circle cx="256" cy="256" r="152.89" style="fill:#0A0A0A" data-original="#E48E66" class="" data-old_color="#E48E66"/><path d="M303.951,190a6.086,6.086,0,0,0-.029-12.172L236,177.069v-.021l-27.108-.294a6,6,0,0,0-.059,12l27.209.29a34.841,34.841,0,0,1,33.937,29.14l-61.427-.659a6,6,0,1,0-.127,12l61.427.864A35.1,35.1,0,0,1,235.68,259H235.3l-27.19-.5a5.891,5.891,0,0,0-4.232,10.162l67.27,64.925a6.008,6.008,0,0,0,8.336-8.655l-56.419-54.27L235.24,271h.44a46.935,46.935,0,0,0,46.3-40.256l21.462.256h.065a6.2,6.2,0,0,0,6-6.166,6.1,6.1,0,0,0-5.936-6.178l-21.459-.288a46.5,46.5,0,0,0-14.83-28.848l36.6.48Z" style="fill:#FFB52F" data-original="#F8EC7D" class="active-path" data-old_color="#F8EC7D"/></g> </svg>
