<?xml version="1.0" encoding="UTF-8" standalone="no"?>
<svg
   xmlns:dc="http://purl.org/dc/elements/1.1/"
   xmlns:cc="http://creativecommons.org/ns#"
   xmlns:rdf="http://www.w3.org/1999/02/22-rdf-syntax-ns#"
   xmlns:svg="http://www.w3.org/2000/svg"
   xmlns="http://www.w3.org/2000/svg"
   xmlns:sodipodi="http://sodipodi.sourceforge.net/DTD/sodipodi-0.dtd"
   xmlns:inkscape="http://www.inkscape.org/namespaces/inkscape"
   version="1.0"
   width="760.000000pt"
   height="242.000000pt"
   viewBox="0 0 760.000000 242.000000"
   preserveAspectRatio="xMidYMid meet"
   id="svg3765"
   sodipodi:docname="LOGIN_ABHINASH.svg"
   inkscape:version="0.92.4 (5da689c313, 2019-01-14)">
  <defs
     id="defs3769" />
  <sodipodi:namedview
     pagecolor="#ffffff"
     bordercolor="#666666"
     borderopacity="1"
     objecttolerance="10"
     gridtolerance="10"
     guidetolerance="10"
     inkscape:pageopacity="0"
     inkscape:pageshadow="2"
     inkscape:window-width="1536"
     inkscape:window-height="801"
     id="namedview3767"
     showgrid="false"
     inkscape:zoom="1.1210526"
     inkscape:cx="478.99897"
     inkscape:cy="192.12324"
     inkscape:window-x="-8"
     inkscape:window-y="-8"
     inkscape:window-maximized="1"
     inkscape:current-layer="svg3765" />
  <metadata
     id="metadata3759">
Created by potrace 1.15, written by Peter Selinger 2001-2017
<rdf:RDF>
  <cc:Work
     rdf:about="">
    <dc:format>image/svg+xml</dc:format>
    <dc:type
       rdf:resource="http://purl.org/dc/dcmitype/StillImage" />
    <dc:title></dc:title>
  </cc:Work>
</rdf:RDF>
</metadata>
  <g
     transform="matrix(0.10595309,0,0,-0.1,-33.57487,242.66901)"
     id="g3763"
     style="fill:#ffffff;stroke:none">
    <path
       d="m 361,1205 4,-935 h 2889 2889 l 33,35 c 18,19 54,70 80,112 61,100 182,282 234,353 23,30 45,64 49,75 5,11 33,52 63,92 76,103 184,262 214,314 6,10 19,28 29,39 10,11 15,20 11,20 -4,0 14,28 41,62 26,35 53,71 58,82 6,10 13,17 17,15 3,-2 43,48 87,111 44,63 147,207 229,320 l 150,205 -27,17 c -25,17 -215,18 -3540,18 H 358 Z m 6589,887 c 0,-27 -324,-494 -387,-559 -24,-25 -43,-51 -43,-58 0,-8 -10,-21 -22,-30 -13,-8 -22,-19 -21,-23 1,-4 -26,-43 -60,-87 -83,-105 -247,-333 -247,-343 0,-4 -15,-23 -33,-43 -17,-19 -54,-64 -82,-100 -27,-35 -74,-95 -104,-134 -30,-38 -109,-142 -175,-230 l -121,-160 -2616,3 -2616,2 -6,113 c -9,146 -9,1334 0,1510 l 6,137 3256,3 c 1791,1 3259,3 3264,5 4,1 7,-2 7,-6 z"
       id="path3761"
       inkscape:connector-curvature="0"
       style="fill:#ffffff" />
  </g>
  <flowRoot
     xml:space="preserve"
     id="flowRoot3771"
     style="font-style:normal;font-weight:normal;font-size:13.33333302px;line-height:1.25;font-family:sans-serif;letter-spacing:0px;word-spacing:0px;fill:#ffffff;fill-opacity:1;stroke:none;"
     transform="matrix(0.75000002,0,0,0.75000002,-35.457747,10.704226)"><flowRegion
       id="flowRegion3773"
       style="font-size:13.33333302px;fill:#ffffff;"><rect
         id="rect3775"
         width="914.84564"
         height="267.39893"
         x="75.821594"
         y="60.413147"
         style="font-size:13.33333302px;fill:#ffffff;" /></flowRegion><flowPara
       id="flowPara3777"
       style="font-style:normal;font-variant:normal;font-weight:bold;font-stretch:normal;font-size:160px;font-family:sans-serif;-inkscape-font-specification:'sans-serif Bold';fill:#ffffff;">LOGIN</flowPara></flowRoot></svg>
