<?xml version="1.0" encoding="UTF-8" standalone="no"?>
<svg
   xmlns:dc="http://purl.org/dc/elements/1.1/"
   xmlns:cc="http://creativecommons.org/ns#"
   xmlns:rdf="http://www.w3.org/1999/02/22-rdf-syntax-ns#"
   xmlns:svg="http://www.w3.org/2000/svg"
   xmlns="http://www.w3.org/2000/svg"
   xmlns:sodipodi="http://sodipodi.sourceforge.net/DTD/sodipodi-0.dtd"
   xmlns:inkscape="http://www.inkscape.org/namespaces/inkscape"
   height="512pt"
   viewBox="0 -12 512 512"
   width="512pt"
   version="1.1"
   id="svg1040"
   sodipodi:docname="our_vision.svg"
   inkscape:version="0.92.4 (5da689c313, 2019-01-14)">
  <metadata
     id="metadata1046">
    <rdf:RDF>
      <cc:Work
         rdf:about="">
        <dc:format>image/svg+xml</dc:format>
        <dc:type
           rdf:resource="http://purl.org/dc/dcmitype/StillImage" />
        <dc:title></dc:title>
      </cc:Work>
    </rdf:RDF>
  </metadata>
  <defs
     id="defs1044" />
  <sodipodi:namedview
     pagecolor="#ffffff"
     bordercolor="#666666"
     borderopacity="1"
     objecttolerance="10"
     gridtolerance="10"
     guidetolerance="10"
     inkscape:pageopacity="0"
     inkscape:pageshadow="2"
     inkscape:window-width="1920"
     inkscape:window-height="1001"
     id="namedview1042"
     showgrid="false"
     inkscape:zoom="1.1835938"
     inkscape:cx="341.33333"
     inkscape:cy="341.33333"
     inkscape:window-x="-9"
     inkscape:window-y="-9"
     inkscape:window-maximized="1"
     inkscape:current-layer="svg1040" />
  <path
     d="m336.160156 23.53125h-80.160156v48.097656h80.160156l-16.03125-24.050781zm0 0"
     fill="#ff8086"
     id="path1022" />
  <path
     d="m256 23.53125h24.046875v48.097656h-24.046875zm0 0"
     fill="#e5646e"
     id="path1024" />
  <path
     d="m364.507812 238.730469-147.785156-26.390625-64.933594 139.851562v128.257813h336.679688zm0 0"
     fill="#966a5b"
     id="path1026" />
  <path
     d="m216.722656 212.339844-64.933594 139.851562v128.257813h42.324219c14.71875-60.585938 41.4375-175.664063 61.191407-261.21875zm0 0"
     fill="#785353"
     id="path1028" />
  <path
     d="m244.664062 252.679688c6.261719 6.261718 16.410157 6.261718 22.671876 0l14.394531-14.394532c3.378906-3.378906 8.945312-3.070312 11.929687.660156l42.878906 53.601563c7.3125 9.136719 21.628907 7.617187 26.859376-2.847656l13.453124-26.902344-41.464843-80.855469c-4.011719-7.820312-13.574219-10.953125-21.4375-7.023437l-17.867188 8.933593-24.085937-33.714843c-7.140625-10-22.410156-8.578125-27.585938 2.566406l-31.621094 68.101563zm0 0"
     fill="#dbeaff"
     id="path1030" />
  <path
     d="m236.953125 375.226562c-6.695313-7.722656-18.808594-7.292968-24.941406.882813l-5.710938 7.613281c-3.207031 4.273438-9.621093 4.273438-12.828125 0l-51.015625-68.023437c-6.9375-9.25-21.09375-8.335938-26.78125 1.730469l-92.144531 163.019531h304.613281zm0 0"
     fill="#d19a6e"
     id="path1032" />
  <path
     d="m271.375 149.476562c-7.355469-9.171874-21.925781-7.628906-26.964844 3.226563l-31.621094 68.105469 31.875 31.871094c.761719.761718 1.585938 1.421874 2.445313 2 9.5625-41.328126 18.230469-78.945313 24.265625-105.203126zm0 0"
     fill="#c3ddff"
     id="path1034" />
  <path
     d="m149.605469 325.230469-7.148438-9.53125c-6.9375-9.25-21.09375-8.335938-26.78125 1.730469l-92.144531 163.019531h82.417969zm0 0"
     fill="#c38c66"
     id="path1036" />
  <path
     d="m504.5 472.949219h-11.449219l-150.988281-294.429688c-5.863281-11.425781-19.976562-16.050781-31.464844-10.308593l-12.136718 6.070312-20.316407-28.445312c-3.59375-5.027344-8.8125-8.316407-14.644531-9.429688v-57.277344h72.660156c2.769532 0 5.308594-1.523437 6.613282-3.960937 1.304687-2.441407 1.164062-5.398438-.371094-7.699219l-13.257813-19.890625 13.257813-19.886719c1.535156-2.300781 1.675781-5.257812.371094-7.699218-1.304688-2.4375-3.84375-3.960938-6.613282-3.960938h-72.660156v-8.53125c0-4.140625-3.359375-7.5-7.5-7.5s-7.5 3.359375-7.5 7.5v130.929688c-4.722656 2.332031-8.5625 6.21875-10.871094 11.222656l-80.128906 173.605468-9.042969-12.058593c-4.78125-6.378907-12.386719-9.878907-20.34375-9.363281-7.953125.515624-15.046875 4.964843-18.96875 11.902343l-89.988281 159.210938h-11.65625c-4.140625 0-7.5 3.359375-7.5 7.5 0 4.144531 3.359375 7.5 7.5 7.5h497c4.140625 0 7.5-3.355469 7.5-7.5 0-4.140625-3.359375-7.5-7.5-7.5zm-182.351562-441.917969-8.261719 12.390625c-1.679688 2.515625-1.679688 5.800781 0 8.316406l8.261719 12.390625h-58.648438v-33.097656zm-199.945313 290.089844c1.445313-2.554688 3.949219-4.128906 6.878906-4.316406 2.929688-.1875 5.613281 1.046874 7.375 3.394531l22.039063 29.386719c2.488281 3.3125 7.1875 3.984374 10.5 1.5 3.3125-2.484376 3.984375-7.183594 1.5-10.5l-2.769532-3.691407 47.542969-103.003906 24.089844 24.089844c4.445313 4.445312 10.355469 6.894531 16.640625 6.894531s12.195312-2.449219 16.640625-6.894531l14.394531-14.394531c.042969-.042969.164063-.15625.394532-.148438.230468.011719.335937.144531.375.191406l2.410156 3.015625c2.585937 3.234375 7.308594 3.757813 10.542968 1.167969 3.230469-2.585938 3.757813-7.304688 1.167969-10.539062l-2.410156-3.015626c-2.75-3.441406-6.855469-5.554687-11.257813-5.796874-4.40625-.242188-8.710937 1.402343-11.828124 4.519531l-14.398438 14.394531c-1.609375 1.613281-3.753906 2.5-6.03125 2.5s-4.421875-.886719-6.03125-2.5l-28-28 29.277344-63.4375c1.855468-4.023438 5.476562-4.78125 6.945312-4.917969 1.472656-.140625 5.167969-.074219 7.746094 3.535157l24.039062 33.65625c2.148438 3.003906 6.160157 4 9.457032 2.351562l17.871094-8.9375c4.167968-2.082031 9.285156-.40625 11.410156 3.738281l39.730468 77.476563-11.753906 23.507812c-1.328125 2.652344-3.78125 4.355469-6.730468 4.667969-2.953126.3125-5.707032-.835937-7.5625-3.15625l-20.648438-25.808594c-2.589844-3.234375-7.308594-3.761719-10.542969-1.171875-3.234375 2.585938-3.757812 7.308594-1.171875 10.542969l20.648438 25.808594c4.511718 5.636719 11.230468 8.835937 18.339844 8.835937.835937 0 1.675781-.046875 2.515624-.132812 8.023438-.851563 14.964844-5.664063 18.570313-12.878906l6.828125-13.65625 99.253906 193.550781h-144.621094l-88.949218-102.632813c-4.683594-5.402344-11.457032-8.351562-18.613282-8.105468-7.148437.253906-13.707031 3.679687-17.996093 9.398437l-6.125 8.164063-10.660157-14.210938c-2.484374-3.316406-7.183593-3.984375-10.5-1.5-3.3125 2.484375-3.984374 7.1875-1.5 10.5l16.660157 22.210938c1.417969 1.890624 3.640625 3 6 3s4.582031-1.109376 6-3l12.125-16.164063c1.554687-2.074219 3.933593-3.316406 6.523437-3.40625 2.582032-.09375 5.050782.976563 6.75 2.9375l80.4375 92.8125h-275.335937zm0 0"
     id="path1038" />
</svg>
