<?xml version="1.0" encoding="UTF-8" standalone="no"?>
<svg
   xmlns:dc="http://purl.org/dc/elements/1.1/"
   xmlns:cc="http://creativecommons.org/ns#"
   xmlns:rdf="http://www.w3.org/1999/02/22-rdf-syntax-ns#"
   xmlns:svg="http://www.w3.org/2000/svg"
   xmlns="http://www.w3.org/2000/svg"
   xmlns:sodipodi="http://sodipodi.sourceforge.net/DTD/sodipodi-0.dtd"
   xmlns:inkscape="http://www.inkscape.org/namespaces/inkscape"
   id="Capa_1"
   enable-background="new 0 0 512 512"
   height="512"
   viewBox="0 0 512 512"
   width="512"
   version="1.1"
   sodipodi:docname="our_story.svg"
   inkscape:version="0.92.4 (5da689c313, 2019-01-14)">
  <metadata
     id="metadata1132">
    <rdf:RDF>
      <cc:Work
         rdf:about="">
        <dc:format>image/svg+xml</dc:format>
        <dc:type
           rdf:resource="http://purl.org/dc/dcmitype/StillImage" />
        <dc:title></dc:title>
      </cc:Work>
    </rdf:RDF>
  </metadata>
  <defs
     id="defs1130" />
  <sodipodi:namedview
     pagecolor="#ffffff"
     bordercolor="#666666"
     borderopacity="1"
     objecttolerance="10"
     gridtolerance="10"
     guidetolerance="10"
     inkscape:pageopacity="0"
     inkscape:pageshadow="2"
     inkscape:window-width="1920"
     inkscape:window-height="1001"
     id="namedview1128"
     showgrid="false"
     inkscape:zoom="1.84375"
     inkscape:cx="212.01872"
     inkscape:cy="291.25717"
     inkscape:window-x="-9"
     inkscape:window-y="-9"
     inkscape:window-maximized="1"
     inkscape:current-layer="Capa_1" />
  <path
     d="m292.002 473.517h-228.425c-2.631 0-4.765-2.133-4.765-4.765v-456.48c0-2.631 2.133-4.765 4.765-4.765h228.425c2.631 0 4.765 2.133 4.765 4.765v456.481c-.001 2.631-2.134 4.764-4.765 4.764z"
     id="path1091"
     fill="#eedfda" />
  <path
     d="m291.997 7.507h-38.479v419.994c0 2.634-2.135 4.769-4.769 4.769h-189.936v36.477c0 2.634 2.135 4.769 4.769 4.769h228.416c2.634 0 4.769-2.135 4.769-4.769v-456.471c-.001-2.634-2.136-4.769-4.77-4.769z"
     fill="#ded0cb"
     id="path1095" />
  <path
     d="m387.089 404.365c-7.727 0-13.991-6.264-13.991-13.991v-9.113h-80.831v9.113c0 7.727-6.264 13.991-13.991 13.991-16.243 0-29.41 13.167-29.41 29.41v41.307c0 16.243 13.167 29.41 29.41 29.41h108.814c16.243 0 29.41-13.167 29.41-29.41v-41.307c0-16.243-13.168-29.41-29.411-29.41z"
     fill="#304ec7"
     id="path1097" />
  <path
     d="m387.089 404.365c-7.727 0-13.991-6.264-13.991-13.991v-9.113h-42.258v9.113c0 7.727 6.264 13.991 13.991 13.991 16.243 0 29.41 13.167 29.41 29.41v41.307c0 16.243-13.167 29.41-29.41 29.41h42.258c16.243 0 29.41-13.167 29.41-29.41v-41.307c.001-16.243-13.167-29.41-29.41-29.41z"
     fill="#2740ad"
     id="path1099" />
  <path
     d="m381.175 386.919h-96.985c-7.322 0-13.257-5.935-13.257-13.257v-1.753c0-7.322 5.935-13.257 13.257-13.257h96.985c7.322 0 13.257 5.935 13.257 13.257v1.753c0 7.321-5.935 13.257-13.257 13.257z"
     fill="#304ec7"
     id="path1101" />
  <path
     d="m380.299 358.651h-22.067c7.806 0 14.134 6.328 14.134 14.134s-6.328 14.134-14.134 14.134h22.067c7.806 0 14.134-6.328 14.134-14.134-.001-7.806-6.329-14.134-14.134-14.134z"
     fill="#2740ad"
     id="path1103" />
  <path
     d="m441.944 80.956c-20.271-10.506-47.975 31.511-78.623 89.005-.296.555-.359 1.21-.173 1.811l3.632 11.703c.186.598-.217 1.217-.839 1.291l-9.852 1.162c-.773.091-1.452.559-1.81 1.251-.002.004-.004.007-.006.011-36.169 69.787-28.642 116.659-20.813 138.582 2.304 6.452 11.046 7.354 14.577 1.482 14.006-23.291 44.415-74.732 69.803-123.719 11.499-22.188 20.5-41.999 26.544-58.968.485-1.363-.375-2.835-1.797-3.098l-13.121-2.424c-.722-.133-.942-1.062-.355-1.505l18.777-14.178c2.273-1.716 3.768-4.255 4.23-7.065 2.947-17.923-.057-30.097-10.174-35.341z"
     fill="#e0dde2"
     id="path1105" />
  <path
     d="m348.041 327.245c14.008-23.295 44.413-74.73 69.799-123.711 11.496-22.181 20.495-41.987 26.539-58.953.488-1.369-.363-2.848-1.792-3.112l-13.12-2.424c-.722-.133-.942-1.062-.355-1.505l18.776-14.178c2.251-1.7 3.758-4.207 4.218-6.99 2.937-17.777.028-29.906-9.852-35.245l-59.842 104.99c-20.466 35.907-35.269 74.757-43.886 115.178l-5.16 24.204c.037.106.075.215.112.32 2.298 6.428 11.045 7.277 14.563 1.426z"
     fill="#c8c1c9"
     id="path1107" />
  <path
     d="m203.773 129.714h-51.966c-4.146 0-7.507 3.361-7.507 7.507s3.361 7.507 7.507 7.507h51.966c4.146 0 7.507-3.361 7.507-7.507s-3.361-7.507-7.507-7.507z"
     id="path1111" />
  <path
     d="m227.438 187.307h-99.298c-4.146 0-7.507 3.361-7.507 7.507s3.361 7.507 7.507 7.507h99.298c4.146 0 7.507-3.361 7.507-7.507s-3.36-7.507-7.507-7.507z"
     id="path1113" />
  <path
     d="m227.438 216.725h-99.298c-4.146 0-7.507 3.361-7.507 7.507s3.361 7.507 7.507 7.507h99.298c4.146 0 7.507-3.361 7.507-7.507s-3.36-7.507-7.507-7.507z"
     id="path1115" />
  <path
     d="m227.438 246.143h-99.298c-4.146 0-7.507 3.361-7.507 7.507s3.361 7.507 7.507 7.507h99.298c4.146 0 7.507-3.361 7.507-7.507s-3.36-7.507-7.507-7.507z"
     id="path1117" />
  <path
     d="m227.438 311.726h-99.298c-4.146 0-7.507 3.361-7.507 7.507s3.361 7.507 7.507 7.507h99.298c4.146 0 7.507-3.361 7.507-7.507s-3.36-7.507-7.507-7.507z"
     id="path1119" />
  <path
     d="m227.438 341.144h-99.298c-4.146 0-7.507 3.361-7.507 7.507s3.361 7.507 7.507 7.507h99.298c4.146 0 7.507-3.361 7.507-7.507s-3.36-7.507-7.507-7.507z"
     id="path1121" />
  <path
     d="m227.438 370.562h-99.298c-4.146 0-7.507 3.361-7.507 7.507s3.361 7.507 7.507 7.507h99.298c4.146 0 7.507-3.361 7.507-7.507s-3.36-7.507-7.507-7.507z"
     id="path1123" />
  <path
     d="m445.398 74.291c-19.509-10.109-38.471 13.259-44.703 20.937-12.016 14.807-25.997 37.432-43.996 71.197-1.235 2.312-1.497 5.072-.72 7.572l1.313 4.23-2.077.245c-3.245.381-6.08 2.336-7.588 5.23-.006.011-.012.022-.018.033-37.522 72.4-29.4 121.648-21.218 144.56 1.03 2.884 2.813 5.315 5.099 7.099-.343 5.387-.494 10.651-.442 15.75h-26.773v-338.868c-.002-6.769-5.509-12.276-12.278-12.276h-228.415c-6.769 0-12.276 5.507-12.276 12.276v297.039c0 4.146 3.361 7.507 7.507 7.507s7.507-3.361 7.507-7.507v-294.301h222.939v336.13h-5.057c-11.456 0-20.776 9.32-20.776 20.777v1.728c0 11.173 8.871 20.288 19.935 20.734-1.189 1.504-3.024 2.475-5.085 2.475-20.356 0-36.917 16.561-36.917 36.917v32.235h-175.04v-122.602c0-4.146-3.361-7.507-7.507-7.507s-7.507 3.361-7.507 7.507v125.34c0 6.769 5.507 12.276 12.276 12.276h178.262c2.851 17.541 18.1 30.976 36.433 30.976h108.813c20.356 0 36.917-16.561 36.917-36.917v-41.308c0-20.356-16.561-36.917-36.917-36.917-2.061 0-3.897-.97-5.085-2.475 11.066-.446 19.936-9.562 19.936-20.734v-1.728c0-11.457-9.32-20.777-20.777-20.777h-35.1c-.048-4.328.065-8.796.326-13.368 3.31-1.183 6.173-3.481 8.082-6.654 13.561-22.551 39.853-67.068 63.588-111.841 1.942-3.663.547-8.207-3.116-10.149-3.662-1.943-8.208-.546-10.148 3.117-23.571 44.462-49.709 88.714-63.191 111.135-.085.141-.192.317-.549.281-.388-.039-.47-.267-.524-.419-7.272-20.366-14.325-64.184 19.168-130.186l7.122-.84c2.52-.297 4.757-1.688 6.139-3.815s1.743-4.736.991-7.156l-2.995-9.648c17.046-31.848 30.223-53.142 41.398-66.912 6.532-8.049 18.614-20.966 26.136-17.068 6.565 3.402 8.658 12.639 6.22 27.459-.153.937-.631 1.751-1.346 2.29l-18.776 14.178c-2.641 1.995-3.856 5.364-3.095 8.586.76 3.221 3.356 5.691 6.611 6.292l7.109 1.314c-3.995 10.483-9.153 22.256-15.376 35.092-1.808 3.731-.25 8.221 3.481 10.029 3.731 1.81 8.222.251 10.03-3.48 7.613-15.704 13.706-29.934 18.111-42.299.968-2.72.695-5.717-.75-8.22-1.166-2.022-2.992-3.545-5.148-4.336l6.851-5.174c3.806-2.874 6.333-7.078 7.114-11.837 3.609-21.953-1.144-36.496-14.128-43.224zm-58.472 297.63v1.728c0 3.178-2.585 5.763-5.763 5.763h-19.698c-4.146 0-7.507 3.361-7.507 7.507s3.361 7.507 7.507 7.507h4.522c1.902 9.922 10.635 17.446 21.103 17.446 12.077 0 21.902 9.826 21.902 21.903v41.308c0 12.078-9.826 21.903-21.903 21.903h-108.813c-12.078 0-21.903-9.826-21.903-21.903v-41.307c0-12.078 9.826-21.903 21.903-21.903 10.468 0 19.2-7.524 21.102-17.446h25.59c4.146 0 7.507-3.361 7.507-7.507s-3.361-7.507-7.507-7.507h-40.766c-3.178 0-5.762-2.585-5.762-5.763v-1.728c0-3.178 2.584-5.763 5.762-5.763h96.96c3.178-.001 5.764 2.584 5.764 5.762z"
     id="path1125" />
  <rect
     style="fill:#000000;fill-opacity:1;fill-rule:evenodd"
     id="rect2353"
     width="75.932205"
     height="11.932203"
     x="-68.686447"
     y="-132.36208"
     ry="4.8709998"
     transform="rotate(132.04243)" />
  <rect
     transform="matrix(0.67308377,0.73956625,-0.80294187,0.59605734,0,0)"
     ry="3.8785598"
     y="-48.039333"
     x="89.950363"
     height="9.5010815"
     width="59.284527"
     id="rect2355"
     style="fill:#000000;fill-opacity:1;fill-rule:evenodd;stroke-width:0.78846765" />
</svg>
