<?xml version="1.0" encoding="UTF-8" standalone="no"?>
<svg
   xmlns:dc="http://purl.org/dc/elements/1.1/"
   xmlns:cc="http://creativecommons.org/ns#"
   xmlns:rdf="http://www.w3.org/1999/02/22-rdf-syntax-ns#"
   xmlns:svg="http://www.w3.org/2000/svg"
   xmlns="http://www.w3.org/2000/svg"
   xmlns:sodipodi="http://sodipodi.sourceforge.net/DTD/sodipodi-0.dtd"
   xmlns:inkscape="http://www.inkscape.org/namespaces/inkscape"
   id="Filled_Outline"
   height="512"
   viewBox="0 0 128 128"
   width="512"
   data-name="Filled Outline"
   version="1.1"
   sodipodi:docname="out-of-stock2.svg"
   inkscape:version="0.92.4 (5da689c313, 2019-01-14)">
  <metadata
     id="metadata1567">
    <rdf:RDF>
      <cc:Work
         rdf:about="">
        <dc:format>image/svg+xml</dc:format>
        <dc:type
           rdf:resource="http://purl.org/dc/dcmitype/StillImage" />
        <dc:title></dc:title>
      </cc:Work>
    </rdf:RDF>
  </metadata>
  <defs
     id="defs1565" />
  <sodipodi:namedview
     pagecolor="#ffffff"
     bordercolor="#666666"
     borderopacity="1"
     objecttolerance="10"
     gridtolerance="10"
     guidetolerance="10"
     inkscape:pageopacity="0"
     inkscape:pageshadow="2"
     inkscape:window-width="1366"
     inkscape:window-height="705"
     id="namedview1563"
     showgrid="false"
     inkscape:zoom="0.921875"
     inkscape:cx="295.91459"
     inkscape:cy="253.13993"
     inkscape:window-x="-8"
     inkscape:window-y="-8"
     inkscape:window-maximized="1"
     inkscape:current-layer="Filled_Outline" />
  <circle
     cx="64.271187"
     cy="64"
     r="60.223999"
     id="circle1548"
     style="opacity:0.72699998;fill:#ffb52f;fill-opacity:0" />
  <path
     d="m 106.38119,43.81 v 43.46 a 3.359,3.359 0 0 1 -1.8,2.98 l -37.080003,19.54 a 3.355,3.355 0 0 1 -3.14,0 l -37.08,-19.54 a 3.359,3.359 0 0 1 -1.8,-2.98 V 43.81 a 3.359,3.359 0 0 1 1.8,-2.98 l 37.08,-19.54 a 3.355,3.355 0 0 1 3.14,0 l 11.73,6.18 11.79,6.21 13.560003,7.15 a 3.359,3.359 0 0 1 1.8,2.98 z"
     id="path1550"
     style="fill:#ffb52f;fill-opacity:0"
     inkscape:connector-curvature="0" />
  <path
     d="m 91.021187,33.68 -38.87,19.68 a 3.359,3.359 0 0 0 -1.84,3.01 V 73.8 a 1.693,1.693 0 0 1 -2.91,1.17 l -3.33,-3.49 a 1.7,1.7 0 0 0 -1.57,-0.48 l -2.18,0.47 a 1.682,1.682 0 0 1 -2.04,-1.65 V 50.28 a 3.361,3.361 0 0 1 1.85,-3.01 l 39.1,-19.8 z"
     id="path1552"
     style="fill:#ffb52f;fill-opacity:0.96825406"
     inkscape:connector-curvature="0" />
  <g
     id="g1560"
     style="fill:#ffb52f;fill-opacity:1"
     transform="translate(0.27118653)">
    <path
       d="m 106.8,41.129 c -0.009,-0.013 -0.017,-0.027 -0.027,-0.04 a 4.867,4.867 0 0 0 -1.761,-1.59 L 67.931,19.958 a 4.873,4.873 0 0 0 -4.54,0 L 26.311,39.5 a 4.859,4.859 0 0 0 -1.761,1.59 l -0.026,0.037 a 4.854,4.854 0 0 0 -0.813,2.682 v 43.463 a 4.858,4.858 0 0 0 2.6,4.309 l 37.08,19.54 a 4.86,4.86 0 0 0 4.541,0 l 37.08,-19.54 a 4.858,4.858 0 0 0 2.6,-4.309 V 43.808 A 4.851,4.851 0 0 0 106.8,41.129 Z M 87.49,33.656 51.208,52.02 a 4.846,4.846 0 0 0 -2.672,4.345 V 73.8 a 0.185,0.185 0 0 1 -0.318,0.129 L 44.88,70.446 a 3.212,3.212 0 0 0 -2.97,-0.91 l -2.175,0.469 A 0.186,0.186 0 0 1 39.51,69.824 V 50.278 a 1.862,1.862 0 0 1 1.026,-1.669 L 78.959,29.161 Z M 64.79,22.612 a 1.868,1.868 0 0 1 1.744,0 l 9.173,4.834 -36.525,18.487 A 4.848,4.848 0 0 0 38.148,46.64 L 28.481,41.747 Z M 64.162,108.136 27.709,88.927 a 1.866,1.866 0 0 1 -1,-1.655 v -43.06 l 9.922,5.023 a 4.942,4.942 0 0 0 -0.123,1.043 v 19.546 a 3.186,3.186 0 0 0 3.856,3.114 L 42.54,72.47 a 0.183,0.183 0 0 1 0.172,0.051 l 3.337,3.485 a 3.185,3.185 0 0 0 5.485,-2.2 V 56.778 l 11.927,6.036 a 4.8,4.8 0 0 0 0.7,0.28 z m 0.657,-48 -11.5,-5.823 37.424,-18.942 12.1,6.376 -36.336,18.392 a 1.881,1.881 0 0 1 -1.689,0 z m 39.794,27.133 a 1.865,1.865 0 0 1 -1,1.655 L 67.161,108.136 V 63.1 a 4.792,4.792 0 0 0 0.7,-0.281 l 36.75,-18.6 z"
       id="path1554"
       style="fill:#ffb52f;fill-opacity:1"
       inkscape:connector-curvature="0" />
    <path
       d="M 64,125.724 A 61.724,61.724 0 1 1 125.724,64 61.794,61.794 0 0 1 64,125.724 Z M 64,5.276 A 58.724,58.724 0 1 0 122.724,64 58.791,58.791 0 0 0 64,5.276 Z"
       id="path1556"
       style="fill:#ffb52f;fill-opacity:1"
       inkscape:connector-curvature="0" />
    <path
       d="m 21.415,108.085 a 1.5,1.5 0 0 1 -1.061,-2.561 l 85.17,-85.17 a 1.5001271,1.5001271 0 0 1 2.121,2.122 l -85.169,85.17 a 1.5,1.5 0 0 1 -1.061,0.439 z"
       id="path1558"
       style="fill:#ffb52f;fill-opacity:1"
       inkscape:connector-curvature="0" />
  </g>
  <ellipse
     style="opacity:1;fill:#031232;fill-opacity:1;stroke-width:0.25"
     id="path2112"
     cx="205.5591"
     cy="68.06781"
     rx="60.203388"
     ry="60.474575" />
</svg>
