<?xml version="1.0"?>
<svg xmlns="http://www.w3.org/2000/svg" xmlns:xlink="http://www.w3.org/1999/xlink" version="1.1" id="Capa_1" x="0px" y="0px" viewBox="0 0 297.5 297.5" style="enable-background:new 0 0 297.5 297.5;" xml:space="preserve" width="512px" height="512px" class=""><g><g id="XMLID_40_">
	<g>
		<path style="fill:#FDFDFD" d="M59.06,199.4c12.53,0,22.73,10.2,22.73,22.74c0,12.53-10.2,22.73-22.73,22.73    s-22.73-10.2-22.73-22.73C36.33,209.6,46.53,199.4,59.06,199.4z" data-original="#9EA584" class="" data-old_color="#9EA584"/>
		<path d="M297.25,165.86v41.78c0,13.44-10.93,24.38-24.38,24.38h-9.41c-4.46,18.68-21.29,32.61-41.32,32.61    s-36.86-13.93-41.33-32.61h-80.42c-4.47,18.68-21.3,32.61-41.33,32.61S22.2,250.7,17.73,232.02h-7.59c-5.46,0-9.89-4.43-9.89-9.88    V156.9c0-5.45,4.43-9.88,9.89-9.88h12.6V91.67c0-5.46,4.42-9.88,9.88-9.88h22.73V42.75c0-5.46,4.43-9.88,9.89-9.88h65.23    c5.46,0,9.88,4.42,9.88,9.88v39.04h22.98v-6.43c0-5.45,4.43-9.88,9.88-9.88h41.22c18.69,0,34.9,12.66,39.43,30.78l9.38,37.53    l20.53,10.26C292.09,148.21,297.25,156.56,297.25,165.86z M277.49,207.64v-41.78c0-1.76-0.98-3.34-2.56-4.13l-22.51-11.25H183.1    v54.88c6.52-15.12,21.56-25.72,39.04-25.72c20.03,0,36.86,13.93,41.32,32.61h9.41C275.42,212.25,277.49,210.18,277.49,207.64z     M242.1,130.71l-7.42-29.65c-2.33-9.31-10.65-15.81-20.25-15.81H183.1v45.46H242.1z M244.87,222.14    c0-12.54-10.2-22.74-22.73-22.74c-12.54,0-22.73,10.2-22.73,22.74c0,12.53,10.19,22.73,22.73,22.73    C234.67,244.87,244.87,234.67,244.87,222.14z M163.33,212.25v-45.46H20.02v38.57c6.52-15.12,21.56-25.72,39.04-25.72    c20.03,0,36.86,13.93,41.33,32.61H163.33z M163.33,147.02v-45.46h-55.59v45.46H163.33z M120.58,81.79V52.63H75.12v29.16H120.58z     M87.97,147.02v-45.46H42.51v45.46H87.97z M81.79,222.14c0-12.54-10.2-22.74-22.73-22.74s-22.73,10.2-22.73,22.74    c0,12.53,10.2,22.73,22.73,22.73S81.79,234.67,81.79,222.14z" data-original="#000000" class="" style="fill:#000000"/>
		<path style="fill:#FFFFFF" d="M277.49,165.86v41.78c0,2.54-2.07,4.61-4.62,4.61h-9.41c-4.46-18.68-21.29-32.61-41.32-32.61    c-17.48,0-32.52,10.6-39.04,25.72v-54.88h69.32l22.51,11.25C276.51,162.52,277.49,164.1,277.49,165.86z" data-original="#ACAB42" class="active-path" data-old_color="#ACAB42"/>
		<path style="fill:#FDFDFD" d="M234.68,101.06l7.42,29.65h-59V85.25h31.33C224.03,85.25,232.35,91.75,234.68,101.06z" data-original="#9EA584" class="" data-old_color="#9EA584"/>
		<path style="fill:#FDFDFD" d="M222.14,199.4c12.53,0,22.73,10.2,22.73,22.74c0,12.53-10.2,22.73-22.73,22.73    c-12.54,0-22.73-10.2-22.73-22.73C199.41,209.6,209.6,199.4,222.14,199.4z" data-original="#9EA584" class="" data-old_color="#9EA584"/>
		<path style="fill:#FFFFFF" d="M163.33,166.79v45.46h-62.94c-4.47-18.68-21.3-32.61-41.33-32.61c-17.48,0-32.52,10.6-39.04,25.72    v-38.57H163.33z" data-original="#ACAB42" class="active-path" data-old_color="#ACAB42"/>
		<rect x="107.74" y="101.56" style="fill:#FFB52F" width="55.59" height="45.46" data-original="#D5BA2F" class="" data-old_color="#D5BA2F"/>
		<rect x="75.12" y="52.63" style="fill:#FFB52F" width="45.46" height="29.16" data-original="#D5BA2F" class="" data-old_color="#D5BA2F"/>
		<rect x="42.51" y="101.56" style="fill:#FFB52F" width="45.46" height="45.46" data-original="#D5BA2F" class="" data-old_color="#D5BA2F"/>
	</g>
	<g>
	</g>
</g></g> </svg>
