<?xml version="1.0" encoding="UTF-8" standalone="no"?>
<svg
   xmlns:dc="http://purl.org/dc/elements/1.1/"
   xmlns:cc="http://creativecommons.org/ns#"
   xmlns:rdf="http://www.w3.org/1999/02/22-rdf-syntax-ns#"
   xmlns:svg="http://www.w3.org/2000/svg"
   xmlns="http://www.w3.org/2000/svg"
   xmlns:sodipodi="http://sodipodi.sourceforge.net/DTD/sodipodi-0.dtd"
   xmlns:inkscape="http://www.inkscape.org/namespaces/inkscape"
   height="512"
   viewBox="0 0 64 64"
   width="512"
   version="1.1"
   id="svg1674"
   sodipodi:docname="premium.svg"
   inkscape:version="0.92.4 (5da689c313, 2019-01-14)">
  <metadata
     id="metadata1680">
    <rdf:RDF>
      <cc:Work
         rdf:about="">
        <dc:format>image/svg+xml</dc:format>
        <dc:type
           rdf:resource="http://purl.org/dc/dcmitype/StillImage" />
        <dc:title></dc:title>
      </cc:Work>
    </rdf:RDF>
  </metadata>
  <defs
     id="defs1678" />
  <sodipodi:namedview
     pagecolor="#ffffff"
     bordercolor="#666666"
     borderopacity="1"
     objecttolerance="10"
     gridtolerance="10"
     guidetolerance="10"
     inkscape:pageopacity="0"
     inkscape:pageshadow="2"
     inkscape:window-width="1920"
     inkscape:window-height="1001"
     id="namedview1676"
     showgrid="false"
     inkscape:zoom="1.3037281"
     inkscape:cx="151.31063"
     inkscape:cy="304.53107"
     inkscape:window-x="-9"
     inkscape:window-y="-9"
     inkscape:window-maximized="1"
     inkscape:current-layer="svg1674" />
  <g
     id="premium_services"
     data-name="premium services">
    <path
       d="m32 3a29 29 0 1 0 29 29 29 29 0 0 0 -29-29zm12.889 39.047h-25.778l-3.682-16.571c3.682 3.683 14.73 0 16.571-5.524 1.841 5.524 12.889 9.207 16.571 5.524z"
       fill="#4370ff"
       id="path1665" />
    <path
       d="m22.694 48.048h18.612v4h-18.612z"
       id="path1667" />
    <path
       d="m32 1a30.989 30.989 0 0 0 -26.514 47.048h4.814a27.06 27.06 0 1 1 3.635 4h-5.552a30.991 30.991 0 1 0 23.617-51.048z"
       id="path1669" />
    <path
       d="m46.493 44.048 5.521-24.841-4.857 4.855c-2.481 2.474-11.825-.435-13.26-4.742l-1.897-5.694-1.9 5.693c-1.43 4.292-10.775 7.226-13.26 4.743l-4.856-4.855 5.52 24.841zm-14.493-20.312c3.114 3.455 9.178 5.78 13.773 5.109l-2.489 11.2h-22.568l-2.49-11.2c4.555.667 10.633-1.625 13.774-5.109z"
       id="path1671" />
  </g>
  <path
     style="fill:#ffb52f;fill-opacity:1;fill-rule:evenodd;stroke-width:0.76703107"
     d="M 236.22097,470.97297 C 195.8782,467.83553 151.03918,449.38984 119.0663,422.77835 l -7.46923,-6.21674 -11.706547,-0.0548 -11.706551,-0.0548 -5.689506,-6.4203 c -5.907639,-6.66646 -19.239005,-24.05353 -19.239005,-25.09195 0,-0.32642 4.286234,-0.59349 9.524963,-0.59349 h 9.524962 l -5.563914,-8.24558 C 57.203719,347.14625 45.497542,315.35725 41.365559,280.03478 39.070951,260.41919 40.220762,232.39135 44.114715,213.0212 62.286183,122.62875 135.91967,53.517143 227.40011,40.991482 c 13.39645,-1.834265 45.07611,-1.819631 57.91085,0.02675 53.68247,7.722663 100.26132,33.082576 135.2182,73.619708 27.391,31.7635 44.72055,70.62147 50.49913,113.23402 1.58346,11.67677 1.7963,41.14377 0.3795,52.54163 -7.17176,57.69563 -35.61055,108.59971 -81.01357,145.01049 -15.74978,12.63047 -40.14028,26.307 -59.44491,33.33266 -10.05667,3.65999 -28.37352,8.47195 -39.13347,10.28062 -15.17543,2.5509 -37.63039,3.33269 -55.59487,1.93561 z m 93.96131,-70.51902 V 384.3463 h -74.40202 -74.40201 v 16.10765 16.10766 h 74.40201 74.40202 z m 63.60887,-146.31117 c 11.96564,-53.89353 21.92766,-98.50597 22.13781,-99.13877 0.21015,-0.6328 -8.91508,8.07012 -20.27828,19.33984 -22.03877,21.85743 -23.05307,22.62346 -32.34348,24.42681 -7.06849,1.37205 -21.71072,0.49795 -31.20734,-1.863 -20.9301,-5.20341 -37.90315,-14.10327 -49.96165,-26.19748 -7.9454,-7.96893 -9.50143,-11.2229 -18.77929,-39.2713 -3.93833,-11.90616 -7.38411,-21.39817 -7.65731,-21.09336 -0.27319,0.30481 -3.86679,10.73654 -7.98577,23.18162 -4.11898,12.44508 -8.17984,24.00807 -9.02413,25.69554 -7.38428,14.75891 -29.13661,29.45617 -53.87802,36.40344 -11.10476,3.11816 -18.96266,4.11725 -28.9841,3.68521 -14.74419,-0.63566 -14.25399,-0.3236 -38.69019,-24.63007 -11.49588,-11.43484 -20.901602,-20.44848 -20.901602,-20.03031 0,0.59443 41.639992,188.68844 43.335802,195.75423 l 0.41419,1.72582 h 116.02382 116.02381 z"
     id="path2229"
     inkscape:connector-curvature="0"
     transform="scale(0.125)" />
</svg>
