<?xml version="1.0" encoding="UTF-8" standalone="no"?>
<!-- Generator: Adobe Illustrator 19.0.0, SVG Export Plug-In . SVG Version: 6.00 Build 0)  -->

<svg
   xmlns:dc="http://purl.org/dc/elements/1.1/"
   xmlns:cc="http://creativecommons.org/ns#"
   xmlns:rdf="http://www.w3.org/1999/02/22-rdf-syntax-ns#"
   xmlns:svg="http://www.w3.org/2000/svg"
   xmlns="http://www.w3.org/2000/svg"
   xmlns:sodipodi="http://sodipodi.sourceforge.net/DTD/sodipodi-0.dtd"
   xmlns:inkscape="http://www.inkscape.org/namespaces/inkscape"
   version="1.1"
   id="Layer_1"
   x="0px"
   y="0px"
   viewBox="0 0 512 512"
   style="enable-background:new 0 0 512 512;"
   xml:space="preserve"
   sodipodi:docname="repair.svg"
   inkscape:version="0.92.4 (5da689c313, 2019-01-14)"><metadata
   id="metadata5130"><rdf:RDF><cc:Work
       rdf:about=""><dc:format>image/svg+xml</dc:format><dc:type
         rdf:resource="http://purl.org/dc/dcmitype/StillImage" /><dc:title></dc:title></cc:Work></rdf:RDF></metadata><defs
   id="defs5128" /><sodipodi:namedview
   pagecolor="#ffffff"
   bordercolor="#666666"
   borderopacity="1"
   objecttolerance="10"
   gridtolerance="10"
   guidetolerance="10"
   inkscape:pageopacity="0"
   inkscape:pageshadow="2"
   inkscape:window-width="1920"
   inkscape:window-height="1001"
   id="namedview5126"
   showgrid="false"
   inkscape:zoom="1.3037281"
   inkscape:cx="193.08762"
   inkscape:cy="281.00139"
   inkscape:window-x="-9"
   inkscape:window-y="-9"
   inkscape:window-maximized="1"
   inkscape:current-layer="Layer_1" />
<path
   style="fill:#E6E6E6;"
   d="M467.141,414.1c0,54.073-94.53,97.9-211.136,97.9c-116.617,0-211.147-43.827-211.147-97.9  c0-8.755,2.477-17.247,7.128-25.33h0.01c16.418-28.522,59.92-51.9,116.953-63.888h174.112  C416.24,340.261,467.141,374.419,467.141,414.1z"
   id="path5085" />
<path
   style="fill:#CCCCCC;"
   d="M256.006,411.938c0,0-145.947-49.412-204.009-23.168c16.418-28.522,59.92-51.9,116.953-63.888h41.948  L256.006,411.938z"
   id="path5087" />
<path
   style="fill:#E24260;"
   d="M376.656,49.976L376.656,49.976c-66.635-66.635-174.672-66.635-241.307,0l0,0  c-66.635,66.635-66.635,174.672,0,241.306l120.653,120.653l120.653-120.653C443.291,224.647,443.291,116.611,376.656,49.976z"
   id="path5089" />
<circle
   style="fill:#E6E6E6;"
   cx="256.003"
   cy="170.626"
   r="108.124"
   id="circle5091" />
<path
   style="fill:#49618C;"
   d="M331.032,172.899c0,29.383-16.89,54.818-41.497,67.132v33.393v0.011  c-21.751,7.086-45.307,7.086-67.058,0v-0.011V240.03c-24.606-12.314-41.507-37.749-41.507-67.132  c0-29.844,17.415-55.616,42.641-67.709v67.331l64.78-0.01l0.011-67.32C313.616,117.283,331.032,143.054,331.032,172.899z"
   id="path5093" />
<g
   id="g5095">
</g>
<g
   id="g5097">
</g>
<g
   id="g5099">
</g>
<g
   id="g5101">
</g>
<g
   id="g5103">
</g>
<g
   id="g5105">
</g>
<g
   id="g5107">
</g>
<g
   id="g5109">
</g>
<g
   id="g5111">
</g>
<g
   id="g5113">
</g>
<g
   id="g5115">
</g>
<g
   id="g5117">
</g>
<g
   id="g5119">
</g>
<g
   id="g5121">
</g>
<g
   id="g5123">
</g>
<path
   style="fill:#122135;fill-opacity:1;stroke-width:0.76703107"
   d="M 192.26899,347.88014 C 157.22932,312.74632 126.36679,281.23914 123.6856,277.8642 103.8873,252.94319 91.600772,224.35699 87.268521,193.13517 85.85249,182.93007 85.632987,159.80062 86.864256,150.53704 90.147377,125.83614 98.469119,101.80989 110.62944,81.922992 133.47069,44.568624 171.41111,16.480723 213.41395,5.8299893 229.88506,1.65338 235.26213,1.0378159 255.60066,1.0004802 c 14.6268,-0.0268506 20.59242,0.2692041 26.9136,1.3356374 37.65195,6.352181 69.84348,23.2355324 96.0774,50.3892864 25.47688,26.370174 40.92072,58.221796 46.12407,95.127036 1.46315,10.37752 1.67956,32.40594 0.41822,42.57022 -4.01288,32.33689 -16.13081,61.19397 -36.55822,87.05803 -2.83211,3.58587 -33.82531,35.26563 -68.87376,70.39945 l -63.72447,63.87969 z m 87.10963,-71.44016 c 43.34464,-10.12431 74.93578,-42.9045 83.26679,-86.40083 1.90268,-9.93391 1.92727,-29.17784 0.0495,-38.70725 -6.82275,-34.62389 -28.51962,-63.133926 -59.5383,-78.23427 -15.10392,-7.352812 -29.82687,-10.640626 -47.55592,-10.619818 -13.14723,0.01543 -22.34093,1.50635 -34.67203,5.622677 -30.91432,10.31971 -56.1222,35.415821 -67.24957,66.951421 -4.27249,12.10846 -5.70681,20.86445 -5.74063,35.04443 -0.0546,22.90042 5.31104,41.35516 17.31557,59.55543 17.60472,26.69083 45.14763,44.17118 76.5401,48.57685 8.98322,1.26072 28.5074,0.33157 37.58452,-1.78864 z"
   id="path5132"
   inkscape:connector-curvature="0" /><path
   style="fill:#122135;fill-opacity:1;stroke-width:0.76703107"
   d="M 199.18311,353.99204 C 167.94465,322.66841 137.9036,292.38027 132.42521,286.68506 114.70936,268.26805 101.49827,245.77119 93.759475,220.84207 85.682299,194.82293 84.092237,163.11556 89.560678,137.114 94.873409,111.85281 105.10413,88.786478 119.66882,69.23175 c 6.31385,-8.477057 20.68095,-23.410902 28.931,-30.072255 24.66348,-19.914086 57.31257,-33.9644054 86.23553,-37.1108858 11.14504,-1.21245028 43.03723,-0.5094051 50.92473,1.1226067 38.55499,7.9774581 66.61197,23.1822801 92.80453,50.2932181 28.22737,29.217106 44.022,65.083896 46.69113,106.027166 3.1434,48.21879 -13.17102,93.19459 -46.35814,127.80071 -8.48443,8.84719 -122.5383,123.65179 -122.84321,123.65179 -0.0407,0 -25.63282,-25.62843 -56.87128,-56.95206 z m 70.06258,-75.79278 c 46.00845,-5.03731 84.25315,-40.75498 93.51356,-87.33464 1.8621,-9.36631 1.8413,-31.77808 -0.0378,-40.71109 -9.30133,-44.21799 -43.8835,-78.480939 -87.17802,-86.373295 -9.90405,-1.805457 -30.07226,-1.814722 -39.3256,-0.01807 -14.14093,2.745642 -28.46924,8.60715 -40.82914,16.702612 -8.45056,5.534919 -23.36433,20.589213 -29.39601,29.672993 -8.21825,12.37676 -14.70269,28.14647 -17.08511,41.54981 -1.48286,8.34248 -1.28791,30.03783 0.35125,39.0886 5.8999,32.57677 28.1453,61.79489 58.71905,77.12423 18.99169,9.52223 38.4644,12.79551 61.26779,10.29884 z"
   id="path5134"
   inkscape:connector-curvature="0" /><path
   style="fill:#ffb530;fill-opacity:1;stroke-width:0.76703107"
   d="m 193.76872,348.83606 c -33.98806,-34.15941 -64.38967,-65.0742 -67.55915,-68.69953 -19.99881,-22.87512 -34.83483,-56.74947 -38.779456,-88.5432 -1.424071,-11.47802 -1.024816,-36.93712 0.741895,-47.30807 6.554869,-38.47839 23.370731,-70.480891 50.677581,-96.445179 22.25188,-21.157856 47.92938,-35.122009 78.33842,-42.6026594 13.72552,-3.376491 22.6823,-4.1239358 44.30642,-3.6973774 21.51207,0.424348 29.38314,1.7179691 48.29643,7.9375907 53.6218,17.6334881 96.45572,63.3504051 110.43103,117.8637451 4.38611,17.10887 4.98398,22.32024 4.99301,43.52199 0.009,20.76835 -0.48539,25.24907 -4.57535,41.47964 -6.28498,24.94134 -20.5387,52.213 -36.1301,69.1278 -9.0807,9.85146 -127.65365,129.47329 -128.33803,129.47329 -0.33344,0 -28.41465,-27.94862 -62.4027,-62.10804 z m 82.98968,-71.7445 c 11.88,-2.29632 26.59572,-8.10149 36.95682,-14.579 6.54026,-4.08881 15.83078,-11.79758 21.40139,-17.7577 13.17514,-14.09639 21.69522,-30.02512 26.62226,-49.77171 1.93564,-7.75765 2.09632,-9.59054 2.11456,-24.11978 0.0212,-16.86474 -0.36035,-19.69505 -4.34264,-32.21531 -5.57673,-17.53322 -13.96808,-31.22052 -27.33625,-44.58868 -16.559,-16.558997 -35.86159,-26.748653 -57.27755,-30.236275 -11.33588,-1.846064 -30.0272,-1.674703 -39.99728,0.366694 -33.55357,6.870171 -61.67713,28.745037 -76.58484,59.568671 -7.52475,15.55842 -10.32868,27.94173 -10.32868,45.61581 0,17.79749 2.1184,29.53223 7.70039,42.65577 14.42726,33.91927 46.69639,59.89926 81.27522,65.43495 3.164,0.50653 6.27048,1.04766 6.90328,1.20252 2.88941,0.70708 27.07745,-0.45178 32.89332,-1.57596 z"
   id="path5679"
   inkscape:connector-curvature="0" /><path
   style="fill:#ffb530;fill-opacity:1;stroke-width:0.76703107"
   d="m 241.18047,277.40782 c -2.5312,-0.35906 -7.62237,-1.39109 -11.31371,-2.2934 l -6.71152,-1.64056 v -16.71563 -16.71562 l -4.02691,-2.27935 c -18.34542,-10.38403 -32.00585,-29.09169 -36.24861,-49.64169 -1.50361,-7.28282 -1.71996,-21.82183 -0.42231,-28.38015 4.13179,-20.88209 15.77325,-38.23329 33.22422,-49.51957 l 7.0901,-4.58546 0.38351,33.57228 0.38352,33.57228 32.40706,0.20008 32.40706,0.20008 v -33.77328 -33.77328 l 3.25989,1.64308 c 14.1462,7.13015 28.56283,23.74129 34.2531,39.46715 5.1347,14.19042 6.03325,30.72293 2.43643,44.82843 -4.69492,18.41191 -18.49213,36.59777 -34.87897,45.97338 l -4.30342,2.46216 v 16.75448 16.75449 l -6.99324,1.64182 c -12.6979,2.98111 -29.33876,3.89483 -40.9462,2.24828 z"
   id="path5681"
   inkscape:connector-curvature="0" /><path
   style="fill:#001232;fill-opacity:0;stroke-width:0.76703107"
   d="m 245.01563,277.39166 c -3.79681,-0.3548 -10.18234,-1.43845 -14.19008,-2.40811 l -7.28679,-1.76302 -0.20644,-17.04569 c -0.11353,-9.37514 -0.5007,-17.04571 -0.86037,-17.04571 -0.35967,0 -3.3576,-1.76496 -6.66208,-3.92215 -11.17861,-7.29748 -20.34542,-17.57915 -26.25103,-29.4437 -4.28955,-8.61781 -6.24033,-15.50959 -7.23407,-25.55674 -2.7587,-27.89151 9.31963,-53.1691 33.16016,-69.39776 l 6.51976,-4.43811 0.46956,15.56342 c 0.25826,8.55989 0.51713,23.58849 0.57527,33.3969 l 0.10572,17.83347 h 32.59882 32.59882 v -33.44791 c 0,-37.93339 -0.78054,-34.50067 6.81853,-29.98668 5.11917,3.04088 15.164,12.35761 19.75256,18.32078 4.93794,6.41723 9.8343,16.04649 12.21409,24.02046 2.687,9.00331 3.45665,25.72079 1.62937,35.39098 -3.71594,19.66517 -18.70952,40.5214 -35.97121,50.03631 l -3.6542,2.01425 -0.011,16.91205 -0.0111,16.91203 -8.27125,1.70581 c -6.48901,1.33825 -26.57792,3.50386 -28.54624,3.07732 -0.21094,-0.0457 -3.48999,-0.37339 -7.2868,-0.7282 z"
   id="path5685"
   inkscape:connector-curvature="0" /><path
   style="fill:#001232;fill-opacity:1;stroke-width:0.76703107"
   d="m 245.01563,277.39166 c -3.79681,-0.3548 -10.18234,-1.43845 -14.19008,-2.40811 l -7.28679,-1.76302 -0.20644,-17.04569 c -0.11353,-9.37514 -0.5007,-17.04571 -0.86037,-17.04571 -0.35967,0 -3.3576,-1.76496 -6.66208,-3.92215 -11.17861,-7.29748 -20.34542,-17.57915 -26.25103,-29.4437 -4.28955,-8.61781 -6.24033,-15.50959 -7.23407,-25.55674 -2.7587,-27.89151 9.31963,-53.1691 33.16016,-69.39776 l 6.51976,-4.43811 0.46956,15.56342 c 0.25826,8.55989 0.51713,23.58849 0.57527,33.3969 l 0.10572,17.83347 h 32.59882 32.59882 v -33.44791 c 0,-37.93339 -0.78054,-34.50067 6.81853,-29.98668 5.11917,3.04088 15.164,12.35761 19.75256,18.32078 4.93794,6.41723 9.8343,16.04649 12.21409,24.02046 2.687,9.00331 3.45665,25.72079 1.62937,35.39098 -3.71594,19.66517 -18.70952,40.5214 -35.97121,50.03631 l -3.6542,2.01425 -0.011,16.91205 -0.0111,16.91203 -8.27125,1.70581 c -6.48901,1.33825 -26.57792,3.50386 -28.54624,3.07732 -0.21094,-0.0457 -3.48999,-0.37339 -7.2868,-0.7282 z"
   id="path5687"
   inkscape:connector-curvature="0" /><path
   style="fill:#001232;fill-opacity:1;stroke-width:0.76703107"
   d="m 235.76741,511.42735 c -91.10037,-4.2708 -166.25002,-35.03391 -185.505727,-75.93826 -3.680135,-7.8176 -5.057654,-13.66711 -5.057654,-21.47687 0,-7.45916 1.364463,-13.58444 4.551641,-20.43299 2.079764,-4.46896 2.420186,-4.79548 6.681952,-6.40893 31.704252,-12.00288 96.492118,-5.39999 177.311268,18.07078 9.41238,2.73346 18.21406,5.44109 19.55929,6.01697 l 2.44588,1.04705 43.82592,-43.7369 43.82592,-43.7369 12.93438,3.2742 c 78.19262,19.79363 120.91931,59.24579 108.40485,100.0968 -11.50509,37.55604 -70.88484,69.16064 -149.77031,79.71455 -24.88356,3.32913 -54.79666,4.65488 -79.20741,3.5105 z"
   id="path5689"
   inkscape:connector-curvature="0" /><path
   style="fill:#000810;fill-opacity:1;stroke-width:0.76703107"
   d="m 248.08375,409.29204 c -25.50788,-8.30765 -64.46091,-17.83501 -92.0222,-22.50732 -25.17764,-4.26823 -36.18962,-5.28354 -57.54886,-5.30602 -20.70847,-0.0218 -27.409124,0.74626 -39.213037,4.49469 -3.286798,1.04376 -6.067371,1.80636 -6.179052,1.69468 -0.67602,-0.67602 6.384576,-9.53695 12.012526,-15.07553 19.293128,-18.98673 53.214153,-35.45337 92.585563,-44.94477 l 11.25325,-2.71286 11.99714,12.13159 c 6.59843,6.67238 25.75495,26.02445 42.57005,43.0046 16.8151,16.98015 30.25204,30.83854 29.85986,30.79641 -0.39218,-0.0421 -2.78404,-0.75109 -5.31524,-1.57547 z"
   id="path5691"
   inkscape:connector-curvature="0" /></svg>