<?xml version="1.0"?>
<svg xmlns="http://www.w3.org/2000/svg" id="Layer_1" data-name="Layer 1" viewBox="0 0 512 512" width="512px" height="512px" class=""><g><title>Save Coins</title><path d="M394.27,206.05,347.5,186.28a47.322,47.322,0,0,0-15.12-25.92l-2.79-2.44,28.4-5.22L496,205.2a41.911,41.911,0,0,1-55.41,20.43Z" style="fill:#e2d574" data-original="#E2D574" class=""/><path d="M394.27,206.05l70.66,88.31a49.467,49.467,0,0,1-60.45-11.58l-42.37-49.27-7.44-8.52-6.96-37.64c-.07-.36-.14-.71-.21-1.07Z" style="fill:#e2d574" data-original="#E2D574" class=""/><path d="M458.95,92.6a41.866,41.866,0,0,1-34.56,47.89l-66.4,12.21-28.4,5.22-33.88-29.73-.01-.01Z" style="fill:#e2d574" data-original="#E2D574" class=""/><path d="M295.7,128.18l.01.01,33.88,29.73,2.79,2.44a47.322,47.322,0,0,1,15.12,25.92c.07.36.14.71.21,1.07l6.96,37.64,23.15,125.1a70.992,70.992,0,0,1-50.88-52.58l-13.83-59.67a48.932,48.932,0,0,0-47.64-37.89c-.92,0-1.85.03-2.78.08a48.983,48.983,0,0,0-40.14,25.31q-4.185,21.57-6.66,43.42l-5.16,45.79a57.514,57.514,0,0,1-52.93,50.93l10.37-106.46a71.09,71.09,0,0,1-59.59-34.44l-.05-.08L86.1,221.75l-2.21-.44L107.78,101.8l1.05.21h30.51l2.82-.91a58.869,58.869,0,0,1,28.73-1.85l104.48,19.3A40.99,40.99,0,0,1,295.7,128.18Z" style="fill:#f8ec7d" data-original="#F8EC7D" class=""/><path d="M276.96,333.31a53.21,53.21,0,1,1-53.21,53.21A53.2,53.2,0,0,1,276.96,333.31Z" style="fill:#F7F6F3" data-original="#6FE3FF" class="active-path" data-old_color="#6FE3FF"/><path d="M222.1,331.66a77.557,77.557,0,0,1,109.71,0h.01a77.353,77.353,0,0,1,22.73,54.86,78.27,78.27,0,0,1-1.58,15.64,77.6,77.6,0,1,1-130.88-70.5Zm108.06,54.86a53.205,53.205,0,1,0-53.2,53.21A53.2,53.2,0,0,0,330.16,386.52Z" style="fill:#0C0C0C" data-original="#E48E66" class="" data-old_color="#E48E66"/><path d="M116.13,60.02l-8.35,41.78L83.89,221.31,76.65,257.5,16,245.37,55.48,47.89ZM89.4,92.6a11.32,11.32,0,1,0-11.32,11.33A11.322,11.322,0,0,0,89.4,92.6Z" style="fill:#0C0C0C" data-original="#E48E66" class="" data-old_color="#E48E66"/><path d="M297.273,364a6.016,6.016,0,0,0,.064-12.032l-30.094-.081L255.18,352h-.066a5.794,5.794,0,0,0-6,5.688,5.9,5.9,0,0,0,5.936,5.941l12.063.067a12.249,12.249,0,0,1,10.414,6.373L254.985,370h-.065a5.83,5.83,0,0,0-6,5.732,5.915,5.915,0,0,0,5.935,5.963l22.542.285A12.127,12.127,0,0,1,266.987,388H254.728a5.829,5.829,0,0,0-4.168,10.077L280.4,426.851a6.012,6.012,0,0,0,8.335-8.667l-19.167-18.509a24.164,24.164,0,0,0,20.657-17.724l6.786.049h.065a5.983,5.983,0,0,0,.064-11.966l-6.764-.067a23.8,23.8,0,0,0-2.443-6.091l9.271.124Z" style="fill:#F4B844" data-original="#2561A1" class="" data-old_color="#2561A1"/><path d="M276.96,470.11a6,6,0,0,1-6-6v-8.06a6,6,0,0,1,12,0v8.06A6,6,0,0,1,276.96,470.11Z" style="fill:#F7F6F3" data-original="#6FE3FF" class="active-path" data-old_color="#6FE3FF"/><path d="M276.96,322.99a6,6,0,0,1-6-6v-8.06a6,6,0,0,1,12,0v8.06A6,6,0,0,1,276.96,322.99Z" style="fill:#F7F6F3" data-original="#6FE3FF" class="active-path" data-old_color="#6FE3FF"/><path d="M354.55,392.52h-8.07a6,6,0,0,1,0-12h8.07a6,6,0,0,1,0,12Z" style="fill:#F7F6F3" data-original="#6FE3FF" class="active-path" data-old_color="#6FE3FF"/><path d="M207.43,392.52h-8.06a6,6,0,0,1,0-12h8.06a6,6,0,1,1,0,12Z" style="fill:#F7F6F3" data-original="#6FE3FF" class="active-path" data-old_color="#6FE3FF"/><path d="M326.12,343.35a6,6,0,0,1-4.243-10.243l5.689-5.69a6,6,0,0,1,10.254,4.233v.01a5.983,5.983,0,0,1-1.976,4.451l-5.481,5.482A5.986,5.986,0,0,1,326.12,343.35Z" style="fill:#F7F6F3" data-original="#6FE3FF" class="active-path" data-old_color="#6FE3FF"/><path d="M222.09,447.38a6,6,0,0,1-4.242-10.243l5.7-5.7a6,6,0,1,1,8.484,8.485l-5.7,5.7A5.982,5.982,0,0,1,222.09,447.38Z" style="fill:#F7F6F3" data-original="#6FE3FF" class="active-path" data-old_color="#6FE3FF"/><path d="M227.79,343.35a5.978,5.978,0,0,1-4.242-1.757l-5.554-5.553a6,6,0,1,1,8.348-8.623l5.69,5.69a6,6,0,0,1-4.242,10.243Z" style="fill:#F7F6F3" data-original="#6FE3FF" class="active-path" data-old_color="#6FE3FF"/><path d="M331.82,447.38a5.982,5.982,0,0,1-4.242-1.757l-5.7-5.7a6,6,0,1,1,8.484-8.485l5.7,5.7a6,6,0,0,1-4.242,10.243Z" style="fill:#F7F6F3" data-original="#6FE3FF" class="active-path" data-old_color="#6FE3FF"/></g> </svg>
