<?xml version="1.0" encoding="UTF-8" standalone="no"?>
<!-- Generator: Adobe Illustrator 19.0.0, SVG Export Plug-In . SVG Version: 6.00 Build 0)  -->

<svg
   xmlns:dc="http://purl.org/dc/elements/1.1/"
   xmlns:cc="http://creativecommons.org/ns#"
   xmlns:rdf="http://www.w3.org/1999/02/22-rdf-syntax-ns#"
   xmlns:svg="http://www.w3.org/2000/svg"
   xmlns="http://www.w3.org/2000/svg"
   xmlns:sodipodi="http://sodipodi.sourceforge.net/DTD/sodipodi-0.dtd"
   xmlns:inkscape="http://www.inkscape.org/namespaces/inkscape"
   version="1.1"
   id="Capa_1"
   x="0px"
   y="0px"
   viewBox="0 0 512 512"
   style="enable-background:new 0 0 512 512;"
   xml:space="preserve"
   sodipodi:docname="sell_4done.svg"
   inkscape:version="0.92.4 (5da689c313, 2019-01-14)"><metadata
   id="metadata2629"><rdf:RDF><cc:Work
       rdf:about=""><dc:format>image/svg+xml</dc:format><dc:type
         rdf:resource="http://purl.org/dc/dcmitype/StillImage" /><dc:title></dc:title></cc:Work></rdf:RDF></metadata><defs
   id="defs2627" /><sodipodi:namedview
   pagecolor="#ffffff"
   bordercolor="#666666"
   borderopacity="1"
   objecttolerance="10"
   gridtolerance="10"
   guidetolerance="10"
   inkscape:pageopacity="0"
   inkscape:pageshadow="2"
   inkscape:window-width="1920"
   inkscape:window-height="1001"
   id="namedview2625"
   showgrid="false"
   inkscape:zoom="1.3037281"
   inkscape:cx="349.33905"
   inkscape:cy="274.3034"
   inkscape:window-x="-9"
   inkscape:window-y="-9"
   inkscape:window-maximized="1"
   inkscape:current-layer="Capa_1" />
<g
   id="g2586">
	<path
   style="fill:#FCC69D;"
   d="M55.958,302.922l-3.768-3.768c-56.251-56.251-56.251-147.452,0-203.703l0,0   c56.251-56.251,147.452-56.251,203.703,0l0.184,0.184l0.189,0.189l60.605,85.11l112.725,112.724   c10.812,10.812,10.812,28.342,0,39.154l0,0c-10.812,10.812-28.342,10.812-39.154,0l-41.627-41.627l41.627,41.627   c10.812,10.812,10.812,28.342,0,39.155l0,0c-10.812,10.812-28.342,10.812-39.154,0l-41.627-41.627l41.627,41.627   c10.812,10.812,10.812,28.342,0,39.154l0,0c-10.812,10.812-28.342,10.812-39.154,0l-41.627-41.627l-0.354,0.354l41.627,41.627   c10.812,10.812,10.812,28.342,0,39.154l0,0c-10.812,10.812-28.342,10.812-39.155,0l-23.634-23.634L55.958,302.922z"
   id="path2574" />
	<path
   style="fill:#FCC69D;"
   d="M353.386,155.424l-8.167,8.167c-11.068,11.068-26.08,17.287-41.733,17.287h-39.396l-30.16,30.16   c-12.876,12.876-33.753,12.876-46.629,0l0,0c-12.876-12.876-12.876-33.753,0-46.629l68.854-68.854   c56.251-56.251,147.452-56.251,203.703,0l0,0c56.251,56.251,56.251,147.452,0,203.703l-19.394,19.394l-4.748-15.729   l-117.88-117.879"
   id="path2576" />
	<path
   style="fill:#FCC69D;"
   d="M203.705,389.339l-17.235,17.235c-10.812,10.812-10.812,28.342,0,39.154l0,0   c10.812,10.812,28.342,10.812,39.154,0l17.235-17.235c10.812-10.812,10.812-28.342,0-39.154l0,0   C232.048,378.527,214.518,378.527,203.705,389.339z"
   id="path2578" />
	<path
   style="fill:#FCC69D;"
   d="M164.551,350.186l-17.235,17.235c-10.812,10.812-10.812,28.342,0,39.155l0,0   c10.812,10.812,28.342,10.812,39.154,0l17.235-17.235c10.812-10.812,10.812-28.342,0-39.154l0,0   C192.893,339.374,175.363,339.374,164.551,350.186z"
   id="path2580" />
	<path
   style="fill:#FCC69D;"
   d="M125.397,311.031l-17.235,17.235c-10.812,10.812-10.812,28.342,0,39.154l0,0   c10.812,10.812,28.342,10.812,39.154,0l17.235-17.235c10.812-10.812,10.812-28.342,0-39.154l0,0   C153.739,300.219,136.209,300.219,125.397,311.031z"
   id="path2582" />
	<path
   style="fill:#FCC69D;"
   d="M86.243,271.877l-17.235,17.235c-10.812,10.812-10.812,28.342,0,39.154l0,0   c10.812,10.812,28.342,10.812,39.154,0l17.235-17.235c10.812-10.812,10.812-28.342,0-39.155l0,0   C114.585,261.064,97.055,261.064,86.243,271.877z"
   id="path2584" />
</g>
<path
   d="M460.689,85.169c-2.64,0-5.21,1.061-7.081,2.931c-1.859,1.859-2.92,4.43-2.92,7.07c0,2.63,1.061,5.21,2.92,7.071  c1.87,1.86,4.44,2.93,7.081,2.93c2.63,0,5.201-1.069,7.071-2.93c1.86-1.86,2.92-4.44,2.92-7.071c0-2.64-1.06-5.21-2.92-7.07  C465.89,86.23,463.319,85.169,460.689,85.169z"
   id="path2588" />
<path
   d="M231.001,320.695c-2.64,0-5.21,1.061-7.081,2.931c-1.859,1.859-2.92,4.43-2.92,7.07c0,2.63,1.061,5.21,2.92,7.071  c1.87,1.86,4.44,2.93,7.081,2.93c2.63,0,5.2-1.069,7.071-2.93c1.86-1.86,2.92-4.44,2.92-7.071c0-2.64-1.06-5.21-2.92-7.07  C236.202,321.756,233.631,320.695,231.001,320.695z"
   id="path2590" />
<path
   d="M491.983,121.313c-2.73-4.802-8.838-6.48-13.637-3.75c-4.801,2.73-6.48,8.836-3.749,13.637  c29.706,52.238,20.738,118.438-21.81,160.985l-7.583,7.583c-1.832-4.807-4.67-9.316-8.537-13.182L333.911,183.831  c6.72-3.306,12.929-7.717,18.38-13.168l19.708-19.709c3.905-3.905,3.905-10.238,0-14.143c-3.906-3.905-10.237-3.905-14.144,0  l-19.708,19.709c-9.259,9.258-21.568,14.357-34.661,14.357h-39.397c-2.652,0-5.195,1.054-7.072,2.929l-30.16,30.16  c-8.956,8.957-23.529,8.957-32.485,0c-8.957-8.956-8.957-23.529,0-32.485l68.855-68.855C305.307,60.546,371,51.292,422.975,80.122  c4.83,2.677,10.918,0.936,13.597-3.895c2.679-4.83,0.935-10.918-3.895-13.597c-28.668-15.899-62.444-22.262-95.112-17.911  c-30.572,4.071-58.555,16.872-81.493,37.184C227.893,56.922,192.02,43.261,154.04,43.261c-41.146,0-79.828,16.023-108.923,45.117  S0,156.157,0,197.302s16.023,79.828,45.117,108.923l3.769,3.769c0.656,0.655,1.384,1.191,2.153,1.626  c0.669,8.652,4.294,17.116,10.897,23.718c7.349,7.348,16.997,11.02,26.648,11.02c0.501,0,1.003-0.016,1.504-0.036  c-0.02,0.506-0.037,1.012-0.037,1.521c0,10.066,3.92,19.53,11.038,26.648c7.349,7.348,16.997,11.021,26.648,11.02  c0.501,0,1.003-0.016,1.504-0.036c-0.02,0.506-0.037,1.012-0.037,1.521c0,10.066,3.92,19.53,11.039,26.648  c7.348,7.347,16.998,11.02,26.648,11.02c0.507,0,1.014-0.016,1.521-0.036c-0.406,10.151,3.251,20.437,10.984,28.171  c7.119,7.118,16.583,11.038,26.648,11.038c10.067,0,19.531-3.92,26.648-11.038l13.977-13.978l18.879,18.877  c7.118,7.119,16.582,11.039,26.648,11.039c10.066,0,19.53-3.92,26.648-11.038c7.826-7.826,11.482-18.267,10.972-28.537  c0.628,0.031,1.258,0.049,1.887,0.049c9.651,0,19.303-3.673,26.65-11.021c7.729-7.729,11.386-18.007,10.984-28.153  c0.506,0.02,1.012,0.037,1.521,0.037c10.066,0,19.53-3.92,26.648-11.038c7.729-7.729,11.386-18.007,10.984-28.153  c0.506,0.02,1.012,0.037,1.521,0.037c10.066,0,19.53-3.92,26.648-11.038c3.615-3.615,6.337-7.791,8.173-12.248  c0.973-0.474,1.888-1.105,2.697-1.913l19.394-19.394C515.824,257.436,526.126,181.354,491.983,121.313z M88.585,326.374  c-4.724,0-9.165-1.839-12.506-5.18c-3.34-3.34-5.179-7.781-5.179-12.505c0-4.723,1.839-9.165,5.18-12.505l17.234-17.234  c3.34-3.341,7.782-5.18,12.506-5.18c4.723,0,9.165,1.839,12.505,5.18c6.896,6.896,6.896,18.115,0,25.01l-17.234,17.235  C97.75,324.534,93.31,326.374,88.585,326.374z M115.235,360.349c-3.341-3.34-5.18-7.782-5.18-12.505  c0-4.724,1.839-9.165,5.18-12.505l17.235-17.235c0,0,0,0,0-0.001c3.34-3.34,7.781-5.179,12.505-5.179  c4.723,0,9.165,1.839,12.505,5.18c6.896,6.896,6.896,18.115,0,25.01l-17.234,17.235  C133.349,367.243,122.127,367.243,115.235,360.349z M154.388,399.502c-3.341-3.34-5.18-7.782-5.18-12.505  c0-4.724,1.839-9.165,5.18-12.505l17.235-17.235c0,0,0,0,0-0.001c3.34-3.34,7.781-5.179,12.505-5.179  c4.723,0,9.165,1.839,12.505,5.179c6.896,6.897,6.896,18.116,0,25.011l-17.235,17.235  C172.503,406.398,161.284,406.398,154.388,399.502z M218.553,438.658c-3.34,3.34-7.781,5.179-12.505,5.179  c-4.723,0-9.165-1.839-12.505-5.179c-6.896-6.897-6.896-18.116,0-25.011l17.235-17.235c0,0,0,0,0-0.001  c3.34-3.34,7.781-5.179,12.505-5.179c4.723,0,9.165,1.839,12.505,5.18c3.341,3.34,5.18,7.782,5.18,12.505  c0,4.724-1.839,9.165-5.18,12.505L218.553,438.658z M422.523,325.739c-3.34,3.341-7.782,5.18-12.505,5.18  c-4.724,0-9.165-1.839-12.505-5.18l-41.627-41.627c-0.002-0.002-0.003-0.003-0.005-0.005l-39.15-39.15  c-3.906-3.905-10.237-3.905-14.144,0c-3.905,3.905-3.905,10.238,0,14.143l80.782,80.78c6.896,6.897,6.896,18.116,0,25.011  c-3.34,3.341-7.782,5.18-12.505,5.18c-4.724,0-9.165-1.839-12.505-5.18l-80.782-80.781c-3.906-3.904-10.237-3.904-14.144,0  c-3.905,3.905-3.905,10.238,0,14.144l39.146,39.145c0.003,0.003,0.006,0.007,0.009,0.01l41.628,41.626  c6.896,6.897,6.896,18.117,0.001,25.012c-6.897,6.896-18.118,6.896-25.011,0l-41.628-41.628c-0.77-0.769-1.635-1.381-2.556-1.847  l-11.873-11.873c-3.906-3.904-10.237-3.904-14.144,0c-3.905,3.905-3.905,10.238,0,14.144l55.702,55.7  c6.896,6.897,6.896,18.116,0,25.011c-3.34,3.341-7.782,5.18-12.505,5.18c-4.724,0-9.165-1.839-12.505-5.18l-21.196-21.195  c1.615-4.237,2.469-8.774,2.469-13.444c0-10.066-3.92-19.53-11.038-26.648c-7.119-7.118-16.583-11.038-26.648-11.038  c-0.509,0-1.015,0.017-1.521,0.037c0.401-10.146-3.255-20.424-10.984-28.153c-7.119-7.118-16.583-11.038-26.648-11.038  c-0.509,0-1.015,0.017-1.521,0.037c0.402-10.146-3.255-20.424-10.984-28.153c-7.119-7.118-16.583-11.038-26.648-11.038  c-0.509,0-1.015,0.017-1.521,0.037c0.402-10.146-3.255-20.424-10.984-28.153c-14.694-14.694-38.605-14.693-53.299,0l-17.234,17.234  c-2.174,2.174-4.017,4.553-5.549,7.071c-23.491-24.951-36.385-57.388-36.385-91.81c0-35.803,13.942-69.464,39.26-94.78  c25.316-25.316,58.978-39.259,94.78-39.259c32.536,0,63.302,11.516,87.644,32.618l-61.457,61.457  c-8.116,8.117-12.586,18.908-12.586,30.386c0,11.479,4.47,22.27,12.586,30.387c8.378,8.377,19.383,12.566,30.387,12.566  c11.004,0,22.009-4.188,30.387-12.566l27.232-27.232h35.253c2.911,0,5.79-0.199,8.634-0.552l110.403,110.401  C429.418,307.625,429.418,318.845,422.523,325.739z"
   id="path2592" />
<g
   id="g2594">
</g>
<g
   id="g2596">
</g>
<g
   id="g2598">
</g>
<g
   id="g2600">
</g>
<g
   id="g2602">
</g>
<g
   id="g2604">
</g>
<g
   id="g2606">
</g>
<g
   id="g2608">
</g>
<g
   id="g2610">
</g>
<g
   id="g2612">
</g>
<g
   id="g2614">
</g>
<g
   id="g2616">
</g>
<g
   id="g2618">
</g>
<g
   id="g2620">
</g>
<g
   id="g2622">
</g>
<path
   style="fill:#ffb52f;fill-opacity:0.79104477;stroke-width:0.76703107"
   d="m 285.67547,447.1121 c -1.49261,-0.64005 -7.99224,-6.44129 -14.63845,-13.06556 l -11.95384,-11.91437 1.02364,-3.94626 c 5.22708,-20.15091 -7.70691,-41.32229 -28.19492,-46.15166 -2.70287,-0.63711 -6.03609,-1.16348 -7.40716,-1.16972 -2.37194,-0.0108 -2.49285,-0.15232 -2.49285,-2.91831 0,-4.33559 -2.03561,-11.3359 -4.81787,-16.56831 -5.42844,-10.2089 -16.22199,-17.55198 -28.14619,-19.14847 l -6.15453,-0.82401 v -2.74238 c 0,-7.6712 -4.80184,-18.40481 -11.08844,-24.78608 -6.2664,-6.36079 -17.19865,-11.26095 -25.12317,-11.26095 -2.85326,0 -2.90697,-0.0537 -2.90697,-2.90697 0,-4.31042 -2.03138,-11.32936 -4.7611,-16.45085 -7.91483,-14.84972 -26.10197,-22.82603 -42.379444,-18.58629 -8.602973,2.24079 -13.058806,5.32658 -25.431375,17.61199 -6.37612,6.3312 -12.365409,12.54676 -13.309531,13.81236 l -1.716586,2.30109 -2.69898,-3.06812 C 18.27834,245.31559 10.48254,187.83838 33.687914,139.42224 54.400038,96.208065 97.103645,67.206173 144.54175,64.136537 c 33.83474,-2.189387 66.69346,7.803959 91.85056,27.934576 l 4.74507,3.796984 -33.18994,33.368083 c -29.32684,29.48423 -33.47373,33.94838 -35.62807,38.35378 -3.30404,6.75641 -4.76669,12.95013 -4.76669,20.18499 0,11.24546 3.70806,20.75799 11.28946,28.96163 8.66256,9.37354 19.07676,13.97785 31.66428,13.99934 8.55323,0.0146 14.21662,-1.41615 21.47687,-5.42579 3.73649,-2.06355 8.92555,-6.6457 20.70984,-18.28757 l 15.72414,-15.53411 22.06506,-0.25202 22.06506,-0.25203 56.306,56.37679 56.306,56.37678 1.30105,4.54188 c 1.09123,3.80938 1.15715,5.18494 0.40874,8.52918 -1.05226,4.702 -4.92703,9.64471 -9.31622,11.88391 -3.86143,1.96995 -10.74536,1.98602 -14.90525,0.0347 -2.06859,-0.97029 -16.56182,-14.97445 -44.4878,-42.98657 -22.78083,-22.8511 -42.35174,-42.04283 -43.49093,-42.64831 -3.11011,-1.65304 -8.45468,-1.40698 -10.88016,0.50091 -3.13706,2.46761 -4.53699,5.79622 -4.0933,9.73261 0.37663,3.3415 1.24583,4.27309 43.35788,46.47002 42.22187,42.30698 42.99554,43.1366 44.23136,47.42947 2.45667,8.53379 -1.27324,16.78536 -9.45489,20.91679 -3.33167,1.68236 -10.70129,1.67574 -14.06935,-0.0127 -1.39287,-0.69819 -21.68909,-20.36762 -45.10272,-43.7098 -29.07343,-28.98472 -43.25367,-42.60818 -44.72588,-42.96975 -8.50624,-2.08908 -15.31771,4.72238 -13.22862,13.22862 0.36157,1.47222 13.98503,15.65246 42.96975,44.72589 23.34217,23.41362 43.04926,43.7783 43.79352,45.25483 2.82875,5.61193 1.39342,13.51121 -3.39255,18.67075 -4.71993,5.08836 -13.61059,6.88658 -19.36149,3.91604 -1.4317,-0.73952 -15.82015,-14.37558 -31.97435,-30.30237 -16.15419,-15.92678 -30.53066,-29.50797 -31.94771,-30.1804 -8.11558,-3.8511 -16.32286,2.5679 -14.66505,11.46968 0.50425,2.70767 3.79318,6.27147 30.75891,33.32958 20.38356,20.45341 30.58009,31.22431 31.38169,33.14946 4.56172,10.95558 -4.19995,23.67935 -16.23791,23.58082 -2.01742,-0.0165 -4.87611,-0.54806 -6.35264,-1.18121 z M 235.89046,339.7512 c 9.53336,-4.9299 4.85658,-20.55584 -5.75834,-19.23959 -8.4095,1.04278 -12.18086,10.2592 -6.80997,16.64215 3.27048,3.88674 8.13213,4.89147 12.56831,2.59744 z"
   id="path5132"
   inkscape:connector-curvature="0" /><path
   style="fill:#ffb52f;fill-opacity:0.79104477;stroke-width:0.76703107"
   d="m 287.44758,447.51983 c -2.4613,-0.75495 -14.03274,-10.82018 -23.19611,-20.17675 l -4.93284,-5.03683 0.90593,-3.92466 c 3.00226,-13.00654 -0.62008,-25.98539 -9.96995,-35.72232 -6.55862,-6.8301 -13.98733,-10.45071 -24.02405,-11.70885 l -3.83516,-0.48074 -0.50871,-4.61053 c -1.89555,-17.17987 -15.22474,-30.95906 -32.53472,-33.63312 l -6.07515,-0.9385 -0.50871,-4.57875 c -1.96165,-17.6563 -16.33763,-32.01884 -33.99935,-33.96756 l -4.61053,-0.50871 -0.50871,-4.61053 c -1.39359,-12.63044 -9.41915,-24.21539 -20.67711,-29.84752 -12.52575,-6.26637 -26.300703,-5.53406 -37.956325,2.01784 -2.064921,1.3379 -9.506931,8.19144 -16.537802,15.23008 l -12.7834,12.79753 -4.091284,-4.93556 C 21.759939,246.88222 12.843846,198.07866 28.052262,153.97259 35.200156,133.24292 45.956315,116.49514 62.072029,101.00241 95.296859,69.061958 142.25185,56.834426 187.71272,68.28436 c 17.69275,4.456156 38.13655,14.736521 50.02331,25.15471 l 3.06812,2.689068 -32.24028,32.471022 c -17.73216,17.85907 -33.21657,33.92554 -34.40981,35.70329 -5.81897,8.66932 -8.2004,23.4636 -5.46794,33.96875 2.62372,10.08709 9.63486,19.82682 18.51566,25.72157 13.62695,9.04505 33.1381,9.11564 46.77984,0.16925 2.06493,-1.35419 10.68804,-9.28686 19.16248,-17.62814 l 15.40807,-15.16596 h 22.18858 22.18857 l 56.1072,56.18503 c 60.94243,61.02697 57.76787,57.391 57.76119,66.15643 -0.004,5.40444 -3.36224,11.1022 -8.22967,13.96338 -3.0398,1.78686 -4.49884,2.13724 -8.75333,2.10207 -4.21502,-0.0348 -5.64925,-0.40206 -8.22313,-2.10537 -1.71471,-1.13474 -21.68031,-20.4777 -44.36802,-42.98435 -22.6877,-22.50665 -42.00429,-41.31988 -42.92576,-41.80716 -2.76555,-1.46246 -8.21132,-1.09153 -10.50898,0.71581 -3.90483,3.07154 -5.43401,8.62675 -3.42627,12.44695 0.48428,0.92147 19.20943,20.15609 41.61143,42.74362 22.40201,22.58751 41.75238,42.55727 43.00083,44.37722 4.66258,6.79697 3.11424,17.17427 -3.315,22.21788 -3.88394,3.04688 -7.9591,4.21457 -12.92123,3.70243 -5.367,-0.55393 -4.40599,0.30512 -50.48522,-45.12891 -46.11243,-45.46678 -43.21401,-42.84312 -47.3261,-42.83952 -6.22,0.005 -10.56382,4.4231 -10.56382,10.74339 0,3.87214 -2.64,0.9679 42.84638,47.13488 19.13591,19.42222 37.07019,37.84881 39.85397,40.94796 4.92176,5.47935 5.06943,5.76506 5.35194,10.35492 0.3986,6.47571 -2.47142,12.1081 -7.87096,15.44668 -3.2516,2.0105 -4.4609,2.31294 -9.24824,2.31294 h -5.50751 l -4.90791,-4.33908 c -2.69936,-2.3865 -15.608,-14.75601 -28.68588,-27.48781 -30.59252,-29.78294 -30.9232,-30.06667 -35.5008,-30.46038 -7.96321,-0.6849 -13.37131,7.35278 -9.71049,14.43203 0.65675,1.27002 13.9154,15.25622 29.46365,31.08045 15.54825,15.82422 29.24893,30.18456 30.44594,31.91185 1.81544,2.61967 2.17639,3.92465 2.17639,7.86844 0,3.92397 -0.39473,5.36638 -2.32138,8.48265 -4.07069,6.5842 -12.49351,10.06552 -19.30096,7.97748 z M 235.89046,339.7512 c 9.53336,-4.9299 4.85658,-20.55584 -5.75834,-19.23959 -8.4095,1.04278 -12.18086,10.2592 -6.80997,16.64215 3.27048,3.88674 8.13213,4.89147 12.56831,2.59744 z"
   id="path5134"
   inkscape:connector-curvature="0" /><path
   style="fill:#ffb52f;fill-opacity:0.79104477;stroke-width:0.76703107"
   d="m 287.50936,447.4932 c -2.25879,-0.65524 -16.08563,-12.71972 -24.3851,-21.27701 l -3.75895,-3.87572 0.88258,-4.3947 c 2.7772,-13.82866 -0.80544,-25.94541 -10.53884,-35.64322 -6.1987,-6.17604 -12.64514,-9.49912 -21.1774,-10.91677 l -6.13625,-1.01955 -0.56712,-4.51423 c -1.19146,-9.48409 -4.97089,-16.96498 -11.7968,-23.35029 -5.91123,-5.52965 -12.68885,-8.8792 -20.70533,-10.2327 l -6.04933,-1.02137 -0.56822,-4.52306 c -2.00094,-15.9276 -13.35962,-28.96165 -28.72723,-32.9644 -2.41599,-0.62929 -5.5391,-1.14416 -6.94024,-1.14416 -2.83229,0 -2.76168,0.12962 -3.87122,-7.10679 -1.13727,-7.41717 -4.63616,-14.33754 -10.15446,-20.08428 -12.82929,-13.36038 -32.74674,-15.6813 -47.980296,-5.59102 -2.054432,1.3608 -9.524834,8.21056 -16.600894,15.22169 l -12.865563,12.74751 -4.251827,-5.2624 C 37.290216,265.18021 28.014578,245.70946 23.230215,223.58322 21.701189,216.51194 21.486778,213.33037 21.472708,197.50417 21.458517,181.54272 21.65692,178.5674 23.205574,171.51745 31.716438,132.77343 53.141187,102.48677 86.014953,82.728244 116.39673,64.467511 153.75875,59.363457 188.85583,68.679072 c 18.0948,4.802799 36.91776,14.3302 48.8802,24.741123 l 3.06812,2.670194 -32.22213,32.489901 c -17.72218,17.86945 -33.34911,34.20108 -34.72652,36.29252 -3.34234,5.07495 -5.57708,12.46073 -6.09234,20.13498 -0.8605,12.81639 3.15969,23.51898 12.32459,32.81068 8.78481,8.90637 18.16389,12.81218 30.62855,12.75492 8.01414,-0.0368 14.39495,-1.47873 20.01333,-4.52256 4.43032,-2.40018 15.25924,-12.06153 28.47128,-25.4015 l 9.19238,-9.28141 h 22.31624 22.31624 l 55.96399,56.18503 c 60.36375,60.60215 57.84332,57.7303 57.80258,65.8619 -0.0297,5.92951 -3.96152,12.13477 -9.5551,15.08003 -1.43078,0.75337 -4.26779,1.22661 -7.41715,1.23725 -4.37862,0.0148 -5.5482,-0.29331 -8.26757,-2.17783 -1.74211,-1.20728 -20.85151,-19.65833 -42.46534,-41.00233 -21.61382,-21.34399 -40.76152,-40.10163 -42.55044,-41.68363 -2.67915,-2.36928 -3.82689,-2.87437 -6.51024,-2.86506 -4.16152,0.0144 -6.60305,1.27016 -8.79563,4.52372 -2.24578,3.33252 -2.28581,7.57737 -0.0991,10.51039 0.90735,1.21703 15.68344,16.3645 32.83577,33.66105 47.34956,47.74771 51.95545,52.66082 52.99821,56.53333 2.82494,10.49105 -4.11717,20.90525 -14.60736,21.91322 -7.83487,0.75284 -6.28367,2.078 -61.75438,-52.75595 -35.4447,-35.03782 -35.71634,-35.27914 -39.70823,-35.27561 -6.17562,0.005 -10.53231,4.43791 -10.53231,10.71547 0,3.73457 0.39361,4.17451 36.04604,40.28922 38.13341,38.62787 49.64167,50.65876 51.03445,53.35209 1.55069,2.99871 1.2273,9.86309 -0.63426,13.46294 -2.61557,5.05797 -7.44002,8.45121 -13.12334,9.23019 -7.84388,1.07513 -4.07768,4.14424 -54.49537,-44.40888 -8.65395,-8.3339 -16.86185,-15.83993 -18.23978,-16.68006 -8.54891,-5.2123 -18.90158,4.97972 -13.70853,13.49582 0.79588,1.30517 10.54745,11.66009 21.67015,23.01093 36.05696,36.79652 38.85278,39.84563 39.8162,43.42352 2.24739,8.34617 -3.17721,17.61118 -11.8127,20.17565 -4.28345,1.27204 -5.9135,1.32626 -9.40694,0.31288 z M 236.43988,339.38526 c 5.88223,-3.58631 6.20528,-11.56301 0.67739,-16.72614 -5.85042,-5.46438 -16.36189,-0.31101 -16.18351,7.93415 0.1746,8.06964 8.73231,12.92186 15.50612,8.79199 z"
   id="path5136"
   inkscape:connector-curvature="0" /><path
   style="fill:#ffb52f;fill-opacity:0.79104477;stroke-width:0.76703107"
   d="m 442.94869,294.40021 c -1.94415,-3.50104 -13.9421,-15.94705 -55.40264,-57.47164 l -52.92109,-53.00285 3.71364,-2.15713 c 6.46409,-3.75476 11.82505,-8.35801 23.81067,-20.44529 13.75057,-13.8672 14.84736,-15.87054 11.98792,-21.89637 -2.26176,-4.76632 -8.91695,-7.09171 -13.53486,-4.72922 -0.92146,0.47141 -7.19802,6.28559 -13.94789,12.92038 -12.55385,12.33981 -16.8749,15.80257 -23.22431,18.61121 -8.27912,3.66226 -10.09603,3.87301 -37.52745,4.35312 l -26.23536,0.45918 -17.48541,17.35582 c -20.20354,20.05381 -22.53671,21.66902 -31.29197,21.66291 -7.08776,-0.005 -12.30593,-2.2674 -16.82667,-7.29556 -4.01949,-4.47063 -5.80339,-9.26211 -5.79326,-15.5604 0.0148,-9.18943 0.0183,-9.19375 40.11031,-49.39579 19.91099,-19.96562 39.30827,-38.926689 43.10507,-42.1357 20.12913,-17.012883 44.69298,-27.677931 71.20723,-30.916507 10.73898,-1.311709 31.71251,-0.516959 41.46504,1.571234 11.40073,2.441106 21.23449,5.78163 32.14715,10.920377 11.19148,5.270044 14.20488,5.553197 18.2147,1.711544 l 2.16994,-2.078932 4.83952,3.473235 c 2.66173,1.910281 6.18392,4.645714 7.82707,6.078742 2.63311,2.296378 2.88337,2.800199 2.10934,4.246495 -1.35382,2.529637 -1.03782,7.223412 0.67549,10.033582 1.92418,3.15603 6.16537,5.05089 9.89772,4.42205 1.50625,-0.25377 3.42154,-0.54317 4.2562,-0.64311 1.10169,-0.13191 2.83749,1.56424 6.33414,6.18944 l 4.81658,6.37114 -1.99284,2.61276 c -3.46587,4.54399 -3.2591,7.33189 1.21605,16.3957 9.32408,18.88467 13.15057,32.67038 14.51377,52.28888 2.76093,39.734 -12.28866,78.0687 -41.93495,106.81773 l -3.81729,3.70176 z"
   id="path5138"
   inkscape:connector-curvature="0" /><path
   style="fill:#ffb52f;fill-opacity:0.79104477;stroke-width:0.76703107"
   d="m 442.96654,294.31966 c -1.87461,-3.18443 -17.05663,-18.90706 -55.34272,-57.31339 l -52.75944,-52.92515 5.48491,-3.45164 c 6.30187,-3.96574 29.49409,-26.11612 32.8839,-31.40668 2.49401,-3.89247 2.70186,-6.00717 0.95271,-9.69323 -2.2516,-4.74489 -9.01978,-7.15562 -13.58357,-4.83827 -0.92146,0.46789 -5.29962,4.37541 -9.72922,8.68338 -14.45681,14.05981 -19.7484,18.55388 -25.2515,21.44567 -8.3425,4.38386 -12.63397,4.96963 -40.71317,5.55716 l -24.92851,0.5216 -16.61871,16.23301 c -9.14028,8.92816 -18.58926,17.58932 -20.99773,19.24702 -4.31099,2.96717 -4.4878,3.01401 -11.37794,3.01401 -6.31516,0 -7.3978,-0.22097 -11.08222,-2.26194 -6.91814,-3.83228 -10.5855,-9.75698 -11.39315,-18.4059 -0.70762,-7.57777 1.16317,-10.74053 15.22391,-25.73754 18.51859,-19.7517 66.18191,-66.145218 73.96846,-71.997871 26.06789,-19.593581 58.03174,-28.836141 90.89705,-26.283485 17.50513,1.359626 29.66581,4.605875 47.86683,12.77787 11.09008,4.979286 13.69102,5.252278 17.57241,1.84438 l 2.68083,-2.353809 5.59144,4.224493 c 9.88096,7.465359 9.0804,6.349325 8.59968,11.988592 -0.35804,4.200152 -0.17266,5.38575 1.17654,7.52471 2.17372,3.44612 6.15446,5.02234 11.11777,4.40222 3.68827,-0.46082 4.01636,-0.35366 6.24212,2.03893 3.6145,3.88539 7.21899,8.78063 7.21899,9.80408 0,0.50696 -0.7115,1.92096 -1.58111,3.14221 -3.16318,4.44228 -2.87538,6.43582 2.70833,18.76054 5.76383,12.72226 8.85399,21.60244 10.66464,30.6469 7.35465,36.73752 -0.0231,73.16844 -21.04779,103.9328 -4.08711,5.98048 -15.54178,19.47488 -20.00214,23.56394 l -1.85833,1.70364 z"
   id="path5140"
   inkscape:connector-curvature="0" /><path
   style="fill:#ffb52f;fill-opacity:0.79104477;stroke-width:0.76703107"
   d="m 442.56105,293.91461 c -2.08014,-3.24996 -19.57002,-21.35396 -55.37747,-57.32192 l -52.33709,-52.57169 3.21936,-1.95229 c 9.02465,-5.47275 34.35164,-29.74277 36.50762,-34.98405 2.57102,-6.2503 -2.70657,-13.24407 -9.99416,-13.24407 -3.45418,0 -4.65529,0.88273 -15.95275,11.72434 -14.11786,13.5482 -18.68208,17.23982 -24.98305,20.20668 -7.42161,3.49452 -11.64253,3.98639 -39.39794,4.59103 l -24.26564,0.52862 -14.95711,14.59712 c -23.99574,23.41823 -26.08156,24.8129 -36.05046,24.1051 -11.49629,-0.81625 -19.33584,-8.80648 -20.46087,-20.85414 -0.70167,-7.51405 1.16727,-10.62992 15.70262,-26.17911 12.56319,-13.4395 59.63352,-59.81172 68.42183,-67.407068 25.14504,-21.731754 60.83982,-33.092301 95.57021,-30.417055 17.75207,1.367423 27.25898,3.792677 45.56987,11.625062 14.8205,6.33939 15.9894,6.485628 20.62987,2.580935 l 2.34571,-1.973788 4.80844,3.629235 c 2.64464,1.996079 5.91251,4.66055 7.26194,5.921046 2.35684,2.201524 2.43795,2.476248 2.05865,6.973428 -0.32629,3.868756 -0.11677,5.122462 1.2067,7.220625 2.18917,3.47062 6.14915,5.023 11.20255,4.39162 l 3.97767,-0.49697 3.48475,3.98359 c 1.91662,2.19098 4.08613,5.10028 4.82113,6.46511 1.30762,2.42811 1.29665,2.53727 -0.51005,5.07208 -2.94951,4.13818 -2.44851,7.1986 3.31206,20.23227 5.88356,13.31194 7.86211,18.94912 9.82632,27.99664 6.60565,30.42688 1.98198,64.41731 -12.41625,91.2767 -6.24952,11.65826 -17.85398,27.1374 -26.84991,35.81499 l -3.33415,3.21617 z"
   id="path5142"
   inkscape:connector-curvature="0" /><path
   style="fill:#ffb52f;fill-opacity:0.79104477;stroke-width:0.76703107"
   d="m 85.480355,325.60644 c -5.386165,-1.00489 -9.962661,-4.58714 -12.645151,-9.89796 -1.845064,-3.65289 -1.728871,-10.55034 0.241629,-14.34356 2.166986,-4.17146 22.809949,-24.5018 26.377203,-25.97775 13.553694,-5.60781 28.038754,8.87725 22.430944,22.43095 -1.42538,3.44504 -21.76323,24.19885 -25.66619,26.19112 -3.294186,1.68153 -7.184796,2.2602 -10.738435,1.5972 z"
   id="path5144"
   inkscape:connector-curvature="0" /><path
   style="fill:#ffb52f;fill-opacity:0.79104477;stroke-width:0.76703107"
   d="m 81.013012,323.60432 c -5.275308,-2.6288 -8.530215,-7.2638 -9.121049,-12.98843 -0.733689,-7.10876 0.882572,-9.91288 12.355797,-21.43659 5.529399,-5.55372 11.581483,-11.10812 13.449077,-12.3431 7.341133,-4.85444 17.576073,-2.07611 22.663153,6.15206 1.92531,3.11411 2.32137,4.55976 2.32137,8.47308 0,3.87211 -0.38127,5.29449 -2.12583,7.9307 -3.6493,5.51447 -21.486489,22.96527 -25.192505,24.64679 -4.705895,2.13519 -9.483606,1.99052 -14.350013,-0.43451 z"
   id="path5146"
   inkscape:connector-curvature="0" /><path
   style="fill:#ffb52f;fill-opacity:0.79104477;stroke-width:0.76703107"
   d="m 82.028715,324.15141 c -8.900438,-4.09979 -12.725665,-13.88124 -8.689284,-22.21929 1.775413,-3.66752 17.769663,-20.31146 23.525017,-24.48062 6.255172,-4.53122 14.597322,-3.78913 20.364132,1.81151 3.99258,3.87756 5.3194,6.89464 5.39079,12.25825 0.0519,3.89591 -0.29496,5.19741 -2.11983,7.95515 -3.46051,5.22956 -21.362601,22.61827 -25.197088,24.47451 -4.174075,2.02063 -9.158834,2.09592 -13.273737,0.20049 z"
   id="path5148"
   inkscape:connector-curvature="0" /><path
   style="fill:#ffb52f;fill-opacity:0.79104477;stroke-width:0.76703107"
   d="m 124.21542,364.78325 c -5.27036,-1.32085 -9.70447,-4.88994 -12.18493,-9.80786 -1.74813,-3.46595 -1.62783,-11.04227 0.23249,-14.64224 0.80883,-1.56519 6.59033,-7.90198 12.84777,-14.08174 12.0358,-11.88638 13.70443,-12.9326 20.58155,-12.90442 6.04113,0.0247 12.76807,4.80974 15.30174,10.88443 1.62936,3.90651 1.46447,9.50718 -0.40098,13.61966 -1.91739,4.22699 -20.39287,22.90692 -24.87217,25.1474 -3.68911,1.84524 -8.36806,2.57105 -11.50547,1.78477 z"
   id="path5150"
   inkscape:connector-curvature="0" /><path
   style="fill:#ffb52f;fill-opacity:0.79104477;stroke-width:0.76703107"
   d="m 119.45641,362.41309 c -5.67,-3.25183 -8.28938,-7.87545 -8.25467,-14.57083 0.0168,-3.24911 0.49567,-5.86254 1.37469,-7.50309 1.77074,-3.30478 19.88537,-21.53906 24.23899,-24.3991 7.35822,-4.83385 17.58224,-2.05172 22.66316,6.16703 1.94878,3.15231 2.31142,4.50326 2.25937,8.41707 -0.0783,5.88597 -1.01587,7.64144 -8.63513,16.16754 -7.19535,8.05174 -16.00027,15.72497 -19.51656,17.00809 -4.62949,1.68935 -9.75444,1.22265 -14.12985,-1.28671 z"
   id="path5152"
   inkscape:connector-curvature="0" /><path
   style="fill:#ffb52f;fill-opacity:0.79104477;stroke-width:0.76703107"
   d="m 163.33401,403.88533 c -5.23283,-1.27392 -9.69915,-4.86289 -12.18493,-9.79136 -1.74342,-3.45661 -1.62731,-11.03902 0.22422,-14.64223 0.80428,-1.5652 6.59414,-7.89924 12.86635,-14.07565 8.91404,-8.7779 12.06985,-11.41469 14.45356,-12.07646 6.42977,-1.78505 12.00706,-0.57681 16.64677,3.60629 3.93032,3.54353 5.92838,7.85644 5.92838,12.79673 0,6.48182 -2.11207,9.7324 -14.02621,21.58708 -9.74671,9.69805 -11.34311,10.97933 -15.05197,12.08074 -4.4632,1.32543 -5.32166,1.37534 -8.85617,0.51486 z"
   id="path5154"
   inkscape:connector-curvature="0" /><path
   style="fill:#ffb52f;fill-opacity:0.79104477;stroke-width:0.76703107"
   d="m 163.97217,403.83639 c -4.4923,-1.01386 -9.31308,-4.46491 -11.54797,-8.26683 -1.7505,-2.9779 -2.12512,-4.51076 -2.10387,-8.60871 0.0171,-3.30966 0.49435,-5.86112 1.41951,-7.58978 1.79835,-3.36021 21.88689,-23.38692 25.1834,-25.10589 1.51116,-0.78799 4.38305,-1.33802 7.1805,-1.37522 3.91381,-0.052 5.26476,0.31059 8.41707,2.25937 8.19056,5.06349 10.88314,14.91235 6.23945,22.82251 -3.05968,5.21192 -20.71218,22.66107 -24.61385,24.33032 -4.08604,1.74812 -7.16759,2.2128 -10.17424,1.53423 z"
   id="path5156"
   inkscape:connector-curvature="0" /><path
   style="fill:#ffb52f;fill-opacity:0.79104477;stroke-width:0.76703107"
   d="m 159.86777,402.34013 c -3.29419,-1.74228 -6.60824,-4.97492 -8.27995,-8.07655 -1.66245,-3.08444 -1.61735,-11.46123 0.0791,-14.6952 1.38563,-2.64142 18.38159,-20.07891 22.99467,-23.59203 7.42771,-5.65661 17.98813,-3.5398 23.51593,4.71371 4.26328,6.36548 3.7754,13.41336 -1.37723,19.89504 -4.87744,6.13552 -18.99774,19.68429 -22.43259,21.52461 -4.07889,2.18538 -10.60747,2.28913 -14.49993,0.23042 z"
   id="path5158"
   inkscape:connector-curvature="0" /><path
   style="fill:#ffb52f;fill-opacity:0.79104477;stroke-width:0.76703107"
   d="m 202.06411,443.00448 c -8.22634,-2.50234 -13.05203,-8.83844 -13.01771,-17.09217 0.0269,-6.47534 1.85148,-9.20569 14.26711,-21.34993 8.93411,-8.73881 12.097,-11.36156 14.5687,-12.08074 6.38168,-1.85684 11.89398,-0.6787 16.57635,3.54286 3.93099,3.54413 5.92354,7.84677 5.94523,12.83789 0.0278,6.40422 -2.53026,10.31133 -14.40034,21.99444 -9.35904,9.21163 -11.05108,10.55019 -14.70957,11.63664 -4.45703,1.3236 -6.23483,1.42203 -9.22977,0.51101 z"
   id="path5160"
   inkscape:connector-curvature="0" /><path
   style="fill:#ffb52f;fill-opacity:0.79104477;stroke-width:0.76703107"
   d="m 202.17605,442.83918 c -4.39867,-1.26262 -8.36844,-4.29796 -10.61128,-8.11352 -1.76808,-3.0079 -2.1517,-4.5594 -2.1517,-8.70224 0,-6.63446 1.64118,-9.14461 13.69873,-20.95188 12.14656,-11.89443 13.83493,-12.99936 19.97117,-13.06984 4.06138,-0.0466 5.3802,0.30265 8.55642,2.26622 8.27082,5.1131 10.88718,14.90515 6.1423,22.98828 -3.12061,5.31611 -20.46117,22.42647 -24.48018,24.1552 -4.27782,1.84006 -8.01732,2.31996 -11.12546,1.42778 z"
   id="path5162"
   inkscape:connector-curvature="0" /><path
   style="fill:#ffb52f;fill-opacity:0.79104477;stroke-width:0.76703107"
   d="m 203.09075,442.91631 c -6.85315,-1.43764 -12.55027,-7.36903 -13.64881,-14.21004 -1.23683,-7.70225 2.92171,-14.10269 18.05414,-27.7873 7.5378,-6.81661 9.04855,-7.84886 12.50356,-8.5433 6.98733,-1.40442 13.15189,1.24474 17.29646,7.43297 4.06523,6.06977 3.78808,13.03551 -0.76895,19.32631 -3.01689,4.16469 -17.86043,18.87095 -21.43418,21.23595 -3.20516,2.12107 -8.58559,3.26215 -12.00222,2.54541 z"
   id="path5164"
   inkscape:connector-curvature="0" /><path
   style="fill:#ffb52f;fill-opacity:0.79104477;stroke-width:0.76703107"
   d="m 202.64678,442.85921 c -9.2918,-2.09229 -15.37019,-11.99793 -12.86118,-20.95923 1.27327,-4.54766 7.19158,-11.58263 17.69989,-21.03948 7.50428,-6.7534 9.01981,-7.78221 12.49218,-8.48027 14.23437,-2.86156 25.13781,12.37348 17.80498,24.87834 -1.23691,2.10934 -6.50054,8.03317 -11.69695,13.16407 -11.65423,11.50732 -16.39491,14.0227 -23.43892,12.43657 z"
   id="path5166"
   inkscape:connector-curvature="0" /></svg>