<?xml version="1.0" encoding="UTF-8" standalone="no"?>
<svg
   xmlns:dc="http://purl.org/dc/elements/1.1/"
   xmlns:cc="http://creativecommons.org/ns#"
   xmlns:rdf="http://www.w3.org/1999/02/22-rdf-syntax-ns#"
   xmlns:svg="http://www.w3.org/2000/svg"
   xmlns="http://www.w3.org/2000/svg"
   xmlns:sodipodi="http://sodipodi.sourceforge.net/DTD/sodipodi-0.dtd"
   xmlns:inkscape="http://www.inkscape.org/namespaces/inkscape"
   id="FilledOutline"
   height="512"
   viewBox="0 0 512 512"
   width="512"
   version="1.1"
   sodipodi:docname="sell_2investigate.svg"
   inkscape:version="0.92.4 (5da689c313, 2019-01-14)">
  <metadata
     id="metadata2134">
    <rdf:RDF>
      <cc:Work
         rdf:about="">
        <dc:format>image/svg+xml</dc:format>
        <dc:type
           rdf:resource="http://purl.org/dc/dcmitype/StillImage" />
        <dc:title></dc:title>
      </cc:Work>
    </rdf:RDF>
  </metadata>
  <defs
     id="defs2132" />
  <sodipodi:namedview
     pagecolor="#ffffff"
     bordercolor="#666666"
     borderopacity="1"
     objecttolerance="10"
     gridtolerance="10"
     guidetolerance="10"
     inkscape:pageopacity="0"
     inkscape:pageshadow="2"
     inkscape:window-width="1920"
     inkscape:window-height="1001"
     id="namedview2130"
     showgrid="false"
     inkscape:zoom="1.3037281"
     inkscape:cx="300.7929"
     inkscape:cy="209.78975"
     inkscape:window-x="-9"
     inkscape:window-y="-9"
     inkscape:window-maximized="1"
     inkscape:current-layer="FilledOutline" />
  <path
     d="m80 24h248v48h-248z"
     fill="#d7e6eb"
     id="path2083" />
  <path
     d="m112 24 32 32h88l-32-32z"
     fill="#ccdce4"
     id="path2085" />
  <path
     d="m56 24 32 32h88l-32-32z"
     fill="#b4c2c9"
     id="path2087" />
  <path
     d="m24 456v-432h56l32 32h216v400z"
     fill="#ecae49"
     id="path2089" />
  <path
     d="m101.65 128.8h240v328h-240z"
     fill="#ccdce4"
     transform="matrix(.973 -.23 .23 .973 -61.393 58.819)"
     id="path2091" />
  <path
     d="m120.494 171.265h160v64h-160z"
     fill="#7a8a9a"
     transform="matrix(.973 -.23 .23 .973 -41.371 51.554)"
     id="path2093" />
  <circle
     cx="376"
     cy="216"
     fill="#0093ba"
     r="112"
     id="circle2095" />
  <path
     d="m392 352v120a16 16 0 0 1 -16 16 16 16 0 0 1 -16-16v-120z"
     fill="#ecae49"
     id="path2097" />
  <path
     d="m360 352h32v24h-32z"
     fill="#d7a145"
     id="path2099" />
  <rect
     fill="#d08b29"
     height="32"
     rx="16"
     width="64"
     x="344"
     y="328"
     id="rect2101" />
  <circle
     cx="376"
     cy="216"
     fill="#7fcbe5"
     r="80"
     id="circle2103" />
  <path
     d="m360 456h32a0 0 0 0 1 0 0v16a16 16 0 0 1 -16 16 16 16 0 0 1 -16-16v-16a0 0 0 0 1 0 0z"
     fill="#d08b29"
     id="path2105" />
  <path
     d="m376 128a88 88 0 1 0 88 88 88.1 88.1 0 0 0 -88-88zm0 160a72 72 0 1 1 72-72 72.081 72.081 0 0 1 -72 72z"
     id="path2107" />
  <path
     d="m496 216a120 120 0 1 0 -155.851 114.529 23.979 23.979 0 0 0 11.851 36.095v105.376a24 24 0 0 0 48 0v-105.376a23.979 23.979 0 0 0 11.851-36.1 120.215 120.215 0 0 0 84.149-114.524zm-112 152v80h-16v-80zm-8 112a8.009 8.009 0 0 1 -8-8v-8h16v8a8.009 8.009 0 0 1 -8 8zm16-144a8 8 0 0 1 0 16h-32a8 8 0 0 1 0-16zm-16-16a104 104 0 1 1 104-104 104.118 104.118 0 0 1 -104 104z"
     id="path2109" />
  <path
     d="m32 32h44.687l29.656 29.657a8 8 0 0 0 5.657 2.343h208v24h16v-64a8 8 0 0 0 -8-8h-304a8 8 0 0 0 -8 8v432a8 8 0 0 0 8 8h88v-16h-80zm67.314 0h41.372l16 16h-41.373zm64 0h33.372l16 16h-33.372zm156.686 16h-84.686l-16-16h100.686z"
     id="path2111" />
  <path
     d="m148.527 470.375-71.75-303.638 225.783-53.353-3.68-15.571-233.568 55.193a8 8 0 0 0 -5.945 9.625l75.433 319.209a8 8 0 0 0 9.625 5.945l193.415-45.705-3.68-15.57z"
     id="path2113" />
  <path
     d="m146.766 280.054h16v15.999h-16z"
     transform="matrix(.973 -.23 .23 .973 -62.098 43.314)"
     id="path2115" />
  <path
     d="m177.161 266.279h71.801v15.999h-71.801z"
     transform="matrix(.973 -.23 .23 .973 -57.37 56.355)"
     id="path2117" />
  <path
     d="m137.044 301.919h128.68v15.999h-128.68z"
     transform="matrix(.973 -.23 .23 .973 -65.88 54.625)"
     id="path2119" />
  <path
     d="m144.174 331.096h145.779v15.999h-145.779z"
     transform="matrix(.973 -.23 .23 .973 -72.17 59.013)"
     id="path2121" />
  <path
     d="m151.128 358.763h176v15.999h-176z"
     transform="matrix(.973 -.23 .23 .973 -77.935 64.822)"
     id="path2123" />
  <path
     d="m158.916 393.585h144v15.999h-144z"
     transform="matrix(.973 -.23 .23 .973 -86.16 63.864)"
     id="path2125" />
  <path
     d="m242.6 152.215-129.159 30.52a8 8 0 0 0 -5.945 9.625l14.718 62.285a7.987 7.987 0 0 0 9.625 5.945l110-25.993-3.68-15.571-102.216 24.154-11.043-46.713 121.373-28.682z"
     id="path2127" />
  <path
     style="fill:#ffb52f;fill-opacity:0.79104477;stroke-width:0.76703107"
     d="m 112.25666,451.4745 v -3.83516 H 72.371041 32.485425 V 240.15743 32.675524 h 22.059714 22.059715 l 14.56602,14.625189 c 8.011311,8.043853 15.498076,15.119715 16.637266,15.724137 1.7687,0.93843 17.36696,1.098948 106.7896,1.098948 h 104.71835 l 0.21124,12.08074 0.21124,12.08074 4.02691,0.231842 4.02691,0.231843 -0.0464,8.589015 -0.0465,8.589012 -5.9575,2.85424 c -3.27662,1.56983 -8.58305,4.56822 -11.79207,6.66309 l -5.83458,3.80886 -1.20101,-5.32079 c -0.66056,-2.92643 -1.74643,-7.73694 -2.41304,-10.69001 -0.75213,-3.331916 -1.59715,-5.369214 -2.227,-5.369214 -1.88468,0 -234.222084,55.108824 -235.722238,55.911684 -0.817593,0.43756 -2.07795,2.04189 -2.800791,3.56516 l -1.314259,2.7696 34.25063,145.10217 C 111.5255,385.02797 127.23131,451.44573 127.58947,452.8168 l 0.65119,2.49285 h -7.99201 -7.99199 z"
     id="path3926"
     inkscape:connector-curvature="0" />
  <path
     style="fill:#ffb52f;fill-opacity:0.79104477;stroke-width:0.76703107"
     d="m 368.44504,411.58888 v -36.05046 h 7.67031 7.67031 v 36.05046 36.05046 h -7.67031 -7.67031 z"
     id="path3928"
     inkscape:connector-curvature="0" />
  <path
     style="fill:#ffb52f;fill-opacity:0.79104477;stroke-width:0.76703107"
     d="m 354.98365,349.1909 c -2.90923,-2.90923 -3.34169,-5.3662 -1.55324,-8.82467 1.88364,-3.64257 3.66152,-3.9464 23.09245,-3.9464 h 17.97704 l 2.48751,2.2226 c 3.35615,2.99871 3.51646,7.48621 0.37959,10.62517 l -2.10793,2.10934 -18.81458,0.23011 -18.81458,0.23011 z"
     id="path3930"
     inkscape:connector-curvature="0" />
  <path
     style="fill:#ffb52f;fill-opacity:0.79104477;stroke-width:0.76703107"
     d="m 368.44504,372.08678 v -3.45164 h 7.67031 7.67031 v 3.45164 3.45164 h -7.67031 -7.67031 z"
     id="path3932"
     inkscape:connector-curvature="0" />
  <path
     style="fill:#ffb52f;fill-opacity:0.79104477;stroke-width:0.76703107"
     d="m 373.34492,479.13193 c -3.34239,-1.41037 -4.89988,-4.50498 -4.89988,-9.73564 v -4.88227 h 7.75687 7.75687 l -0.30385,5.37732 c -0.25195,4.45885 -0.62701,5.70029 -2.19589,7.26822 -2.13067,2.12937 -5.69104,2.99483 -8.11412,1.97237 z"
     id="path3934"
     inkscape:connector-curvature="0" />
  <path
     style="fill:#ffb52f;fill-opacity:0.79104477;stroke-width:0.76703107"
     d="m 285.70223,454.79925 c 0.68591,-0.18284 10.43679,-2.50311 21.66863,-5.15616 l 20.42153,-4.82371 v 5.24514 5.24513 l -21.66863,-0.089 c -11.91774,-0.0489 -21.10743,-0.23858 -20.42153,-0.42143 z"
     id="path3936"
     inkscape:connector-curvature="0" />
  <path
     style="fill:#ffffff;fill-opacity:1;stroke-width:0.76703107"
     d="M 112.9532,318.5781 C 93.297608,235.36936 77.269488,167.20995 77.335152,167.11274 c 0.220292,-0.32611 224.570298,-53.19568 224.778838,-52.97063 0.57575,0.62134 1.70475,5.97756 1.26334,5.99351 -1.12908,0.0408 -12.76493,10.77644 -17.49022,16.1371 -2.76573,3.1376 -7.06833,8.74958 -9.56133,12.47107 -2.84571,4.24798 -4.68713,6.364 -4.94755,5.68534 -0.33996,-0.88592 -2.58863,-0.55383 -12.46122,1.84032 -6.62552,1.60672 -12.59258,2.93141 -13.26015,2.94375 -0.84376,0.0156 -1.42829,-1.08816 -1.91757,-3.62094 -0.58611,-3.03401 -0.95785,-3.59893 -2.22255,-3.37751 -0.83529,0.14624 -30.46596,7.10652 -65.84594,15.46728 -69.23301,16.36069 -67.47204,15.81988 -68.42977,21.01523 -0.50569,2.74315 14.30798,66.41721 16.08161,69.12411 0.59822,0.91301 2.19637,2.11925 3.55144,2.68054 2.29108,0.949 6.07191,0.16826 53.94335,-11.13922 28.31377,-6.68786 53.67385,-12.66134 56.35573,-13.2744 l 4.87614,-1.11466 -0.46405,-2.90202 c -0.25523,-1.59611 -0.6563,-3.40301 -0.89128,-4.01535 -0.331,-0.86257 1.23673,-1.49784 6.96062,-2.8205 4.06331,-0.93895 7.56391,-1.53112 7.77909,-1.31593 0.21519,0.21518 0.72315,3.0646 1.1288,6.33202 5.46085,43.98571 34.44644,81.63173 75.06507,97.49331 4.00774,1.56502 7.37727,2.89565 7.48786,2.95694 0.11058,0.0613 -0.56271,1.80432 -1.49621,3.87338 -2.58762,5.73533 -2.42764,13.8969 0.38508,19.6459 2.2777,4.65547 8.6156,11.03648 11.74103,11.82091 l 1.82505,0.45806 v 31.97417 31.97417 l -7.43591,1.6878 c -8.24881,1.87232 -8.24794,1.87262 -9.09575,-3.1455 -0.42957,-2.54266 -0.72953,-2.89848 -2.147,-2.54682 -4.21211,1.04499 -183.80762,43.43808 -183.99175,43.43081 -0.11512,-0.005 -16.29116,-68.08814 -35.94675,-151.29688 z m 119.88835,91.04256 c 38.49768,-9.09799 70.06619,-16.61223 70.15226,-16.69829 0.27893,-0.27893 -3.36062,-15.1176 -3.82085,-15.57782 -0.53475,-0.53475 -138.66383,31.92262 -139.69334,32.82494 -0.61193,0.53633 2.42125,15.99298 3.13843,15.99298 0.12525,0 31.72583,-7.44381 70.2235,-16.54181 z m 8.88202,-34.95102 c 46.70506,-11.0245 84.99063,-20.09988 85.07905,-20.1675 0.17112,-0.13086 -1.6245,-8.11034 -2.90395,-12.90485 -0.42218,-1.582 -1.22364,-2.87636 -1.78103,-2.87636 -1.13149,0 -170.22352,39.90348 -170.59335,40.25778 -0.26285,0.2518 2.91721,14.26098 3.44134,15.16021 0.18442,0.3164 0.67378,0.57528 1.08749,0.57528 0.4137,0 38.9654,-9.02005 85.67045,-20.04456 z m -21.47921,-27.82197 c 38.08896,-9.00051 69.39074,-16.50267 69.55953,-16.67145 0.34612,-0.34613 -3.02848,-15.08625 -3.58016,-15.63792 -0.19559,-0.19559 -32.25605,7.19364 -71.24546,16.42051 -64.11916,15.17385 -70.86673,16.91342 -70.64806,18.21361 0.13297,0.79062 0.93821,4.45707 1.78941,8.14766 1.42494,6.17814 1.67944,6.67775 3.20988,6.30116 0.91422,-0.22495 32.82592,-7.77306 70.91486,-16.77357 z m -17.03435,-28.83658 c 33.90674,-8.01548 61.82956,-14.57359 62.05073,-14.57359 0.78867,0 0.37821,-3.21904 -1.22611,-9.61565 -1.00304,-3.99926 -2.01285,-6.49201 -2.62991,-6.49201 -1.41606,0 -123.93433,28.9898 -124.37324,29.42872 -0.61468,0.61468 3.04821,15.82612 3.81091,15.82612 0.39547,0 28.4609,-6.55812 62.36762,-14.57359 z M 158.1533,295.74723 c 3.09513,-0.76532 5.79967,-1.56366 6.01011,-1.77409 0.68839,-0.6884 -3.04817,-15.84808 -3.90234,-15.8323 -1.11565,0.0206 -15.10059,3.62187 -15.3282,3.94715 -0.0986,0.14088 0.66483,3.78948 1.69647,8.108 2.13885,8.95344 0.65516,8.23872 11.52396,5.55124 z m 57.26904,-13.48706 c 18.98402,-4.48361 34.57394,-8.19732 34.64427,-8.25272 0.27529,-0.21683 -3.45051,-15.18443 -3.88892,-15.62284 -0.41634,-0.41634 -69.38049,15.5401 -70.04749,16.2071 -0.1498,0.1498 0.46341,3.33603 1.36267,7.08052 2.08216,8.66991 2.09971,8.72438 2.81373,8.73283 0.32964,0.004 16.13172,-3.6613 35.11574,-8.14489 z"
     id="path3938"
     inkscape:connector-curvature="0" />
  <path
     style="fill:#ffffff;fill-opacity:1;stroke-width:0.76703107"
     d="m 228.46187,40.345835 -7.64153,-7.670311 h 49.26735 49.26736 v 7.670311 7.670311 H 277.72922 236.1034 Z"
     id="path3940"
     inkscape:connector-curvature="0" />
  <path
     style="fill:#ffffff;fill-opacity:1;stroke-width:0.76703107"
     d="m 172.4686,40.345835 -7.64153,-7.670311 h 16.10765 16.10765 l 7.64153,7.670311 7.64153,7.670311 h -16.10765 -16.10765 z"
     id="path3942"
     inkscape:connector-curvature="0" />
  <path
     style="fill:#ffffff;fill-opacity:1;stroke-width:0.76703107"
     d="m 108.03799,40.345835 -7.64153,-7.670311 h 20.32632 20.32632 l 7.64153,7.670311 7.64153,7.670311 h -20.32632 -20.32632 z"
     id="path3944"
     inkscape:connector-curvature="0" />
  <path
     style="fill:#001232;fill-opacity:1;stroke-width:0.76703107"
     d="m 361.25322,286.07375 c -28.36715,-6.0832 -49.97192,-28.33416 -55.75417,-57.42178 -1.16084,-5.8396 -1.15134,-19.46223 0.0177,-25.37586 5.40617,-27.34753 25.16021,-48.87991 51.80634,-56.47016 8.32425,-2.37119 27.78564,-2.54544 35.98568,-0.32221 12.57588,3.40965 23.09619,9.30735 32.15956,18.0287 9.2182,8.87034 15.4816,19.208 19.44067,32.08659 1.89556,6.16615 2.07225,7.82002 2.07225,19.39692 0,11.57691 -0.17669,13.23078 -2.07225,19.39693 -4.03451,13.12396 -10.29767,23.3624 -19.83139,32.4185 -9.75114,9.26264 -21.88716,15.68209 -34.61869,18.31186 -7.31088,1.5101 -22.04946,1.48512 -29.2057,-0.0495 z"
     id="path3946"
     inkscape:connector-curvature="0" />
  <path
     style="fill:#ffffff;fill-opacity:0;stroke-width:0.76703107"
     d="m 136.03462,242.51618 c 0,-0.23607 -2.25244,-9.95107 -5.00543,-21.58889 -2.75299,-11.63781 -5.08285,-21.86005 -5.17746,-22.71608 -0.18927,-1.7124 -5.45143,-0.36806 84.06981,-21.47747 l 36.68593,-8.65066 -0.40663,-2.03314 c -0.22365,-1.11822 -0.62331,-2.89646 -0.88814,-3.95163 -0.47741,-1.90214 -0.38123,-1.94222 11.27663,-4.69967 12.64131,-2.99006 14.17116,-3.19648 14.58084,-1.96741 0.14626,0.43878 -1.32836,4.04411 -3.27693,8.01186 -7.34536,14.95685 -11.21317,30.51959 -11.9557,48.10553 l -0.47613,11.27681 -6.88418,1.61622 c -3.78631,0.88891 -7.32436,1.4473 -7.86236,1.24085 -0.53799,-0.20645 -1.21549,-1.78005 -1.50555,-3.49689 -0.31074,-1.83929 -0.9505,-3.12153 -1.55745,-3.12153 -0.91043,0 -96.88087,22.47464 -100.27494,23.48268 -0.73827,0.21926 -1.34231,0.2055 -1.34231,-0.0306 z"
     id="path3948"
     inkscape:connector-curvature="0" />
  <path
     style="fill:#ffffff;fill-opacity:0;stroke-width:0.76703107"
     d="m 136.03462,242.51618 c 0,-0.23607 -2.25244,-9.95107 -5.00543,-21.58889 -2.75299,-11.63781 -5.08285,-21.86005 -5.17746,-22.71608 -0.18927,-1.7124 -5.45143,-0.36806 84.06981,-21.47747 l 36.68593,-8.65066 -0.40663,-2.03314 c -0.22365,-1.11822 -0.62331,-2.89646 -0.88814,-3.95163 -0.47741,-1.90214 -0.38123,-1.94222 11.27663,-4.69967 12.64131,-2.99006 14.17116,-3.19648 14.58084,-1.96741 0.14626,0.43878 -1.32836,4.04411 -3.27693,8.01186 -7.34536,14.95685 -11.21317,30.51959 -11.9557,48.10553 l -0.47613,11.27681 -6.88418,1.61622 c -3.78631,0.88891 -7.32436,1.4473 -7.86236,1.24085 -0.53799,-0.20645 -1.21549,-1.78005 -1.50555,-3.49689 -0.31074,-1.83929 -0.9505,-3.12153 -1.55745,-3.12153 -0.91043,0 -96.88087,22.47464 -100.27494,23.48268 -0.73827,0.21926 -1.34231,0.2055 -1.34231,-0.0306 z"
     id="path3950"
     inkscape:connector-curvature="0" />
  <path
     style="fill:#ffffff;fill-opacity:0;stroke-width:0.76703107"
     d="m 358.69769,285.02936 c -24.99299,-6.55027 -43.57658,-24.79006 -51.34786,-50.39791 -1.84026,-6.064 -2.04739,-7.94927 -2.04739,-18.6355 0,-10.68393 0.20736,-12.57223 2.04576,-18.62989 7.50801,-24.73938 25.03775,-42.41914 49.59137,-50.0158 5.60757,-1.73493 25.39332,-2.46521 32.63306,-1.20446 13.31386,2.31851 25.93722,9.28675 36.78326,20.30479 8.66507,8.80249 12.63429,15.0806 17.08805,27.02812 l 2.81824,7.56014 v 14.9571 14.95711 l -2.81824,7.56014 c -5.37659,14.42308 -13.55847,25.63953 -25.08352,34.38676 -6.49706,4.9311 -17.21928,10.14266 -24.91781,12.11134 -8.34117,2.13302 -26.63887,2.14253 -34.74492,0.0181 z"
     id="path3952"
     inkscape:connector-curvature="0" />
  <path
     style="fill:#ffffff;fill-opacity:1;stroke-width:0.76703107"
     d="m 358.69769,285.02936 c -24.99299,-6.55027 -43.57658,-24.79006 -51.34786,-50.39791 -1.84026,-6.064 -2.04739,-7.94927 -2.04739,-18.6355 0,-10.68393 0.20736,-12.57223 2.04576,-18.62989 7.50801,-24.73938 25.03775,-42.41914 49.59137,-50.0158 5.60757,-1.73493 25.39332,-2.46521 32.63306,-1.20446 13.31386,2.31851 25.93722,9.28675 36.78326,20.30479 8.66507,8.80249 12.63429,15.0806 17.08805,27.02812 l 2.81824,7.56014 v 14.9571 14.95711 l -2.81824,7.56014 c -5.37659,14.42308 -13.55847,25.63953 -25.08352,34.38676 -6.49706,4.9311 -17.21928,10.14266 -24.91781,12.11134 -8.34117,2.13302 -26.63887,2.14253 -34.74492,0.0181 z"
     id="path3954"
     inkscape:connector-curvature="0" />
  <path
     style="fill:#ffffff;fill-opacity:1;stroke-width:0.76703107"
     d="m 136.03462,242.51618 c 0,-0.23607 -2.25244,-9.95107 -5.00543,-21.58889 -2.75299,-11.63781 -5.08285,-21.86005 -5.17746,-22.71608 -0.18927,-1.7124 -5.45143,-0.36806 84.06981,-21.47747 l 36.68593,-8.65066 -0.40663,-2.03314 c -0.22365,-1.11822 -0.62331,-2.89646 -0.88814,-3.95163 -0.47741,-1.90214 -0.38123,-1.94222 11.27663,-4.69967 12.64131,-2.99006 14.17116,-3.19648 14.58084,-1.96741 0.14626,0.43878 -1.32836,4.04411 -3.27693,8.01186 -7.34536,14.95685 -11.21317,30.51959 -11.9557,48.10553 l -0.47613,11.27681 -6.88418,1.61622 c -3.78631,0.88891 -7.32436,1.4473 -7.86236,1.24085 -0.53799,-0.20645 -1.21549,-1.78005 -1.50555,-3.49689 -0.31074,-1.83929 -0.9505,-3.12153 -1.55745,-3.12153 -0.91043,0 -96.88087,22.47464 -100.27494,23.48268 -0.73827,0.21926 -1.34231,0.2055 -1.34231,-0.0306 z"
     id="path3956"
     inkscape:connector-curvature="0" />
</svg>
