<?xml version="1.0" encoding="UTF-8" standalone="no"?>
<!-- Generator: Adobe Illustrator 19.0.0, SVG Export Plug-In . SVG Version: 6.00 Build 0)  -->

<svg
   xmlns:dc="http://purl.org/dc/elements/1.1/"
   xmlns:cc="http://creativecommons.org/ns#"
   xmlns:rdf="http://www.w3.org/1999/02/22-rdf-syntax-ns#"
   xmlns:svg="http://www.w3.org/2000/svg"
   xmlns="http://www.w3.org/2000/svg"
   xmlns:sodipodi="http://sodipodi.sourceforge.net/DTD/sodipodi-0.dtd"
   xmlns:inkscape="http://www.inkscape.org/namespaces/inkscape"
   version="1.1"
   id="Layer_1"
   x="0px"
   y="0px"
   viewBox="0 0 512 512"
   style="enable-background:new 0 0 512 512;"
   xml:space="preserve"
   sodipodi:docname="truck.svg"
   inkscape:version="0.92.4 (5da689c313, 2019-01-14)"><metadata
   id="metadata5920"><rdf:RDF><cc:Work
       rdf:about=""><dc:format>image/svg+xml</dc:format><dc:type
         rdf:resource="http://purl.org/dc/dcmitype/StillImage" /><dc:title></dc:title></cc:Work></rdf:RDF></metadata><defs
   id="defs5918" /><sodipodi:namedview
   pagecolor="#ffffff"
   bordercolor="#666666"
   borderopacity="1"
   objecttolerance="10"
   gridtolerance="10"
   guidetolerance="10"
   inkscape:pageopacity="0"
   inkscape:pageshadow="2"
   inkscape:window-width="1920"
   inkscape:window-height="1001"
   id="namedview5916"
   showgrid="false"
   inkscape:zoom="0.4609375"
   inkscape:cx="-100.88136"
   inkscape:cy="169.22034"
   inkscape:window-x="-9"
   inkscape:window-y="-9"
   inkscape:window-maximized="1"
   inkscape:current-layer="Layer_1" />
<path
   style="fill:#FFDC64;"
   d="M477.288,238.644H373.153v121.492h130.169c4.792,0,8.678-3.886,8.678-8.678v-78.102  C512,254.185,496.459,238.644,477.288,238.644z"
   id="path5847" />
<path
   style="fill:#FFC850;"
   d="M373.153,256h104.136c9.586,0,17.356,7.77,17.356,17.356v86.78H373.153V256z"
   id="path5849" />
<path
   style="fill:#E1A546;"
   d="M493.954,360.136c-4.221-29.427-29.462-52.068-60.056-52.068s-55.835,22.641-60.056,52.068H493.954z"
   id="path5851" />
<path
   style="fill:#FFDC64;"
   d="M442.576,134.508h-69.424v34.712h91.119c2.396,0,4.339-1.943,4.339-4.339v-4.339  C468.61,146.164,456.955,134.508,442.576,134.508z"
   id="path5853" />
<path
   style="fill:#B4E66E;"
   d="M364.475,99.797H52.068c-4.792,0-8.678,3.886-8.678,8.678v173.559H26.034  c-4.797,0-8.678,3.886-8.678,8.678c0,4.792,3.881,8.678,8.678,8.678h52.068c4.797,0,8.678,3.886,8.678,8.678  c0,4.792-3.881,8.678-8.678,8.678H43.39v34.712c0,4.792,3.886,8.678,8.678,8.678h321.085V108.475  C373.153,103.682,369.267,99.797,364.475,99.797z"
   id="path5855" />
<path
   style="fill:#A0D755;"
   d="M178.501,316.746c-9.087-5.427-19.619-8.678-30.976-8.678c-11.357,0-21.889,3.251-30.976,8.678H8.678  c-4.797,0-8.678,3.886-8.678,8.678c0,4.792,3.881,8.678,8.678,8.678H43.39v17.356c0,4.792,3.886,8.678,8.678,8.678h321.085v-43.39  H178.501z"
   id="path5857" />
<g
   id="g5863">
	<circle
   style="fill:#5B5D6E;"
   cx="433.898"
   cy="368.814"
   r="43.39"
   id="circle5859" />
	<circle
   style="fill:#5B5D6E;"
   cx="147.525"
   cy="368.814"
   r="43.39"
   id="circle5861" />
</g>
<polygon
   style="fill:#B4E6FF;"
   points="477.288,238.644 459.932,169.22 373.153,169.22 373.153,238.644 "
   id="polygon5865" />
<circle
   style="fill:#C7CFE2;"
   cx="147.525"
   cy="368.814"
   r="26.034"
   id="circle5867" />
<circle
   style="fill:#7F8499;"
   cx="147.525"
   cy="368.814"
   r="8.678"
   id="circle5869" />
<circle
   style="fill:#C7CFE2;"
   cx="433.898"
   cy="368.814"
   r="26.034"
   id="circle5871" />
<circle
   style="fill:#7F8499;"
   cx="433.898"
   cy="368.814"
   r="8.678"
   id="circle5873" />
<path
   style="fill:#9BD6FF;"
   d="M407.864,186.576h56.407l-4.339-17.356h-86.78v69.424h26.034v-43.39  C399.186,190.462,403.072,186.576,407.864,186.576z"
   id="path5875" />
<path
   style="fill:#FFC850;"
   d="M373.153,151.864h69.424c4.792,0,8.678,3.886,8.678,8.678v8.678h-78.102V151.864z"
   id="path5877" />
<rect
   x="485.966"
   y="273.356"
   style="fill:#F1F4FB;"
   width="26.034"
   height="34.712"
   id="rect5879" />
<path
   style="fill:#FF8C66;"
   d="M468.61,273.356v17.356c0,9.585,7.771,17.356,17.356,17.356h8.678v-34.712H468.61z"
   id="path5881" />
<path
   style="fill:#FFFFFF;"
   d="M199.593,266.847c-2.78,0-5.551-1.06-7.669-3.178l-52.068-52.068c-4.237-4.237-4.237-11.101,0-15.339  c4.237-4.238,11.101-4.237,15.339,0l44.399,44.399l79.11-79.11c4.237-4.237,11.101-4.237,15.339,0  c4.238,4.237,4.237,11.101,0,15.339l-86.78,86.78C205.144,265.788,202.373,266.847,199.593,266.847z"
   id="path5883" />
<g
   id="g5885">
</g>
<g
   id="g5887">
</g>
<g
   id="g5889">
</g>
<g
   id="g5891">
</g>
<g
   id="g5893">
</g>
<g
   id="g5895">
</g>
<g
   id="g5897">
</g>
<g
   id="g5899">
</g>
<g
   id="g5901">
</g>
<g
   id="g5903">
</g>
<g
   id="g5905">
</g>
<g
   id="g5907">
</g>
<g
   id="g5909">
</g>
<g
   id="g5911">
</g>
<g
   id="g5913">
</g>
<path
   style="fill:#000810;fill-opacity:1;stroke-width:2.16949153"
   d="m 85.694915,313.27458 c 3.535744,-3.53575 3.270693,-7.26684 -0.805812,-11.34334 -2.750583,-2.75059 -8.932603,-3.41562 -32,-3.44243 -15.724939,-0.0182 -29.896553,-0.86088 -31.492476,-1.87246 -1.595923,-1.01159 -2.572194,-4.16952 -2.169491,-7.01763 0.661672,-4.67967 1.931275,-5.24097 13.183046,-5.82831 l 12.450859,-0.64993 0.56609,-90.46872 0.566089,-90.46871 160.30313,-0.55644 c 116.61949,-0.40481 161.10732,0.11098 163.25423,1.89276 2.41408,2.0035 2.95111,21.54887 2.95111,107.4039 v 104.9547 h -97.36218 c -84.89241,0 -98.43807,-0.45062 -105.7627,-3.51832 -10.77852,-4.51426 -32.05646,-4.51426 -42.83498,0 -10.38716,4.35036 -45.058954,5.12697 -40.846915,0.91493 z M 250.35947,222.10714 c 25.42321,-25.32311 46.76309,-47.74047 47.42196,-49.81636 1.75612,-5.53302 -2.69006,-12.36001 -9.09683,-13.96801 -5.024,-1.26095 -9.79963,2.80227 -47.15339,40.11919 l -41.56324,41.52224 -22.75009,-22.86432 c -12.51255,-12.57537 -24.98603,-23.43421 -27.71886,-24.13075 -6.11045,-1.55743 -13.4719,4.49371 -13.4719,11.07394 0,5.88056 58.18229,64.10608 64.05848,64.10608 2.3742,0 23.17526,-19.0501 50.27387,-46.04201 z"
   id="path6465"
   inkscape:connector-curvature="0" /><path
   style="fill:#001232;fill-opacity:1;stroke-width:2.16949153"
   d="m 45.994665,356.55593 c -0.520916,-1.49152 -1.22248,-7.10508 -1.559029,-12.47457 L 43.823729,334.31864 27.552542,333.7697 C 3.7220703,332.96572 1.1111172,332.07459 1.924216,325.02264 l 0.6791738,-5.89044 55.3220342,-1.46837 c 40.389339,-1.07203 59.917686,-2.4985 72.347806,-5.28471 15.22176,-3.41195 18.32507,-3.49197 29.28814,-0.7552 9.45173,2.35948 35.26084,3.21215 112.60134,3.72004 l 100.33898,0.65893 v 21.63246 21.63245 h -90.9064 -90.90642 l -2.15091,-6.17011 c -3.43889,-9.8648 -15.03973,-21.44918 -25.46783,-25.43171 -20.36572,-7.77774 -44.48646,1.54471 -53.45132,20.65845 l -5.04932,10.76551 -28.813851,0.0889 c -21.165646,0.0653 -29.06525,-0.6309 -29.760974,-2.62294 z"
   id="path6467"
   inkscape:connector-curvature="0" /></svg>